<svg viewBox="0 0 1180 576" xmlns="http://www.w3.org/2000/svg" font-family="-apple-system, BlinkMacSystemFont, 'Segoe UI', 'Inter', Helvetica, Arial, sans-serif"><defs><marker id="bl" markerWidth="8.5" markerHeight="8.5" refX="6.5" refY="4.2" orient="auto"><path d="M0,0 L0,8.4 L7.5,4.2 z" fill="#1d6fd6"/></marker><marker id="or" markerWidth="8.5" markerHeight="8.5" refX="6.5" refY="4.2" orient="auto"><path d="M0,0 L0,8.4 L7.5,4.2 z" fill="#e2622f"/></marker><marker id="te" markerWidth="8.5" markerHeight="8.5" refX="6.5" refY="4.2" orient="auto"><path d="M0,0 L0,8.4 L7.5,4.2 z" fill="#0d9488"/></marker><marker id="pu" markerWidth="8.5" markerHeight="8.5" refX="6.5" refY="4.2" orient="auto"><path d="M0,0 L0,8.4 L7.5,4.2 z" fill="#7c4dd6"/></marker><marker id="mu" markerWidth="8.5" markerHeight="8.5" refX="6.5" refY="4.2" orient="auto"><path d="M0,0 L0,8.4 L7.5,4.2 z" fill="#64748b"/></marker></defs><line x1="586" y1="20" x2="586" y2="556" stroke="#e2e8f0" stroke-width="1.4"/><text x="24" y="34" fill="#64748b" font-size="12.5" font-weight="500" text-anchor="start" font-family="-apple-system, BlinkMacSystemFont, 'Segoe UI', 'Inter', Helvetica, Arial, sans-serif">THE CODE</text><rect x="20" y="46" width="548" height="104" rx="12" fill="#f4f7fb"/><rect x="20" y="46" width="6" height="104" rx="3" fill="#1d6fd6"/><circle cx="58" cy="98.0" r="17" fill="#1d6fd6"/><text x="58" y="104.0" fill="#fff" font-size="17" font-weight="600" text-anchor="middle" font-family="-apple-system, BlinkMacSystemFont, 'Segoe UI', 'Inter', Helvetica, Arial, sans-serif">1</text><text x="84" y="92.0" fill="#0f172a" font-size="15" font-weight="500" text-anchor="start" font-family="-apple-system, BlinkMacSystemFont, 'Segoe UI', 'Inter', Helvetica, Arial, sans-serif">Fit each subject</text><text x="84" y="111.0" font-family="'SF Mono', Menlo, Consolas, 'DejaVu Sans Mono', monospace" font-size="11" fill="#94a3b8">src/fitting.py</text><rect x="214" y="75.0" width="342" height="38" rx="7" fill="#ffffff" stroke="#e2e8f0"/><text x="230" y="99.0" font-family="'SF Mono', Menlo, Consolas, 'DejaVu Sans Mono', monospace" font-size="12.5"><tspan fill="#334155">tau = </tspan><tspan fill="#1d6fd6" font-weight="700">invert_peak_curve</tspan><tspan fill="#334155">(</tspan><tspan fill="#e2622f">alpha_peak</tspan><tspan fill="#334155">, ...)</tspan></text><text x="216" y="130.0" fill="#64748b" font-size="11.5" font-weight="400" text-anchor="start" font-family="-apple-system, BlinkMacSystemFont, 'Segoe UI', 'Inter', Helvetica, Arial, sans-serif">tau from each subject's alpha peak</text><rect x="20" y="158" width="548" height="104" rx="12" fill="#f4f7fb"/><rect x="20" y="158" width="6" height="104" rx="3" fill="#e2622f"/><circle cx="58" cy="210.0" r="17" fill="#e2622f"/><text x="58" y="216.0" fill="#fff" font-size="17" font-weight="600" text-anchor="middle" font-family="-apple-system, BlinkMacSystemFont, 'Segoe UI', 'Inter', Helvetica, Arial, sans-serif">2</text><text x="84" y="204.0" fill="#0f172a" font-size="15" font-weight="500" text-anchor="start" font-family="-apple-system, BlinkMacSystemFont, 'Segoe UI', 'Inter', Helvetica, Arial, sans-serif">Build the model</text><text x="84" y="223.0" font-family="'SF Mono', Menlo, Consolas, 'DejaVu Sans Mono', monospace" font-size="11" fill="#94a3b8">src/model.py</text><rect x="214" y="187.0" width="342" height="38" rx="7" fill="#ffffff" stroke="#e2e8f0"/><text x="230" y="211.0" font-family="'SF Mono', Menlo, Consolas, 'DejaVu Sans Mono', monospace" font-size="12.5"><tspan fill="#334155">model = </tspan><tspan fill="#1d6fd6" font-weight="700">build_network</tspan><tspan fill="#334155">(..., </tspan><tspan fill="#e2622f" font-weight="700">tau_inh=tau</tspan><tspan fill="#334155">)</tspan></text><text x="216" y="242.0" fill="#64748b" font-size="11.5" font-weight="400" text-anchor="start" font-family="-apple-system, BlinkMacSystemFont, 'Segoe UI', 'Inter', Helvetica, Arial, sans-serif">one number = healthy vs patient</text><rect x="20" y="270" width="548" height="104" rx="12" fill="#f4f7fb"/><rect x="20" y="270" width="6" height="104" rx="3" fill="#0d9488"/><circle cx="58" cy="322.0" r="17" fill="#0d9488"/><text x="58" y="328.0" fill="#fff" font-size="17" font-weight="600" text-anchor="middle" font-family="-apple-system, BlinkMacSystemFont, 'Segoe UI', 'Inter', Helvetica, Arial, sans-serif">3</text><text x="84" y="316.0" fill="#0f172a" font-size="15" font-weight="500" text-anchor="start" font-family="-apple-system, BlinkMacSystemFont, 'Segoe UI', 'Inter', Helvetica, Arial, sans-serif">Compare groups</text><text x="84" y="335.0" font-family="'SF Mono', Menlo, Consolas, 'DejaVu Sans Mono', monospace" font-size="11" fill="#94a3b8">src/stats.py</text><rect x="214" y="299.0" width="342" height="38" rx="7" fill="#ffffff" stroke="#e2e8f0"/><text x="230" y="323.0" font-family="'SF Mono', Menlo, Consolas, 'DejaVu Sans Mono', monospace" font-size="12.5"><tspan fill="#334155">compare_groups(..., </tspan><tspan fill="#0d9488" font-weight="700">alternative="less"</tspan><tspan fill="#334155">)</tspan></text><text x="216" y="354.0" fill="#64748b" font-size="11.5" font-weight="400" text-anchor="start" font-family="-apple-system, BlinkMacSystemFont, 'Segoe UI', 'Inter', Helvetica, Arial, sans-serif">one-sided test: PD tau higher</text><text x="24" y="408" fill="#64748b" font-size="12" font-weight="500" text-anchor="start" font-family="-apple-system, BlinkMacSystemFont, 'Segoe UI', 'Inter', Helvetica, Arial, sans-serif">one command, the actual result</text><rect x="20" y="418" width="548" height="140" rx="10" fill="#0f172a"/><rect x="20" y="418" width="548" height="28" rx="10" fill="#1e293b"/><rect x="20" y="434" width="548" height="12" fill="#1e293b"/><circle cx="38" cy="432" r="4.6" fill="#ef4444"/><circle cx="55" cy="432" r="4.6" fill="#f59e0b"/><circle cx="72" cy="432" r="4.6" fill="#22c55e"/><text x="554" y="436" fill="#94a3b8" font-size="10.5" font-weight="400" text-anchor="end" font-family="'SF Mono', Menlo, Consolas, 'DejaVu Sans Mono', monospace">bash</text><text x="36" y="466" font-family="'SF Mono', Menlo, Consolas, 'DejaVu Sans Mono', monospace" font-size="12"><tspan fill="#16a34a">$ </tspan><tspan fill="#e2e8f0">python scripts/05_compare_tau.py</tspan></text><text x="36" y="488" font-family="'SF Mono', Menlo, Consolas, 'DejaVu Sans Mono', monospace" font-size="12"><tspan fill="#16a34a">  </tspan><tspan fill="#86efac">PD vs Control:  +3.25 ms,  p = 0.0002</tspan></text><text x="36" y="510" font-family="'SF Mono', Menlo, Consolas, 'DejaVu Sans Mono', monospace" font-size="12"><tspan fill="#16a34a">$ </tspan><tspan fill="#e2e8f0">python scripts/06_recover_tau.py</tspan></text><text x="36" y="532" font-family="'SF Mono', Menlo, Consolas, 'DejaVu Sans Mono', monospace" font-size="12"><tspan fill="#16a34a">  </tspan><tspan fill="#86efac">unbiased,  recovery error 0.5 ms</tspan></text><text x="612" y="34" fill="#64748b" font-size="12.5" font-weight="500" text-anchor="start" font-family="-apple-system, BlinkMacSystemFont, 'Segoe UI', 'Inter', Helvetica, Arial, sans-serif">THE REPOSITORY</text><rect x="612" y="52" width="266" height="56" rx="10" fill="#ffffff" stroke="#e2e8f0"/><rect x="612" y="52" width="5" height="56" rx="2.5" fill="#1d6fd6"/><text x="630" y="86" fill="#1d6fd6" font-size="22" font-weight="500" text-anchor="start" font-family="-apple-system, BlinkMacSystemFont, 'Segoe UI', 'Inter', Helvetica, Arial, sans-serif">6</text><text x="630" y="101" fill="#64748b" font-size="12" font-weight="400" text-anchor="start" font-family="-apple-system, BlinkMacSystemFont, 'Segoe UI', 'Inter', Helvetica, Arial, sans-serif">pipeline steps</text><rect x="890" y="52" width="266" height="56" rx="10" fill="#ffffff" stroke="#e2e8f0"/><rect x="890" y="52" width="5" height="56" rx="2.5" fill="#0d9488"/><text x="908" y="86" fill="#0d9488" font-size="22" font-weight="500" text-anchor="start" font-family="-apple-system, BlinkMacSystemFont, 'Segoe UI', 'Inter', Helvetica, Arial, sans-serif">4</text><text x="908" y="101" fill="#64748b" font-size="12" font-weight="400" text-anchor="start" font-family="-apple-system, BlinkMacSystemFont, 'Segoe UI', 'Inter', Helvetica, Arial, sans-serif">modules</text><rect x="612" y="116" width="266" height="56" rx="10" fill="#ffffff" stroke="#e2e8f0"/><rect x="612" y="116" width="5" height="56" rx="2.5" fill="#e2622f"/><text x="630" y="150" fill="#e2622f" font-size="22" font-weight="500" text-anchor="start" font-family="-apple-system, BlinkMacSystemFont, 'Segoe UI', 'Inter', Helvetica, Arial, sans-serif">46</text><text x="630" y="165" fill="#64748b" font-size="12" font-weight="400" text-anchor="start" font-family="-apple-system, BlinkMacSystemFont, 'Segoe UI', 'Inter', Helvetica, Arial, sans-serif">commits</text><rect x="890" y="116" width="266" height="56" rx="10" fill="#ffffff" stroke="#e2e8f0"/><rect x="890" y="116" width="5" height="56" rx="2.5" fill="#7c4dd6"/><text x="908" y="150" fill="#7c4dd6" font-size="22" font-weight="500" text-anchor="start" font-family="-apple-system, BlinkMacSystemFont, 'Segoe UI', 'Inter', Helvetica, Arial, sans-serif">149</text><text x="908" y="165" fill="#64748b" font-size="12" font-weight="400" text-anchor="start" font-family="-apple-system, BlinkMacSystemFont, 'Segoe UI', 'Inter', Helvetica, Arial, sans-serif">subjects</text><text x="612" y="212" fill="#64748b" font-size="12.5" font-weight="500" text-anchor="start" font-family="-apple-system, BlinkMacSystemFont, 'Segoe UI', 'Inter', Helvetica, Arial, sans-serif">Everyone merges into main</text><rect x="612" y="248" width="150" height="28" rx="14" fill="#ffffff" stroke="#e2e8f0"/><rect x="612" y="248" width="5" height="28" rx="2.5" fill="#1d6fd6"/><circle cx="636" cy="262" r="5" fill="#1d6fd6"/><text x="650" y="266" fill="#1d6fd6" font-size="13" font-weight="500" text-anchor="start" font-family="-apple-system, BlinkMacSystemFont, 'Segoe UI', 'Inter', Helvetica, Arial, sans-serif">ruizhao</text><rect x="612" y="290" width="150" height="28" rx="14" fill="#ffffff" stroke="#e2e8f0"/><rect x="612" y="290" width="5" height="28" rx="2.5" fill="#e2622f"/><circle cx="636" cy="304" r="5" fill="#e2622f"/><text x="650" y="308" fill="#e2622f" font-size="13" font-weight="500" text-anchor="start" font-family="-apple-system, BlinkMacSystemFont, 'Segoe UI', 'Inter', Helvetica, Arial, sans-serif">melissa</text><rect x="612" y="332" width="150" height="28" rx="14" fill="#ffffff" stroke="#e2e8f0"/><rect x="612" y="332" width="5" height="28" rx="2.5" fill="#0d9488"/><circle cx="636" cy="346" r="5" fill="#0d9488"/><text x="650" y="350" fill="#0d9488" font-size="13" font-weight="500" text-anchor="start" font-family="-apple-system, BlinkMacSystemFont, 'Segoe UI', 'Inter', Helvetica, Arial, sans-serif">jan</text><rect x="612" y="374" width="150" height="28" rx="14" fill="#ffffff" stroke="#e2e8f0"/><rect x="612" y="374" width="5" height="28" rx="2.5" fill="#7c4dd6"/><circle cx="636" cy="388" r="5" fill="#7c4dd6"/><text x="650" y="392" fill="#7c4dd6" font-size="13" font-weight="500" text-anchor="start" font-family="-apple-system, BlinkMacSystemFont, 'Segoe UI', 'Inter', Helvetica, Arial, sans-serif">friedrich</text><rect x="850" y="277.0" width="120" height="96" rx="12" fill="#0f172a"/><text x="910.0" y="323" fill="#ffffff" font-size="20" font-weight="600" text-anchor="middle" font-family="-apple-system, BlinkMacSystemFont, 'Segoe UI', 'Inter', Helvetica, Arial, sans-serif">main</text><text x="910.0" y="345" fill="#94a3b8" font-size="11.5" font-weight="400" text-anchor="middle" font-family="-apple-system, BlinkMacSystemFont, 'Segoe UI', 'Inter', Helvetica, Arial, sans-serif">the trunk</text><path d="M762 262 C 822 262 790 305 847 305" fill="none" stroke="#1d6fd6" stroke-width="2.3" marker-end="url(#bl)"/><path d="M762 304 C 822 304 790 318 847 318" fill="none" stroke="#e2622f" stroke-width="2.3" marker-end="url(#or)"/><path d="M762 346 C 822 346 790 331 847 331" fill="none" stroke="#0d9488" stroke-width="2.3" marker-end="url(#te)"/><path d="M762 388 C 822 388 790 344 847 344" fill="none" stroke="#7c4dd6" stroke-width="2.3" marker-end="url(#pu)"/><line x1="970" y1="325" x2="1010" y2="325" stroke="#64748b" stroke-width="1.9" marker-end="url(#mu)"/><rect x="1014" y="297" width="150" height="56" rx="10" fill="#f4f7fb" stroke="#e2e8f0"/><text x="1089" y="322" fill="#334155" font-size="13" font-weight="500" text-anchor="middle" font-family="-apple-system, BlinkMacSystemFont, 'Segoe UI', 'Inter', Helvetica, Arial, sans-serif">results + deck</text><text x="1089" y="341" fill="#94a3b8" font-size="11" font-weight="400" text-anchor="middle" font-family="-apple-system, BlinkMacSystemFont, 'Segoe UI', 'Inter', Helvetica, Arial, sans-serif">reproducible</text></svg>