<svg viewBox="0 0 1180 580" xmlns="http://www.w3.org/2000/svg" font-family="-apple-system, BlinkMacSystemFont, 'Segoe UI', 'Inter', Helvetica, Arial, sans-serif"><defs><marker id="bl" markerWidth="8.5" markerHeight="8.5" refX="6.5" refY="4.2" orient="auto"><path d="M0,0 L0,8.4 L7.5,4.2 z" fill="#1d6fd6"/></marker><marker id="or" markerWidth="8.5" markerHeight="8.5" refX="6.5" refY="4.2" orient="auto"><path d="M0,0 L0,8.4 L7.5,4.2 z" fill="#e2622f"/></marker><marker id="te" markerWidth="8.5" markerHeight="8.5" refX="6.5" refY="4.2" orient="auto"><path d="M0,0 L0,8.4 L7.5,4.2 z" fill="#0d9488"/></marker><marker id="pu" markerWidth="8.5" markerHeight="8.5" refX="6.5" refY="4.2" orient="auto"><path d="M0,0 L0,8.4 L7.5,4.2 z" fill="#7c4dd6"/></marker><marker id="mu" markerWidth="8.5" markerHeight="8.5" refX="6.5" refY="4.2" orient="auto"><path d="M0,0 L0,8.4 L7.5,4.2 z" fill="#64748b"/></marker></defs><line x1="586" y1="20" x2="586" y2="560" stroke="#e2e8f0" stroke-width="1.4"/><text x="24" y="34" fill="#64748b" font-size="12.5" font-weight="500" text-anchor="start" font-family="-apple-system, BlinkMacSystemFont, 'Segoe UI', 'Inter', Helvetica, Arial, sans-serif">THE CODE</text><rect x="20" y="46" width="548" height="104" rx="12" fill="#f4f7fb"/><rect x="20" y="46" width="6" height="104" rx="3" fill="#1d6fd6"/><circle cx="58" cy="98.0" r="17" fill="#1d6fd6"/><text x="58" y="104.0" fill="#fff" font-size="17" font-weight="600" text-anchor="middle" font-family="-apple-system, BlinkMacSystemFont, 'Segoe UI', 'Inter', Helvetica, Arial, sans-serif">1</text><text x="84" y="92.0" fill="#0f172a" font-size="15" font-weight="500" text-anchor="start" font-family="-apple-system, BlinkMacSystemFont, 'Segoe UI', 'Inter', Helvetica, Arial, sans-serif">Fit each subject</text><text x="84" y="111.0" font-family="'SF Mono', Menlo, Consolas, 'DejaVu Sans Mono', monospace" font-size="11" fill="#94a3b8">src/fitting.py</text><rect x="214" y="75.0" width="342" height="38" rx="7" fill="#ffffff" stroke="#e2e8f0"/><text x="230" y="99.0" font-family="'SF Mono', Menlo, Consolas, 'DejaVu Sans Mono', monospace" font-size="12.5"><tspan fill="#334155">tau = </tspan><tspan fill="#1d6fd6" font-weight="700">invert_peak_curve</tspan><tspan fill="#334155">(</tspan><tspan fill="#e2622f">alpha_peak</tspan><tspan fill="#334155">, ...)</tspan></text><text x="216" y="130.0" fill="#64748b" font-size="11.5" font-weight="400" text-anchor="start" font-family="-apple-system, BlinkMacSystemFont, 'Segoe UI', 'Inter', Helvetica, Arial, sans-serif">tau from each subject's alpha peak</text><rect x="20" y="158" width="548" height="104" rx="12" fill="#f4f7fb"/><rect x="20" y="158" width="6" height="104" rx="3" fill="#e2622f"/><circle cx="58" cy="210.0" r="17" fill="#e2622f"/><text x="58" y="216.0" fill="#fff" font-size="17" font-weight="600" text-anchor="middle" font-family="-apple-system, BlinkMacSystemFont, 'Segoe UI', 'Inter', Helvetica, Arial, sans-serif">2</text><text x="84" y="204.0" fill="#0f172a" font-size="15" font-weight="500" text-anchor="start" font-family="-apple-system, BlinkMacSystemFont, 'Segoe UI', 'Inter', Helvetica, Arial, sans-serif">Build the model</text><text x="84" y="223.0" font-family="'SF Mono', Menlo, Consolas, 'DejaVu Sans Mono', monospace" font-size="11" fill="#94a3b8">src/model.py</text><rect x="214" y="187.0" width="342" height="38" rx="7" fill="#ffffff" stroke="#e2e8f0"/><text x="230" y="211.0" font-family="'SF Mono', Menlo, Consolas, 'DejaVu Sans Mono', monospace" font-size="12.5"><tspan fill="#334155">model = </tspan><tspan fill="#1d6fd6" font-weight="700">build_network</tspan><tspan fill="#334155">(..., </tspan><tspan fill="#e2622f" font-weight="700">tau_inh=tau</tspan><tspan fill="#334155">)</tspan></text><text x="216" y="242.0" fill="#64748b" font-size="11.5" font-weight="400" text-anchor="start" font-family="-apple-system, BlinkMacSystemFont, 'Segoe UI', 'Inter', Helvetica, Arial, sans-serif">one number = healthy vs patient</text><rect x="20" y="270" width="548" height="104" rx="12" fill="#f4f7fb"/><rect x="20" y="270" width="6" height="104" rx="3" fill="#0d9488"/><circle cx="58" cy="322.0" r="17" fill="#0d9488"/><text x="58" y="328.0" fill="#fff" font-size="17" font-weight="600" text-anchor="middle" font-family="-apple-system, BlinkMacSystemFont, 'Segoe UI', 'Inter', Helvetica, Arial, sans-serif">3</text><text x="84" y="316.0" fill="#0f172a" font-size="15" font-weight="500" text-anchor="start" font-family="-apple-system, BlinkMacSystemFont, 'Segoe UI', 'Inter', Helvetica, Arial, sans-serif">Compare groups</text><text x="84" y="335.0" font-family="'SF Mono', Menlo, Consolas, 'DejaVu Sans Mono', monospace" font-size="11" fill="#94a3b8">src/stats.py</text><rect x="214" y="299.0" width="342" height="38" rx="7" fill="#ffffff" stroke="#e2e8f0"/><text x="230" y="323.0" font-family="'SF Mono', Menlo, Consolas, 'DejaVu Sans Mono', monospace" font-size="12.5"><tspan fill="#334155">compare_groups(..., </tspan><tspan fill="#0d9488" font-weight="700">alternative="less"</tspan><tspan fill="#334155">)</tspan></text><text x="216" y="354.0" fill="#64748b" font-size="11.5" font-weight="400" text-anchor="start" font-family="-apple-system, BlinkMacSystemFont, 'Segoe UI', 'Inter', Helvetica, Arial, sans-serif">one-sided test: PD tau higher</text><text x="24" y="408" fill="#64748b" font-size="12" font-weight="500" text-anchor="start" font-family="-apple-system, BlinkMacSystemFont, 'Segoe UI', 'Inter', Helvetica, Arial, sans-serif">one command, the actual result</text><rect x="20" y="418" width="548" height="140" rx="10" fill="#0f172a"/><rect x="20" y="418" width="548" height="28" rx="10" fill="#1e293b"/><rect x="20" y="434" width="548" height="12" fill="#1e293b"/><circle cx="38" cy="432" r="4.6" fill="#ef4444"/><circle cx="55" cy="432" r="4.6" fill="#f59e0b"/><circle cx="72" cy="432" r="4.6" fill="#22c55e"/><text x="554" y="436" fill="#94a3b8" font-size="10.5" font-weight="400" text-anchor="end" font-family="'SF Mono', Menlo, Consolas, 'DejaVu Sans Mono', monospace">bash</text><text x="36" y="466" font-family="'SF Mono', Menlo, Consolas, 'DejaVu Sans Mono', monospace" font-size="12"><tspan fill="#16a34a">$ </tspan><tspan fill="#e2e8f0">python scripts/05_compare_tau.py</tspan></text><text x="36" y="488" font-family="'SF Mono', Menlo, Consolas, 'DejaVu Sans Mono', monospace" font-size="12"><tspan fill="#16a34a">  </tspan><tspan fill="#86efac">PD vs Control:  +3.25 ms,  p = 0.0002</tspan></text><text x="36" y="510" font-family="'SF Mono', Menlo, Consolas, 'DejaVu Sans Mono', monospace" font-size="12"><tspan fill="#16a34a">$ </tspan><tspan fill="#e2e8f0">python scripts/06_recover_tau.py</tspan></text><text x="36" y="532" font-family="'SF Mono', Menlo, Consolas, 'DejaVu Sans Mono', monospace" font-size="12"><tspan fill="#16a34a">  </tspan><tspan fill="#86efac">unbiased,  recovery error 0.5 ms</tspan></text><text x="612" y="34" fill="#64748b" font-size="12.5" font-weight="500" text-anchor="start" font-family="-apple-system, BlinkMacSystemFont, 'Segoe UI', 'Inter', Helvetica, Arial, sans-serif">THE REPOSITORY</text><rect x="612" y="46" width="548" height="228" rx="10" fill="#ffffff" stroke="#e2e8f0"/><rect x="612" y="46" width="548" height="30" rx="10" fill="#eef2f7"/><rect x="612" y="64" width="548" height="12" fill="#eef2f7"/><rect x="626" y="55" width="5" height="2.6" rx="1" fill="#334155"/><rect x="626" y="56.8" width="14" height="9.4" rx="1.6" fill="#334155"/><text x="648" y="66" fill="#334155" font-size="12.5" font-weight="500" text-anchor="start" font-family="'SF Mono', Menlo, Consolas, 'DejaVu Sans Mono', monospace">pd-eeg</text><text x="1146" y="66" fill="#1d6fd6" font-size="11" font-weight="400" text-anchor="end" font-family="'SF Mono', Menlo, Consolas, 'DejaVu Sans Mono', monospace">main</text><rect x="630" y="87" width="5" height="2.6" rx="1" fill="#f0a83a"/><rect x="630" y="88.8" width="14" height="9.4" rx="1.6" fill="#f0a83a"/><text x="652" y="96" fill="#334155" font-size="12.5" font-weight="500" text-anchor="start" font-family="'SF Mono', Menlo, Consolas, 'DejaVu Sans Mono', monospace">scripts/</text><text x="1144" y="96" fill="#94a3b8" font-size="10.5" font-weight="400" text-anchor="end" font-family="-apple-system, BlinkMacSystemFont, 'Segoe UI', 'Inter', Helvetica, Arial, sans-serif">numbered pipeline</text><line x1="636" y1="100.6" x2="636" y2="111.6" stroke="#e2e8f0" stroke-width="1"/><rect x="650" y="102.6" width="10" height="12" rx="1.4" fill="#bcdcff"/><polygon points="657,102.6 660,105.6 657,105.6" fill="#7fb0e8"/><text x="668" y="112.6" fill="#334155" font-size="12" font-weight="400" text-anchor="start" font-family="'SF Mono', Menlo, Consolas, 'DejaVu Sans Mono', monospace">01_extract_features.py</text><line x1="636" y1="117.19999999999999" x2="636" y2="128.2" stroke="#e2e8f0" stroke-width="1"/><rect x="650" y="119.19999999999999" width="10" height="12" rx="1.4" fill="#bcdcff"/><polygon points="657,119.19999999999999 660,122.19999999999999 657,122.19999999999999" fill="#7fb0e8"/><text x="668" y="129.2" fill="#334155" font-size="12" font-weight="400" text-anchor="start" font-family="'SF Mono', Menlo, Consolas, 'DejaVu Sans Mono', monospace">02_simulate_network.py</text><line x1="636" y1="133.79999999999998" x2="636" y2="144.79999999999998" stroke="#e2e8f0" stroke-width="1"/><rect x="650" y="135.79999999999998" width="10" height="12" rx="1.4" fill="#bcdcff"/><polygon points="657,135.79999999999998 660,138.79999999999998 657,138.79999999999998" fill="#7fb0e8"/><text x="668" y="145.79999999999998" fill="#334155" font-size="12" font-weight="400" text-anchor="start" font-family="'SF Mono', Menlo, Consolas, 'DejaVu Sans Mono', monospace">03_fit_per_subject.py</text><line x1="636" y1="150.39999999999998" x2="636" y2="161.39999999999998" stroke="#e2e8f0" stroke-width="1"/><rect x="650" y="152.39999999999998" width="10" height="12" rx="1.4" fill="#bcdcff"/><polygon points="657,152.39999999999998 660,155.39999999999998 657,155.39999999999998" fill="#7fb0e8"/><text x="668" y="162.39999999999998" fill="#334155" font-size="12" font-weight="400" text-anchor="start" font-family="'SF Mono', Menlo, Consolas, 'DejaVu Sans Mono', monospace">04_compare_features.py</text><line x1="636" y1="166.99999999999997" x2="636" y2="177.99999999999997" stroke="#e2e8f0" stroke-width="1"/><rect x="650" y="168.99999999999997" width="10" height="12" rx="1.4" fill="#bcdcff"/><polygon points="657,168.99999999999997 660,171.99999999999997 657,171.99999999999997" fill="#7fb0e8"/><text x="668" y="178.99999999999997" fill="#334155" font-size="12" font-weight="400" text-anchor="start" font-family="'SF Mono', Menlo, Consolas, 'DejaVu Sans Mono', monospace">05_compare_tau.py</text><line x1="636" y1="183.59999999999997" x2="636" y2="194.59999999999997" stroke="#e2e8f0" stroke-width="1"/><rect x="650" y="185.59999999999997" width="10" height="12" rx="1.4" fill="#bcdcff"/><polygon points="657,185.59999999999997 660,188.59999999999997 657,188.59999999999997" fill="#7fb0e8"/><text x="668" y="195.59999999999997" fill="#334155" font-size="12" font-weight="400" text-anchor="start" font-family="'SF Mono', Menlo, Consolas, 'DejaVu Sans Mono', monospace">06_recover_tau.py</text><rect x="630" y="203.19999999999996" width="5" height="2.6" rx="1" fill="#f0a83a"/><rect x="630" y="204.99999999999997" width="14" height="9.4" rx="1.6" fill="#f0a83a"/><text x="652" y="212.19999999999996" fill="#334155" font-size="12.5" font-weight="500" text-anchor="start" font-family="'SF Mono', Menlo, Consolas, 'DejaVu Sans Mono', monospace">src/</text><text x="1144" y="212.19999999999996" fill="#94a3b8" font-size="10.5" font-weight="400" text-anchor="end" font-family="-apple-system, BlinkMacSystemFont, 'Segoe UI', 'Inter', Helvetica, Arial, sans-serif">features · model · fitting · stats</text><rect x="630" y="219.79999999999995" width="5" height="2.6" rx="1" fill="#f0a83a"/><rect x="630" y="221.59999999999997" width="14" height="9.4" rx="1.6" fill="#f0a83a"/><text x="652" y="228.79999999999995" fill="#334155" font-size="12.5" font-weight="500" text-anchor="start" font-family="'SF Mono', Menlo, Consolas, 'DejaVu Sans Mono', monospace">results/</text><text x="1144" y="228.79999999999995" fill="#94a3b8" font-size="10.5" font-weight="400" text-anchor="end" font-family="-apple-system, BlinkMacSystemFont, 'Segoe UI', 'Inter', Helvetica, Arial, sans-serif">csv + figures</text><rect x="630" y="236.39999999999995" width="5" height="2.6" rx="1" fill="#f0a83a"/><rect x="630" y="238.19999999999996" width="14" height="9.4" rx="1.6" fill="#f0a83a"/><text x="652" y="245.39999999999995" fill="#334155" font-size="12.5" font-weight="500" text-anchor="start" font-family="'SF Mono', Menlo, Consolas, 'DejaVu Sans Mono', monospace">slides/</text><text x="1144" y="245.39999999999995" fill="#94a3b8" font-size="10.5" font-weight="400" text-anchor="end" font-family="-apple-system, BlinkMacSystemFont, 'Segoe UI', 'Inter', Helvetica, Arial, sans-serif">decks + notes</text><text x="612" y="296" fill="#64748b" font-size="12.5" font-weight="500" text-anchor="start" font-family="-apple-system, BlinkMacSystemFont, 'Segoe UI', 'Inter', Helvetica, Arial, sans-serif">6 scripts  ·  4 modules  ·  46 commits  ·  149 subjects</text><text x="612" y="328" fill="#64748b" font-size="12.5" font-weight="500" text-anchor="start" font-family="-apple-system, BlinkMacSystemFont, 'Segoe UI', 'Inter', Helvetica, Arial, sans-serif">Everyone merges into main</text><rect x="612" y="344" width="150" height="28" rx="14" fill="#ffffff" stroke="#e2e8f0"/><rect x="612" y="344" width="5" height="28" rx="2.5" fill="#1d6fd6"/><circle cx="636" cy="358" r="5" fill="#1d6fd6"/><text x="650" y="362" fill="#1d6fd6" font-size="13" font-weight="500" text-anchor="start" font-family="-apple-system, BlinkMacSystemFont, 'Segoe UI', 'Inter', Helvetica, Arial, sans-serif">ruizhao</text><rect x="612" y="388" width="150" height="28" rx="14" fill="#ffffff" stroke="#e2e8f0"/><rect x="612" y="388" width="5" height="28" rx="2.5" fill="#e2622f"/><circle cx="636" cy="402" r="5" fill="#e2622f"/><text x="650" y="406" fill="#e2622f" font-size="13" font-weight="500" text-anchor="start" font-family="-apple-system, BlinkMacSystemFont, 'Segoe UI', 'Inter', Helvetica, Arial, sans-serif">melissa</text><rect x="612" y="432" width="150" height="28" rx="14" fill="#ffffff" stroke="#e2e8f0"/><rect x="612" y="432" width="5" height="28" rx="2.5" fill="#0d9488"/><circle cx="636" cy="446" r="5" fill="#0d9488"/><text x="650" y="450" fill="#0d9488" font-size="13" font-weight="500" text-anchor="start" font-family="-apple-system, BlinkMacSystemFont, 'Segoe UI', 'Inter', Helvetica, Arial, sans-serif">jan</text><rect x="612" y="476" width="150" height="28" rx="14" fill="#ffffff" stroke="#e2e8f0"/><rect x="612" y="476" width="5" height="28" rx="2.5" fill="#7c4dd6"/><circle cx="636" cy="490" r="5" fill="#7c4dd6"/><text x="650" y="494" fill="#7c4dd6" font-size="13" font-weight="500" text-anchor="start" font-family="-apple-system, BlinkMacSystemFont, 'Segoe UI', 'Inter', Helvetica, Arial, sans-serif">friedrich</text><rect x="850" y="376.0" width="120" height="96" rx="12" fill="#0f172a"/><text x="910.0" y="422" fill="#ffffff" font-size="20" font-weight="600" text-anchor="middle" font-family="-apple-system, BlinkMacSystemFont, 'Segoe UI', 'Inter', Helvetica, Arial, sans-serif">main</text><text x="910.0" y="444" fill="#94a3b8" font-size="11.5" font-weight="400" text-anchor="middle" font-family="-apple-system, BlinkMacSystemFont, 'Segoe UI', 'Inter', Helvetica, Arial, sans-serif">the trunk</text><path d="M762 358 C 822 358 790 404 847 404" fill="none" stroke="#1d6fd6" stroke-width="2.3" marker-end="url(#bl)"/><path d="M762 402 C 822 402 790 417 847 417" fill="none" stroke="#e2622f" stroke-width="2.3" marker-end="url(#or)"/><path d="M762 446 C 822 446 790 430 847 430" fill="none" stroke="#0d9488" stroke-width="2.3" marker-end="url(#te)"/><path d="M762 490 C 822 490 790 443 847 443" fill="none" stroke="#7c4dd6" stroke-width="2.3" marker-end="url(#pu)"/><line x1="970" y1="424" x2="1010" y2="424" stroke="#64748b" stroke-width="1.9" marker-end="url(#mu)"/><rect x="1014" y="396" width="150" height="56" rx="10" fill="#f4f7fb" stroke="#e2e8f0"/><text x="1089" y="421" fill="#334155" font-size="13" font-weight="500" text-anchor="middle" font-family="-apple-system, BlinkMacSystemFont, 'Segoe UI', 'Inter', Helvetica, Arial, sans-serif">results + deck</text><text x="1089" y="440" fill="#94a3b8" font-size="11" font-weight="400" text-anchor="middle" font-family="-apple-system, BlinkMacSystemFont, 'Segoe UI', 'Inter', Helvetica, Arial, sans-serif">reproducible</text></svg>