<svg viewBox="0 0 1180 600" xmlns="http://www.w3.org/2000/svg" font-family="-apple-system, BlinkMacSystemFont, 'Segoe UI', 'Inter', Helvetica, Arial, sans-serif"><defs><marker id="bl" markerWidth="8.5" markerHeight="8.5" refX="6.5" refY="4.2" orient="auto"><path d="M0,0 L0,8.4 L7.5,4.2 z" fill="#1d6fd6"/></marker><marker id="or" markerWidth="8.5" markerHeight="8.5" refX="6.5" refY="4.2" orient="auto"><path d="M0,0 L0,8.4 L7.5,4.2 z" fill="#e2622f"/></marker><marker id="te" markerWidth="8.5" markerHeight="8.5" refX="6.5" refY="4.2" orient="auto"><path d="M0,0 L0,8.4 L7.5,4.2 z" fill="#0d9488"/></marker><marker id="pu" markerWidth="8.5" markerHeight="8.5" refX="6.5" refY="4.2" orient="auto"><path d="M0,0 L0,8.4 L7.5,4.2 z" fill="#7c4dd6"/></marker><marker id="mu" markerWidth="8.5" markerHeight="8.5" refX="6.5" refY="4.2" orient="auto"><path d="M0,0 L0,8.4 L7.5,4.2 z" fill="#64748b"/></marker><marker id="fa" markerWidth="8.5" markerHeight="8.5" refX="6.5" refY="4.2" orient="auto"><path d="M0,0 L0,8.4 L7.5,4.2 z" fill="#94a3b8"/></marker></defs><text x="20" y="14" fill="#64748b" font-size="12.5" font-weight="500" text-anchor="start" font-family="-apple-system, BlinkMacSystemFont, 'Segoe UI', 'Inter', Helvetica, Arial, sans-serif">THE PIPELINE</text><rect x="20.0" y="28" width="96" height="32" rx="8" fill="#f1f5f9" stroke="#e2e8f0" stroke-width="1"/><text x="68.0" y="48" fill="#475569" font-size="11.5" font-weight="500" text-anchor="middle" font-family="'SF Mono', Menlo, Consolas, 'DejaVu Sans Mono', monospace">EEG · 149</text><rect x="184.66666666666669" y="23" width="84" height="42" rx="9" fill="#1d6fd6"/><text x="226.66666666666669" y="42" fill="#ffffff" font-size="15" font-weight="700" text-anchor="middle" font-family="-apple-system, BlinkMacSystemFont, 'Segoe UI', 'Inter', Helvetica, Arial, sans-serif">01</text><text x="226.66666666666669" y="56" fill="#dbeafe" font-size="9.5" font-weight="400" text-anchor="middle" font-family="-apple-system, BlinkMacSystemFont, 'Segoe UI', 'Inter', Helvetica, Arial, sans-serif">extract</text><rect x="337.33333333333337" y="28" width="116" height="32" rx="8" fill="#f1f5f9" stroke="#e2e8f0" stroke-width="1"/><text x="395.33333333333337" y="48" fill="#475569" font-size="11.5" font-weight="500" text-anchor="middle" font-family="'SF Mono', Menlo, Consolas, 'DejaVu Sans Mono', monospace">features.csv</text><rect x="522.0" y="23" width="66" height="42" rx="9" fill="#1d6fd6"/><text x="555.0" y="42" fill="#ffffff" font-size="15" font-weight="700" text-anchor="middle" font-family="-apple-system, BlinkMacSystemFont, 'Segoe UI', 'Inter', Helvetica, Arial, sans-serif">03</text><text x="555.0" y="56" fill="#dbeafe" font-size="9.5" font-weight="400" text-anchor="middle" font-family="-apple-system, BlinkMacSystemFont, 'Segoe UI', 'Inter', Helvetica, Arial, sans-serif">fit</text><rect x="656.6666666666667" y="28" width="124" height="32" rx="8" fill="#f1f5f9" stroke="#e2e8f0" stroke-width="1"/><text x="718.6666666666667" y="48" fill="#475569" font-size="11.5" font-weight="500" text-anchor="middle" font-family="'SF Mono', Menlo, Consolas, 'DejaVu Sans Mono', monospace">fitted_tau.csv</text><rect x="849.3333333333335" y="23" width="92" height="42" rx="9" fill="#1d6fd6"/><text x="895.3333333333335" y="42" fill="#ffffff" font-size="15" font-weight="700" text-anchor="middle" font-family="-apple-system, BlinkMacSystemFont, 'Segoe UI', 'Inter', Helvetica, Arial, sans-serif">05</text><text x="895.3333333333335" y="56" fill="#dbeafe" font-size="9.5" font-weight="400" text-anchor="middle" font-family="-apple-system, BlinkMacSystemFont, 'Segoe UI', 'Inter', Helvetica, Arial, sans-serif">compare</text><rect x="1010.0000000000002" y="28" width="150" height="32" rx="8" fill="#fdf1ec" stroke="#e2622f" stroke-width="1.3"/><text x="1085.0000000000002" y="48" fill="#a8431f" font-size="12" font-weight="600" text-anchor="middle" font-family="-apple-system, BlinkMacSystemFont, 'Segoe UI', 'Inter', Helvetica, Arial, sans-serif">PD vs Control</text><line x1="130.0" y1="44" x2="180.7" y2="44" stroke="#cbd5e1" stroke-width="1.8" marker-end="url(#fa)"/><line x1="282.7" y1="44" x2="333.3" y2="44" stroke="#cbd5e1" stroke-width="1.8" marker-end="url(#fa)"/><line x1="467.3" y1="44" x2="518.0" y2="44" stroke="#cbd5e1" stroke-width="1.8" marker-end="url(#fa)"/><line x1="602.0" y1="44" x2="652.7" y2="44" stroke="#cbd5e1" stroke-width="1.8" marker-end="url(#fa)"/><line x1="794.7" y1="44" x2="845.3" y2="44" stroke="#cbd5e1" stroke-width="1.8" marker-end="url(#fa)"/><line x1="955.3" y1="44" x2="1006.0" y2="44" stroke="#cbd5e1" stroke-width="1.8" marker-end="url(#fa)"/><text x="20" y="80" fill="#94a3b8" font-size="11.5" font-weight="400" text-anchor="start" font-family="-apple-system, BlinkMacSystemFont, 'Segoe UI', 'Inter', Helvetica, Arial, sans-serif">02 builds the tau-to-peak curve that 03 inverts  ·  04 tests the data directly  ·  06 validates the fit</text><line x1="20" y1="93" x2="1160" y2="93" stroke="#e2e8f0" stroke-width="1.2"/><line x1="586" y1="104" x2="586" y2="596" stroke="#e2e8f0" stroke-width="1.4"/><text x="24" y="116" fill="#64748b" font-size="12.5" font-weight="500" text-anchor="start" font-family="-apple-system, BlinkMacSystemFont, 'Segoe UI', 'Inter', Helvetica, Arial, sans-serif">THE CODE</text><rect x="20" y="126" width="548" height="92" rx="12" fill="#f4f7fb"/><rect x="20" y="126" width="6" height="92" rx="3" fill="#1d6fd6"/><circle cx="58" cy="172.0" r="16.5" fill="#1d6fd6"/><text x="58" y="177.5" fill="#ffffff" font-size="17" font-weight="600" text-anchor="middle" font-family="-apple-system, BlinkMacSystemFont, 'Segoe UI', 'Inter', Helvetica, Arial, sans-serif">1</text><text x="84" y="163.0" fill="#0f172a" font-size="15" font-weight="500" text-anchor="start" font-family="-apple-system, BlinkMacSystemFont, 'Segoe UI', 'Inter', Helvetica, Arial, sans-serif">Fit each subject</text><text x="84" y="182.0" fill="#94a3b8" font-size="11" font-weight="400" text-anchor="start" font-family="'SF Mono', Menlo, Consolas, 'DejaVu Sans Mono', monospace">src/fitting.py</text><rect x="214" y="151.0" width="342" height="36" rx="7" fill="#ffffff" stroke="#e2e8f0" stroke-width="1"/><text x="230" y="175.0" font-family="'SF Mono', Menlo, Consolas, 'DejaVu Sans Mono', monospace" font-size="12.5"><tspan fill="#334155">tau = </tspan><tspan fill="#1d6fd6" font-weight="700">invert_peak_curve</tspan><tspan fill="#334155">(</tspan><tspan fill="#e2622f">alpha_peak</tspan><tspan fill="#334155">, ...)</tspan></text><text x="216" y="205.0" fill="#64748b" font-size="11.5" font-weight="400" text-anchor="start" font-family="-apple-system, BlinkMacSystemFont, 'Segoe UI', 'Inter', Helvetica, Arial, sans-serif">tau from each subject's alpha peak</text><rect x="20" y="224" width="548" height="92" rx="12" fill="#f4f7fb"/><rect x="20" y="224" width="6" height="92" rx="3" fill="#e2622f"/><circle cx="58" cy="270.0" r="16.5" fill="#e2622f"/><text x="58" y="275.5" fill="#ffffff" font-size="17" font-weight="600" text-anchor="middle" font-family="-apple-system, BlinkMacSystemFont, 'Segoe UI', 'Inter', Helvetica, Arial, sans-serif">2</text><text x="84" y="261.0" fill="#0f172a" font-size="15" font-weight="500" text-anchor="start" font-family="-apple-system, BlinkMacSystemFont, 'Segoe UI', 'Inter', Helvetica, Arial, sans-serif">Build the model</text><text x="84" y="280.0" fill="#94a3b8" font-size="11" font-weight="400" text-anchor="start" font-family="'SF Mono', Menlo, Consolas, 'DejaVu Sans Mono', monospace">src/model.py</text><rect x="214" y="249.0" width="342" height="36" rx="7" fill="#ffffff" stroke="#e2e8f0" stroke-width="1"/><text x="230" y="273.0" font-family="'SF Mono', Menlo, Consolas, 'DejaVu Sans Mono', monospace" font-size="12.5"><tspan fill="#334155">model = </tspan><tspan fill="#1d6fd6" font-weight="700">build_network</tspan><tspan fill="#334155">(..., </tspan><tspan fill="#e2622f" font-weight="700">tau_inh=tau</tspan><tspan fill="#334155">)</tspan></text><text x="216" y="303.0" fill="#64748b" font-size="11.5" font-weight="400" text-anchor="start" font-family="-apple-system, BlinkMacSystemFont, 'Segoe UI', 'Inter', Helvetica, Arial, sans-serif">one number = healthy vs patient</text><rect x="20" y="322" width="548" height="92" rx="12" fill="#f4f7fb"/><rect x="20" y="322" width="6" height="92" rx="3" fill="#0d9488"/><circle cx="58" cy="368.0" r="16.5" fill="#0d9488"/><text x="58" y="373.5" fill="#ffffff" font-size="17" font-weight="600" text-anchor="middle" font-family="-apple-system, BlinkMacSystemFont, 'Segoe UI', 'Inter', Helvetica, Arial, sans-serif">3</text><text x="84" y="359.0" fill="#0f172a" font-size="15" font-weight="500" text-anchor="start" font-family="-apple-system, BlinkMacSystemFont, 'Segoe UI', 'Inter', Helvetica, Arial, sans-serif">Compare groups</text><text x="84" y="378.0" fill="#94a3b8" font-size="11" font-weight="400" text-anchor="start" font-family="'SF Mono', Menlo, Consolas, 'DejaVu Sans Mono', monospace">src/stats.py</text><rect x="214" y="347.0" width="342" height="36" rx="7" fill="#ffffff" stroke="#e2e8f0" stroke-width="1"/><text x="230" y="371.0" font-family="'SF Mono', Menlo, Consolas, 'DejaVu Sans Mono', monospace" font-size="12.5"><tspan fill="#334155">compare_groups(..., </tspan><tspan fill="#0d9488" font-weight="700">alternative="less"</tspan><tspan fill="#334155">)</tspan></text><text x="216" y="401.0" fill="#64748b" font-size="11.5" font-weight="400" text-anchor="start" font-family="-apple-system, BlinkMacSystemFont, 'Segoe UI', 'Inter', Helvetica, Arial, sans-serif">one-sided test: PD tau higher</text><text x="24" y="432" fill="#64748b" font-size="12" font-weight="500" text-anchor="start" font-family="-apple-system, BlinkMacSystemFont, 'Segoe UI', 'Inter', Helvetica, Arial, sans-serif">every result is one script run</text><rect x="20" y="442" width="548" height="150" rx="10" fill="#0f172a"/><rect x="20" y="442" width="548" height="26" rx="10" fill="#1e293b"/><rect x="20" y="456" width="548" height="12" rx="0" fill="#1e293b"/><circle cx="38" cy="455" r="4.6" fill="#ef4444"/><circle cx="55" cy="455" r="4.6" fill="#f59e0b"/><circle cx="72" cy="455" r="4.6" fill="#22c55e"/><text x="554" y="459" fill="#94a3b8" font-size="10.5" font-weight="400" text-anchor="end" font-family="'SF Mono', Menlo, Consolas, 'DejaVu Sans Mono', monospace">bash</text><text x="38" y="488" font-family="'SF Mono', Menlo, Consolas, 'DejaVu Sans Mono', monospace" font-size="11.5"><tspan fill="#16a34a" font-weight="700">$ </tspan><tspan fill="#e2e8f0">python scripts/05_compare_tau.py</tspan></text><text x="38" y="506" font-family="'SF Mono', Menlo, Consolas, 'DejaVu Sans Mono', monospace" font-size="11.5"><tspan fill="#86efac">  Control 18.25  →  PD 21.50 ms    diff </tspan><tspan fill="#fde68a" font-weight="700">+3.25</tspan><tspan fill="#86efac">   p = 0.00025 ***</tspan></text><text x="38" y="523" font-family="'SF Mono', Menlo, Consolas, 'DejaVu Sans Mono', monospace" font-size="11.5"><tspan fill="#64748b">  → wrote </tspan><tspan fill="#7dd3fc">results/figures/compare_tau.png</tspan></text><text x="38" y="540" font-family="'SF Mono', Menlo, Consolas, 'DejaVu Sans Mono', monospace" font-size="11.5"><tspan fill="#16a34a" font-weight="700">$ </tspan><tspan fill="#e2e8f0">python scripts/06_recover_tau.py</tspan></text><text x="38" y="558" font-family="'SF Mono', Menlo, Consolas, 'DejaVu Sans Mono', monospace" font-size="11.5"><tspan fill="#86efac">  22 known tau recovered    bias </tspan><tspan fill="#fde68a" font-weight="700">−0.10</tspan><tspan fill="#86efac">    max err 1.75 ms</tspan></text><text x="38" y="576" font-family="'SF Mono', Menlo, Consolas, 'DejaVu Sans Mono', monospace" font-size="11.5"><tspan fill="#64748b">  → wrote </tspan><tspan fill="#7dd3fc">results/tau_recovery.csv</tspan></text><text x="612" y="116" fill="#64748b" font-size="12.5" font-weight="500" text-anchor="start" font-family="-apple-system, BlinkMacSystemFont, 'Segoe UI', 'Inter', Helvetica, Arial, sans-serif">THE REPOSITORY</text><rect x="612" y="126" width="548" height="262" rx="10" fill="#ffffff" stroke="#e2e8f0" stroke-width="1"/><rect x="612" y="126" width="548" height="28" rx="10" fill="#eef2f7"/><rect x="612" y="140" width="548" height="14" rx="0" fill="#eef2f7"/><rect x="626" y="135" width="5" height="2.6" rx="1" fill="#334155"/><rect x="626" y="136.8" width="14" height="9.4" rx="1.6" fill="#334155"/><text x="648" y="145" fill="#334155" font-size="12.5" font-weight="500" text-anchor="start" font-family="'SF Mono', Menlo, Consolas, 'DejaVu Sans Mono', monospace">pd-eeg</text><text x="1146" y="145" fill="#1d6fd6" font-size="11" font-weight="400" text-anchor="end" font-family="'SF Mono', Menlo, Consolas, 'DejaVu Sans Mono', monospace">main</text><rect x="630" y="163" width="5" height="2.6" rx="1" fill="#f0a83a"/><rect x="630" y="164.8" width="14" height="9.4" rx="1.6" fill="#f0a83a"/><text x="652" y="172" fill="#334155" font-size="12.5" font-weight="500" text-anchor="start" font-family="'SF Mono', Menlo, Consolas, 'DejaVu Sans Mono', monospace">scripts/</text><text x="1146" y="172" fill="#94a3b8" font-size="10.5" font-weight="400" text-anchor="end" font-family="-apple-system, BlinkMacSystemFont, 'Segoe UI', 'Inter', Helvetica, Arial, sans-serif">numbered pipeline</text><line x1="636" y1="175.6" x2="636" y2="186.6" stroke="#e2e8f0" stroke-width="1"/><rect x="650" y="178.1" width="10" height="12" rx="1.4" fill="#bcdcff"/><polygon points="657,178.1 660,181.1 657,181.1" fill="#7fb0e8"/><text x="668" y="187.6" fill="#334155" font-size="12" font-weight="400" text-anchor="start" font-family="'SF Mono', Menlo, Consolas, 'DejaVu Sans Mono', monospace">01_extract_features.py</text><line x1="636" y1="191.2" x2="636" y2="202.2" stroke="#e2e8f0" stroke-width="1"/><rect x="650" y="193.7" width="10" height="12" rx="1.4" fill="#bcdcff"/><polygon points="657,193.7 660,196.7 657,196.7" fill="#7fb0e8"/><text x="668" y="203.2" fill="#334155" font-size="12" font-weight="400" text-anchor="start" font-family="'SF Mono', Menlo, Consolas, 'DejaVu Sans Mono', monospace">02_simulate_network.py</text><line x1="636" y1="206.79999999999998" x2="636" y2="217.79999999999998" stroke="#e2e8f0" stroke-width="1"/><rect x="650" y="209.29999999999998" width="10" height="12" rx="1.4" fill="#bcdcff"/><polygon points="657,209.29999999999998 660,212.29999999999998 657,212.29999999999998" fill="#7fb0e8"/><text x="668" y="218.79999999999998" fill="#334155" font-size="12" font-weight="400" text-anchor="start" font-family="'SF Mono', Menlo, Consolas, 'DejaVu Sans Mono', monospace">03_fit_per_subject.py</text><line x1="636" y1="222.39999999999998" x2="636" y2="233.39999999999998" stroke="#e2e8f0" stroke-width="1"/><rect x="650" y="224.89999999999998" width="10" height="12" rx="1.4" fill="#bcdcff"/><polygon points="657,224.89999999999998 660,227.89999999999998 657,227.89999999999998" fill="#7fb0e8"/><text x="668" y="234.39999999999998" fill="#334155" font-size="12" font-weight="400" text-anchor="start" font-family="'SF Mono', Menlo, Consolas, 'DejaVu Sans Mono', monospace">04_compare_features.py</text><line x1="636" y1="237.99999999999997" x2="636" y2="248.99999999999997" stroke="#e2e8f0" stroke-width="1"/><rect x="650" y="240.49999999999997" width="10" height="12" rx="1.4" fill="#bcdcff"/><polygon points="657,240.49999999999997 660,243.49999999999997 657,243.49999999999997" fill="#7fb0e8"/><text x="668" y="249.99999999999997" fill="#334155" font-size="12" font-weight="400" text-anchor="start" font-family="'SF Mono', Menlo, Consolas, 'DejaVu Sans Mono', monospace">05_compare_tau.py</text><line x1="636" y1="253.59999999999997" x2="636" y2="264.59999999999997" stroke="#e2e8f0" stroke-width="1"/><rect x="650" y="256.09999999999997" width="10" height="12" rx="1.4" fill="#bcdcff"/><polygon points="657,256.09999999999997 660,259.09999999999997 657,259.09999999999997" fill="#7fb0e8"/><text x="668" y="265.59999999999997" fill="#334155" font-size="12" font-weight="400" text-anchor="start" font-family="'SF Mono', Menlo, Consolas, 'DejaVu Sans Mono', monospace">06_recover_tau.py</text><rect x="630" y="272.2" width="5" height="2.6" rx="1" fill="#f0a83a"/><rect x="630" y="274.0" width="14" height="9.4" rx="1.6" fill="#f0a83a"/><text x="652" y="281.2" fill="#334155" font-size="12.5" font-weight="500" text-anchor="start" font-family="'SF Mono', Menlo, Consolas, 'DejaVu Sans Mono', monospace">src/</text><text x="1146" y="281.2" fill="#94a3b8" font-size="10.5" font-weight="400" text-anchor="end" font-family="-apple-system, BlinkMacSystemFont, 'Segoe UI', 'Inter', Helvetica, Arial, sans-serif">features · model · fitting · stats</text><rect x="630" y="287.8" width="5" height="2.6" rx="1" fill="#f0a83a"/><rect x="630" y="289.6" width="14" height="9.4" rx="1.6" fill="#f0a83a"/><text x="652" y="296.8" fill="#334155" font-size="12.5" font-weight="500" text-anchor="start" font-family="'SF Mono', Menlo, Consolas, 'DejaVu Sans Mono', monospace">results/</text><text x="1146" y="296.8" fill="#94a3b8" font-size="10.5" font-weight="400" text-anchor="end" font-family="-apple-system, BlinkMacSystemFont, 'Segoe UI', 'Inter', Helvetica, Arial, sans-serif">every run writes here</text><line x1="636" y1="300.40000000000003" x2="636" y2="311.40000000000003" stroke="#e2e8f0" stroke-width="1"/><rect x="650" y="302.90000000000003" width="10" height="12" rx="1.4" fill="#bcdcff"/><polygon points="657,302.90000000000003 660,305.90000000000003 657,305.90000000000003" fill="#7fb0e8"/><text x="668" y="312.40000000000003" fill="#334155" font-size="12" font-weight="400" text-anchor="start" font-family="'SF Mono', Menlo, Consolas, 'DejaVu Sans Mono', monospace">fitted_tau.csv</text><line x1="636" y1="316.00000000000006" x2="636" y2="327.00000000000006" stroke="#e2e8f0" stroke-width="1"/><rect x="650" y="318.50000000000006" width="10" height="12" rx="1.4" fill="#bcdcff"/><polygon points="657,318.50000000000006 660,321.50000000000006 657,321.50000000000006" fill="#7fb0e8"/><text x="668" y="328.00000000000006" fill="#334155" font-size="12" font-weight="400" text-anchor="start" font-family="'SF Mono', Menlo, Consolas, 'DejaVu Sans Mono', monospace">group_comparison_tau.csv</text><line x1="636" y1="331.6000000000001" x2="636" y2="342.6000000000001" stroke="#e2e8f0" stroke-width="1"/><rect x="650" y="334.1000000000001" width="10" height="12" rx="1.4" fill="#bcdcff"/><polygon points="657,334.1000000000001 660,337.1000000000001 657,337.1000000000001" fill="#7fb0e8"/><text x="668" y="343.6000000000001" fill="#334155" font-size="12" font-weight="400" text-anchor="start" font-family="'SF Mono', Menlo, Consolas, 'DejaVu Sans Mono', monospace">tau_recovery.csv</text><line x1="636" y1="347.2000000000001" x2="636" y2="358.2000000000001" stroke="#e2e8f0" stroke-width="1"/><rect x="650" y="350.2000000000001" width="5" height="2.6" rx="1" fill="#f0a83a"/><rect x="650" y="352.0000000000001" width="14" height="9.4" rx="1.6" fill="#f0a83a"/><text x="668" y="359.2000000000001" fill="#334155" font-size="12" font-weight="400" text-anchor="start" font-family="'SF Mono', Menlo, Consolas, 'DejaVu Sans Mono', monospace">figures/</text><text x="1146" y="359.2000000000001" fill="#94a3b8" font-size="10.5" font-weight="400" text-anchor="end" font-family="-apple-system, BlinkMacSystemFont, 'Segoe UI', 'Inter', Helvetica, Arial, sans-serif">compare_tau.png · tau_recovery.png · …</text><rect x="630" y="365.8000000000001" width="5" height="2.6" rx="1" fill="#f0a83a"/><rect x="630" y="367.60000000000014" width="14" height="9.4" rx="1.6" fill="#f0a83a"/><text x="652" y="374.8000000000001" fill="#334155" font-size="12.5" font-weight="500" text-anchor="start" font-family="'SF Mono', Menlo, Consolas, 'DejaVu Sans Mono', monospace">slides/</text><text x="1146" y="374.8000000000001" fill="#94a3b8" font-size="10.5" font-weight="400" text-anchor="end" font-family="-apple-system, BlinkMacSystemFont, 'Segoe UI', 'Inter', Helvetica, Arial, sans-serif">decks + notes</text><text x="612" y="396" fill="#64748b" font-size="12.5" font-weight="500" text-anchor="start" font-family="-apple-system, BlinkMacSystemFont, 'Segoe UI', 'Inter', Helvetica, Arial, sans-serif">6 scripts  ·  4 modules  ·  46 commits  ·  149 subjects</text><text x="612" y="420" fill="#64748b" font-size="12.5" font-weight="500" text-anchor="start" font-family="-apple-system, BlinkMacSystemFont, 'Segoe UI', 'Inter', Helvetica, Arial, sans-serif">Everyone merges into main</text><rect x="612" y="432" width="150" height="26" rx="13" fill="#ffffff" stroke="#e2e8f0" stroke-width="1"/><rect x="612" y="432" width="5" height="26" rx="2.5" fill="#1d6fd6"/><circle cx="636" cy="445" r="5" fill="#1d6fd6"/><text x="650" y="449" fill="#1d6fd6" font-size="13" font-weight="500" text-anchor="start" font-family="-apple-system, BlinkMacSystemFont, 'Segoe UI', 'Inter', Helvetica, Arial, sans-serif">ruizhao</text><rect x="612" y="472" width="150" height="26" rx="13" fill="#ffffff" stroke="#e2e8f0" stroke-width="1"/><rect x="612" y="472" width="5" height="26" rx="2.5" fill="#e2622f"/><circle cx="636" cy="485" r="5" fill="#e2622f"/><text x="650" y="489" fill="#e2622f" font-size="13" font-weight="500" text-anchor="start" font-family="-apple-system, BlinkMacSystemFont, 'Segoe UI', 'Inter', Helvetica, Arial, sans-serif">melissa</text><rect x="612" y="512" width="150" height="26" rx="13" fill="#ffffff" stroke="#e2e8f0" stroke-width="1"/><rect x="612" y="512" width="5" height="26" rx="2.5" fill="#0d9488"/><circle cx="636" cy="525" r="5" fill="#0d9488"/><text x="650" y="529" fill="#0d9488" font-size="13" font-weight="500" text-anchor="start" font-family="-apple-system, BlinkMacSystemFont, 'Segoe UI', 'Inter', Helvetica, Arial, sans-serif">jan</text><rect x="612" y="552" width="150" height="26" rx="13" fill="#ffffff" stroke="#e2e8f0" stroke-width="1"/><rect x="612" y="552" width="5" height="26" rx="2.5" fill="#7c4dd6"/><circle cx="636" cy="565" r="5" fill="#7c4dd6"/><text x="650" y="569" fill="#7c4dd6" font-size="13" font-weight="500" text-anchor="start" font-family="-apple-system, BlinkMacSystemFont, 'Segoe UI', 'Inter', Helvetica, Arial, sans-serif">friedrich</text><rect x="850" y="458" width="120" height="88" rx="12" fill="#0f172a"/><text x="910" y="500" fill="#ffffff" font-size="20" font-weight="600" text-anchor="middle" font-family="-apple-system, BlinkMacSystemFont, 'Segoe UI', 'Inter', Helvetica, Arial, sans-serif">main</text><text x="910" y="522" fill="#94a3b8" font-size="11.5" font-weight="400" text-anchor="middle" font-family="-apple-system, BlinkMacSystemFont, 'Segoe UI', 'Inter', Helvetica, Arial, sans-serif">the trunk</text><path d="M762 445 C 822 445 790 484 847 484" fill="none" stroke="#1d6fd6" stroke-width="2.3" marker-end="url(#bl)"/><path d="M762 485 C 822 485 790 497 847 497" fill="none" stroke="#e2622f" stroke-width="2.3" marker-end="url(#or)"/><path d="M762 525 C 822 525 790 510 847 510" fill="none" stroke="#0d9488" stroke-width="2.3" marker-end="url(#te)"/><path d="M762 565 C 822 565 790 523 847 523" fill="none" stroke="#7c4dd6" stroke-width="2.3" marker-end="url(#pu)"/><line x1="970" y1="502" x2="1010" y2="502" stroke="#64748b" stroke-width="1.9" marker-end="url(#mu)"/><rect x="1014" y="474" width="150" height="56" rx="10" fill="#f4f7fb" stroke="#e2e8f0" stroke-width="1"/><text x="1089" y="499" fill="#334155" font-size="13" font-weight="500" text-anchor="middle" font-family="-apple-system, BlinkMacSystemFont, 'Segoe UI', 'Inter', Helvetica, Arial, sans-serif">results + deck</text><text x="1089" y="518" fill="#94a3b8" font-size="11" font-weight="400" text-anchor="middle" font-family="-apple-system, BlinkMacSystemFont, 'Segoe UI', 'Inter', Helvetica, Arial, sans-serif">reproducible</text></svg>