<svg viewBox="0 0 1180 600" xmlns="http://www.w3.org/2000/svg" font-family="-apple-system, BlinkMacSystemFont, 'Segoe UI', 'Inter', Helvetica, Arial, sans-serif"><defs><marker id="bl" markerWidth="8" markerHeight="8" refX="6" refY="4" orient="auto"><path d="M0,0 L0,8 L7,4 z" fill="#1d6fd6"/></marker><marker id="or" markerWidth="8" markerHeight="8" refX="6" refY="4" orient="auto"><path d="M0,0 L0,8 L7,4 z" fill="#e2622f"/></marker><marker id="te" markerWidth="8" markerHeight="8" refX="6" refY="4" orient="auto"><path d="M0,0 L0,8 L7,4 z" fill="#0d9488"/></marker><marker id="pu" markerWidth="8" markerHeight="8" refX="6" refY="4" orient="auto"><path d="M0,0 L0,8 L7,4 z" fill="#7c4dd6"/></marker><marker id="mu" markerWidth="8" markerHeight="8" refX="6" refY="4" orient="auto"><path d="M0,0 L0,8 L7,4 z" fill="#64748b"/></marker><marker id="fa" markerWidth="8" markerHeight="8" refX="6" refY="4" orient="auto"><path d="M0,0 L0,8 L7,4 z" fill="#cbd5e1"/></marker><marker id="dk" markerWidth="8" markerHeight="8" refX="6" refY="4" orient="auto"><path d="M0,0 L0,8 L7,4 z" fill="#475569"/></marker></defs><text x="20" y="16" fill="#64748b" font-size="14.5" font-weight="500" text-anchor="start" font-family="-apple-system, BlinkMacSystemFont, 'Segoe UI', 'Inter', Helvetica, Arial, sans-serif">THE PIPELINE</text><text x="140" y="16" fill="#94a3b8" font-size="13.5" font-weight="400" text-anchor="start" font-family="-apple-system, BlinkMacSystemFont, 'Segoe UI', 'Inter', Helvetica, Arial, sans-serif">EEG to result, through six scripts</text><rect x="20.0" y="90" width="88" height="28" rx="7" fill="#eef2f7" stroke="#e2e8f0" stroke-width="1"/><text x="64.0" y="108" fill="#475569" font-size="12.5" font-weight="500" text-anchor="middle" font-family="'SF Mono', Menlo, Consolas, 'DejaVu Sans Mono', monospace">EEG · 149</text><line x1="117.0" y1="104" x2="158.7" y2="104" stroke="#cbd5e1" stroke-width="1.8" marker-end="url(#fa)"/><rect x="167.66666666666666" y="81" width="108" height="46" rx="10" fill="#185FA5"/><text x="221.66666666666666" y="102" fill="#ffffff" font-size="16" font-weight="700" text-anchor="middle" font-family="-apple-system, BlinkMacSystemFont, 'Segoe UI', 'Inter', Helvetica, Arial, sans-serif">extract</text><text x="221.66666666666666" y="119" fill="#cfe2ff" font-size="10.5" font-weight="500" text-anchor="middle" font-family="-apple-system, BlinkMacSystemFont, 'Segoe UI', 'Inter', Helvetica, Arial, sans-serif">01 · features</text><line x1="284.7" y1="104" x2="326.3" y2="104" stroke="#cbd5e1" stroke-width="1.8" marker-end="url(#fa)"/><rect x="335.3333333333333" y="90" width="112" height="28" rx="7" fill="#eef2f7" stroke="#e2e8f0" stroke-width="1"/><text x="391.3333333333333" y="108" fill="#475569" font-size="12.5" font-weight="500" text-anchor="middle" font-family="'SF Mono', Menlo, Consolas, 'DejaVu Sans Mono', monospace">features.csv</text><line x1="456.3" y1="104" x2="498.0" y2="104" stroke="#cbd5e1" stroke-width="1.8" marker-end="url(#fa)"/><rect x="507.0" y="81" width="108" height="46" rx="10" fill="#185FA5"/><text x="561.0" y="102" fill="#ffffff" font-size="16" font-weight="700" text-anchor="middle" font-family="-apple-system, BlinkMacSystemFont, 'Segoe UI', 'Inter', Helvetica, Arial, sans-serif">fit</text><text x="561.0" y="119" fill="#cfe2ff" font-size="10.5" font-weight="500" text-anchor="middle" font-family="-apple-system, BlinkMacSystemFont, 'Segoe UI', 'Inter', Helvetica, Arial, sans-serif">03 · per subject</text><line x1="624.0" y1="104" x2="665.7" y2="104" stroke="#cbd5e1" stroke-width="1.8" marker-end="url(#fa)"/><rect x="674.6666666666666" y="90" width="120" height="28" rx="7" fill="#eef2f7" stroke="#e2e8f0" stroke-width="1"/><text x="734.6666666666666" y="108" fill="#475569" font-size="12.5" font-weight="500" text-anchor="middle" font-family="'SF Mono', Menlo, Consolas, 'DejaVu Sans Mono', monospace">fitted_tau.csv</text><line x1="803.7" y1="104" x2="845.3" y2="104" stroke="#cbd5e1" stroke-width="1.8" marker-end="url(#fa)"/><rect x="854.3333333333333" y="81" width="108" height="46" rx="10" fill="#185FA5"/><text x="908.3333333333333" y="102" fill="#ffffff" font-size="16" font-weight="700" text-anchor="middle" font-family="-apple-system, BlinkMacSystemFont, 'Segoe UI', 'Inter', Helvetica, Arial, sans-serif">compare</text><text x="908.3333333333333" y="119" fill="#cfe2ff" font-size="10.5" font-weight="500" text-anchor="middle" font-family="-apple-system, BlinkMacSystemFont, 'Segoe UI', 'Inter', Helvetica, Arial, sans-serif">05 · the groups</text><line x1="971.3" y1="104" x2="1013.0" y2="104" stroke="#cbd5e1" stroke-width="1.8" marker-end="url(#fa)"/><rect x="1021.9999999999999" y="85" width="138" height="38" rx="9" fill="#0f172a"/><text x="1091.0" y="109" fill="#ffffff" font-size="15" font-weight="700" text-anchor="middle" font-family="-apple-system, BlinkMacSystemFont, 'Segoe UI', 'Inter', Helvetica, Arial, sans-serif">PD vs Control</text><rect x="400.0" y="24" width="322" height="40" rx="10" fill="#eef4fb" stroke="#185FA5" stroke-width="1.2"/><text x="561.0" y="39" fill="#64748b" font-size="13" font-weight="400" text-anchor="middle" font-family="-apple-system, BlinkMacSystemFont, 'Segoe UI', 'Inter', Helvetica, Arial, sans-serif">one number is the whole difference:</text><text x="561.0" y="57" text-anchor="middle" font-family="-apple-system, BlinkMacSystemFont, 'Segoe UI', 'Inter', Helvetica, Arial, sans-serif" font-size="15.5"><tspan fill="#334155" font-weight="500">the inhibitory time constant  </tspan><tspan fill="#a8431f" font-weight="700">τ_inh</tspan></text><line x1="561.0" y1="64" x2="561.0" y2="81" stroke="#185FA5" stroke-width="1.3" stroke-dasharray="3 3" opacity="0.6"/><rect x="324.3333333333333" y="152" width="134.0" height="23" rx="11.5" fill="#f8fafc" stroke="#e2e8f0" stroke-width="1"/><circle cx="338.3333333333333" cy="163.5" r="8" fill="#e2e8f0"/><text x="338.3333333333333" y="167" fill="#334155" font-size="10" font-weight="700" text-anchor="middle" font-family="-apple-system, BlinkMacSystemFont, 'Segoe UI', 'Inter', Helvetica, Arial, sans-serif">04</text><text x="352.3333333333333" y="168" fill="#64748b" font-size="11.5" font-weight="400" text-anchor="start" font-family="-apple-system, BlinkMacSystemFont, 'Segoe UI', 'Inter', Helvetica, Arial, sans-serif">data-level test</text><line x1="391.3333333333333" y1="118" x2="391.3333333333333" y2="152" stroke="#94a3b8" stroke-width="1.1" stroke-dasharray="2.5 2.5"/><rect x="468.4" y="152" width="185.20000000000002" height="23" rx="11.5" fill="#f8fafc" stroke="#e2e8f0" stroke-width="1"/><circle cx="482.4" cy="163.5" r="8" fill="#e2e8f0"/><text x="482.4" y="167" fill="#334155" font-size="10" font-weight="700" text-anchor="middle" font-family="-apple-system, BlinkMacSystemFont, 'Segoe UI', 'Inter', Helvetica, Arial, sans-serif">02</text><text x="496.4" y="168" fill="#64748b" font-size="11.5" font-weight="400" text-anchor="start" font-family="-apple-system, BlinkMacSystemFont, 'Segoe UI', 'Inter', Helvetica, Arial, sans-serif">builds the τ→peak curve</text><line x1="561.0" y1="152" x2="561.0" y2="131" stroke="#94a3b8" stroke-width="1.1" stroke-dasharray="2.5 2.5" marker-end="url(#dk)"/><rect x="658.0666666666666" y="152" width="153.2" height="23" rx="11.5" fill="#f8fafc" stroke="#e2e8f0" stroke-width="1"/><circle cx="672.0666666666666" cy="163.5" r="8" fill="#e2e8f0"/><text x="672.0666666666666" y="167" fill="#334155" font-size="10" font-weight="700" text-anchor="middle" font-family="-apple-system, BlinkMacSystemFont, 'Segoe UI', 'Inter', Helvetica, Arial, sans-serif">06</text><text x="686.0666666666666" y="168" fill="#64748b" font-size="11.5" font-weight="400" text-anchor="start" font-family="-apple-system, BlinkMacSystemFont, 'Segoe UI', 'Inter', Helvetica, Arial, sans-serif">recovers a known τ</text><line x1="734.6666666666666" y1="118" x2="734.6666666666666" y2="152" stroke="#94a3b8" stroke-width="1.1" stroke-dasharray="2.5 2.5"/><line x1="20" y1="186" x2="1160" y2="186" stroke="#e2e8f0" stroke-width="1.2"/><line x1="586" y1="198" x2="586" y2="588" stroke="#e2e8f0" stroke-width="1.4"/><text x="24" y="212" fill="#64748b" font-size="14.5" font-weight="500" text-anchor="start" font-family="-apple-system, BlinkMacSystemFont, 'Segoe UI', 'Inter', Helvetica, Arial, sans-serif">THE REPOSITORY</text><rect x="20" y="222" width="548" height="196" rx="10" fill="#ffffff" stroke="#e2e8f0" stroke-width="1"/><rect x="20" y="222" width="548" height="28" rx="10" fill="#eef2f7"/><rect x="20" y="236" width="548" height="14" rx="0" fill="#eef2f7"/><rect x="34" y="231" width="5" height="2.6" rx="1" fill="#334155"/><rect x="34" y="232.8" width="14" height="9.4" rx="1.6" fill="#334155"/><text x="56" y="241" fill="#334155" font-size="13.5" font-weight="500" text-anchor="start" font-family="'SF Mono', Menlo, Consolas, 'DejaVu Sans Mono', monospace">pd-eeg</text><text x="554" y="241" fill="#1d6fd6" font-size="12" font-weight="400" text-anchor="end" font-family="'SF Mono', Menlo, Consolas, 'DejaVu Sans Mono', monospace">main</text><rect x="38" y="257" width="5" height="2.6" rx="1" fill="#f0a83a"/><rect x="38" y="258.8" width="14" height="9.4" rx="1.6" fill="#f0a83a"/><text x="60" y="266" fill="#334155" font-size="13" font-weight="500" text-anchor="start" font-family="'SF Mono', Menlo, Consolas, 'DejaVu Sans Mono', monospace">scripts/</text><text x="554" y="266" fill="#94a3b8" font-size="11.5" font-weight="400" text-anchor="end" font-family="-apple-system, BlinkMacSystemFont, 'Segoe UI', 'Inter', Helvetica, Arial, sans-serif">01 … 06, numbered</text><line x1="44" y1="269.0" x2="44" y2="279.0" stroke="#e2e8f0" stroke-width="1"/><rect x="58" y="271.0" width="10" height="12" rx="1.4" fill="#bcdcff"/><polygon points="65,271.0 68,274.0 65,274.0" fill="#7fb0e8"/><text x="76" y="280.0" fill="#334155" font-size="12.5" font-weight="400" text-anchor="start" font-family="'SF Mono', Menlo, Consolas, 'DejaVu Sans Mono', monospace">01_extract_features.py</text><line x1="44" y1="283.0" x2="44" y2="293.0" stroke="#e2e8f0" stroke-width="1"/><rect x="58" y="285.0" width="10" height="12" rx="1.4" fill="#bcdcff"/><polygon points="65,285.0 68,288.0 65,288.0" fill="#7fb0e8"/><text x="76" y="294.0" fill="#334155" font-size="12.5" font-weight="400" text-anchor="start" font-family="'SF Mono', Menlo, Consolas, 'DejaVu Sans Mono', monospace">02_simulate_network.py</text><line x1="44" y1="297.0" x2="44" y2="307.0" stroke="#e2e8f0" stroke-width="1"/><rect x="58" y="299.0" width="10" height="12" rx="1.4" fill="#bcdcff"/><polygon points="65,299.0 68,302.0 65,302.0" fill="#7fb0e8"/><text x="76" y="308.0" fill="#334155" font-size="12.5" font-weight="400" text-anchor="start" font-family="'SF Mono', Menlo, Consolas, 'DejaVu Sans Mono', monospace">03_fit_per_subject.py</text><line x1="44" y1="311.0" x2="44" y2="321.0" stroke="#e2e8f0" stroke-width="1"/><rect x="58" y="313.0" width="10" height="12" rx="1.4" fill="#bcdcff"/><polygon points="65,313.0 68,316.0 65,316.0" fill="#7fb0e8"/><text x="76" y="322.0" fill="#334155" font-size="12.5" font-weight="400" text-anchor="start" font-family="'SF Mono', Menlo, Consolas, 'DejaVu Sans Mono', monospace">04_compare_features.py</text><line x1="44" y1="325.0" x2="44" y2="335.0" stroke="#e2e8f0" stroke-width="1"/><rect x="58" y="327.0" width="10" height="12" rx="1.4" fill="#bcdcff"/><polygon points="65,327.0 68,330.0 65,330.0" fill="#7fb0e8"/><text x="76" y="336.0" fill="#334155" font-size="12.5" font-weight="400" text-anchor="start" font-family="'SF Mono', Menlo, Consolas, 'DejaVu Sans Mono', monospace">05_compare_tau.py</text><line x1="44" y1="339.0" x2="44" y2="349.0" stroke="#e2e8f0" stroke-width="1"/><rect x="58" y="341.0" width="10" height="12" rx="1.4" fill="#bcdcff"/><polygon points="65,341.0 68,344.0 65,344.0" fill="#7fb0e8"/><text x="76" y="350.0" fill="#334155" font-size="12.5" font-weight="400" text-anchor="start" font-family="'SF Mono', Menlo, Consolas, 'DejaVu Sans Mono', monospace">06_recover_tau.py</text><rect x="38" y="355.0" width="5" height="2.6" rx="1" fill="#f0a83a"/><rect x="38" y="356.8" width="14" height="9.4" rx="1.6" fill="#f0a83a"/><text x="60" y="364.0" fill="#334155" font-size="13" font-weight="500" text-anchor="start" font-family="'SF Mono', Menlo, Consolas, 'DejaVu Sans Mono', monospace">src/</text><text x="554" y="364.0" fill="#94a3b8" font-size="11.5" font-weight="400" text-anchor="end" font-family="-apple-system, BlinkMacSystemFont, 'Segoe UI', 'Inter', Helvetica, Arial, sans-serif">features · model · fitting · stats</text><rect x="38" y="369.0" width="5" height="2.6" rx="1" fill="#f0a83a"/><rect x="38" y="370.8" width="14" height="9.4" rx="1.6" fill="#f0a83a"/><text x="60" y="378.0" fill="#334155" font-size="13" font-weight="500" text-anchor="start" font-family="'SF Mono', Menlo, Consolas, 'DejaVu Sans Mono', monospace">results/</text><text x="554" y="378.0" fill="#94a3b8" font-size="11.5" font-weight="400" text-anchor="end" font-family="-apple-system, BlinkMacSystemFont, 'Segoe UI', 'Inter', Helvetica, Arial, sans-serif">every run writes here</text><line x1="44" y1="381.0" x2="44" y2="391.0" stroke="#e2e8f0" stroke-width="1"/><rect x="58" y="383.0" width="5" height="2.6" rx="1" fill="#f0a83a"/><rect x="58" y="384.8" width="14" height="9.4" rx="1.6" fill="#f0a83a"/><text x="76" y="392.0" fill="#334155" font-size="12.5" font-weight="400" text-anchor="start" font-family="'SF Mono', Menlo, Consolas, 'DejaVu Sans Mono', monospace">figures/</text><text x="554" y="392.0" fill="#94a3b8" font-size="11.5" font-weight="400" text-anchor="end" font-family="-apple-system, BlinkMacSystemFont, 'Segoe UI', 'Inter', Helvetica, Arial, sans-serif">compare_tau.png · tau_recovery.png</text><rect x="38" y="397.0" width="5" height="2.6" rx="1" fill="#f0a83a"/><rect x="38" y="398.8" width="14" height="9.4" rx="1.6" fill="#f0a83a"/><text x="60" y="406.0" fill="#334155" font-size="13" font-weight="500" text-anchor="start" font-family="'SF Mono', Menlo, Consolas, 'DejaVu Sans Mono', monospace">slides/</text><text x="554" y="406.0" fill="#94a3b8" font-size="11.5" font-weight="400" text-anchor="end" font-family="-apple-system, BlinkMacSystemFont, 'Segoe UI', 'Inter', Helvetica, Arial, sans-serif">decks + notes</text><text x="24" y="440" fill="#64748b" font-size="13.5" font-weight="500" text-anchor="start" font-family="-apple-system, BlinkMacSystemFont, 'Segoe UI', 'Inter', Helvetica, Arial, sans-serif">VERSION CONTROL</text><text x="170" y="440" fill="#94a3b8" font-size="12" font-weight="400" text-anchor="start" font-family="-apple-system, BlinkMacSystemFont, 'Segoe UI', 'Inter', Helvetica, Arial, sans-serif">64 commits, all merged into main, reproducible</text><text x="20" y="570" fill="#0f172a" font-size="13" font-weight="600" text-anchor="start" font-family="'SF Mono', Menlo, Consolas, 'DejaVu Sans Mono', monospace">main</text><line x1="52" y1="566" x2="556" y2="566" stroke="#0f172a" stroke-width="2.6"/><circle cx="62" cy="566" r="4.2" fill="#0f172a"/><circle cx="104" cy="566" r="4.2" fill="#0f172a"/><circle cx="132" cy="566" r="4.2" fill="#0f172a"/><circle cx="236" cy="566" r="4.2" fill="#0f172a"/><circle cx="262" cy="566" r="4.2" fill="#0f172a"/><circle cx="360" cy="566" r="4.2" fill="#0f172a"/><circle cx="380" cy="566" r="4.2" fill="#0f172a"/><circle cx="448" cy="566" r="4.2" fill="#0f172a"/><circle cx="466" cy="566" r="4.2" fill="#0f172a"/><circle cx="550" cy="566" r="4.2" fill="#0f172a"/><rect x="504" y="541" width="52" height="17" rx="8.5" fill="#0f172a"/><text x="530" y="553.5" fill="#ffffff" font-size="11" font-weight="600" text-anchor="middle" font-family="-apple-system, BlinkMacSystemFont, 'Segoe UI', 'Inter', Helvetica, Arial, sans-serif">latest</text><path d="M 104 566 C 114.8 566 122 506.0 122 466" fill="none" stroke="#1d6fd6" stroke-width="2.2"/><line x1="122" y1="466" x2="448" y2="466" stroke="#1d6fd6" stroke-width="2.2"/><path d="M 448 466 C 448 506.0 455.2 566 466 566" fill="none" stroke="#1d6fd6" stroke-width="2.2"/><circle cx="122" cy="466" r="4.2" fill="#ffffff" stroke="#1d6fd6" stroke-width="2.2"/><circle cx="231" cy="466" r="4.2" fill="#ffffff" stroke="#1d6fd6" stroke-width="2.2"/><circle cx="339" cy="466" r="4.2" fill="#ffffff" stroke="#1d6fd6" stroke-width="2.2"/><circle cx="448" cy="466" r="4.2" fill="#ffffff" stroke="#1d6fd6" stroke-width="2.2"/><text x="120" y="457" fill="#1d6fd6" font-size="11.5" font-weight="600" text-anchor="start" font-family="-apple-system, BlinkMacSystemFont, 'Segoe UI', 'Inter', Helvetica, Arial, sans-serif">rui</text><rect x="149.7" y="446" width="60" height="17" rx="8.5" fill="#ffffff" stroke="#1d6fd6" stroke-width="1.3"/><text x="179.7" y="458" fill="#1d6fd6" font-size="10" font-weight="700" text-anchor="middle" font-family="-apple-system, BlinkMacSystemFont, 'Segoe UI', 'Inter', Helvetica, Arial, sans-serif">✓ merged</text><path d="M 132 566 C 142.8 566 150 520.4 150 490" fill="none" stroke="#e2622f" stroke-width="2.2"/><line x1="150" y1="490" x2="218" y2="490" stroke="#e2622f" stroke-width="2.2"/><path d="M 218 490 C 218 520.4 225.2 566 236 566" fill="none" stroke="#e2622f" stroke-width="2.2"/><circle cx="184" cy="490" r="4.2" fill="#ffffff" stroke="#e2622f" stroke-width="2.2"/><text x="148" y="481" fill="#e2622f" font-size="11.5" font-weight="600" text-anchor="start" font-family="-apple-system, BlinkMacSystemFont, 'Segoe UI', 'Inter', Helvetica, Arial, sans-serif">melissa</text><rect x="205.3" y="470" width="60" height="17" rx="8.5" fill="#ffffff" stroke="#e2622f" stroke-width="1.3"/><text x="235.3" y="482" fill="#e2622f" font-size="10" font-weight="700" text-anchor="middle" font-family="-apple-system, BlinkMacSystemFont, 'Segoe UI', 'Inter', Helvetica, Arial, sans-serif">✓ merged</text><path d="M 262 566 C 272.8 566 280 534.8 280 514" fill="none" stroke="#0d9488" stroke-width="2.2"/><line x1="280" y1="514" x2="342" y2="514" stroke="#0d9488" stroke-width="2.2"/><path d="M 342 514 C 342 534.8 349.2 566 360 566" fill="none" stroke="#0d9488" stroke-width="2.2"/><circle cx="311" cy="514" r="4.2" fill="#ffffff" stroke="#0d9488" stroke-width="2.2"/><text x="278" y="505" fill="#0d9488" font-size="11.5" font-weight="600" text-anchor="start" font-family="-apple-system, BlinkMacSystemFont, 'Segoe UI', 'Inter', Helvetica, Arial, sans-serif">jan</text><rect x="307.7" y="494" width="60" height="17" rx="8.5" fill="#ffffff" stroke="#0d9488" stroke-width="1.3"/><text x="337.7" y="506" fill="#0d9488" font-size="10" font-weight="700" text-anchor="middle" font-family="-apple-system, BlinkMacSystemFont, 'Segoe UI', 'Inter', Helvetica, Arial, sans-serif">✓ merged</text><path d="M 380 566 C 390.8 566 398 520.4 398 490" fill="none" stroke="#7c4dd6" stroke-width="2.2"/><line x1="398" y1="490" x2="430" y2="490" stroke="#7c4dd6" stroke-width="2.2"/><path d="M 430 490 C 430 520.4 437.2 566 448 566" fill="none" stroke="#7c4dd6" stroke-width="2.2"/><circle cx="414" cy="490" r="4.2" fill="#ffffff" stroke="#7c4dd6" stroke-width="2.2"/><text x="396" y="481" fill="#7c4dd6" font-size="11.5" font-weight="600" text-anchor="start" font-family="-apple-system, BlinkMacSystemFont, 'Segoe UI', 'Inter', Helvetica, Arial, sans-serif">friedrich</text><rect x="467.1" y="470" width="60" height="17" rx="8.5" fill="#ffffff" stroke="#7c4dd6" stroke-width="1.3"/><text x="497.1" y="482" fill="#7c4dd6" font-size="10" font-weight="700" text-anchor="middle" font-family="-apple-system, BlinkMacSystemFont, 'Segoe UI', 'Inter', Helvetica, Arial, sans-serif">✓ merged</text><text x="612" y="212" fill="#64748b" font-size="14.5" font-weight="500" text-anchor="start" font-family="-apple-system, BlinkMacSystemFont, 'Segoe UI', 'Inter', Helvetica, Arial, sans-serif">THE MODEL, IN CODE</text><text x="806" y="212" fill="#94a3b8" font-size="13" font-weight="400" text-anchor="start" font-family="-apple-system, BlinkMacSystemFont, 'Segoe UI', 'Inter', Helvetica, Arial, sans-serif">one function, one free parameter</text><rect x="612" y="222" width="548" height="370" rx="10" fill="#fbfcfe" stroke="#e2e8f0" stroke-width="1"/><rect x="612" y="222" width="548" height="26" rx="10" fill="#eef2f7"/><rect x="612" y="235" width="548" height="13" rx="0" fill="#eef2f7"/><circle cx="628" cy="235" r="4" fill="#ef4444"/><circle cx="643" cy="235" r="4" fill="#f59e0b"/><circle cx="658" cy="235" r="4" fill="#22c55e"/><text x="1146" y="239" fill="#64748b" font-size="11.5" font-weight="400" text-anchor="end" font-family="'SF Mono', Menlo, Consolas, 'DejaVu Sans Mono', monospace">src/model.py</text><text x="630" y="270" font-family="'SF Mono', Menlo, Consolas, 'DejaVu Sans Mono', monospace" font-size="12.5"><tspan fill="#6e7781"># the whole model is one function; one number is the difference</tspan></text><text x="630" y="286" font-family="'SF Mono', Menlo, Consolas, 'DejaVu Sans Mono', monospace" font-size="12.5"><tspan fill="#cf222e">def </tspan><tspan fill="#6639ba">build_network</tspan><tspan fill="#1f2328">(n_nodes, tau_inh, </tspan><tspan fill="#cf222e">*</tspan><tspan fill="#1f2328">,</tspan></text><text x="760" y="301" font-family="'SF Mono', Menlo, Consolas, 'DejaVu Sans Mono', monospace" font-size="12.5"><tspan fill="#1f2328">exc_ext=</tspan><tspan fill="#0550ae">0.65</tspan><tspan fill="#1f2328">,</tspan><tspan fill="#6e7781">       # external drive</tspan></text><text x="760" y="317" font-family="'SF Mono', Menlo, Consolas, 'DejaVu Sans Mono', monospace" font-size="12.5"><tspan fill="#1f2328">sigma_ou=</tspan><tspan fill="#0550ae">0</tspan><tspan fill="#1f2328">,</tspan><tspan fill="#6e7781">         # deterministic, no noise</tspan></text><text x="760" y="332" font-family="'SF Mono', Menlo, Consolas, 'DejaVu Sans Mono', monospace" font-size="12.5"><tspan fill="#1f2328">K_gl=</tspan><tspan fill="#0550ae">0.6</tspan><tspan fill="#1f2328">,</tspan><tspan fill="#6e7781">           # global coupling</tspan></text><text x="760" y="348" font-family="'SF Mono', Menlo, Consolas, 'DejaVu Sans Mono', monospace" font-size="12.5"><tspan fill="#1f2328">duration_ms=</tspan><tspan fill="#0550ae">8000</tspan><tspan fill="#1f2328">):</tspan><tspan fill="#6e7781">  # simulation length</tspan></text><text x="658" y="364" font-family="'SF Mono', Menlo, Consolas, 'DejaVu Sans Mono', monospace" font-size="12.5"><tspan fill="#0a3069">"""A Wilson-Cowan network. tau_inh is the one free</tspan></text><text x="658" y="379" font-family="'SF Mono', Menlo, Consolas, 'DejaVu Sans Mono', monospace" font-size="12.5"><tspan fill="#0a3069">parameter; everything else stays at these defaults."""</tspan></text><text x="658" y="395" font-family="'SF Mono', Menlo, Consolas, 'DejaVu Sans Mono', monospace" font-size="12.5"><tspan fill="#1f2328">Cmat, Dmat = </tspan><tspan fill="#6639ba">all_to_all_coupling</tspan><tspan fill="#1f2328">(n_nodes)</tspan></text><text x="658" y="410" font-family="'SF Mono', Menlo, Consolas, 'DejaVu Sans Mono', monospace" font-size="12.5"><tspan fill="#1f2328">model = </tspan><tspan fill="#953800">WCModel</tspan><tspan fill="#1f2328">(Cmat=Cmat, Dmat=Dmat)</tspan></text><text x="658" y="426" font-family="'SF Mono', Menlo, Consolas, 'DejaVu Sans Mono', monospace" font-size="12.5"><tspan fill="#1f2328">model.params[</tspan><tspan fill="#0a3069">"tau_inh"</tspan><tspan fill="#1f2328">]  = tau_inh</tspan><tspan fill="#6e7781">    # the one knob we turn</tspan></text><text x="658" y="442" font-family="'SF Mono', Menlo, Consolas, 'DejaVu Sans Mono', monospace" font-size="12.5"><tspan fill="#1f2328">model.params[</tspan><tspan fill="#0a3069">"exc_ext"</tspan><tspan fill="#1f2328">]  = exc_ext</tspan></text><text x="658" y="457" font-family="'SF Mono', Menlo, Consolas, 'DejaVu Sans Mono', monospace" font-size="12.5"><tspan fill="#1f2328">model.params[</tspan><tspan fill="#0a3069">"sigma_ou"</tspan><tspan fill="#1f2328">] = sigma_ou</tspan></text><text x="658" y="473" font-family="'SF Mono', Menlo, Consolas, 'DejaVu Sans Mono', monospace" font-size="12.5"><tspan fill="#1f2328">model.params[</tspan><tspan fill="#0a3069">"K_gl"</tspan><tspan fill="#1f2328">]     = K_gl</tspan></text><text x="658" y="488" font-family="'SF Mono', Menlo, Consolas, 'DejaVu Sans Mono', monospace" font-size="12.5"><tspan fill="#1f2328">model.params[</tspan><tspan fill="#0a3069">"duration"</tspan><tspan fill="#1f2328">] = duration_ms</tspan></text><text x="658" y="504" font-family="'SF Mono', Menlo, Consolas, 'DejaVu Sans Mono', monospace" font-size="12.5"><tspan fill="#cf222e">return </tspan><tspan fill="#1f2328">model</tspan></text><text x="630" y="529" font-family="'SF Mono', Menlo, Consolas, 'DejaVu Sans Mono', monospace" font-size="12.5"><tspan fill="#6e7781"># healthy vs patient: same function, one number changed</tspan></text><text x="630" y="544" font-family="'SF Mono', Menlo, Consolas, 'DejaVu Sans Mono', monospace" font-size="12.5"><tspan fill="#1f2328">control = </tspan><tspan fill="#6639ba">build_network</tspan><tspan fill="#1f2328">(</tspan><tspan fill="#0550ae">8</tspan><tspan fill="#1f2328">, tau_inh=</tspan><tspan fill="#0550ae">18.25</tspan><tspan fill="#1f2328">)</tspan><tspan fill="#6e7781">   # alpha 9.25 Hz</tspan></text><text x="630" y="560" font-family="'SF Mono', Menlo, Consolas, 'DejaVu Sans Mono', monospace" font-size="12.5"><tspan fill="#1f2328">patient = </tspan><tspan fill="#6639ba">build_network</tspan><tspan fill="#1f2328">(</tspan><tspan fill="#0550ae">8</tspan><tspan fill="#1f2328">, tau_inh=</tspan><tspan fill="#0550ae">21.50</tspan><tspan fill="#1f2328">)</tspan><tspan fill="#6e7781">   # 8 Hz, +3.25 ms</tspan></text></svg>