<svg viewBox="0 0 1180 600" xmlns="http://www.w3.org/2000/svg" font-family="-apple-system, BlinkMacSystemFont, 'Segoe UI', 'Inter', Helvetica, Arial, sans-serif"><defs><marker id="bl" markerWidth="8" markerHeight="8" refX="6" refY="4" orient="auto"><path d="M0,0 L0,8 L7,4 z" fill="#1d6fd6"/></marker><marker id="or" markerWidth="8" markerHeight="8" refX="6" refY="4" orient="auto"><path d="M0,0 L0,8 L7,4 z" fill="#e2622f"/></marker><marker id="te" markerWidth="8" markerHeight="8" refX="6" refY="4" orient="auto"><path d="M0,0 L0,8 L7,4 z" fill="#0d9488"/></marker><marker id="pu" markerWidth="8" markerHeight="8" refX="6" refY="4" orient="auto"><path d="M0,0 L0,8 L7,4 z" fill="#7c4dd6"/></marker><marker id="mu" markerWidth="8" markerHeight="8" refX="6" refY="4" orient="auto"><path d="M0,0 L0,8 L7,4 z" fill="#64748b"/></marker><marker id="fa" markerWidth="8" markerHeight="8" refX="6" refY="4" orient="auto"><path d="M0,0 L0,8 L7,4 z" fill="#cbd5e1"/></marker><marker id="dk" markerWidth="8" markerHeight="8" refX="6" refY="4" orient="auto"><path d="M0,0 L0,8 L7,4 z" fill="#475569"/></marker></defs><text x="20" y="16" fill="#64748b" font-size="12.5" font-weight="500" text-anchor="start" font-family="-apple-system, BlinkMacSystemFont, 'Segoe UI', 'Inter', Helvetica, Arial, sans-serif">THE PIPELINE</text><text x="132" y="16" fill="#94a3b8" font-size="12" font-weight="400" text-anchor="start" font-family="-apple-system, BlinkMacSystemFont, 'Segoe UI', 'Inter', Helvetica, Arial, sans-serif">EEG to result, through six numbered scripts</text><rect x="20.0" y="89" width="88" height="30" rx="8" fill="#f1f5f9" stroke="#e2e8f0" stroke-width="1"/><text x="64.0" y="108" fill="#475569" font-size="11.5" font-weight="500" text-anchor="middle" font-family="'SF Mono', Menlo, Consolas, 'DejaVu Sans Mono', monospace">EEG · 149</text><line x1="117.0" y1="104" x2="163.3" y2="104" stroke="#cbd5e1" stroke-width="1.8" marker-end="url(#fa)"/><rect x="172.33333333333331" y="82" width="92" height="44" rx="9" fill="#1d6fd6"/><text x="218.33333333333331" y="101" fill="#ffffff" font-size="16" font-weight="700" text-anchor="middle" font-family="-apple-system, BlinkMacSystemFont, 'Segoe UI', 'Inter', Helvetica, Arial, sans-serif">01</text><text x="218.33333333333331" y="118" fill="#cfe2ff" font-size="11" font-weight="500" text-anchor="middle" font-family="-apple-system, BlinkMacSystemFont, 'Segoe UI', 'Inter', Helvetica, Arial, sans-serif">extract</text><line x1="273.3" y1="104" x2="319.7" y2="104" stroke="#cbd5e1" stroke-width="1.8" marker-end="url(#fa)"/><rect x="328.66666666666663" y="89" width="118" height="30" rx="8" fill="#f1f5f9" stroke="#e2e8f0" stroke-width="1"/><text x="387.66666666666663" y="108" fill="#475569" font-size="11.5" font-weight="500" text-anchor="middle" font-family="'SF Mono', Menlo, Consolas, 'DejaVu Sans Mono', monospace">features.csv</text><line x1="455.7" y1="104" x2="502.0" y2="104" stroke="#cbd5e1" stroke-width="1.8" marker-end="url(#fa)"/><rect x="510.99999999999994" y="82" width="84" height="44" rx="9" fill="#1d6fd6"/><text x="553.0" y="101" fill="#ffffff" font-size="16" font-weight="700" text-anchor="middle" font-family="-apple-system, BlinkMacSystemFont, 'Segoe UI', 'Inter', Helvetica, Arial, sans-serif">03</text><text x="553.0" y="118" fill="#cfe2ff" font-size="11" font-weight="500" text-anchor="middle" font-family="-apple-system, BlinkMacSystemFont, 'Segoe UI', 'Inter', Helvetica, Arial, sans-serif">fit</text><line x1="604.0" y1="104" x2="650.3" y2="104" stroke="#cbd5e1" stroke-width="1.8" marker-end="url(#fa)"/><rect x="659.3333333333333" y="89" width="126" height="30" rx="8" fill="#f1f5f9" stroke="#e2e8f0" stroke-width="1"/><text x="722.3333333333333" y="108" fill="#475569" font-size="11.5" font-weight="500" text-anchor="middle" font-family="'SF Mono', Menlo, Consolas, 'DejaVu Sans Mono', monospace">fitted_tau.csv</text><line x1="794.3" y1="104" x2="840.7" y2="104" stroke="#cbd5e1" stroke-width="1.8" marker-end="url(#fa)"/><rect x="849.6666666666665" y="82" width="96" height="44" rx="9" fill="#1d6fd6"/><text x="897.6666666666665" y="101" fill="#ffffff" font-size="16" font-weight="700" text-anchor="middle" font-family="-apple-system, BlinkMacSystemFont, 'Segoe UI', 'Inter', Helvetica, Arial, sans-serif">05</text><text x="897.6666666666665" y="118" fill="#cfe2ff" font-size="11" font-weight="500" text-anchor="middle" font-family="-apple-system, BlinkMacSystemFont, 'Segoe UI', 'Inter', Helvetica, Arial, sans-serif">compare</text><line x1="954.7" y1="104" x2="1001.0" y2="104" stroke="#cbd5e1" stroke-width="1.8" marker-end="url(#fa)"/><rect x="1009.9999999999998" y="86" width="150" height="36" rx="9" fill="#fdf1ec" stroke="#e2622f" stroke-width="1.4"/><text x="1084.9999999999998" y="109" fill="#a8431f" font-size="13" font-weight="600" text-anchor="middle" font-family="-apple-system, BlinkMacSystemFont, 'Segoe UI', 'Inter', Helvetica, Arial, sans-serif">PD vs Control</text><rect x="387.0" y="24" width="332" height="40" rx="10" fill="#fdf6f3" stroke="#e2622f" stroke-width="1.2"/><text x="553.0" y="40" fill="#64748b" font-size="11.5" font-weight="400" text-anchor="middle" font-family="-apple-system, BlinkMacSystemFont, 'Segoe UI', 'Inter', Helvetica, Arial, sans-serif">one number separates the two models:</text><text x="553.0" y="56" text-anchor="middle" font-family="-apple-system, BlinkMacSystemFont, 'Segoe UI', 'Inter', Helvetica, Arial, sans-serif" font-size="13.5"><tspan fill="#334155" font-weight="500">the inhibitory time constant  </tspan><tspan fill="#a8431f" font-weight="700">τ_inh</tspan></text><line x1="553.0" y1="64" x2="553.0" y2="82" stroke="#e2622f" stroke-width="1.3" stroke-dasharray="3 3" opacity="0.7"/><rect x="328.66666666666663" y="152" width="118.0" height="22" rx="11" fill="#f8fafc" stroke="#e2e8f0" stroke-width="1"/><circle cx="341.66666666666663" cy="163" r="7.5" fill="#e2e8f0"/><text x="341.66666666666663" y="166.5" fill="#334155" font-size="9" font-weight="700" text-anchor="middle" font-family="-apple-system, BlinkMacSystemFont, 'Segoe UI', 'Inter', Helvetica, Arial, sans-serif">04</text><text x="354.66666666666663" y="167" fill="#64748b" font-size="10.5" font-weight="400" text-anchor="start" font-family="-apple-system, BlinkMacSystemFont, 'Segoe UI', 'Inter', Helvetica, Arial, sans-serif">data-level test</text><line x1="387.66666666666663" y1="119" x2="387.66666666666663" y2="152" stroke="#94a3b8" stroke-width="1.1" stroke-dasharray="2.5 2.5"/><rect x="471.6" y="152" width="162.79999999999998" height="22" rx="11" fill="#f8fafc" stroke="#e2e8f0" stroke-width="1"/><circle cx="484.6" cy="163" r="7.5" fill="#e2e8f0"/><text x="484.6" y="166.5" fill="#334155" font-size="9" font-weight="700" text-anchor="middle" font-family="-apple-system, BlinkMacSystemFont, 'Segoe UI', 'Inter', Helvetica, Arial, sans-serif">02</text><text x="497.6" y="167" fill="#64748b" font-size="10.5" font-weight="400" text-anchor="start" font-family="-apple-system, BlinkMacSystemFont, 'Segoe UI', 'Inter', Helvetica, Arial, sans-serif">builds the τ→peak curve</text><line x1="553.0" y1="152" x2="553.0" y2="131" stroke="#94a3b8" stroke-width="1.1" stroke-dasharray="2.5 2.5" marker-end="url(#dk)"/><rect x="646.5333333333333" y="152" width="151.6" height="22" rx="11" fill="#f8fafc" stroke="#e2e8f0" stroke-width="1"/><circle cx="659.5333333333333" cy="163" r="7.5" fill="#e2e8f0"/><text x="659.5333333333333" y="166.5" fill="#334155" font-size="9" font-weight="700" text-anchor="middle" font-family="-apple-system, BlinkMacSystemFont, 'Segoe UI', 'Inter', Helvetica, Arial, sans-serif">06</text><text x="672.5333333333333" y="167" fill="#64748b" font-size="10.5" font-weight="400" text-anchor="start" font-family="-apple-system, BlinkMacSystemFont, 'Segoe UI', 'Inter', Helvetica, Arial, sans-serif">recovers a known τ  ✓</text><line x1="722.3333333333333" y1="119" x2="722.3333333333333" y2="152" stroke="#94a3b8" stroke-width="1.1" stroke-dasharray="2.5 2.5"/><line x1="20" y1="186" x2="1160" y2="186" stroke="#e2e8f0" stroke-width="1.2"/><line x1="586" y1="198" x2="586" y2="588" stroke="#e2e8f0" stroke-width="1.4"/><text x="24" y="212" fill="#64748b" font-size="12.5" font-weight="500" text-anchor="start" font-family="-apple-system, BlinkMacSystemFont, 'Segoe UI', 'Inter', Helvetica, Arial, sans-serif">THE REPOSITORY</text><rect x="20" y="222" width="548" height="224" rx="10" fill="#ffffff" stroke="#e2e8f0" stroke-width="1"/><rect x="20" y="222" width="548" height="28" rx="10" fill="#eef2f7"/><rect x="20" y="236" width="548" height="14" rx="0" fill="#eef2f7"/><rect x="34" y="231" width="5" height="2.6" rx="1" fill="#334155"/><rect x="34" y="232.8" width="14" height="9.4" rx="1.6" fill="#334155"/><text x="56" y="241" fill="#334155" font-size="12.5" font-weight="500" text-anchor="start" font-family="'SF Mono', Menlo, Consolas, 'DejaVu Sans Mono', monospace">pd-eeg</text><text x="554" y="241" fill="#1d6fd6" font-size="11" font-weight="400" text-anchor="end" font-family="'SF Mono', Menlo, Consolas, 'DejaVu Sans Mono', monospace">main</text><rect x="38" y="257" width="5" height="2.6" rx="1" fill="#f0a83a"/><rect x="38" y="258.8" width="14" height="9.4" rx="1.6" fill="#f0a83a"/><text x="60" y="266" fill="#334155" font-size="12" font-weight="500" text-anchor="start" font-family="'SF Mono', Menlo, Consolas, 'DejaVu Sans Mono', monospace">scripts/</text><text x="554" y="266" fill="#94a3b8" font-size="10.5" font-weight="400" text-anchor="end" font-family="-apple-system, BlinkMacSystemFont, 'Segoe UI', 'Inter', Helvetica, Arial, sans-serif">01 … 06, numbered</text><line x1="44" y1="269.0" x2="44" y2="279.0" stroke="#e2e8f0" stroke-width="1"/><rect x="58" y="271.0" width="10" height="12" rx="1.4" fill="#bcdcff"/><polygon points="65,271.0 68,274.0 65,274.0" fill="#7fb0e8"/><text x="76" y="280.0" fill="#334155" font-size="11.5" font-weight="400" text-anchor="start" font-family="'SF Mono', Menlo, Consolas, 'DejaVu Sans Mono', monospace">01_extract_features.py</text><line x1="44" y1="283.0" x2="44" y2="293.0" stroke="#e2e8f0" stroke-width="1"/><rect x="58" y="285.0" width="10" height="12" rx="1.4" fill="#bcdcff"/><polygon points="65,285.0 68,288.0 65,288.0" fill="#7fb0e8"/><text x="76" y="294.0" fill="#334155" font-size="11.5" font-weight="400" text-anchor="start" font-family="'SF Mono', Menlo, Consolas, 'DejaVu Sans Mono', monospace">02_simulate_network.py</text><line x1="44" y1="297.0" x2="44" y2="307.0" stroke="#e2e8f0" stroke-width="1"/><rect x="58" y="299.0" width="10" height="12" rx="1.4" fill="#bcdcff"/><polygon points="65,299.0 68,302.0 65,302.0" fill="#7fb0e8"/><text x="76" y="308.0" fill="#334155" font-size="11.5" font-weight="400" text-anchor="start" font-family="'SF Mono', Menlo, Consolas, 'DejaVu Sans Mono', monospace">03_fit_per_subject.py</text><line x1="44" y1="311.0" x2="44" y2="321.0" stroke="#e2e8f0" stroke-width="1"/><rect x="58" y="313.0" width="10" height="12" rx="1.4" fill="#bcdcff"/><polygon points="65,313.0 68,316.0 65,316.0" fill="#7fb0e8"/><text x="76" y="322.0" fill="#334155" font-size="11.5" font-weight="400" text-anchor="start" font-family="'SF Mono', Menlo, Consolas, 'DejaVu Sans Mono', monospace">04_compare_features.py</text><line x1="44" y1="325.0" x2="44" y2="335.0" stroke="#e2e8f0" stroke-width="1"/><rect x="58" y="327.0" width="10" height="12" rx="1.4" fill="#bcdcff"/><polygon points="65,327.0 68,330.0 65,330.0" fill="#7fb0e8"/><text x="76" y="336.0" fill="#334155" font-size="11.5" font-weight="400" text-anchor="start" font-family="'SF Mono', Menlo, Consolas, 'DejaVu Sans Mono', monospace">05_compare_tau.py</text><line x1="44" y1="339.0" x2="44" y2="349.0" stroke="#e2e8f0" stroke-width="1"/><rect x="58" y="341.0" width="10" height="12" rx="1.4" fill="#bcdcff"/><polygon points="65,341.0 68,344.0 65,344.0" fill="#7fb0e8"/><text x="76" y="350.0" fill="#334155" font-size="11.5" font-weight="400" text-anchor="start" font-family="'SF Mono', Menlo, Consolas, 'DejaVu Sans Mono', monospace">06_recover_tau.py</text><rect x="38" y="355.0" width="5" height="2.6" rx="1" fill="#f0a83a"/><rect x="38" y="356.8" width="14" height="9.4" rx="1.6" fill="#f0a83a"/><text x="60" y="364.0" fill="#334155" font-size="12" font-weight="500" text-anchor="start" font-family="'SF Mono', Menlo, Consolas, 'DejaVu Sans Mono', monospace">src/</text><text x="554" y="364.0" fill="#94a3b8" font-size="10.5" font-weight="400" text-anchor="end" font-family="-apple-system, BlinkMacSystemFont, 'Segoe UI', 'Inter', Helvetica, Arial, sans-serif">features · model · fitting · stats</text><rect x="38" y="369.0" width="5" height="2.6" rx="1" fill="#f0a83a"/><rect x="38" y="370.8" width="14" height="9.4" rx="1.6" fill="#f0a83a"/><text x="60" y="378.0" fill="#334155" font-size="12" font-weight="500" text-anchor="start" font-family="'SF Mono', Menlo, Consolas, 'DejaVu Sans Mono', monospace">results/</text><text x="554" y="378.0" fill="#94a3b8" font-size="10.5" font-weight="400" text-anchor="end" font-family="-apple-system, BlinkMacSystemFont, 'Segoe UI', 'Inter', Helvetica, Arial, sans-serif">every run writes here</text><line x1="44" y1="381.0" x2="44" y2="391.0" stroke="#e2e8f0" stroke-width="1"/><rect x="58" y="383.0" width="10" height="12" rx="1.4" fill="#bcdcff"/><polygon points="65,383.0 68,386.0 65,386.0" fill="#7fb0e8"/><text x="76" y="392.0" fill="#334155" font-size="11.5" font-weight="400" text-anchor="start" font-family="'SF Mono', Menlo, Consolas, 'DejaVu Sans Mono', monospace">fitted_tau.csv</text><line x1="44" y1="395.0" x2="44" y2="405.0" stroke="#e2e8f0" stroke-width="1"/><rect x="58" y="397.0" width="10" height="12" rx="1.4" fill="#bcdcff"/><polygon points="65,397.0 68,400.0 65,400.0" fill="#7fb0e8"/><text x="76" y="406.0" fill="#334155" font-size="11.5" font-weight="400" text-anchor="start" font-family="'SF Mono', Menlo, Consolas, 'DejaVu Sans Mono', monospace">tau_recovery.csv</text><line x1="44" y1="409.0" x2="44" y2="419.0" stroke="#e2e8f0" stroke-width="1"/><rect x="58" y="411.0" width="5" height="2.6" rx="1" fill="#f0a83a"/><rect x="58" y="412.8" width="14" height="9.4" rx="1.6" fill="#f0a83a"/><text x="76" y="420.0" fill="#334155" font-size="11.5" font-weight="400" text-anchor="start" font-family="'SF Mono', Menlo, Consolas, 'DejaVu Sans Mono', monospace">figures/</text><text x="554" y="420.0" fill="#94a3b8" font-size="10.5" font-weight="400" text-anchor="end" font-family="-apple-system, BlinkMacSystemFont, 'Segoe UI', 'Inter', Helvetica, Arial, sans-serif">compare_tau.png · tau_recovery.png</text><rect x="38" y="425.0" width="5" height="2.6" rx="1" fill="#f0a83a"/><rect x="38" y="426.8" width="14" height="9.4" rx="1.6" fill="#f0a83a"/><text x="60" y="434.0" fill="#334155" font-size="12" font-weight="500" text-anchor="start" font-family="'SF Mono', Menlo, Consolas, 'DejaVu Sans Mono', monospace">slides/</text><text x="554" y="434.0" fill="#94a3b8" font-size="10.5" font-weight="400" text-anchor="end" font-family="-apple-system, BlinkMacSystemFont, 'Segoe UI', 'Inter', Helvetica, Arial, sans-serif">decks + notes</text><text x="24" y="454" fill="#64748b" font-size="12" font-weight="500" text-anchor="start" font-family="-apple-system, BlinkMacSystemFont, 'Segoe UI', 'Inter', Helvetica, Arial, sans-serif">every result is one script run</text><rect x="20" y="462" width="548" height="130" rx="10" fill="#0f172a"/><rect x="20" y="462" width="548" height="25" rx="10" fill="#1e293b"/><rect x="20" y="475" width="548" height="12" rx="0" fill="#1e293b"/><circle cx="38" cy="474.5" r="4.4" fill="#ef4444"/><circle cx="54" cy="474.5" r="4.4" fill="#f59e0b"/><circle cx="70" cy="474.5" r="4.4" fill="#22c55e"/><text x="554" y="478" fill="#94a3b8" font-size="10.5" font-weight="400" text-anchor="end" font-family="'SF Mono', Menlo, Consolas, 'DejaVu Sans Mono', monospace">bash</text><text x="38" y="504" font-family="'SF Mono', Menlo, Consolas, 'DejaVu Sans Mono', monospace" font-size="11.5"><tspan fill="#16a34a" font-weight="700">$ </tspan><tspan fill="#e2e8f0">python scripts/05_compare_tau.py</tspan></text><text x="38" y="520" font-family="'SF Mono', Menlo, Consolas, 'DejaVu Sans Mono', monospace" font-size="11.5"><tspan fill="#86efac">  Control 18.25 → PD 21.50 ms   diff </tspan><tspan fill="#fde68a" font-weight="700">+3.25</tspan><tspan fill="#86efac">   p = 0.00025 ***</tspan></text><text x="38" y="535" font-family="'SF Mono', Menlo, Consolas, 'DejaVu Sans Mono', monospace" font-size="11.5"><tspan fill="#64748b">  → wrote </tspan><tspan fill="#7dd3fc">results/figures/compare_tau.png</tspan></text><text x="38" y="550" font-family="'SF Mono', Menlo, Consolas, 'DejaVu Sans Mono', monospace" font-size="11.5"><tspan fill="#16a34a" font-weight="700">$ </tspan><tspan fill="#e2e8f0">python scripts/06_recover_tau.py</tspan></text><text x="38" y="566" font-family="'SF Mono', Menlo, Consolas, 'DejaVu Sans Mono', monospace" font-size="11.5"><tspan fill="#86efac">  22 known tau recovered   bias </tspan><tspan fill="#fde68a" font-weight="700">−0.10</tspan><tspan fill="#86efac">   max err 1.75 ms</tspan></text><text x="38" y="582" font-family="'SF Mono', Menlo, Consolas, 'DejaVu Sans Mono', monospace" font-size="11.5"><tspan fill="#64748b">  → wrote </tspan><tspan fill="#7dd3fc">results/tau_recovery.csv</tspan></text><text x="612" y="212" fill="#64748b" font-size="12.5" font-weight="500" text-anchor="start" font-family="-apple-system, BlinkMacSystemFont, 'Segoe UI', 'Inter', Helvetica, Arial, sans-serif">VERSION CONTROL</text><text x="770" y="212" fill="#94a3b8" font-size="11.5" font-weight="400" text-anchor="start" font-family="-apple-system, BlinkMacSystemFont, 'Segoe UI', 'Inter', Helvetica, Arial, sans-serif">feature branches, reviewed, merged into main</text><text x="612" y="484" fill="#0f172a" font-size="13" font-weight="600" text-anchor="start" font-family="'SF Mono', Menlo, Consolas, 'DejaVu Sans Mono', monospace">main</text><line x1="656" y1="480" x2="1140" y2="480" stroke="#0f172a" stroke-width="3"/><circle cx="668" cy="480" r="5" fill="#0f172a"/><circle cx="676" cy="480" r="5" fill="#0f172a"/><circle cx="726" cy="480" r="5" fill="#0f172a"/><circle cx="800" cy="480" r="5" fill="#0f172a"/><circle cx="838" cy="480" r="5" fill="#0f172a"/><circle cx="902" cy="480" r="5" fill="#0f172a"/><circle cx="904" cy="480" r="5" fill="#0f172a"/><circle cx="1006" cy="480" r="5" fill="#0f172a"/><circle cx="1066" cy="480" r="5" fill="#0f172a"/><circle cx="1134" cy="480" r="5" fill="#0f172a"/><rect x="1078" y="450" width="62" height="19" rx="9.5" fill="#0f172a"/><text x="1109" y="463.5" fill="#ffffff" font-size="11" font-weight="600" text-anchor="middle" font-family="-apple-system, BlinkMacSystemFont, 'Segoe UI', 'Inter', Helvetica, Arial, sans-serif">latest</text><path d="M 676 480 C 689.2 480 698 375.6 698 306" fill="none" stroke="#1d6fd6" stroke-width="2.4"/><line x1="698" y1="306" x2="1044" y2="306" stroke="#1d6fd6" stroke-width="2.4"/><path d="M 1044 306 C 1044 375.6 1052.8 480 1066 480" fill="none" stroke="#1d6fd6" stroke-width="2.4"/><circle cx="698" cy="306" r="5" fill="#ffffff" stroke="#1d6fd6" stroke-width="2.4"/><circle cx="813" cy="306" r="5" fill="#ffffff" stroke="#1d6fd6" stroke-width="2.4"/><circle cx="929" cy="306" r="5" fill="#ffffff" stroke="#1d6fd6" stroke-width="2.4"/><circle cx="1044" cy="306" r="5" fill="#ffffff" stroke="#1d6fd6" stroke-width="2.4"/><text x="696" y="295" fill="#1d6fd6" font-size="11.5" font-weight="600" text-anchor="start" font-family="-apple-system, BlinkMacSystemFont, 'Segoe UI', 'Inter', Helvetica, Arial, sans-serif">rui</text><rect x="1032" y="305" width="60" height="17" rx="8.5" fill="#ffffff" stroke="#1d6fd6" stroke-width="1.2"/><text x="1062" y="317.5" fill="#1d6fd6" font-size="9.5" font-weight="600" text-anchor="middle" font-family="-apple-system, BlinkMacSystemFont, 'Segoe UI', 'Inter', Helvetica, Arial, sans-serif">✓ merged</text><path d="M 726 480 C 739.2 480 748 403.2 748 352" fill="none" stroke="#e2622f" stroke-width="2.4"/><line x1="748" y1="352" x2="816" y2="352" stroke="#e2622f" stroke-width="2.4"/><path d="M 816 352 C 816 403.2 824.8 480 838 480" fill="none" stroke="#e2622f" stroke-width="2.4"/><circle cx="782" cy="352" r="5" fill="#ffffff" stroke="#e2622f" stroke-width="2.4"/><text x="746" y="341" fill="#e2622f" font-size="11.5" font-weight="600" text-anchor="start" font-family="-apple-system, BlinkMacSystemFont, 'Segoe UI', 'Inter', Helvetica, Arial, sans-serif">melissa</text><rect x="804" y="351" width="60" height="17" rx="8.5" fill="#ffffff" stroke="#e2622f" stroke-width="1.2"/><text x="834" y="363.5" fill="#e2622f" font-size="9.5" font-weight="600" text-anchor="middle" font-family="-apple-system, BlinkMacSystemFont, 'Segoe UI', 'Inter', Helvetica, Arial, sans-serif">✓ merged</text><path d="M 902 480 C 915.2 480 924 403.2 924 352" fill="none" stroke="#7c4dd6" stroke-width="2.4"/><line x1="924" y1="352" x2="984" y2="352" stroke="#7c4dd6" stroke-width="2.4"/><path d="M 984 352 C 984 403.2 992.8 480 1006 480" fill="none" stroke="#7c4dd6" stroke-width="2.4"/><circle cx="954" cy="352" r="5" fill="#ffffff" stroke="#7c4dd6" stroke-width="2.4"/><text x="922" y="341" fill="#7c4dd6" font-size="11.5" font-weight="600" text-anchor="start" font-family="-apple-system, BlinkMacSystemFont, 'Segoe UI', 'Inter', Helvetica, Arial, sans-serif">friedrich</text><rect x="972" y="351" width="60" height="17" rx="8.5" fill="#ffffff" stroke="#7c4dd6" stroke-width="1.2"/><text x="1002" y="363.5" fill="#7c4dd6" font-size="9.5" font-weight="600" text-anchor="middle" font-family="-apple-system, BlinkMacSystemFont, 'Segoe UI', 'Inter', Helvetica, Arial, sans-serif">✓ merged</text><path d="M 800 480 C 813.2 480 822 430.8 822 398" fill="none" stroke="#0d9488" stroke-width="2.4"/><line x1="822" y1="398" x2="882" y2="398" stroke="#0d9488" stroke-width="2.4"/><path d="M 882 398 C 882 430.8 890.8 480 904 480" fill="none" stroke="#0d9488" stroke-width="2.4"/><circle cx="852" cy="398" r="5" fill="#ffffff" stroke="#0d9488" stroke-width="2.4"/><text x="820" y="387" fill="#0d9488" font-size="11.5" font-weight="600" text-anchor="start" font-family="-apple-system, BlinkMacSystemFont, 'Segoe UI', 'Inter', Helvetica, Arial, sans-serif">jan</text><rect x="870" y="397" width="60" height="17" rx="8.5" fill="#ffffff" stroke="#0d9488" stroke-width="1.2"/><text x="900" y="409.5" fill="#0d9488" font-size="9.5" font-weight="600" text-anchor="middle" font-family="-apple-system, BlinkMacSystemFont, 'Segoe UI', 'Inter', Helvetica, Arial, sans-serif">✓ merged</text><text x="612" y="540" fill="#64748b" font-size="12" font-weight="500" text-anchor="start" font-family="-apple-system, BlinkMacSystemFont, 'Segoe UI', 'Inter', Helvetica, Arial, sans-serif">50 commits  ·  feature branches → reviewed → merged into main  ·  fully reproducible</text></svg>