<svg viewBox="0 26 720 356" xmlns="http://www.w3.org/2000/svg" font-family="-apple-system, BlinkMacSystemFont, 'Segoe UI', 'Inter', Helvetica, Arial, sans-serif"><rect x="0" y="0" width="720" height="400" rx="18" fill="#ffffff"/><text x="40" y="56" fill="#0f172a" font-size="21" font-weight="500" text-anchor="start">How Parkinson's changes the resting EEG</text><text x="40" y="80" fill="#94a3b8" font-size="13.5" font-weight="400" text-anchor="start">effect size per feature, with 95% confidence interval</text><text x="375" y="124" fill="#94a3b8" font-size="12.5" font-weight="400" text-anchor="middle">lower in PD</text><text x="585" y="124" fill="#94a3b8" font-size="12.5" font-weight="400" text-anchor="middle">higher in PD</text><line x1="480" y1="136" x2="480" y2="336" stroke="#e2e8f0" stroke-width="1.2" stroke-dasharray="2 4"/><line x1="325.8" y1="150" x2="431.7" y2="150" stroke="#3f8ddc" stroke-width="3.6" stroke-linecap="round"/><circle cx="375.8" cy="150" r="7.5" fill="#185FA5"/><text x="250" y="146" fill="#334155" font-size="14.5" font-weight="500" text-anchor="end">Alpha peak frequency</text><text x="250" y="163" fill="#94a3b8" font-size="11.5" font-weight="400" text-anchor="end">predicted: slower</text><line x1="570.6" y1="206" x2="665.7" y2="206" stroke="#dd6a3a" stroke-width="3.6" stroke-linecap="round"/><circle cx="620.4" cy="206" r="7.5" fill="#a8431f"/><text x="250" y="202" fill="#334155" font-size="14.5" font-weight="500" text-anchor="end">Theta power</text><text x="250" y="219" fill="#94a3b8" font-size="11.5" font-weight="400" text-anchor="end">predicted: higher</text><line x1="318.6" y1="262" x2="427.5" y2="262" stroke="#3f8ddc" stroke-width="3.6" stroke-linecap="round"/><circle cx="371.6" cy="262" r="7.5" fill="#185FA5"/><text x="250" y="258" fill="#334155" font-size="14.5" font-weight="500" text-anchor="end">Beta power</text><text x="250" y="275" fill="#94a3b8" font-size="11.5" font-weight="400" text-anchor="end">predicted: lower</text><line x1="419.3" y1="318" x2="535.7" y2="318" stroke="#9aa3ad" stroke-width="3.6" stroke-linecap="round"/><circle cx="476.9" cy="318" r="7.5" fill="#5f5e5a"/><text x="250" y="314" fill="#334155" font-size="14.5" font-weight="500" text-anchor="end">Alpha power</text><text x="250" y="331" fill="#94a3b8" font-size="11.5" font-weight="400" text-anchor="end">predicted: lower · not seen</text><line x1="330.0" y1="336" x2="330.0" y2="342" stroke="#e2e8f0"/><text x="330.0" y="360" fill="#94a3b8" font-size="11" font-weight="400" text-anchor="middle">−0.5</text><line x1="480.0" y1="336" x2="480.0" y2="342" stroke="#e2e8f0"/><text x="480" y="360" fill="#94a3b8" font-size="11" font-weight="400" text-anchor="middle">0</text><line x1="630.0" y1="336" x2="630.0" y2="342" stroke="#e2e8f0"/><text x="630.0" y="360" fill="#94a3b8" font-size="11" font-weight="400" text-anchor="middle">0.5</text></svg>