<svg viewBox="0 0 880 330" xmlns="http://www.w3.org/2000/svg" font-family="-apple-system, BlinkMacSystemFont, 'Segoe UI', 'Inter', Helvetica, Arial, sans-serif"><rect x="0" y="0" width="880" height="330" rx="18" fill="#ffffff"/><text x="40" y="52" fill="#0f172a" font-size="22.8" font-weight="500" text-anchor="start">PD vs Control: per-subject EEG features</text><text x="133.0" y="86" fill="#334155" font-size="15.0" font-weight="500" text-anchor="middle">Alpha peak frequency</text><text x="133.0" y="103" fill="#0f172a" font-size="13.8" font-weight="500" text-anchor="middle">slower in PD</text><line x1="112" y1="275.7" x2="112" y2="180.1" stroke="#185FA5" stroke-width="1.4"/><rect x="95.0" y="204.0" width="34" height="41.8" rx="5" fill="#3f8ddc" fill-opacity="0.30" stroke="#185FA5" stroke-width="1.6"/><line x1="95.0" y1="221.9" x2="129.0" y2="221.9" stroke="#0f172a" stroke-width="2.4"/><circle cx="115.5" cy="132.3" r="2.4" fill="#185FA5" fill-opacity="0.40"/><circle cx="120.4" cy="204.0" r="2.4" fill="#185FA5" fill-opacity="0.40"/><circle cx="115.4" cy="245.8" r="2.4" fill="#185FA5" fill-opacity="0.40"/><circle cx="98.7" cy="186.1" r="2.4" fill="#185FA5" fill-opacity="0.40"/><circle cx="121.2" cy="263.7" r="2.4" fill="#185FA5" fill-opacity="0.40"/><circle cx="116.6" cy="233.9" r="2.4" fill="#185FA5" fill-opacity="0.40"/><circle cx="106.5" cy="186.1" r="2.4" fill="#185FA5" fill-opacity="0.40"/><circle cx="117.9" cy="192.1" r="2.4" fill="#185FA5" fill-opacity="0.40"/><circle cx="115.7" cy="198.0" r="2.4" fill="#185FA5" fill-opacity="0.40"/><circle cx="115.0" cy="204.0" r="2.4" fill="#185FA5" fill-opacity="0.40"/><circle cx="112.3" cy="138.3" r="2.4" fill="#185FA5" fill-opacity="0.40"/><circle cx="117.6" cy="251.8" r="2.4" fill="#185FA5" fill-opacity="0.40"/><circle cx="104.5" cy="192.1" r="2.4" fill="#185FA5" fill-opacity="0.40"/><circle cx="110.3" cy="257.8" r="2.4" fill="#185FA5" fill-opacity="0.40"/><circle cx="107.1" cy="233.9" r="2.4" fill="#185FA5" fill-opacity="0.40"/><circle cx="118.1" cy="210.0" r="2.4" fill="#185FA5" fill-opacity="0.40"/><circle cx="112.4" cy="233.9" r="2.4" fill="#185FA5" fill-opacity="0.40"/><circle cx="109.0" cy="227.9" r="2.4" fill="#185FA5" fill-opacity="0.40"/><circle cx="104.0" cy="215.9" r="2.4" fill="#185FA5" fill-opacity="0.40"/><circle cx="109.4" cy="221.9" r="2.4" fill="#185FA5" fill-opacity="0.40"/><circle cx="112.1" cy="275.7" r="2.4" fill="#185FA5" fill-opacity="0.40"/><circle cx="109.2" cy="215.9" r="2.4" fill="#185FA5" fill-opacity="0.40"/><circle cx="125.2" cy="180.1" r="2.4" fill="#185FA5" fill-opacity="0.40"/><circle cx="122.3" cy="269.7" r="2.4" fill="#185FA5" fill-opacity="0.40"/><circle cx="84.3" cy="269.7" r="2.4" fill="#185FA5" fill-opacity="0.40"/><circle cx="92.7" cy="269.7" r="2.4" fill="#185FA5" fill-opacity="0.40"/><circle cx="110.2" cy="275.7" r="2.4" fill="#185FA5" fill-opacity="0.40"/><circle cx="107.7" cy="257.8" r="2.4" fill="#185FA5" fill-opacity="0.40"/><circle cx="114.2" cy="221.9" r="2.4" fill="#185FA5" fill-opacity="0.40"/><circle cx="114.2" cy="269.7" r="2.4" fill="#185FA5" fill-opacity="0.40"/><circle cx="133.6" cy="245.8" r="2.4" fill="#185FA5" fill-opacity="0.40"/><circle cx="100.7" cy="233.9" r="2.4" fill="#185FA5" fill-opacity="0.40"/><circle cx="108.1" cy="263.7" r="2.4" fill="#185FA5" fill-opacity="0.40"/><circle cx="132.8" cy="215.9" r="2.4" fill="#185FA5" fill-opacity="0.40"/><circle cx="118.6" cy="245.8" r="2.4" fill="#185FA5" fill-opacity="0.40"/><circle cx="118.8" cy="192.1" r="2.4" fill="#185FA5" fill-opacity="0.40"/><circle cx="106.8" cy="239.8" r="2.4" fill="#185FA5" fill-opacity="0.40"/><circle cx="95.2" cy="210.0" r="2.4" fill="#185FA5" fill-opacity="0.40"/><circle cx="113.7" cy="245.8" r="2.4" fill="#185FA5" fill-opacity="0.40"/><circle cx="113.1" cy="192.1" r="2.4" fill="#185FA5" fill-opacity="0.40"/><circle cx="99.5" cy="221.9" r="2.4" fill="#185FA5" fill-opacity="0.40"/><circle cx="105.0" cy="215.9" r="2.4" fill="#185FA5" fill-opacity="0.40"/><circle cx="111.3" cy="221.9" r="2.4" fill="#185FA5" fill-opacity="0.40"/><circle cx="102.4" cy="215.9" r="2.4" fill="#185FA5" fill-opacity="0.40"/><circle cx="111.0" cy="263.7" r="2.4" fill="#185FA5" fill-opacity="0.40"/><circle cx="113.0" cy="192.1" r="2.4" fill="#185FA5" fill-opacity="0.40"/><circle cx="112.4" cy="192.1" r="2.4" fill="#185FA5" fill-opacity="0.40"/><circle cx="106.8" cy="204.0" r="2.4" fill="#185FA5" fill-opacity="0.40"/><circle cx="118.1" cy="245.8" r="2.4" fill="#185FA5" fill-opacity="0.40"/><line x1="177" y1="275.7" x2="177" y2="156.2" stroke="#a8431f" stroke-width="1.4"/><rect x="160.0" y="221.9" width="34" height="53.8" rx="5" fill="#dd6a3a" fill-opacity="0.30" stroke="#a8431f" stroke-width="1.6"/><line x1="160.0" y1="251.8" x2="194.0" y2="251.8" stroke="#0f172a" stroke-width="2.4"/><circle cx="186.1" cy="275.7" r="2.4" fill="#a8431f" fill-opacity="0.40"/><circle cx="180.3" cy="275.7" r="2.4" fill="#a8431f" fill-opacity="0.40"/><circle cx="168.7" cy="275.7" r="2.4" fill="#a8431f" fill-opacity="0.40"/><circle cx="184.5" cy="275.7" r="2.4" fill="#a8431f" fill-opacity="0.40"/><circle cx="171.9" cy="132.3" r="2.4" fill="#a8431f" fill-opacity="0.40"/><circle cx="186.0" cy="215.9" r="2.4" fill="#a8431f" fill-opacity="0.40"/><circle cx="166.1" cy="233.9" r="2.4" fill="#a8431f" fill-opacity="0.40"/><circle cx="186.3" cy="275.7" r="2.4" fill="#a8431f" fill-opacity="0.40"/><circle cx="176.8" cy="239.8" r="2.4" fill="#a8431f" fill-opacity="0.40"/><circle cx="164.3" cy="275.7" r="2.4" fill="#a8431f" fill-opacity="0.40"/><circle cx="173.8" cy="269.7" r="2.4" fill="#a8431f" fill-opacity="0.40"/><circle cx="177.6" cy="275.7" r="2.4" fill="#a8431f" fill-opacity="0.40"/><circle cx="179.8" cy="275.7" r="2.4" fill="#a8431f" fill-opacity="0.40"/><circle cx="167.0" cy="257.8" r="2.4" fill="#a8431f" fill-opacity="0.40"/><circle cx="165.7" cy="257.8" r="2.4" fill="#a8431f" fill-opacity="0.40"/><circle cx="179.0" cy="132.3" r="2.4" fill="#a8431f" fill-opacity="0.40"/><circle cx="172.2" cy="245.8" r="2.4" fill="#a8431f" fill-opacity="0.40"/><circle cx="179.4" cy="245.8" r="2.4" fill="#a8431f" fill-opacity="0.40"/><circle cx="184.7" cy="251.8" r="2.4" fill="#a8431f" fill-opacity="0.40"/><circle cx="160.2" cy="275.7" r="2.4" fill="#a8431f" fill-opacity="0.40"/><circle cx="179.6" cy="198.0" r="2.4" fill="#a8431f" fill-opacity="0.40"/><circle cx="189.5" cy="204.0" r="2.4" fill="#a8431f" fill-opacity="0.40"/><circle cx="174.0" cy="132.3" r="2.4" fill="#a8431f" fill-opacity="0.40"/><circle cx="168.7" cy="204.0" r="2.4" fill="#a8431f" fill-opacity="0.40"/><circle cx="184.7" cy="275.7" r="2.4" fill="#a8431f" fill-opacity="0.40"/><circle cx="179.6" cy="233.9" r="2.4" fill="#a8431f" fill-opacity="0.40"/><circle cx="186.1" cy="245.8" r="2.4" fill="#a8431f" fill-opacity="0.40"/><circle cx="173.5" cy="263.7" r="2.4" fill="#a8431f" fill-opacity="0.40"/><circle cx="161.9" cy="221.9" r="2.4" fill="#a8431f" fill-opacity="0.40"/><circle cx="175.9" cy="168.2" r="2.4" fill="#a8431f" fill-opacity="0.40"/><circle cx="172.5" cy="239.8" r="2.4" fill="#a8431f" fill-opacity="0.40"/><circle cx="184.9" cy="275.7" r="2.4" fill="#a8431f" fill-opacity="0.40"/><circle cx="179.0" cy="275.7" r="2.4" fill="#a8431f" fill-opacity="0.40"/><circle cx="160.4" cy="192.1" r="2.4" fill="#a8431f" fill-opacity="0.40"/><circle cx="164.8" cy="275.7" r="2.4" fill="#a8431f" fill-opacity="0.40"/><circle cx="186.0" cy="275.7" r="2.4" fill="#a8431f" fill-opacity="0.40"/><circle cx="183.9" cy="239.8" r="2.4" fill="#a8431f" fill-opacity="0.40"/><circle cx="170.5" cy="275.7" r="2.4" fill="#a8431f" fill-opacity="0.40"/><circle cx="177.0" cy="227.9" r="2.4" fill="#a8431f" fill-opacity="0.40"/><circle cx="181.5" cy="269.7" r="2.4" fill="#a8431f" fill-opacity="0.40"/><circle cx="181.8" cy="275.7" r="2.4" fill="#a8431f" fill-opacity="0.40"/><circle cx="185.9" cy="192.1" r="2.4" fill="#a8431f" fill-opacity="0.40"/><circle cx="179.6" cy="275.7" r="2.4" fill="#a8431f" fill-opacity="0.40"/><circle cx="176.0" cy="257.8" r="2.4" fill="#a8431f" fill-opacity="0.40"/><circle cx="174.4" cy="239.8" r="2.4" fill="#a8431f" fill-opacity="0.40"/><circle cx="187.8" cy="233.9" r="2.4" fill="#a8431f" fill-opacity="0.40"/><circle cx="154.0" cy="275.7" r="2.4" fill="#a8431f" fill-opacity="0.40"/><circle cx="175.6" cy="275.7" r="2.4" fill="#a8431f" fill-opacity="0.40"/><circle cx="177.3" cy="221.9" r="2.4" fill="#a8431f" fill-opacity="0.40"/><circle cx="162.5" cy="198.0" r="2.4" fill="#a8431f" fill-opacity="0.40"/><circle cx="180.4" cy="257.8" r="2.4" fill="#a8431f" fill-opacity="0.40"/><circle cx="170.4" cy="239.8" r="2.4" fill="#a8431f" fill-opacity="0.40"/><circle cx="185.8" cy="245.8" r="2.4" fill="#a8431f" fill-opacity="0.40"/><circle cx="175.7" cy="215.9" r="2.4" fill="#a8431f" fill-opacity="0.40"/><circle cx="183.8" cy="210.0" r="2.4" fill="#a8431f" fill-opacity="0.40"/><circle cx="189.4" cy="204.0" r="2.4" fill="#a8431f" fill-opacity="0.40"/><circle cx="180.9" cy="251.8" r="2.4" fill="#a8431f" fill-opacity="0.40"/><circle cx="168.1" cy="233.9" r="2.4" fill="#a8431f" fill-opacity="0.40"/><circle cx="161.6" cy="263.7" r="2.4" fill="#a8431f" fill-opacity="0.40"/><circle cx="194.9" cy="257.8" r="2.4" fill="#a8431f" fill-opacity="0.40"/><circle cx="175.9" cy="233.9" r="2.4" fill="#a8431f" fill-opacity="0.40"/><circle cx="170.0" cy="275.7" r="2.4" fill="#a8431f" fill-opacity="0.40"/><circle cx="178.5" cy="269.7" r="2.4" fill="#a8431f" fill-opacity="0.40"/><circle cx="175.0" cy="275.7" r="2.4" fill="#a8431f" fill-opacity="0.40"/><circle cx="185.7" cy="174.1" r="2.4" fill="#a8431f" fill-opacity="0.40"/><circle cx="177.3" cy="233.9" r="2.4" fill="#a8431f" fill-opacity="0.40"/><circle cx="177.1" cy="239.8" r="2.4" fill="#a8431f" fill-opacity="0.40"/><circle cx="169.7" cy="215.9" r="2.4" fill="#a8431f" fill-opacity="0.40"/><circle cx="181.8" cy="275.7" r="2.4" fill="#a8431f" fill-opacity="0.40"/><circle cx="166.5" cy="251.8" r="2.4" fill="#a8431f" fill-opacity="0.40"/><circle cx="183.8" cy="263.7" r="2.4" fill="#a8431f" fill-opacity="0.40"/><circle cx="192.5" cy="275.7" r="2.4" fill="#a8431f" fill-opacity="0.40"/><circle cx="161.4" cy="215.9" r="2.4" fill="#a8431f" fill-opacity="0.40"/><circle cx="151.8" cy="210.0" r="2.4" fill="#a8431f" fill-opacity="0.40"/><circle cx="183.3" cy="221.9" r="2.4" fill="#a8431f" fill-opacity="0.40"/><circle cx="203.0" cy="257.8" r="2.4" fill="#a8431f" fill-opacity="0.40"/><circle cx="166.8" cy="275.7" r="2.4" fill="#a8431f" fill-opacity="0.40"/><circle cx="164.2" cy="227.9" r="2.4" fill="#a8431f" fill-opacity="0.40"/><circle cx="183.0" cy="275.7" r="2.4" fill="#a8431f" fill-opacity="0.40"/><circle cx="168.4" cy="245.8" r="2.4" fill="#a8431f" fill-opacity="0.40"/><circle cx="171.8" cy="215.9" r="2.4" fill="#a8431f" fill-opacity="0.40"/><circle cx="173.4" cy="263.7" r="2.4" fill="#a8431f" fill-opacity="0.40"/><circle cx="182.4" cy="263.7" r="2.4" fill="#a8431f" fill-opacity="0.40"/><circle cx="172.9" cy="251.8" r="2.4" fill="#a8431f" fill-opacity="0.40"/><circle cx="179.8" cy="204.0" r="2.4" fill="#a8431f" fill-opacity="0.40"/><circle cx="175.2" cy="251.8" r="2.4" fill="#a8431f" fill-opacity="0.40"/><circle cx="168.4" cy="275.7" r="2.4" fill="#a8431f" fill-opacity="0.40"/><circle cx="173.7" cy="275.7" r="2.4" fill="#a8431f" fill-opacity="0.40"/><circle cx="167.3" cy="198.0" r="2.4" fill="#a8431f" fill-opacity="0.40"/><circle cx="177.1" cy="245.8" r="2.4" fill="#a8431f" fill-opacity="0.40"/><circle cx="165.5" cy="263.7" r="2.4" fill="#a8431f" fill-opacity="0.40"/><circle cx="165.9" cy="210.0" r="2.4" fill="#a8431f" fill-opacity="0.40"/><circle cx="191.9" cy="263.7" r="2.4" fill="#a8431f" fill-opacity="0.40"/><circle cx="176.5" cy="251.8" r="2.4" fill="#a8431f" fill-opacity="0.40"/><circle cx="176.5" cy="269.7" r="2.4" fill="#a8431f" fill-opacity="0.40"/><circle cx="182.2" cy="275.7" r="2.4" fill="#a8431f" fill-opacity="0.40"/><circle cx="172.7" cy="263.7" r="2.4" fill="#a8431f" fill-opacity="0.40"/><circle cx="174.7" cy="156.2" r="2.4" fill="#a8431f" fill-opacity="0.40"/><circle cx="181.3" cy="239.8" r="2.4" fill="#a8431f" fill-opacity="0.40"/><circle cx="179.9" cy="162.2" r="2.4" fill="#a8431f" fill-opacity="0.40"/><text x="112" y="308" fill="#64748b" font-size="13.8" font-weight="400" text-anchor="middle">Control</text><text x="177" y="308" fill="#64748b" font-size="13.8" font-weight="400" text-anchor="middle">PD</text><text x="343.0" y="86" fill="#334155" font-size="15.0" font-weight="500" text-anchor="middle">Theta power</text><text x="343.0" y="103" fill="#0f172a" font-size="13.8" font-weight="500" text-anchor="middle">higher in PD</text><line x1="322" y1="275.7" x2="322" y2="224.7" stroke="#185FA5" stroke-width="1.4"/><rect x="305.0" y="247.2" width="34" height="17.2" rx="5" fill="#3f8ddc" fill-opacity="0.30" stroke="#185FA5" stroke-width="1.6"/><line x1="305.0" y1="255.6" x2="339.0" y2="255.6" stroke="#0f172a" stroke-width="2.4"/><circle cx="310.2" cy="262.5" r="2.4" fill="#185FA5" fill-opacity="0.40"/><circle cx="330.5" cy="258.8" r="2.4" fill="#185FA5" fill-opacity="0.40"/><circle cx="316.0" cy="251.1" r="2.4" fill="#185FA5" fill-opacity="0.40"/><circle cx="311.2" cy="264.5" r="2.4" fill="#185FA5" fill-opacity="0.40"/><circle cx="312.8" cy="258.6" r="2.4" fill="#185FA5" fill-opacity="0.40"/><circle cx="318.0" cy="250.9" r="2.4" fill="#185FA5" fill-opacity="0.40"/><circle cx="338.6" cy="267.0" r="2.4" fill="#185FA5" fill-opacity="0.40"/><circle cx="310.0" cy="266.2" r="2.4" fill="#185FA5" fill-opacity="0.40"/><circle cx="323.6" cy="272.5" r="2.4" fill="#185FA5" fill-opacity="0.40"/><circle cx="300.2" cy="264.6" r="2.4" fill="#185FA5" fill-opacity="0.40"/><circle cx="322.0" cy="275.7" r="2.4" fill="#185FA5" fill-opacity="0.40"/><circle cx="331.2" cy="233.3" r="2.4" fill="#185FA5" fill-opacity="0.40"/><circle cx="319.6" cy="265.3" r="2.4" fill="#185FA5" fill-opacity="0.40"/><circle cx="315.6" cy="247.6" r="2.4" fill="#185FA5" fill-opacity="0.40"/><circle cx="324.4" cy="253.3" r="2.4" fill="#185FA5" fill-opacity="0.40"/><circle cx="329.1" cy="259.5" r="2.4" fill="#185FA5" fill-opacity="0.40"/><circle cx="328.8" cy="255.8" r="2.4" fill="#185FA5" fill-opacity="0.40"/><circle cx="342.1" cy="267.4" r="2.4" fill="#185FA5" fill-opacity="0.40"/><circle cx="324.1" cy="250.7" r="2.4" fill="#185FA5" fill-opacity="0.40"/><circle cx="316.0" cy="235.3" r="2.4" fill="#185FA5" fill-opacity="0.40"/><circle cx="320.7" cy="261.0" r="2.4" fill="#185FA5" fill-opacity="0.40"/><circle cx="321.3" cy="252.9" r="2.4" fill="#185FA5" fill-opacity="0.40"/><circle cx="323.1" cy="259.4" r="2.4" fill="#185FA5" fill-opacity="0.40"/><circle cx="321.7" cy="246.6" r="2.4" fill="#185FA5" fill-opacity="0.40"/><circle cx="323.8" cy="250.1" r="2.4" fill="#185FA5" fill-opacity="0.40"/><circle cx="305.0" cy="252.0" r="2.4" fill="#185FA5" fill-opacity="0.40"/><circle cx="330.5" cy="224.7" r="2.4" fill="#185FA5" fill-opacity="0.40"/><circle cx="316.1" cy="174.6" r="2.4" fill="#185FA5" fill-opacity="0.40"/><circle cx="310.0" cy="247.2" r="2.4" fill="#185FA5" fill-opacity="0.40"/><circle cx="328.5" cy="244.3" r="2.4" fill="#185FA5" fill-opacity="0.40"/><circle cx="335.4" cy="271.3" r="2.4" fill="#185FA5" fill-opacity="0.40"/><circle cx="327.0" cy="227.0" r="2.4" fill="#185FA5" fill-opacity="0.40"/><circle cx="323.6" cy="201.7" r="2.4" fill="#185FA5" fill-opacity="0.40"/><circle cx="312.5" cy="245.8" r="2.4" fill="#185FA5" fill-opacity="0.40"/><circle cx="351.3" cy="229.1" r="2.4" fill="#185FA5" fill-opacity="0.40"/><circle cx="331.0" cy="252.4" r="2.4" fill="#185FA5" fill-opacity="0.40"/><circle cx="310.4" cy="230.9" r="2.4" fill="#185FA5" fill-opacity="0.40"/><circle cx="314.0" cy="271.6" r="2.4" fill="#185FA5" fill-opacity="0.40"/><circle cx="322.9" cy="257.6" r="2.4" fill="#185FA5" fill-opacity="0.40"/><circle cx="306.1" cy="262.9" r="2.4" fill="#185FA5" fill-opacity="0.40"/><circle cx="323.7" cy="264.4" r="2.4" fill="#185FA5" fill-opacity="0.40"/><circle cx="317.3" cy="247.9" r="2.4" fill="#185FA5" fill-opacity="0.40"/><circle cx="334.5" cy="255.6" r="2.4" fill="#185FA5" fill-opacity="0.40"/><circle cx="331.8" cy="257.0" r="2.4" fill="#185FA5" fill-opacity="0.40"/><circle cx="294.3" cy="250.6" r="2.4" fill="#185FA5" fill-opacity="0.40"/><circle cx="322.4" cy="266.9" r="2.4" fill="#185FA5" fill-opacity="0.40"/><circle cx="305.5" cy="258.0" r="2.4" fill="#185FA5" fill-opacity="0.40"/><circle cx="333.3" cy="269.1" r="2.4" fill="#185FA5" fill-opacity="0.40"/><circle cx="323.7" cy="246.2" r="2.4" fill="#185FA5" fill-opacity="0.40"/><line x1="387" y1="273.7" x2="387" y2="132.3" stroke="#a8431f" stroke-width="1.4"/><rect x="370.0" y="197.3" width="34" height="56.1" rx="5" fill="#dd6a3a" fill-opacity="0.30" stroke="#a8431f" stroke-width="1.6"/><line x1="370.0" y1="236.7" x2="404.0" y2="236.7" stroke="#0f172a" stroke-width="2.4"/><circle cx="392.6" cy="224.2" r="2.4" fill="#a8431f" fill-opacity="0.40"/><circle cx="376.1" cy="156.3" r="2.4" fill="#a8431f" fill-opacity="0.40"/><circle cx="405.6" cy="132.3" r="2.4" fill="#a8431f" fill-opacity="0.40"/><circle cx="407.6" cy="175.0" r="2.4" fill="#a8431f" fill-opacity="0.40"/><circle cx="376.1" cy="250.8" r="2.4" fill="#a8431f" fill-opacity="0.40"/><circle cx="390.8" cy="255.4" r="2.4" fill="#a8431f" fill-opacity="0.40"/><circle cx="380.1" cy="243.6" r="2.4" fill="#a8431f" fill-opacity="0.40"/><circle cx="386.8" cy="204.2" r="2.4" fill="#a8431f" fill-opacity="0.40"/><circle cx="374.1" cy="234.3" r="2.4" fill="#a8431f" fill-opacity="0.40"/><circle cx="406.0" cy="140.8" r="2.4" fill="#a8431f" fill-opacity="0.40"/><circle cx="377.1" cy="183.7" r="2.4" fill="#a8431f" fill-opacity="0.40"/><circle cx="384.0" cy="209.3" r="2.4" fill="#a8431f" fill-opacity="0.40"/><circle cx="392.1" cy="180.8" r="2.4" fill="#a8431f" fill-opacity="0.40"/><circle cx="380.4" cy="174.3" r="2.4" fill="#a8431f" fill-opacity="0.40"/><circle cx="384.6" cy="220.2" r="2.4" fill="#a8431f" fill-opacity="0.40"/><circle cx="381.3" cy="252.4" r="2.4" fill="#a8431f" fill-opacity="0.40"/><circle cx="385.6" cy="243.8" r="2.4" fill="#a8431f" fill-opacity="0.40"/><circle cx="375.1" cy="264.5" r="2.4" fill="#a8431f" fill-opacity="0.40"/><circle cx="382.5" cy="249.3" r="2.4" fill="#a8431f" fill-opacity="0.40"/><circle cx="384.9" cy="162.8" r="2.4" fill="#a8431f" fill-opacity="0.40"/><circle cx="383.6" cy="230.8" r="2.4" fill="#a8431f" fill-opacity="0.40"/><circle cx="387.6" cy="252.6" r="2.4" fill="#a8431f" fill-opacity="0.40"/><circle cx="384.0" cy="273.7" r="2.4" fill="#a8431f" fill-opacity="0.40"/><circle cx="394.7" cy="258.4" r="2.4" fill="#a8431f" fill-opacity="0.40"/><circle cx="383.7" cy="159.0" r="2.4" fill="#a8431f" fill-opacity="0.40"/><circle cx="385.6" cy="247.2" r="2.4" fill="#a8431f" fill-opacity="0.40"/><circle cx="380.2" cy="216.6" r="2.4" fill="#a8431f" fill-opacity="0.40"/><circle cx="381.6" cy="231.9" r="2.4" fill="#a8431f" fill-opacity="0.40"/><circle cx="374.1" cy="265.2" r="2.4" fill="#a8431f" fill-opacity="0.40"/><circle cx="392.3" cy="258.5" r="2.4" fill="#a8431f" fill-opacity="0.40"/><circle cx="375.3" cy="231.0" r="2.4" fill="#a8431f" fill-opacity="0.40"/><circle cx="379.4" cy="136.2" r="2.4" fill="#a8431f" fill-opacity="0.40"/><circle cx="390.7" cy="192.5" r="2.4" fill="#a8431f" fill-opacity="0.40"/><circle cx="391.1" cy="242.4" r="2.4" fill="#a8431f" fill-opacity="0.40"/><circle cx="382.9" cy="241.3" r="2.4" fill="#a8431f" fill-opacity="0.40"/><circle cx="366.4" cy="156.0" r="2.4" fill="#a8431f" fill-opacity="0.40"/><circle cx="391.3" cy="239.4" r="2.4" fill="#a8431f" fill-opacity="0.40"/><circle cx="389.6" cy="184.9" r="2.4" fill="#a8431f" fill-opacity="0.40"/><circle cx="372.6" cy="261.1" r="2.4" fill="#a8431f" fill-opacity="0.40"/><circle cx="394.9" cy="235.2" r="2.4" fill="#a8431f" fill-opacity="0.40"/><circle cx="379.8" cy="192.9" r="2.4" fill="#a8431f" fill-opacity="0.40"/><circle cx="375.5" cy="251.9" r="2.4" fill="#a8431f" fill-opacity="0.40"/><circle cx="388.0" cy="231.2" r="2.4" fill="#a8431f" fill-opacity="0.40"/><circle cx="385.2" cy="145.8" r="2.4" fill="#a8431f" fill-opacity="0.40"/><circle cx="389.1" cy="252.3" r="2.4" fill="#a8431f" fill-opacity="0.40"/><circle cx="370.6" cy="233.4" r="2.4" fill="#a8431f" fill-opacity="0.40"/><circle cx="405.5" cy="258.8" r="2.4" fill="#a8431f" fill-opacity="0.40"/><circle cx="380.9" cy="269.3" r="2.4" fill="#a8431f" fill-opacity="0.40"/><circle cx="371.3" cy="268.0" r="2.4" fill="#a8431f" fill-opacity="0.40"/><circle cx="393.3" cy="237.8" r="2.4" fill="#a8431f" fill-opacity="0.40"/><circle cx="383.4" cy="232.4" r="2.4" fill="#a8431f" fill-opacity="0.40"/><circle cx="390.3" cy="236.6" r="2.4" fill="#a8431f" fill-opacity="0.40"/><circle cx="383.5" cy="219.2" r="2.4" fill="#a8431f" fill-opacity="0.40"/><circle cx="386.4" cy="258.3" r="2.4" fill="#a8431f" fill-opacity="0.40"/><circle cx="389.5" cy="256.1" r="2.4" fill="#a8431f" fill-opacity="0.40"/><circle cx="379.4" cy="250.6" r="2.4" fill="#a8431f" fill-opacity="0.40"/><circle cx="393.9" cy="234.4" r="2.4" fill="#a8431f" fill-opacity="0.40"/><circle cx="382.2" cy="260.6" r="2.4" fill="#a8431f" fill-opacity="0.40"/><circle cx="378.1" cy="228.2" r="2.4" fill="#a8431f" fill-opacity="0.40"/><circle cx="387.8" cy="217.1" r="2.4" fill="#a8431f" fill-opacity="0.40"/><circle cx="391.5" cy="233.5" r="2.4" fill="#a8431f" fill-opacity="0.40"/><circle cx="384.7" cy="165.8" r="2.4" fill="#a8431f" fill-opacity="0.40"/><circle cx="378.2" cy="188.1" r="2.4" fill="#a8431f" fill-opacity="0.40"/><circle cx="393.3" cy="165.0" r="2.4" fill="#a8431f" fill-opacity="0.40"/><circle cx="369.0" cy="259.9" r="2.4" fill="#a8431f" fill-opacity="0.40"/><circle cx="376.5" cy="267.5" r="2.4" fill="#a8431f" fill-opacity="0.40"/><circle cx="387.4" cy="264.9" r="2.4" fill="#a8431f" fill-opacity="0.40"/><circle cx="373.1" cy="261.9" r="2.4" fill="#a8431f" fill-opacity="0.40"/><circle cx="387.3" cy="174.9" r="2.4" fill="#a8431f" fill-opacity="0.40"/><circle cx="386.4" cy="228.9" r="2.4" fill="#a8431f" fill-opacity="0.40"/><circle cx="396.2" cy="250.1" r="2.4" fill="#a8431f" fill-opacity="0.40"/><circle cx="377.7" cy="135.7" r="2.4" fill="#a8431f" fill-opacity="0.40"/><circle cx="380.6" cy="262.2" r="2.4" fill="#a8431f" fill-opacity="0.40"/><circle cx="390.4" cy="259.8" r="2.4" fill="#a8431f" fill-opacity="0.40"/><circle cx="361.9" cy="257.6" r="2.4" fill="#a8431f" fill-opacity="0.40"/><circle cx="418.6" cy="245.0" r="2.4" fill="#a8431f" fill-opacity="0.40"/><circle cx="379.9" cy="243.8" r="2.4" fill="#a8431f" fill-opacity="0.40"/><circle cx="379.6" cy="243.3" r="2.4" fill="#a8431f" fill-opacity="0.40"/><circle cx="395.8" cy="187.6" r="2.4" fill="#a8431f" fill-opacity="0.40"/><circle cx="386.6" cy="252.8" r="2.4" fill="#a8431f" fill-opacity="0.40"/><circle cx="368.8" cy="262.6" r="2.4" fill="#a8431f" fill-opacity="0.40"/><circle cx="393.4" cy="160.6" r="2.4" fill="#a8431f" fill-opacity="0.40"/><circle cx="395.7" cy="201.9" r="2.4" fill="#a8431f" fill-opacity="0.40"/><circle cx="382.4" cy="241.4" r="2.4" fill="#a8431f" fill-opacity="0.40"/><circle cx="384.1" cy="251.7" r="2.4" fill="#a8431f" fill-opacity="0.40"/><circle cx="392.0" cy="236.8" r="2.4" fill="#a8431f" fill-opacity="0.40"/><circle cx="377.7" cy="265.1" r="2.4" fill="#a8431f" fill-opacity="0.40"/><circle cx="391.5" cy="198.8" r="2.4" fill="#a8431f" fill-opacity="0.40"/><circle cx="389.0" cy="257.2" r="2.4" fill="#a8431f" fill-opacity="0.40"/><circle cx="380.1" cy="249.8" r="2.4" fill="#a8431f" fill-opacity="0.40"/><circle cx="372.8" cy="167.8" r="2.4" fill="#a8431f" fill-opacity="0.40"/><circle cx="384.7" cy="225.4" r="2.4" fill="#a8431f" fill-opacity="0.40"/><circle cx="378.1" cy="220.2" r="2.4" fill="#a8431f" fill-opacity="0.40"/><circle cx="397.2" cy="235.3" r="2.4" fill="#a8431f" fill-opacity="0.40"/><circle cx="388.5" cy="264.0" r="2.4" fill="#a8431f" fill-opacity="0.40"/><circle cx="395.0" cy="184.9" r="2.4" fill="#a8431f" fill-opacity="0.40"/><circle cx="388.4" cy="155.7" r="2.4" fill="#a8431f" fill-opacity="0.40"/><circle cx="389.7" cy="255.8" r="2.4" fill="#a8431f" fill-opacity="0.40"/><circle cx="379.0" cy="241.7" r="2.4" fill="#a8431f" fill-opacity="0.40"/><circle cx="393.8" cy="249.3" r="2.4" fill="#a8431f" fill-opacity="0.40"/><text x="322" y="308" fill="#64748b" font-size="13.8" font-weight="400" text-anchor="middle">Control</text><text x="387" y="308" fill="#64748b" font-size="13.8" font-weight="400" text-anchor="middle">PD</text><text x="553.0" y="86" fill="#334155" font-size="15.0" font-weight="500" text-anchor="middle">Beta power</text><text x="553.0" y="103" fill="#0f172a" font-size="13.8" font-weight="500" text-anchor="middle">lower in PD</text><line x1="532" y1="271.3" x2="532" y2="132.3" stroke="#185FA5" stroke-width="1.4"/><rect x="515.0" y="182.3" width="34" height="45.5" rx="5" fill="#3f8ddc" fill-opacity="0.30" stroke="#185FA5" stroke-width="1.6"/><line x1="515.0" y1="205.8" x2="549.0" y2="205.8" stroke="#0f172a" stroke-width="2.4"/><circle cx="550.2" cy="172.6" r="2.4" fill="#185FA5" fill-opacity="0.40"/><circle cx="528.8" cy="180.3" r="2.4" fill="#185FA5" fill-opacity="0.40"/><circle cx="526.0" cy="225.0" r="2.4" fill="#185FA5" fill-opacity="0.40"/><circle cx="530.4" cy="132.3" r="2.4" fill="#185FA5" fill-opacity="0.40"/><circle cx="527.1" cy="271.3" r="2.4" fill="#185FA5" fill-opacity="0.40"/><circle cx="524.8" cy="184.1" r="2.4" fill="#185FA5" fill-opacity="0.40"/><circle cx="533.4" cy="177.7" r="2.4" fill="#185FA5" fill-opacity="0.40"/><circle cx="529.0" cy="192.7" r="2.4" fill="#185FA5" fill-opacity="0.40"/><circle cx="546.7" cy="191.3" r="2.4" fill="#185FA5" fill-opacity="0.40"/><circle cx="532.0" cy="175.6" r="2.4" fill="#185FA5" fill-opacity="0.40"/><circle cx="535.3" cy="171.9" r="2.4" fill="#185FA5" fill-opacity="0.40"/><circle cx="541.7" cy="199.5" r="2.4" fill="#185FA5" fill-opacity="0.40"/><circle cx="528.9" cy="222.0" r="2.4" fill="#185FA5" fill-opacity="0.40"/><circle cx="546.7" cy="199.4" r="2.4" fill="#185FA5" fill-opacity="0.40"/><circle cx="525.5" cy="246.3" r="2.4" fill="#185FA5" fill-opacity="0.40"/><circle cx="523.8" cy="240.4" r="2.4" fill="#185FA5" fill-opacity="0.40"/><circle cx="528.3" cy="204.0" r="2.4" fill="#185FA5" fill-opacity="0.40"/><circle cx="530.8" cy="176.0" r="2.4" fill="#185FA5" fill-opacity="0.40"/><circle cx="517.7" cy="226.3" r="2.4" fill="#185FA5" fill-opacity="0.40"/><circle cx="531.6" cy="219.8" r="2.4" fill="#185FA5" fill-opacity="0.40"/><circle cx="515.0" cy="227.7" r="2.4" fill="#185FA5" fill-opacity="0.40"/><circle cx="546.2" cy="218.9" r="2.4" fill="#185FA5" fill-opacity="0.40"/><circle cx="531.2" cy="162.1" r="2.4" fill="#185FA5" fill-opacity="0.40"/><circle cx="525.5" cy="194.6" r="2.4" fill="#185FA5" fill-opacity="0.40"/><circle cx="522.7" cy="230.8" r="2.4" fill="#185FA5" fill-opacity="0.40"/><circle cx="528.1" cy="182.3" r="2.4" fill="#185FA5" fill-opacity="0.40"/><circle cx="529.7" cy="234.0" r="2.4" fill="#185FA5" fill-opacity="0.40"/><circle cx="521.3" cy="259.2" r="2.4" fill="#185FA5" fill-opacity="0.40"/><circle cx="522.6" cy="195.5" r="2.4" fill="#185FA5" fill-opacity="0.40"/><circle cx="530.1" cy="205.8" r="2.4" fill="#185FA5" fill-opacity="0.40"/><circle cx="526.7" cy="270.2" r="2.4" fill="#185FA5" fill-opacity="0.40"/><circle cx="541.6" cy="208.4" r="2.4" fill="#185FA5" fill-opacity="0.40"/><circle cx="543.6" cy="219.7" r="2.4" fill="#185FA5" fill-opacity="0.40"/><circle cx="532.2" cy="213.2" r="2.4" fill="#185FA5" fill-opacity="0.40"/><circle cx="536.8" cy="251.9" r="2.4" fill="#185FA5" fill-opacity="0.40"/><circle cx="518.4" cy="185.7" r="2.4" fill="#185FA5" fill-opacity="0.40"/><circle cx="538.5" cy="232.8" r="2.4" fill="#185FA5" fill-opacity="0.40"/><circle cx="531.7" cy="177.0" r="2.4" fill="#185FA5" fill-opacity="0.40"/><circle cx="536.9" cy="230.6" r="2.4" fill="#185FA5" fill-opacity="0.40"/><circle cx="548.3" cy="184.9" r="2.4" fill="#185FA5" fill-opacity="0.40"/><circle cx="508.7" cy="156.6" r="2.4" fill="#185FA5" fill-opacity="0.40"/><circle cx="534.7" cy="225.2" r="2.4" fill="#185FA5" fill-opacity="0.40"/><circle cx="520.8" cy="207.4" r="2.4" fill="#185FA5" fill-opacity="0.40"/><circle cx="538.0" cy="247.4" r="2.4" fill="#185FA5" fill-opacity="0.40"/><circle cx="518.6" cy="188.7" r="2.4" fill="#185FA5" fill-opacity="0.40"/><circle cx="526.9" cy="180.9" r="2.4" fill="#185FA5" fill-opacity="0.40"/><circle cx="534.1" cy="178.9" r="2.4" fill="#185FA5" fill-opacity="0.40"/><circle cx="538.3" cy="228.9" r="2.4" fill="#185FA5" fill-opacity="0.40"/><circle cx="532.8" cy="212.6" r="2.4" fill="#185FA5" fill-opacity="0.40"/><line x1="597" y1="275.7" x2="597" y2="163.0" stroke="#a8431f" stroke-width="1.4"/><rect x="580.0" y="208.9" width="34" height="39.8" rx="5" fill="#dd6a3a" fill-opacity="0.30" stroke="#a8431f" stroke-width="1.6"/><line x1="580.0" y1="225.7" x2="614.0" y2="225.7" stroke="#0f172a" stroke-width="2.4"/><circle cx="588.9" cy="237.7" r="2.4" fill="#a8431f" fill-opacity="0.40"/><circle cx="591.4" cy="247.5" r="2.4" fill="#a8431f" fill-opacity="0.40"/><circle cx="606.0" cy="257.8" r="2.4" fill="#a8431f" fill-opacity="0.40"/><circle cx="596.9" cy="270.6" r="2.4" fill="#a8431f" fill-opacity="0.40"/><circle cx="579.8" cy="214.5" r="2.4" fill="#a8431f" fill-opacity="0.40"/><circle cx="605.6" cy="213.4" r="2.4" fill="#a8431f" fill-opacity="0.40"/><circle cx="601.2" cy="243.7" r="2.4" fill="#a8431f" fill-opacity="0.40"/><circle cx="605.9" cy="247.4" r="2.4" fill="#a8431f" fill-opacity="0.40"/><circle cx="593.6" cy="233.2" r="2.4" fill="#a8431f" fill-opacity="0.40"/><circle cx="605.4" cy="258.6" r="2.4" fill="#a8431f" fill-opacity="0.40"/><circle cx="586.2" cy="242.2" r="2.4" fill="#a8431f" fill-opacity="0.40"/><circle cx="602.8" cy="212.6" r="2.4" fill="#a8431f" fill-opacity="0.40"/><circle cx="592.0" cy="255.9" r="2.4" fill="#a8431f" fill-opacity="0.40"/><circle cx="603.9" cy="265.7" r="2.4" fill="#a8431f" fill-opacity="0.40"/><circle cx="607.3" cy="243.1" r="2.4" fill="#a8431f" fill-opacity="0.40"/><circle cx="589.5" cy="140.6" r="2.4" fill="#a8431f" fill-opacity="0.40"/><circle cx="596.5" cy="222.0" r="2.4" fill="#a8431f" fill-opacity="0.40"/><circle cx="597.4" cy="242.9" r="2.4" fill="#a8431f" fill-opacity="0.40"/><circle cx="609.1" cy="167.7" r="2.4" fill="#a8431f" fill-opacity="0.40"/><circle cx="604.2" cy="260.0" r="2.4" fill="#a8431f" fill-opacity="0.40"/><circle cx="584.6" cy="191.5" r="2.4" fill="#a8431f" fill-opacity="0.40"/><circle cx="601.7" cy="175.5" r="2.4" fill="#a8431f" fill-opacity="0.40"/><circle cx="604.6" cy="163.3" r="2.4" fill="#a8431f" fill-opacity="0.40"/><circle cx="618.7" cy="220.9" r="2.4" fill="#a8431f" fill-opacity="0.40"/><circle cx="579.9" cy="258.9" r="2.4" fill="#a8431f" fill-opacity="0.40"/><circle cx="591.5" cy="220.7" r="2.4" fill="#a8431f" fill-opacity="0.40"/><circle cx="610.6" cy="230.8" r="2.4" fill="#a8431f" fill-opacity="0.40"/><circle cx="583.2" cy="235.6" r="2.4" fill="#a8431f" fill-opacity="0.40"/><circle cx="584.8" cy="218.9" r="2.4" fill="#a8431f" fill-opacity="0.40"/><circle cx="602.3" cy="196.4" r="2.4" fill="#a8431f" fill-opacity="0.40"/><circle cx="607.4" cy="253.8" r="2.4" fill="#a8431f" fill-opacity="0.40"/><circle cx="590.2" cy="262.4" r="2.4" fill="#a8431f" fill-opacity="0.40"/><circle cx="602.5" cy="223.4" r="2.4" fill="#a8431f" fill-opacity="0.40"/><circle cx="598.2" cy="212.3" r="2.4" fill="#a8431f" fill-opacity="0.40"/><circle cx="612.5" cy="180.2" r="2.4" fill="#a8431f" fill-opacity="0.40"/><circle cx="597.0" cy="254.3" r="2.4" fill="#a8431f" fill-opacity="0.40"/><circle cx="607.1" cy="212.2" r="2.4" fill="#a8431f" fill-opacity="0.40"/><circle cx="587.8" cy="242.5" r="2.4" fill="#a8431f" fill-opacity="0.40"/><circle cx="595.1" cy="163.0" r="2.4" fill="#a8431f" fill-opacity="0.40"/><circle cx="596.0" cy="207.9" r="2.4" fill="#a8431f" fill-opacity="0.40"/><circle cx="608.6" cy="220.6" r="2.4" fill="#a8431f" fill-opacity="0.40"/><circle cx="602.9" cy="195.0" r="2.4" fill="#a8431f" fill-opacity="0.40"/><circle cx="589.3" cy="218.3" r="2.4" fill="#a8431f" fill-opacity="0.40"/><circle cx="604.0" cy="249.1" r="2.4" fill="#a8431f" fill-opacity="0.40"/><circle cx="604.9" cy="240.9" r="2.4" fill="#a8431f" fill-opacity="0.40"/><circle cx="595.9" cy="209.3" r="2.4" fill="#a8431f" fill-opacity="0.40"/><circle cx="594.4" cy="200.7" r="2.4" fill="#a8431f" fill-opacity="0.40"/><circle cx="595.0" cy="203.6" r="2.4" fill="#a8431f" fill-opacity="0.40"/><circle cx="579.7" cy="254.2" r="2.4" fill="#a8431f" fill-opacity="0.40"/><circle cx="598.9" cy="219.7" r="2.4" fill="#a8431f" fill-opacity="0.40"/><circle cx="599.4" cy="214.9" r="2.4" fill="#a8431f" fill-opacity="0.40"/><circle cx="588.2" cy="217.2" r="2.4" fill="#a8431f" fill-opacity="0.40"/><circle cx="604.6" cy="237.8" r="2.4" fill="#a8431f" fill-opacity="0.40"/><circle cx="583.0" cy="244.1" r="2.4" fill="#a8431f" fill-opacity="0.40"/><circle cx="591.4" cy="181.5" r="2.4" fill="#a8431f" fill-opacity="0.40"/><circle cx="592.2" cy="192.4" r="2.4" fill="#a8431f" fill-opacity="0.40"/><circle cx="617.3" cy="251.7" r="2.4" fill="#a8431f" fill-opacity="0.40"/><circle cx="580.7" cy="186.1" r="2.4" fill="#a8431f" fill-opacity="0.40"/><circle cx="602.7" cy="207.5" r="2.4" fill="#a8431f" fill-opacity="0.40"/><circle cx="606.6" cy="214.3" r="2.4" fill="#a8431f" fill-opacity="0.40"/><circle cx="600.9" cy="223.6" r="2.4" fill="#a8431f" fill-opacity="0.40"/><circle cx="609.1" cy="267.5" r="2.4" fill="#a8431f" fill-opacity="0.40"/><circle cx="586.8" cy="265.4" r="2.4" fill="#a8431f" fill-opacity="0.40"/><circle cx="573.7" cy="268.4" r="2.4" fill="#a8431f" fill-opacity="0.40"/><circle cx="604.8" cy="225.3" r="2.4" fill="#a8431f" fill-opacity="0.40"/><circle cx="584.8" cy="174.8" r="2.4" fill="#a8431f" fill-opacity="0.40"/><circle cx="593.7" cy="224.9" r="2.4" fill="#a8431f" fill-opacity="0.40"/><circle cx="585.0" cy="218.4" r="2.4" fill="#a8431f" fill-opacity="0.40"/><circle cx="607.7" cy="264.1" r="2.4" fill="#a8431f" fill-opacity="0.40"/><circle cx="605.8" cy="228.1" r="2.4" fill="#a8431f" fill-opacity="0.40"/><circle cx="589.7" cy="180.2" r="2.4" fill="#a8431f" fill-opacity="0.40"/><circle cx="606.2" cy="270.6" r="2.4" fill="#a8431f" fill-opacity="0.40"/><circle cx="598.2" cy="212.6" r="2.4" fill="#a8431f" fill-opacity="0.40"/><circle cx="595.6" cy="236.9" r="2.4" fill="#a8431f" fill-opacity="0.40"/><circle cx="597.6" cy="203.0" r="2.4" fill="#a8431f" fill-opacity="0.40"/><circle cx="594.9" cy="198.8" r="2.4" fill="#a8431f" fill-opacity="0.40"/><circle cx="603.3" cy="203.9" r="2.4" fill="#a8431f" fill-opacity="0.40"/><circle cx="600.2" cy="266.8" r="2.4" fill="#a8431f" fill-opacity="0.40"/><circle cx="593.4" cy="254.0" r="2.4" fill="#a8431f" fill-opacity="0.40"/><circle cx="607.3" cy="197.3" r="2.4" fill="#a8431f" fill-opacity="0.40"/><circle cx="590.8" cy="240.5" r="2.4" fill="#a8431f" fill-opacity="0.40"/><circle cx="599.9" cy="261.1" r="2.4" fill="#a8431f" fill-opacity="0.40"/><circle cx="601.3" cy="239.0" r="2.4" fill="#a8431f" fill-opacity="0.40"/><circle cx="612.1" cy="230.6" r="2.4" fill="#a8431f" fill-opacity="0.40"/><circle cx="591.8" cy="183.4" r="2.4" fill="#a8431f" fill-opacity="0.40"/><circle cx="614.8" cy="214.4" r="2.4" fill="#a8431f" fill-opacity="0.40"/><circle cx="598.8" cy="275.7" r="2.4" fill="#a8431f" fill-opacity="0.40"/><circle cx="595.0" cy="235.6" r="2.4" fill="#a8431f" fill-opacity="0.40"/><circle cx="590.1" cy="246.4" r="2.4" fill="#a8431f" fill-opacity="0.40"/><circle cx="603.0" cy="227.8" r="2.4" fill="#a8431f" fill-opacity="0.40"/><circle cx="597.5" cy="259.1" r="2.4" fill="#a8431f" fill-opacity="0.40"/><circle cx="585.7" cy="213.0" r="2.4" fill="#a8431f" fill-opacity="0.40"/><circle cx="585.5" cy="258.6" r="2.4" fill="#a8431f" fill-opacity="0.40"/><circle cx="591.3" cy="207.2" r="2.4" fill="#a8431f" fill-opacity="0.40"/><circle cx="590.1" cy="243.3" r="2.4" fill="#a8431f" fill-opacity="0.40"/><circle cx="608.1" cy="272.9" r="2.4" fill="#a8431f" fill-opacity="0.40"/><circle cx="611.0" cy="248.5" r="2.4" fill="#a8431f" fill-opacity="0.40"/><circle cx="605.9" cy="174.3" r="2.4" fill="#a8431f" fill-opacity="0.40"/><circle cx="600.7" cy="226.2" r="2.4" fill="#a8431f" fill-opacity="0.40"/><circle cx="592.6" cy="220.7" r="2.4" fill="#a8431f" fill-opacity="0.40"/><text x="532" y="308" fill="#64748b" font-size="13.8" font-weight="400" text-anchor="middle">Control</text><text x="597" y="308" fill="#64748b" font-size="13.8" font-weight="400" text-anchor="middle">PD</text><text x="763.0" y="86" fill="#334155" font-size="15.0" font-weight="500" text-anchor="middle">Alpha power</text><text x="763.0" y="103" fill="#94a3b8" font-size="13.8" font-weight="500" text-anchor="middle">unchanged</text><line x1="742" y1="275.7" x2="742" y2="159.1" stroke="#9aa3ad" stroke-width="1.4"/><rect x="725.0" y="212.4" width="34" height="44.1" rx="5" fill="#9aa3ad" fill-opacity="0.30" stroke="#9aa3ad" stroke-width="1.6"/><line x1="725.0" y1="242.9" x2="759.0" y2="242.9" stroke="#0f172a" stroke-width="2.4"/><circle cx="742.6" cy="262.8" r="2.4" fill="#9aa3ad" fill-opacity="0.40"/><circle cx="751.0" cy="219.1" r="2.4" fill="#9aa3ad" fill-opacity="0.40"/><circle cx="763.7" cy="259.6" r="2.4" fill="#9aa3ad" fill-opacity="0.40"/><circle cx="751.3" cy="233.9" r="2.4" fill="#9aa3ad" fill-opacity="0.40"/><circle cx="739.1" cy="275.7" r="2.4" fill="#9aa3ad" fill-opacity="0.40"/><circle cx="742.4" cy="223.9" r="2.4" fill="#9aa3ad" fill-opacity="0.40"/><circle cx="737.1" cy="219.8" r="2.4" fill="#9aa3ad" fill-opacity="0.40"/><circle cx="734.0" cy="245.1" r="2.4" fill="#9aa3ad" fill-opacity="0.40"/><circle cx="740.1" cy="200.2" r="2.4" fill="#9aa3ad" fill-opacity="0.40"/><circle cx="744.0" cy="251.5" r="2.4" fill="#9aa3ad" fill-opacity="0.40"/><circle cx="760.7" cy="269.0" r="2.4" fill="#9aa3ad" fill-opacity="0.40"/><circle cx="742.5" cy="246.3" r="2.4" fill="#9aa3ad" fill-opacity="0.40"/><circle cx="755.8" cy="166.2" r="2.4" fill="#9aa3ad" fill-opacity="0.40"/><circle cx="760.0" cy="233.0" r="2.4" fill="#9aa3ad" fill-opacity="0.40"/><circle cx="742.8" cy="142.2" r="2.4" fill="#9aa3ad" fill-opacity="0.40"/><circle cx="758.4" cy="260.5" r="2.4" fill="#9aa3ad" fill-opacity="0.40"/><circle cx="749.3" cy="256.5" r="2.4" fill="#9aa3ad" fill-opacity="0.40"/><circle cx="737.7" cy="260.4" r="2.4" fill="#9aa3ad" fill-opacity="0.40"/><circle cx="744.7" cy="167.7" r="2.4" fill="#9aa3ad" fill-opacity="0.40"/><circle cx="742.2" cy="242.9" r="2.4" fill="#9aa3ad" fill-opacity="0.40"/><circle cx="739.6" cy="270.6" r="2.4" fill="#9aa3ad" fill-opacity="0.40"/><circle cx="740.0" cy="227.2" r="2.4" fill="#9aa3ad" fill-opacity="0.40"/><circle cx="743.5" cy="244.6" r="2.4" fill="#9aa3ad" fill-opacity="0.40"/><circle cx="746.4" cy="258.0" r="2.4" fill="#9aa3ad" fill-opacity="0.40"/><circle cx="733.0" cy="257.6" r="2.4" fill="#9aa3ad" fill-opacity="0.40"/><circle cx="741.9" cy="258.0" r="2.4" fill="#9aa3ad" fill-opacity="0.40"/><circle cx="726.5" cy="239.1" r="2.4" fill="#9aa3ad" fill-opacity="0.40"/><circle cx="744.7" cy="209.0" r="2.4" fill="#9aa3ad" fill-opacity="0.40"/><circle cx="748.4" cy="249.9" r="2.4" fill="#9aa3ad" fill-opacity="0.40"/><circle cx="743.7" cy="250.3" r="2.4" fill="#9aa3ad" fill-opacity="0.40"/><circle cx="744.9" cy="275.0" r="2.4" fill="#9aa3ad" fill-opacity="0.40"/><circle cx="748.0" cy="219.5" r="2.4" fill="#9aa3ad" fill-opacity="0.40"/><circle cx="735.2" cy="250.3" r="2.4" fill="#9aa3ad" fill-opacity="0.40"/><circle cx="739.6" cy="212.4" r="2.4" fill="#9aa3ad" fill-opacity="0.40"/><circle cx="747.2" cy="159.1" r="2.4" fill="#9aa3ad" fill-opacity="0.40"/><circle cx="752.2" cy="248.9" r="2.4" fill="#9aa3ad" fill-opacity="0.40"/><circle cx="746.0" cy="183.1" r="2.4" fill="#9aa3ad" fill-opacity="0.40"/><circle cx="768.0" cy="209.8" r="2.4" fill="#9aa3ad" fill-opacity="0.40"/><circle cx="741.1" cy="247.2" r="2.4" fill="#9aa3ad" fill-opacity="0.40"/><circle cx="752.2" cy="236.0" r="2.4" fill="#9aa3ad" fill-opacity="0.40"/><circle cx="754.9" cy="249.8" r="2.4" fill="#9aa3ad" fill-opacity="0.40"/><circle cx="740.6" cy="210.6" r="2.4" fill="#9aa3ad" fill-opacity="0.40"/><circle cx="733.6" cy="185.2" r="2.4" fill="#9aa3ad" fill-opacity="0.40"/><circle cx="729.9" cy="172.9" r="2.4" fill="#9aa3ad" fill-opacity="0.40"/><circle cx="743.7" cy="251.0" r="2.4" fill="#9aa3ad" fill-opacity="0.40"/><circle cx="753.3" cy="261.9" r="2.4" fill="#9aa3ad" fill-opacity="0.40"/><circle cx="744.8" cy="240.0" r="2.4" fill="#9aa3ad" fill-opacity="0.40"/><circle cx="743.8" cy="145.2" r="2.4" fill="#9aa3ad" fill-opacity="0.40"/><circle cx="738.1" cy="229.7" r="2.4" fill="#9aa3ad" fill-opacity="0.40"/><line x1="807" y1="275.4" x2="807" y2="165.9" stroke="#9aa3ad" stroke-width="1.4"/><rect x="790.0" y="220.0" width="34" height="36.1" rx="5" fill="#9aa3ad" fill-opacity="0.30" stroke="#9aa3ad" stroke-width="1.6"/><line x1="790.0" y1="239.3" x2="824.0" y2="239.3" stroke="#0f172a" stroke-width="2.4"/><circle cx="812.7" cy="255.9" r="2.4" fill="#9aa3ad" fill-opacity="0.40"/><circle cx="785.2" cy="263.7" r="2.4" fill="#9aa3ad" fill-opacity="0.40"/><circle cx="809.4" cy="233.6" r="2.4" fill="#9aa3ad" fill-opacity="0.40"/><circle cx="807.3" cy="268.6" r="2.4" fill="#9aa3ad" fill-opacity="0.40"/><circle cx="793.0" cy="268.7" r="2.4" fill="#9aa3ad" fill-opacity="0.40"/><circle cx="829.2" cy="190.0" r="2.4" fill="#9aa3ad" fill-opacity="0.40"/><circle cx="792.8" cy="179.3" r="2.4" fill="#9aa3ad" fill-opacity="0.40"/><circle cx="796.0" cy="261.8" r="2.4" fill="#9aa3ad" fill-opacity="0.40"/><circle cx="794.8" cy="237.0" r="2.4" fill="#9aa3ad" fill-opacity="0.40"/><circle cx="818.3" cy="258.7" r="2.4" fill="#9aa3ad" fill-opacity="0.40"/><circle cx="797.9" cy="243.5" r="2.4" fill="#9aa3ad" fill-opacity="0.40"/><circle cx="813.8" cy="231.7" r="2.4" fill="#9aa3ad" fill-opacity="0.40"/><circle cx="813.0" cy="255.2" r="2.4" fill="#9aa3ad" fill-opacity="0.40"/><circle cx="809.6" cy="227.4" r="2.4" fill="#9aa3ad" fill-opacity="0.40"/><circle cx="793.7" cy="261.2" r="2.4" fill="#9aa3ad" fill-opacity="0.40"/><circle cx="800.8" cy="230.1" r="2.4" fill="#9aa3ad" fill-opacity="0.40"/><circle cx="824.1" cy="213.4" r="2.4" fill="#9aa3ad" fill-opacity="0.40"/><circle cx="793.8" cy="266.8" r="2.4" fill="#9aa3ad" fill-opacity="0.40"/><circle cx="798.5" cy="242.9" r="2.4" fill="#9aa3ad" fill-opacity="0.40"/><circle cx="805.3" cy="216.3" r="2.4" fill="#9aa3ad" fill-opacity="0.40"/><circle cx="815.3" cy="250.5" r="2.4" fill="#9aa3ad" fill-opacity="0.40"/><circle cx="809.6" cy="237.2" r="2.4" fill="#9aa3ad" fill-opacity="0.40"/><circle cx="814.6" cy="260.9" r="2.4" fill="#9aa3ad" fill-opacity="0.40"/><circle cx="796.1" cy="174.5" r="2.4" fill="#9aa3ad" fill-opacity="0.40"/><circle cx="816.6" cy="261.8" r="2.4" fill="#9aa3ad" fill-opacity="0.40"/><circle cx="812.8" cy="173.8" r="2.4" fill="#9aa3ad" fill-opacity="0.40"/><circle cx="790.7" cy="208.0" r="2.4" fill="#9aa3ad" fill-opacity="0.40"/><circle cx="822.7" cy="250.1" r="2.4" fill="#9aa3ad" fill-opacity="0.40"/><circle cx="830.4" cy="198.6" r="2.4" fill="#9aa3ad" fill-opacity="0.40"/><circle cx="799.2" cy="197.2" r="2.4" fill="#9aa3ad" fill-opacity="0.40"/><circle cx="807.6" cy="165.9" r="2.4" fill="#9aa3ad" fill-opacity="0.40"/><circle cx="821.3" cy="259.8" r="2.4" fill="#9aa3ad" fill-opacity="0.40"/><circle cx="791.9" cy="263.7" r="2.4" fill="#9aa3ad" fill-opacity="0.40"/><circle cx="786.7" cy="203.1" r="2.4" fill="#9aa3ad" fill-opacity="0.40"/><circle cx="793.8" cy="252.9" r="2.4" fill="#9aa3ad" fill-opacity="0.40"/><circle cx="801.2" cy="247.5" r="2.4" fill="#9aa3ad" fill-opacity="0.40"/><circle cx="801.1" cy="242.2" r="2.4" fill="#9aa3ad" fill-opacity="0.40"/><circle cx="813.2" cy="240.3" r="2.4" fill="#9aa3ad" fill-opacity="0.40"/><circle cx="809.7" cy="226.3" r="2.4" fill="#9aa3ad" fill-opacity="0.40"/><circle cx="794.3" cy="249.8" r="2.4" fill="#9aa3ad" fill-opacity="0.40"/><circle cx="812.8" cy="253.8" r="2.4" fill="#9aa3ad" fill-opacity="0.40"/><circle cx="826.1" cy="222.0" r="2.4" fill="#9aa3ad" fill-opacity="0.40"/><circle cx="819.2" cy="258.4" r="2.4" fill="#9aa3ad" fill-opacity="0.40"/><circle cx="817.1" cy="249.6" r="2.4" fill="#9aa3ad" fill-opacity="0.40"/><circle cx="807.2" cy="187.1" r="2.4" fill="#9aa3ad" fill-opacity="0.40"/><circle cx="817.0" cy="226.7" r="2.4" fill="#9aa3ad" fill-opacity="0.40"/><circle cx="797.1" cy="261.2" r="2.4" fill="#9aa3ad" fill-opacity="0.40"/><circle cx="814.7" cy="271.9" r="2.4" fill="#9aa3ad" fill-opacity="0.40"/><circle cx="806.1" cy="132.3" r="2.4" fill="#9aa3ad" fill-opacity="0.40"/><circle cx="818.5" cy="216.9" r="2.4" fill="#9aa3ad" fill-opacity="0.40"/><circle cx="811.8" cy="256.9" r="2.4" fill="#9aa3ad" fill-opacity="0.40"/><circle cx="795.9" cy="234.4" r="2.4" fill="#9aa3ad" fill-opacity="0.40"/><circle cx="808.3" cy="184.0" r="2.4" fill="#9aa3ad" fill-opacity="0.40"/><circle cx="819.4" cy="176.1" r="2.4" fill="#9aa3ad" fill-opacity="0.40"/><circle cx="795.5" cy="242.8" r="2.4" fill="#9aa3ad" fill-opacity="0.40"/><circle cx="801.3" cy="207.9" r="2.4" fill="#9aa3ad" fill-opacity="0.40"/><circle cx="799.2" cy="254.0" r="2.4" fill="#9aa3ad" fill-opacity="0.40"/><circle cx="791.7" cy="238.0" r="2.4" fill="#9aa3ad" fill-opacity="0.40"/><circle cx="816.8" cy="249.3" r="2.4" fill="#9aa3ad" fill-opacity="0.40"/><circle cx="820.4" cy="228.2" r="2.4" fill="#9aa3ad" fill-opacity="0.40"/><circle cx="815.2" cy="225.9" r="2.4" fill="#9aa3ad" fill-opacity="0.40"/><circle cx="809.5" cy="262.1" r="2.4" fill="#9aa3ad" fill-opacity="0.40"/><circle cx="806.5" cy="253.6" r="2.4" fill="#9aa3ad" fill-opacity="0.40"/><circle cx="809.4" cy="261.9" r="2.4" fill="#9aa3ad" fill-opacity="0.40"/><circle cx="799.5" cy="245.9" r="2.4" fill="#9aa3ad" fill-opacity="0.40"/><circle cx="816.1" cy="246.0" r="2.4" fill="#9aa3ad" fill-opacity="0.40"/><circle cx="817.7" cy="264.0" r="2.4" fill="#9aa3ad" fill-opacity="0.40"/><circle cx="816.5" cy="241.8" r="2.4" fill="#9aa3ad" fill-opacity="0.40"/><circle cx="801.6" cy="220.2" r="2.4" fill="#9aa3ad" fill-opacity="0.40"/><circle cx="807.8" cy="220.1" r="2.4" fill="#9aa3ad" fill-opacity="0.40"/><circle cx="805.3" cy="251.5" r="2.4" fill="#9aa3ad" fill-opacity="0.40"/><circle cx="825.2" cy="263.4" r="2.4" fill="#9aa3ad" fill-opacity="0.40"/><circle cx="808.8" cy="181.0" r="2.4" fill="#9aa3ad" fill-opacity="0.40"/><circle cx="787.8" cy="152.9" r="2.4" fill="#9aa3ad" fill-opacity="0.40"/><circle cx="811.1" cy="244.2" r="2.4" fill="#9aa3ad" fill-opacity="0.40"/><circle cx="826.2" cy="231.2" r="2.4" fill="#9aa3ad" fill-opacity="0.40"/><circle cx="814.0" cy="258.5" r="2.4" fill="#9aa3ad" fill-opacity="0.40"/><circle cx="816.0" cy="152.1" r="2.4" fill="#9aa3ad" fill-opacity="0.40"/><circle cx="807.4" cy="258.2" r="2.4" fill="#9aa3ad" fill-opacity="0.40"/><circle cx="786.9" cy="242.1" r="2.4" fill="#9aa3ad" fill-opacity="0.40"/><circle cx="788.5" cy="150.8" r="2.4" fill="#9aa3ad" fill-opacity="0.40"/><circle cx="794.3" cy="247.4" r="2.4" fill="#9aa3ad" fill-opacity="0.40"/><circle cx="805.7" cy="229.2" r="2.4" fill="#9aa3ad" fill-opacity="0.40"/><circle cx="810.2" cy="224.2" r="2.4" fill="#9aa3ad" fill-opacity="0.40"/><circle cx="814.0" cy="238.3" r="2.4" fill="#9aa3ad" fill-opacity="0.40"/><circle cx="803.5" cy="222.1" r="2.4" fill="#9aa3ad" fill-opacity="0.40"/><circle cx="816.8" cy="275.4" r="2.4" fill="#9aa3ad" fill-opacity="0.40"/><circle cx="804.1" cy="251.4" r="2.4" fill="#9aa3ad" fill-opacity="0.40"/><circle cx="799.8" cy="194.1" r="2.4" fill="#9aa3ad" fill-opacity="0.40"/><circle cx="815.7" cy="193.2" r="2.4" fill="#9aa3ad" fill-opacity="0.40"/><circle cx="797.7" cy="227.2" r="2.4" fill="#9aa3ad" fill-opacity="0.40"/><circle cx="779.2" cy="224.6" r="2.4" fill="#9aa3ad" fill-opacity="0.40"/><circle cx="796.2" cy="257.3" r="2.4" fill="#9aa3ad" fill-opacity="0.40"/><circle cx="808.0" cy="229.0" r="2.4" fill="#9aa3ad" fill-opacity="0.40"/><circle cx="775.6" cy="269.9" r="2.4" fill="#9aa3ad" fill-opacity="0.40"/><circle cx="803.4" cy="269.1" r="2.4" fill="#9aa3ad" fill-opacity="0.40"/><circle cx="803.6" cy="232.0" r="2.4" fill="#9aa3ad" fill-opacity="0.40"/><circle cx="792.5" cy="219.8" r="2.4" fill="#9aa3ad" fill-opacity="0.40"/><circle cx="791.9" cy="190.8" r="2.4" fill="#9aa3ad" fill-opacity="0.40"/><circle cx="802.3" cy="233.3" r="2.4" fill="#9aa3ad" fill-opacity="0.40"/><text x="742" y="308" fill="#64748b" font-size="13.8" font-weight="400" text-anchor="middle">Control</text><text x="807" y="308" fill="#64748b" font-size="13.8" font-weight="400" text-anchor="middle">PD</text></svg>