<svg viewBox="0 0 1200 460" xmlns="http://www.w3.org/2000/svg" font-family="-apple-system, BlinkMacSystemFont, 'Segoe UI', 'Inter', Helvetica, Arial, sans-serif"><defs><marker id="ex" markerWidth="9" markerHeight="9" refX="7" refY="4.5" orient="auto"><path d="M0,0 L0,9 L8,4.5 z" fill="#059669"/></marker><marker id="bar" markerWidth="10" markerHeight="16" refX="3" refY="8" orient="auto"><rect x="1" y="1.5" width="2.8" height="13" rx="1.2" fill="#7c3aed"/></marker><marker id="sh" markerWidth="9" markerHeight="9" refX="6.5" refY="4.5" orient="auto"><path d="M0,0 L0,9 L8,4.5 z" fill="#64748b"/></marker></defs><rect width="1200" height="460" rx="16" fill="#ffffff"/><line x1="396.0" y1="40.0" x2="396.0" y2="420.0" stroke="#e2e8f0" stroke-width="1.4"/><line x1="804.0" y1="40.0" x2="804.0" y2="420.0" stroke="#e2e8f0" stroke-width="1.4"/><text x="28" y="30" fill="#64748b" font-size="14.5" font-weight="600" text-anchor="start" font-family="-apple-system, BlinkMacSystemFont, 'Segoe UI', 'Inter', Helvetica, Arial, sans-serif">THE MODEL: AN E–I LOOP</text><line x1="200.0" y1="58.0" x2="232.5" y2="71.5" stroke="#9ec3f2" stroke-width="0.8" opacity="0.5"/><line x1="200.0" y1="58.0" x2="246.0" y2="104.0" stroke="#9ec3f2" stroke-width="0.8" opacity="0.5"/><line x1="200.0" y1="58.0" x2="232.5" y2="136.5" stroke="#9ec3f2" stroke-width="0.8" opacity="0.5"/><line x1="200.0" y1="58.0" x2="200.0" y2="150.0" stroke="#9ec3f2" stroke-width="0.8" opacity="0.5"/><line x1="200.0" y1="58.0" x2="167.5" y2="136.5" stroke="#9ec3f2" stroke-width="0.8" opacity="0.5"/><line x1="200.0" y1="58.0" x2="154.0" y2="104.0" stroke="#9ec3f2" stroke-width="0.8" opacity="0.5"/><line x1="200.0" y1="58.0" x2="167.5" y2="71.5" stroke="#9ec3f2" stroke-width="0.8" opacity="0.5"/><line x1="232.5" y1="71.5" x2="246.0" y2="104.0" stroke="#9ec3f2" stroke-width="0.8" opacity="0.5"/><line x1="232.5" y1="71.5" x2="232.5" y2="136.5" stroke="#9ec3f2" stroke-width="0.8" opacity="0.5"/><line x1="232.5" y1="71.5" x2="200.0" y2="150.0" stroke="#9ec3f2" stroke-width="0.8" opacity="0.5"/><line x1="232.5" y1="71.5" x2="167.5" y2="136.5" stroke="#9ec3f2" stroke-width="0.8" opacity="0.5"/><line x1="232.5" y1="71.5" x2="154.0" y2="104.0" stroke="#9ec3f2" stroke-width="0.8" opacity="0.5"/><line x1="232.5" y1="71.5" x2="167.5" y2="71.5" stroke="#9ec3f2" stroke-width="0.8" opacity="0.5"/><line x1="246.0" y1="104.0" x2="232.5" y2="136.5" stroke="#9ec3f2" stroke-width="0.8" opacity="0.5"/><line x1="246.0" y1="104.0" x2="200.0" y2="150.0" stroke="#9ec3f2" stroke-width="0.8" opacity="0.5"/><line x1="246.0" y1="104.0" x2="167.5" y2="136.5" stroke="#9ec3f2" stroke-width="0.8" opacity="0.5"/><line x1="246.0" y1="104.0" x2="154.0" y2="104.0" stroke="#9ec3f2" stroke-width="0.8" opacity="0.5"/><line x1="246.0" y1="104.0" x2="167.5" y2="71.5" stroke="#9ec3f2" stroke-width="0.8" opacity="0.5"/><line x1="232.5" y1="136.5" x2="200.0" y2="150.0" stroke="#9ec3f2" stroke-width="0.8" opacity="0.5"/><line x1="232.5" y1="136.5" x2="167.5" y2="136.5" stroke="#9ec3f2" stroke-width="0.8" opacity="0.5"/><line x1="232.5" y1="136.5" x2="154.0" y2="104.0" stroke="#9ec3f2" stroke-width="0.8" opacity="0.5"/><line x1="232.5" y1="136.5" x2="167.5" y2="71.5" stroke="#9ec3f2" stroke-width="0.8" opacity="0.5"/><line x1="200.0" y1="150.0" x2="167.5" y2="136.5" stroke="#9ec3f2" stroke-width="0.8" opacity="0.5"/><line x1="200.0" y1="150.0" x2="154.0" y2="104.0" stroke="#9ec3f2" stroke-width="0.8" opacity="0.5"/><line x1="200.0" y1="150.0" x2="167.5" y2="71.5" stroke="#9ec3f2" stroke-width="0.8" opacity="0.5"/><line x1="167.5" y1="136.5" x2="154.0" y2="104.0" stroke="#9ec3f2" stroke-width="0.8" opacity="0.5"/><line x1="167.5" y1="136.5" x2="167.5" y2="71.5" stroke="#9ec3f2" stroke-width="0.8" opacity="0.5"/><line x1="154.0" y1="104.0" x2="167.5" y2="71.5" stroke="#9ec3f2" stroke-width="0.8" opacity="0.5"/><circle cx="200.0" cy="58.0" r="7" fill="#64748b"/><circle cx="232.5" cy="71.5" r="11" fill="none" stroke="#334155" stroke-width="2" stroke-dasharray="3 2.5"/><circle cx="232.5" cy="71.5" r="7" fill="#64748b"/><circle cx="246.0" cy="104.0" r="7" fill="#64748b"/><circle cx="232.5" cy="136.5" r="7" fill="#64748b"/><circle cx="200.0" cy="150.0" r="7" fill="#64748b"/><circle cx="167.5" cy="136.5" r="7" fill="#64748b"/><circle cx="154.0" cy="104.0" r="7" fill="#64748b"/><circle cx="167.5" cy="71.5" r="7" fill="#64748b"/><text x="200" y="174" fill="#334155" font-size="13" font-weight="500" text-anchor="middle" font-family="-apple-system, BlinkMacSystemFont, 'Segoe UI', 'Inter', Helvetica, Arial, sans-serif">8 nodes, all-to-all coupling</text><line x1="238.5" y1="77.5" x2="248.0" y2="232.0" stroke="#94a3b8" stroke-width="1.3" stroke-dasharray="4 3" opacity="0.7"/><line x1="238.5" y1="77.5" x2="150.0" y2="232.0" stroke="#94a3b8" stroke-width="1.3" stroke-dasharray="4 3" opacity="0.7"/><circle cx="150" cy="300" r="30" fill="#059669"/><text x="150" y="309" fill="#ffffff" font-size="26" font-weight="600" text-anchor="middle" font-family="-apple-system, BlinkMacSystemFont, 'Segoe UI', 'Inter', Helvetica, Arial, sans-serif">E</text><text x="150" y="352" fill="#334155" font-size="13" font-weight="400" text-anchor="middle" font-family="-apple-system, BlinkMacSystemFont, 'Segoe UI', 'Inter', Helvetica, Arial, sans-serif">excitatory</text><circle cx="252" cy="300" r="30" fill="#7c3aed"/><text x="252" y="309" fill="#ffffff" font-size="26" font-weight="600" text-anchor="middle" font-family="-apple-system, BlinkMacSystemFont, 'Segoe UI', 'Inter', Helvetica, Arial, sans-serif">I</text><text x="252" y="352" fill="#334155" font-size="13" font-weight="400" text-anchor="middle" font-family="-apple-system, BlinkMacSystemFont, 'Segoe UI', 'Inter', Helvetica, Arial, sans-serif">inhibitory</text><path d="M 176 284 Q 201.0 242 226 284" fill="none" stroke="#059669" stroke-width="2.6" marker-end="url(#ex)"/><text x="201.0" y="252" fill="#059669" font-size="14" font-weight="600" text-anchor="middle" font-family="-apple-system, BlinkMacSystemFont, 'Segoe UI', 'Inter', Helvetica, Arial, sans-serif">excites</text><path d="M 226 316 Q 201.0 358 176 316" fill="none" stroke="#7c3aed" stroke-width="2.6" marker-end="url(#bar)"/><text x="201.0" y="364" fill="#7c3aed" font-size="14" font-weight="600" text-anchor="middle" font-family="-apple-system, BlinkMacSystemFont, 'Segoe UI', 'Inter', Helvetica, Arial, sans-serif">inhibits</text><rect x="118" y="388" width="164" height="30" rx="15" fill="#f5f3ff" stroke="#7c3aed" stroke-width="1.4"/><text x="140" y="408" fill="#7c3aed" font-size="14.5" font-weight="700" text-anchor="start" font-family="-apple-system, BlinkMacSystemFont, 'Segoe UI', 'Inter', Helvetica, Arial, sans-serif">τ_inh</text><text x="180" y="408" fill="#334155" font-size="13.5" font-weight="500" text-anchor="start" font-family="-apple-system, BlinkMacSystemFont, 'Segoe UI', 'Inter', Helvetica, Arial, sans-serif">the one knob</text><text x="420" y="30" fill="#64748b" font-size="14.5" font-weight="600" text-anchor="start" font-family="-apple-system, BlinkMacSystemFont, 'Segoe UI', 'Inter', Helvetica, Arial, sans-serif">TURN τ_inh UP, THE RHYTHM SLOWS</text><rect x="470" y="78.0" width="310" height="245.0" rx="0" fill="#fffbeb"/><text x="774" y="107.39999999999998" fill="#d8b46a" font-size="11" font-weight="600" text-anchor="end" font-family="-apple-system, BlinkMacSystemFont, 'Segoe UI', 'Inter', Helvetica, Arial, sans-serif">alpha band</text><line x1="470.0" y1="372.0" x2="780.0" y2="372.0" stroke="#cbd5e1" stroke-width="1.4"/><line x1="470.0" y1="78.0" x2="470.0" y2="372.0" stroke="#cbd5e1" stroke-width="1.4"/><line x1="514.3" y1="372.0" x2="514.3" y2="377.0" stroke="#cbd5e1" stroke-width="1.2"/><text x="514.2857142857143" y="394" fill="#64748b" font-size="13" font-weight="400" text-anchor="middle" font-family="-apple-system, BlinkMacSystemFont, 'Segoe UI', 'Inter', Helvetica, Arial, sans-serif">14</text><line x1="602.9" y1="372.0" x2="602.9" y2="377.0" stroke="#cbd5e1" stroke-width="1.2"/><text x="602.8571428571429" y="394" fill="#64748b" font-size="13" font-weight="400" text-anchor="middle" font-family="-apple-system, BlinkMacSystemFont, 'Segoe UI', 'Inter', Helvetica, Arial, sans-serif">18</text><line x1="691.4" y1="372.0" x2="691.4" y2="377.0" stroke="#cbd5e1" stroke-width="1.2"/><text x="691.4285714285714" y="394" fill="#64748b" font-size="13" font-weight="400" text-anchor="middle" font-family="-apple-system, BlinkMacSystemFont, 'Segoe UI', 'Inter', Helvetica, Arial, sans-serif">22</text><line x1="780.0" y1="372.0" x2="780.0" y2="377.0" stroke="#cbd5e1" stroke-width="1.2"/><text x="780.0" y="394" fill="#64748b" font-size="13" font-weight="400" text-anchor="middle" font-family="-apple-system, BlinkMacSystemFont, 'Segoe UI', 'Inter', Helvetica, Arial, sans-serif">26</text><line x1="465.0" y1="323.0" x2="470.0" y2="323.0" stroke="#cbd5e1" stroke-width="1.2"/><text x="461" y="327.0" fill="#94a3b8" font-size="12.5" font-weight="400" text-anchor="end" font-family="-apple-system, BlinkMacSystemFont, 'Segoe UI', 'Inter', Helvetica, Arial, sans-serif">8</text><line x1="465.0" y1="225.0" x2="470.0" y2="225.0" stroke="#cbd5e1" stroke-width="1.2"/><text x="461" y="229.0" fill="#94a3b8" font-size="12.5" font-weight="400" text-anchor="end" font-family="-apple-system, BlinkMacSystemFont, 'Segoe UI', 'Inter', Helvetica, Arial, sans-serif">10</text><line x1="465.0" y1="127.0" x2="470.0" y2="127.0" stroke="#cbd5e1" stroke-width="1.2"/><text x="461" y="131.0" fill="#94a3b8" font-size="12.5" font-weight="400" text-anchor="end" font-family="-apple-system, BlinkMacSystemFont, 'Segoe UI', 'Inter', Helvetica, Arial, sans-serif">12</text><text x="625.0" y="416" fill="#334155" font-size="14" font-weight="500" text-anchor="middle" font-family="-apple-system, BlinkMacSystemFont, 'Segoe UI', 'Inter', Helvetica, Arial, sans-serif">τ_inh  (ms)</text><text x="434" y="225.0" fill="#334155" font-size="14" font-weight="500" text-anchor="middle" font-family="-apple-system, BlinkMacSystemFont, 'Segoe UI', 'Inter', Helvetica, Arial, sans-serif" transform="rotate(-90 434 225)">alpha peak  (Hz)</text><path d="M 470.0 78.0 L 481.1 102.5 L 492.1 127.0 L 503.2 127.0 L 514.3 151.5 L 525.4 176.0 L 536.4 176.0 L 547.5 200.5 L 558.6 200.5 L 569.6 225.0 L 580.7 225.0 L 591.8 249.5 L 602.9 249.5 L 613.9 274.0 L 625.0 274.0 L 636.1 274.0 L 647.1 298.5 L 658.2 298.5 L 669.3 298.5 L 680.4 323.0 L 691.4 323.0 L 702.5 323.0 L 713.6 347.5 L 724.6 347.5 L 735.7 347.5 L 746.8 347.5 L 757.9 372.0 L 768.9 372.0 L 780.0 372.0" fill="none" stroke="#334155" stroke-width="2.8" stroke-linejoin="round"/><path d="M 619.4 265.8 Q 656.0 323.0 678.4 314.0" fill="none" stroke="#64748b" stroke-width="1.8" stroke-dasharray="4 3" marker-end="url(#sh)"/><circle cx="608.4" cy="261.8" r="8" fill="#185FA5" stroke="#ffffff" stroke-width="2"/><text x="593.3928571428571" y="256.75" fill="#185FA5" font-size="14.5" font-weight="700" text-anchor="end" font-family="-apple-system, BlinkMacSystemFont, 'Segoe UI', 'Inter', Helvetica, Arial, sans-serif">Control</text><text x="593.3928571428571" y="273.75" fill="#185FA5" font-size="11.5" font-weight="400" text-anchor="end" font-family="-apple-system, BlinkMacSystemFont, 'Segoe UI', 'Inter', Helvetica, Arial, sans-serif">18.25 ms · 9.25 Hz</text><circle cx="680.4" cy="323.0" r="8" fill="#a8431f" stroke="#ffffff" stroke-width="2"/><text x="694.3571428571429" y="299.0" fill="#a8431f" font-size="14.5" font-weight="700" text-anchor="start" font-family="-apple-system, BlinkMacSystemFont, 'Segoe UI', 'Inter', Helvetica, Arial, sans-serif">PD</text><text x="694.3571428571429" y="316.0" fill="#a8431f" font-size="11.5" font-weight="400" text-anchor="start" font-family="-apple-system, BlinkMacSystemFont, 'Segoe UI', 'Inter', Helvetica, Arial, sans-serif">21.5 ms · 8 Hz</text><text x="625.0" y="354.85" fill="#64748b" font-size="12.5" font-weight="600" text-anchor="middle" font-family="-apple-system, BlinkMacSystemFont, 'Segoe UI', 'Inter', Helvetica, Arial, sans-serif">+3.25 ms longer τ  →  1.25 Hz slower</text><text x="828" y="30" fill="#64748b" font-size="14.5" font-weight="600" text-anchor="start" font-family="-apple-system, BlinkMacSystemFont, 'Segoe UI', 'Inter', Helvetica, Arial, sans-serif">THE SIMULATED RHYTHM</text><path d="M 838.0 98.23 L 839.3 98.51 L 840.6 98.88 L 841.9 99.32 L 843.2 99.82 L 844.5 100.40 L 845.8 101.09 L 847.2 102.03 L 848.5 103.67 L 849.8 112.54 L 851.1 143.37 L 852.4 153.10 L 853.7 155.73 L 855.0 156.44 L 856.3 156.61 L 857.6 156.61 L 858.9 156.55 L 860.2 156.45 L 861.5 156.30 L 862.8 156.11 L 864.2 155.86 L 865.5 155.57 L 866.8 155.23 L 868.1 154.82 L 869.4 154.33 L 870.7 153.72 L 872.0 152.91 L 873.4 151.60 L 874.7 148.47 L 876.0 111.86 L 877.3 98.90 L 878.6 98.02 L 879.9 98.04 L 881.2 98.21 L 882.5 98.48 L 883.8 98.84 L 885.1 99.27 L 886.4 99.77 L 887.7 100.34 L 889.0 101.01 L 890.4 101.92 L 891.7 103.43 L 893.0 110.09 L 894.3 141.49 L 895.6 152.59 L 896.9 155.60 L 898.2 156.41 L 899.6 156.60 L 900.9 156.61 L 902.2 156.56 L 903.5 156.46 L 904.8 156.32 L 906.1 156.13 L 907.4 155.89 L 908.7 155.60 L 910.0 155.27 L 911.3 154.87 L 912.6 154.39 L 913.9 153.79 L 915.3 152.98 L 916.6 151.77 L 917.9 149.03 L 919.2 116.15 L 920.5 99.20 L 921.8 98.04 L 923.1 98.03 L 924.4 98.19 L 925.7 98.45 L 927.1 98.80 L 928.4 99.22 L 929.7 99.72 L 931.0 100.28 L 932.3 100.96 L 933.6 101.81 L 934.9 103.21 L 936.2 108.38 L 937.5 139.36 L 938.8 152.01 L 940.1 155.44 L 941.5 156.37 L 942.8 156.59 L 944.1 156.62 L 945.4 156.57 L 946.7 156.47 L 948.0 156.33 L 949.3 156.14 L 950.6 155.91 L 951.9 155.64 L 953.2 155.30 L 954.5 154.91 L 955.9 154.44 L 957.2 153.86 L 958.5 153.07 L 959.8 151.93 L 961.1 149.50 L 962.4 121.69 L 963.7 99.59 L 965.0 98.06 L 966.3 98.02 L 967.7 98.17 L 969.0 98.42 L 970.3 98.76 L 971.6 99.18 L 972.9 99.66 L 974.2 100.22 L 975.5 100.89 L 976.8 101.71 L 978.1 103.02 L 979.4 107.16 L 980.7 136.92 L 982.0 151.34 L 983.3 155.26 L 984.7 156.33 L 986.0 156.58 L 987.3 156.62 L 988.6 156.57 L 989.9 156.48 L 991.2 156.35 L 992.6 156.16 L 993.9 155.94 L 995.2 155.67 L 996.5 155.34 L 997.8 154.95 L 999.1 154.49 L 1000.4 153.92 L 1001.7 153.16 L 1003.0 152.07 L 1004.3 149.89 L 1005.6 128.60 L 1006.9 100.10 L 1008.2 98.09 L 1009.6 98.01 L 1010.9 98.15 L 1012.2 98.39 L 1013.5 98.72 L 1014.8 99.13 L 1016.1 99.61 L 1017.4 100.16 L 1018.7 100.82 L 1020.1 101.62 L 1021.4 102.84 L 1022.7 106.27 L 1024.0 134.16 L 1025.3 150.59 L 1026.6 155.12 L 1027.9 156.28 L 1029.2 156.57 L 1030.5 156.62 L 1031.8 156.58 L 1033.1 156.49 L 1034.4 156.36 L 1035.8 156.18 L 1037.1 155.96 L 1038.4 155.70 L 1039.7 155.38 L 1041.0 155.00 L 1042.3 154.54 L 1043.6 153.97 L 1044.9 153.25 L 1046.2 152.21 L 1047.5 150.23 L 1048.9 135.83 L 1050.2 100.77 L 1051.5 98.13 L 1052.8 98.01 L 1054.1 98.13 L 1055.4 98.36 L 1056.7 98.68 L 1058.0 99.08 L 1059.3 99.56 L 1060.7 100.12 L 1062.0 100.75 L 1063.3 101.52 L 1064.6 102.68 L 1065.9 105.58 L 1067.2 131.03 L 1068.5 149.72 L 1069.8 154.90 L 1071.1 156.22 L 1072.4 156.56 L 1073.7 156.62 L 1075.0 156.59 L 1076.4 156.50 L 1077.7 156.38 L 1079.0 156.20 L 1080.3 155.99 L 1081.6 155.73 L 1082.9 155.41 L 1084.2 155.04 L 1085.5 154.59 L 1086.9 154.03 L 1088.2 153.33 L 1089.5 152.34 L 1090.8 150.53 L 1092.1 140.96 L 1093.4 101.65 L 1094.7 98.19 L 1096.0 98.00 L 1097.3 98.11 L 1098.6 98.33 L 1099.9 98.64 L 1101.2 99.04 L 1102.5 99.51 L 1103.9 100.06 L 1105.2 100.68 L 1106.5 101.43 L 1107.8 102.53 L 1109.1 105.04 L 1110.4 127.50 L 1111.7 148.74 L 1113.1 154.64 L 1114.4 156.15 L 1115.7 156.54 L 1117.0 156.62 L 1118.3 156.59 L 1119.6 156.52 L 1120.9 156.39 L 1122.2 156.22 L 1123.5 156.01 L 1124.8 155.75 L 1126.1 155.44 L 1127.4 155.08 L 1128.7 154.64 L 1130.1 154.09 L 1131.4 153.41 L 1132.7 152.46 L 1134.0 150.79 L 1135.3 143.91 L 1136.6 102.80 L 1137.9 98.24 L 1139.2 98.00 L 1140.6 98.10 L 1141.9 98.30 L 1143.2 98.61 L 1144.5 99.00 L 1145.8 99.46 L 1147.1 100.00 L 1148.4 100.61 L 1149.7 101.35 L 1151.0 102.39 L 1152.3 104.60 L 1153.6 123.61 L 1155.0 147.98 L 1156.3 154.35 L 1157.6 156.07 L 1158.9 156.52 L 1160.2 156.62 L 1161.5 156.60 L 1162.8 156.52 L 1164.1 156.40 L 1165.4 156.24 L 1166.7 156.04 L 1168.0 155.78 L 1169.4 155.48 L 1170.7 155.12 L 1172.0 154.67" fill="none" stroke="#185FA5" stroke-width="2.6" stroke-linejoin="round" stroke-linecap="round"/><text x="838" y="80" fill="#185FA5" font-size="15" font-weight="600" text-anchor="start" font-family="-apple-system, BlinkMacSystemFont, 'Segoe UI', 'Inter', Helvetica, Arial, sans-serif">Control</text><text x="1172" y="80" fill="#185FA5" font-size="14" font-weight="500" text-anchor="end" font-family="-apple-system, BlinkMacSystemFont, 'Segoe UI', 'Inter', Helvetica, Arial, sans-serif">τ 18 ms · 9.5 Hz</text><path d="M 838.0 310.25 L 839.3 309.49 L 840.6 308.34 L 841.9 305.88 L 843.2 277.24 L 844.5 253.71 L 845.8 252.08 L 847.2 252.00 L 848.5 252.08 L 849.8 252.23 L 851.1 252.44 L 852.4 252.73 L 853.7 253.07 L 855.0 253.47 L 856.3 253.93 L 857.6 254.43 L 858.9 255.01 L 860.2 255.73 L 861.5 256.78 L 862.8 259.13 L 864.2 281.37 L 865.5 304.72 L 866.8 311.13 L 868.1 312.87 L 869.4 313.33 L 870.7 313.44 L 872.0 313.44 L 873.4 313.41 L 874.7 313.34 L 876.0 313.25 L 877.3 313.13 L 878.6 312.98 L 879.9 312.80 L 881.2 312.58 L 882.5 312.33 L 883.8 312.03 L 885.1 311.70 L 886.4 311.30 L 887.7 310.83 L 889.0 310.26 L 890.4 309.48 L 891.7 308.32 L 893.0 305.80 L 894.3 276.08 L 895.6 253.63 L 896.9 252.07 L 898.2 252.00 L 899.6 252.08 L 900.9 252.23 L 902.2 252.45 L 903.5 252.73 L 904.8 253.08 L 906.1 253.47 L 907.4 253.94 L 908.7 254.44 L 910.0 255.02 L 911.3 255.75 L 912.6 256.80 L 913.9 259.21 L 915.3 282.09 L 916.6 304.93 L 917.9 311.19 L 919.2 312.88 L 920.5 313.33 L 921.8 313.44 L 923.1 313.44 L 924.4 313.41 L 925.7 313.34 L 927.1 313.25 L 928.4 313.13 L 929.7 312.98 L 931.0 312.80 L 932.3 312.58 L 933.6 312.32 L 934.9 312.03 L 936.2 311.69 L 937.5 311.29 L 938.8 310.82 L 940.1 310.25 L 941.5 309.46 L 942.8 308.29 L 944.1 305.72 L 945.4 274.96 L 946.7 253.55 L 948.0 252.07 L 949.3 252.00 L 950.6 252.08 L 951.9 252.23 L 953.2 252.45 L 954.5 252.74 L 955.9 253.08 L 957.2 253.48 L 958.5 253.94 L 959.8 254.45 L 961.1 255.03 L 962.4 255.76 L 963.7 256.83 L 965.0 259.29 L 966.3 281.57 L 967.7 305.13 L 969.0 311.24 L 970.3 312.90 L 971.6 313.34 L 972.9 313.44 L 974.2 313.44 L 975.5 313.40 L 976.8 313.34 L 978.1 313.25 L 979.4 313.13 L 980.7 312.98 L 982.0 312.79 L 983.3 312.58 L 984.7 312.32 L 986.0 312.02 L 987.3 311.68 L 988.6 311.29 L 989.9 310.82 L 991.2 310.24 L 992.6 309.44 L 993.9 308.26 L 995.2 305.64 L 996.5 273.88 L 997.8 253.47 L 999.1 252.06 L 1000.4 252.00 L 1001.7 252.08 L 1003.0 252.24 L 1004.3 252.46 L 1005.6 252.75 L 1006.9 253.09 L 1008.2 253.49 L 1009.6 253.95 L 1010.9 254.46 L 1012.2 255.05 L 1013.5 255.78 L 1014.8 256.85 L 1016.1 259.37 L 1017.4 282.29 L 1018.7 305.33 L 1020.1 311.30 L 1021.4 312.91 L 1022.7 313.34 L 1024.0 313.44 L 1025.3 313.44 L 1026.6 313.40 L 1027.9 313.34 L 1029.2 313.25 L 1030.5 313.12 L 1031.8 312.97 L 1033.1 312.79 L 1034.4 312.57 L 1035.8 312.31 L 1037.1 312.02 L 1038.4 311.68 L 1039.7 311.28 L 1041.0 310.81 L 1042.3 310.22 L 1043.6 309.43 L 1044.9 308.23 L 1046.2 305.55 L 1047.5 272.86 L 1048.9 253.40 L 1050.2 252.06 L 1051.5 252.00 L 1052.8 252.09 L 1054.1 252.24 L 1055.4 252.46 L 1056.7 252.75 L 1058.0 253.10 L 1059.3 253.50 L 1060.7 253.96 L 1062.0 254.47 L 1063.3 255.06 L 1064.6 255.79 L 1065.9 256.88 L 1067.2 259.46 L 1068.5 283.00 L 1069.8 305.52 L 1071.1 311.35 L 1072.4 312.92 L 1073.7 313.34 L 1075.0 313.44 L 1076.4 313.44 L 1077.7 313.40 L 1079.0 313.34 L 1080.3 313.24 L 1081.6 313.12 L 1082.9 312.97 L 1084.2 312.79 L 1085.5 312.57 L 1086.9 312.31 L 1088.2 312.01 L 1089.5 311.67 L 1090.8 311.27 L 1092.1 310.80 L 1093.4 310.21 L 1094.7 309.44 L 1096.0 308.20 L 1097.3 305.46 L 1098.6 271.88 L 1099.9 253.33 L 1101.2 252.05 L 1102.5 252.00 L 1103.9 252.09 L 1105.2 252.24 L 1106.5 252.47 L 1107.8 252.76 L 1109.1 253.10 L 1110.4 253.51 L 1111.7 253.96 L 1113.1 254.48 L 1114.4 255.07 L 1115.7 255.81 L 1117.0 256.91 L 1118.3 259.55 L 1119.6 283.69 L 1120.9 305.70 L 1122.2 311.40 L 1123.5 312.94 L 1124.8 313.35 L 1126.1 313.44 L 1127.4 313.44 L 1128.7 313.40 L 1130.1 313.34 L 1131.4 313.24 L 1132.7 313.12 L 1134.0 312.97 L 1135.3 312.78 L 1136.6 312.57 L 1137.9 312.30 L 1139.2 312.00 L 1140.6 311.66 L 1141.9 311.26 L 1143.2 310.79 L 1144.5 310.20 L 1145.8 309.42 L 1147.1 308.17 L 1148.4 305.37 L 1149.7 270.95 L 1151.0 253.27 L 1152.3 252.05 L 1153.6 252.00 L 1155.0 252.09 L 1156.3 252.25 L 1157.6 252.47 L 1158.9 252.76 L 1160.2 253.11 L 1161.5 253.51 L 1162.8 253.96 L 1164.1 254.49 L 1165.4 255.08 L 1166.7 255.82 L 1168.0 256.93 L 1169.4 259.65 L 1170.7 284.37 L 1172.0 305.89" fill="none" stroke="#a8431f" stroke-width="2.6" stroke-linejoin="round" stroke-linecap="round"/><text x="838" y="234" fill="#a8431f" font-size="15" font-weight="600" text-anchor="start" font-family="-apple-system, BlinkMacSystemFont, 'Segoe UI', 'Inter', Helvetica, Arial, sans-serif">Parkinson's</text><text x="1172" y="234" fill="#a8431f" font-size="14" font-weight="500" text-anchor="end" font-family="-apple-system, BlinkMacSystemFont, 'Segoe UI', 'Inter', Helvetica, Arial, sans-serif">τ 22 ms · 8.0 Hz</text><text x="1005.0" y="372" fill="#94a3b8" font-size="12.5" font-weight="400" text-anchor="middle" font-family="-apple-system, BlinkMacSystemFont, 'Segoe UI', 'Inter', Helvetica, Arial, sans-serif">same 0.82 s window — the patient rhythm fits in fewer cycles</text></svg>