<svg viewBox="0 0 1000 520" xmlns="http://www.w3.org/2000/svg" font-family="-apple-system, BlinkMacSystemFont, 'Segoe UI', 'Inter', Helvetica, Arial, sans-serif"><defs><marker id="ah" markerWidth="9" markerHeight="9" refX="7" refY="4.5" orient="auto"><path d="M0,0 L0,9 L8,4.5 z" fill="#185FA5"/></marker><marker id="bar" markerWidth="9" markerHeight="18" refX="3" refY="9" orient="auto"><rect x="1" y="1.5" width="2.6" height="15" rx="1.2" fill="#a8431f"/></marker></defs><rect width="1000" height="520" rx="18" fill="#ffffff"/><text x="44" y="64" fill="#64748b" font-size="15" font-weight="400" text-anchor="start">8 coupled cortical nodes, each an excitatory-inhibitory loop. τ_inh is the only knob we turn.</text><g><line x1="170.0" y1="208.0" x2="235.1" y2="234.9" stroke="#3f8ddc" stroke-width="0.9" opacity="0.22"/><line x1="170.0" y1="208.0" x2="262.0" y2="300.0" stroke="#3f8ddc" stroke-width="0.9" opacity="0.22"/><line x1="170.0" y1="208.0" x2="235.1" y2="365.1" stroke="#3f8ddc" stroke-width="0.9" opacity="0.22"/><line x1="170.0" y1="208.0" x2="170.0" y2="392.0" stroke="#3f8ddc" stroke-width="0.9" opacity="0.22"/><line x1="170.0" y1="208.0" x2="104.9" y2="365.1" stroke="#3f8ddc" stroke-width="0.9" opacity="0.22"/><line x1="170.0" y1="208.0" x2="78.0" y2="300.0" stroke="#3f8ddc" stroke-width="0.9" opacity="0.22"/><line x1="170.0" y1="208.0" x2="104.9" y2="234.9" stroke="#3f8ddc" stroke-width="0.9" opacity="0.22"/><line x1="235.1" y1="234.9" x2="262.0" y2="300.0" stroke="#3f8ddc" stroke-width="0.9" opacity="0.22"/><line x1="235.1" y1="234.9" x2="235.1" y2="365.1" stroke="#3f8ddc" stroke-width="0.9" opacity="0.22"/><line x1="235.1" y1="234.9" x2="170.0" y2="392.0" stroke="#3f8ddc" stroke-width="0.9" opacity="0.22"/><line x1="235.1" y1="234.9" x2="104.9" y2="365.1" stroke="#3f8ddc" stroke-width="0.9" opacity="0.22"/><line x1="235.1" y1="234.9" x2="78.0" y2="300.0" stroke="#3f8ddc" stroke-width="0.9" opacity="0.22"/><line x1="235.1" y1="234.9" x2="104.9" y2="234.9" stroke="#3f8ddc" stroke-width="0.9" opacity="0.22"/><line x1="262.0" y1="300.0" x2="235.1" y2="365.1" stroke="#3f8ddc" stroke-width="0.9" opacity="0.22"/><line x1="262.0" y1="300.0" x2="170.0" y2="392.0" stroke="#3f8ddc" stroke-width="0.9" opacity="0.22"/><line x1="262.0" y1="300.0" x2="104.9" y2="365.1" stroke="#3f8ddc" stroke-width="0.9" opacity="0.22"/><line x1="262.0" y1="300.0" x2="78.0" y2="300.0" stroke="#3f8ddc" stroke-width="0.9" opacity="0.22"/><line x1="262.0" y1="300.0" x2="104.9" y2="234.9" stroke="#3f8ddc" stroke-width="0.9" opacity="0.22"/><line x1="235.1" y1="365.1" x2="170.0" y2="392.0" stroke="#3f8ddc" stroke-width="0.9" opacity="0.22"/><line x1="235.1" y1="365.1" x2="104.9" y2="365.1" stroke="#3f8ddc" stroke-width="0.9" opacity="0.22"/><line x1="235.1" y1="365.1" x2="78.0" y2="300.0" stroke="#3f8ddc" stroke-width="0.9" opacity="0.22"/><line x1="235.1" y1="365.1" x2="104.9" y2="234.9" stroke="#3f8ddc" stroke-width="0.9" opacity="0.22"/><line x1="170.0" y1="392.0" x2="104.9" y2="365.1" stroke="#3f8ddc" stroke-width="0.9" opacity="0.22"/><line x1="170.0" y1="392.0" x2="78.0" y2="300.0" stroke="#3f8ddc" stroke-width="0.9" opacity="0.22"/><line x1="170.0" y1="392.0" x2="104.9" y2="234.9" stroke="#3f8ddc" stroke-width="0.9" opacity="0.22"/><line x1="104.9" y1="365.1" x2="78.0" y2="300.0" stroke="#3f8ddc" stroke-width="0.9" opacity="0.22"/><line x1="104.9" y1="365.1" x2="104.9" y2="234.9" stroke="#3f8ddc" stroke-width="0.9" opacity="0.22"/><line x1="78.0" y1="300.0" x2="104.9" y2="234.9" stroke="#3f8ddc" stroke-width="0.9" opacity="0.22"/></g><circle cx="170.0" cy="208.0" r="10.5" fill="#185FA5"/><circle cx="235.1" cy="234.9" r="10.5" fill="#185FA5"/><circle cx="262.0" cy="300.0" r="16" fill="none" stroke="#a8431f" stroke-width="2" stroke-dasharray="3 2.5"/><circle cx="262.0" cy="300.0" r="10.5" fill="#a8431f"/><circle cx="235.1" cy="365.1" r="10.5" fill="#185FA5"/><circle cx="170.0" cy="392.0" r="10.5" fill="#185FA5"/><circle cx="104.9" cy="365.1" r="10.5" fill="#185FA5"/><circle cx="78.0" cy="300.0" r="10.5" fill="#185FA5"/><circle cx="104.9" cy="234.9" r="10.5" fill="#185FA5"/><text x="170" y="438" fill="#334155" font-size="13.5" font-weight="500" text-anchor="middle">8 nodes, all-to-all coupling</text><line x1="274.0" y1="290.0" x2="372" y2="205" stroke="#a8431f" stroke-width="1.3" stroke-dasharray="4 3" opacity="0.65"/><line x1="276.0" y1="308.0" x2="372" y2="360" stroke="#a8431f" stroke-width="1.3" stroke-dasharray="4 3" opacity="0.65"/><text x="497" y="158" fill="#64748b" font-size="13" font-weight="500" text-anchor="middle">Inside each node</text><path d="M 467 284 Q 498 244 530 284" fill="none" stroke="#185FA5" stroke-width="2.4" marker-end="url(#ah)"/><text x="498" y="232" fill="#185FA5" font-size="12.5" font-weight="500" text-anchor="middle">excites</text><path d="M 530 316 Q 498 356 467 316" fill="none" stroke="#a8431f" stroke-width="2.4" marker-end="url(#bar)"/><text x="498" y="378" fill="#a8431f" font-size="12.5" font-weight="500" text-anchor="middle">inhibits</text><circle cx="437" cy="300" r="34" fill="#185FA5"/><text x="437" y="308" fill="#fff" font-size="24" font-weight="500" text-anchor="middle">E</text><text x="437" y="356" fill="#334155" font-size="11.5" font-weight="400" text-anchor="middle">excitatory</text><circle cx="560" cy="300" r="34" fill="#a8431f"/><text x="560" y="308" fill="#fff" font-size="24" font-weight="500" text-anchor="middle">I</text><text x="560" y="356" fill="#334155" font-size="11.5" font-weight="400" text-anchor="middle">inhibitory</text><rect x="498" y="400" width="124" height="26" rx="13" fill="#fdf1ec" stroke="#a8431f" stroke-width="1.4"/><text x="560" y="417" fill="#a8431f" font-size="12.5" font-weight="500" text-anchor="middle">τ_inh = the knob</text><path d="M 638 300 Q 668 300 690 300" fill="none" stroke="#94a3b8" stroke-width="1.6" marker-end="url(#ah)"/><text x="702" y="158" fill="#64748b" font-size="13" font-weight="500" text-anchor="start">Turn τ_inh up, the rhythm slows</text><text x="702" y="196" fill="#185FA5" font-size="13.5" font-weight="500" text-anchor="start">Control</text><text x="958" y="196" fill="#185FA5" font-size="12" font-weight="400" text-anchor="end">τ 18 ms  ·  9.5 Hz</text><path d="M 702.0 253.2 L 703.3 249.3 L 704.6 244.8 L 705.9 239.9 L 707.1 234.9 L 708.4 229.9 L 709.7 225.4 L 711.0 221.5 L 712.3 218.6 L 713.6 216.7 L 714.9 216.0 L 716.2 216.6 L 717.4 218.3 L 718.7 221.2 L 720.0 225.0 L 721.3 229.5 L 722.6 234.4 L 723.9 239.5 L 725.2 244.4 L 726.4 251.0 L 727.7 254.6 L 729.0 257.2 L 730.3 258.8 L 731.6 259.4 L 732.9 258.8 L 734.2 257.2 L 735.4 254.5 L 736.7 251.0 L 738.0 246.7 L 739.3 241.9 L 740.6 236.9 L 741.9 231.9 L 743.2 227.1 L 744.5 223.0 L 745.7 219.6 L 747.0 217.3 L 748.3 216.1 L 749.6 216.7 L 750.9 218.6 L 752.2 221.5 L 753.5 225.4 L 754.7 229.9 L 756.0 234.9 L 757.3 240.0 L 758.6 244.9 L 759.9 249.4 L 761.2 253.2 L 762.5 256.3 L 763.7 258.3 L 765.0 259.3 L 766.3 259.2 L 767.6 257.9 L 768.9 255.7 L 770.2 252.5 L 771.5 248.5 L 772.8 241.5 L 774.0 236.4 L 775.3 231.4 L 776.6 226.7 L 777.9 222.6 L 779.2 219.3 L 780.5 217.1 L 781.8 216.1 L 783.0 216.3 L 784.3 217.7 L 785.6 220.2 L 786.9 223.7 L 788.2 228.1 L 789.5 232.9 L 790.8 237.9 L 792.1 243.0 L 793.3 247.7 L 794.6 251.8 L 795.9 256.5 L 797.2 258.4 L 798.5 259.3 L 799.8 259.1 L 801.1 257.8 L 802.3 255.4 L 803.6 252.1 L 804.9 248.1 L 806.2 243.4 L 807.5 238.5 L 808.8 233.4 L 810.1 228.5 L 811.3 224.2 L 812.6 220.5 L 813.9 217.9 L 815.2 216.4 L 816.5 216.0 L 817.8 217.0 L 819.1 220.5 L 820.4 224.1 L 821.6 228.5 L 822.9 233.4 L 824.2 238.4 L 825.5 243.4 L 826.8 248.1 L 828.1 252.1 L 829.4 255.4 L 830.6 257.8 L 831.9 259.1 L 833.2 259.3 L 834.5 258.4 L 835.8 256.5 L 837.1 253.6 L 838.4 249.8 L 839.6 245.4 L 840.9 240.5 L 842.2 232.9 L 843.5 228.1 L 844.8 223.8 L 846.1 220.2 L 847.4 217.7 L 848.7 216.3 L 849.9 216.1 L 851.2 217.1 L 852.5 219.3 L 853.8 222.6 L 855.1 226.7 L 856.4 231.4 L 857.7 236.4 L 858.9 241.4 L 860.2 246.3 L 861.5 250.6 L 862.8 254.2 L 864.1 257.0 L 865.4 259.2 L 866.7 259.3 L 867.9 258.3 L 869.2 256.2 L 870.5 253.2 L 871.8 249.4 L 873.1 244.9 L 874.4 240.0 L 875.7 234.9 L 877.0 230.0 L 878.2 225.4 L 879.5 221.6 L 880.8 218.6 L 882.1 216.7 L 883.4 216.0 L 884.7 216.5 L 886.0 218.3 L 887.2 221.2 L 888.5 227.1 L 889.8 231.8 L 891.1 236.9 L 892.4 241.9 L 893.7 246.7 L 895.0 251.0 L 896.3 254.5 L 897.5 257.2 L 898.8 258.8 L 900.1 259.4 L 901.4 258.8 L 902.7 257.2 L 904.0 254.5 L 905.3 251.0 L 906.5 246.8 L 907.8 242.0 L 909.1 237.0 L 910.4 231.9 L 911.7 225.0 L 913.0 221.2 L 914.3 218.4 L 915.5 216.6 L 916.8 216.0 L 918.1 216.7 L 919.4 218.5 L 920.7 221.5 L 922.0 225.3 L 923.3 229.9 L 924.6 234.8 L 925.8 239.9 L 927.1 244.8 L 928.4 249.3 L 929.7 253.2 L 931.0 256.2 L 932.3 258.3 L 933.6 259.3 L 934.8 258.7 L 936.1 257.0 L 937.4 254.2 L 938.7 250.6 L 940.0 246.3 L 941.3 241.5 L 942.6 236.5 L 943.8 231.5 L 945.1 226.8 L 946.4 222.7 L 947.7 219.4 L 949.0 217.1 L 950.3 216.1 L 951.6 216.2 L 952.9 217.6 L 954.1 220.2 L 955.4 223.7 L 956.7 228.0 L 958.0 235.3" fill="none" stroke="#185FA5" stroke-width="2.4" stroke-linejoin="round" stroke-linecap="round"/><text x="702" y="300" fill="#a8431f" font-size="13.5" font-weight="500" text-anchor="start">Parkinson's</text><text x="958" y="300" fill="#a8431f" font-size="12" font-weight="400" text-anchor="end">τ 22 ms  ·  8.0 Hz</text><path d="M 702.0 327.7 L 703.3 331.5 L 704.6 335.7 L 705.9 340.0 L 707.1 344.4 L 708.4 348.6 L 709.7 352.3 L 711.0 355.6 L 712.3 358.3 L 713.6 360.2 L 714.9 361.5 L 716.2 362.1 L 717.4 362.0 L 718.7 361.1 L 720.0 359.6 L 721.3 357.4 L 722.6 354.5 L 723.9 351.1 L 725.2 347.3 L 726.4 340.9 L 727.7 336.5 L 729.0 332.3 L 730.3 328.4 L 731.6 325.1 L 732.9 322.5 L 734.2 320.8 L 735.4 320.0 L 736.7 320.3 L 738.0 321.6 L 739.3 323.8 L 740.6 326.8 L 741.9 330.5 L 743.2 334.6 L 744.5 339.0 L 745.7 343.4 L 747.0 347.6 L 748.3 351.5 L 749.6 356.3 L 750.9 358.8 L 752.2 360.6 L 753.5 361.8 L 754.7 362.2 L 756.0 361.8 L 757.3 360.8 L 758.6 359.1 L 759.9 356.7 L 761.2 353.7 L 762.5 350.2 L 763.7 346.2 L 765.0 342.0 L 766.3 337.6 L 767.6 333.3 L 768.9 329.3 L 770.2 325.8 L 771.5 323.0 L 772.8 320.5 L 774.0 320.0 L 775.3 320.5 L 776.6 322.1 L 777.9 324.5 L 779.2 327.7 L 780.5 331.5 L 781.8 335.7 L 783.0 340.1 L 784.3 344.4 L 785.6 348.6 L 786.9 352.4 L 788.2 355.6 L 789.5 358.3 L 790.8 360.3 L 792.1 361.5 L 793.3 362.1 L 794.6 362.0 L 795.9 360.5 L 797.2 358.6 L 798.5 356.0 L 799.8 352.9 L 801.1 349.2 L 802.3 345.2 L 803.6 340.9 L 804.9 336.5 L 806.2 332.2 L 807.5 328.4 L 808.8 325.0 L 810.1 322.5 L 811.3 320.8 L 812.6 320.0 L 813.9 320.3 L 815.2 321.6 L 816.5 323.8 L 817.8 326.8 L 819.1 332.5 L 820.4 336.8 L 821.6 341.2 L 822.9 345.5 L 824.2 349.6 L 825.5 353.2 L 826.8 356.3 L 828.1 358.8 L 829.4 360.7 L 830.6 361.8 L 831.9 362.2 L 833.2 361.8 L 834.5 360.8 L 835.8 359.1 L 837.1 356.7 L 838.4 353.7 L 839.6 350.2 L 840.9 346.2 L 842.2 339.7 L 843.5 335.4 L 844.8 331.2 L 846.1 327.5 L 847.4 324.3 L 848.7 321.9 L 849.9 320.5 L 851.2 320.0 L 852.5 320.5 L 853.8 322.1 L 855.1 324.5 L 856.4 327.7 L 857.7 331.5 L 858.9 335.7 L 860.2 340.1 L 861.5 344.5 L 862.8 348.6 L 864.1 352.4 L 865.4 357.0 L 866.7 359.4 L 867.9 361.0 L 869.2 361.9 L 870.5 362.1 L 871.8 361.6 L 873.1 360.4 L 874.4 358.5 L 875.7 356.0 L 877.0 352.9 L 878.2 349.2 L 879.5 345.1 L 880.8 340.8 L 882.1 336.4 L 883.4 332.2 L 884.7 328.3 L 886.0 325.0 L 887.2 322.4 L 888.5 320.3 L 889.8 320.0 L 891.1 320.8 L 892.4 322.6 L 893.7 325.2 L 895.0 328.6 L 896.3 332.5 L 897.5 336.8 L 898.8 341.2 L 900.1 345.6 L 901.4 349.6 L 902.7 353.3 L 904.0 356.4 L 905.3 358.9 L 906.5 360.7 L 907.8 361.8 L 909.1 362.2 L 910.4 361.8 L 911.7 360.0 L 913.0 358.0 L 914.3 355.3 L 915.5 352.0 L 916.8 348.2 L 918.1 344.1 L 919.4 339.7 L 920.7 335.3 L 922.0 331.2 L 923.3 327.4 L 924.6 324.3 L 925.8 321.9 L 927.1 320.5 L 928.4 320.0 L 929.7 320.5 L 931.0 322.1 L 932.3 324.5 L 933.6 327.7 L 934.8 333.6 L 936.1 337.9 L 937.4 342.3 L 938.7 346.6 L 940.0 350.6 L 941.3 354.1 L 942.6 357.1 L 943.8 359.4 L 945.1 361.0 L 946.4 361.9 L 947.7 362.1 L 949.0 361.6 L 950.3 360.4 L 951.6 358.5 L 952.9 356.0 L 954.1 352.8 L 955.4 349.2 L 956.7 345.1 L 958.0 338.6" fill="none" stroke="#a8431f" stroke-width="2.4" stroke-linejoin="round" stroke-linecap="round"/><text x="702" y="392" fill="#94a3b8" font-size="11.5" font-weight="400" text-anchor="start">same network, same 0.82 s window, fewer cycles</text></svg>