<svg viewBox="0 0 1200 460" xmlns="http://www.w3.org/2000/svg" font-family="-apple-system, BlinkMacSystemFont, 'Segoe UI', 'Inter', Helvetica, Arial, sans-serif"><defs><marker id="ex" markerWidth="9" markerHeight="9" refX="7" refY="4.5" orient="auto"><path d="M0,0 L0,9 L8,4.5 z" fill="#059669"/></marker><marker id="bar" markerWidth="10" markerHeight="16" refX="3" refY="8" orient="auto"><rect x="1" y="1.5" width="2.8" height="13" rx="1.2" fill="#7c3aed"/></marker><marker id="sh" markerWidth="9" markerHeight="9" refX="6.5" refY="4.5" orient="auto"><path d="M0,0 L0,9 L8,4.5 z" fill="#64748b"/></marker></defs><rect width="1200" height="460" rx="16" fill="#ffffff"/><line x1="396.0" y1="40.0" x2="396.0" y2="420.0" stroke="#e2e8f0" stroke-width="1.4"/><line x1="804.0" y1="40.0" x2="804.0" y2="420.0" stroke="#e2e8f0" stroke-width="1.4"/><text x="28" y="30" fill="#64748b" font-size="14.5" font-weight="600" text-anchor="start" font-family="-apple-system, BlinkMacSystemFont, 'Segoe UI', 'Inter', Helvetica, Arial, sans-serif">THE MODEL: AN E–I LOOP</text><line x1="200.0" y1="58.0" x2="232.5" y2="71.5" stroke="#9ec3f2" stroke-width="0.8" opacity="0.5"/><line x1="200.0" y1="58.0" x2="246.0" y2="104.0" stroke="#9ec3f2" stroke-width="0.8" opacity="0.5"/><line x1="200.0" y1="58.0" x2="232.5" y2="136.5" stroke="#9ec3f2" stroke-width="0.8" opacity="0.5"/><line x1="200.0" y1="58.0" x2="200.0" y2="150.0" stroke="#9ec3f2" stroke-width="0.8" opacity="0.5"/><line x1="200.0" y1="58.0" x2="167.5" y2="136.5" stroke="#9ec3f2" stroke-width="0.8" opacity="0.5"/><line x1="200.0" y1="58.0" x2="154.0" y2="104.0" stroke="#9ec3f2" stroke-width="0.8" opacity="0.5"/><line x1="200.0" y1="58.0" x2="167.5" y2="71.5" stroke="#9ec3f2" stroke-width="0.8" opacity="0.5"/><line x1="232.5" y1="71.5" x2="246.0" y2="104.0" stroke="#9ec3f2" stroke-width="0.8" opacity="0.5"/><line x1="232.5" y1="71.5" x2="232.5" y2="136.5" stroke="#9ec3f2" stroke-width="0.8" opacity="0.5"/><line x1="232.5" y1="71.5" x2="200.0" y2="150.0" stroke="#9ec3f2" stroke-width="0.8" opacity="0.5"/><line x1="232.5" y1="71.5" x2="167.5" y2="136.5" stroke="#9ec3f2" stroke-width="0.8" opacity="0.5"/><line x1="232.5" y1="71.5" x2="154.0" y2="104.0" stroke="#9ec3f2" stroke-width="0.8" opacity="0.5"/><line x1="232.5" y1="71.5" x2="167.5" y2="71.5" stroke="#9ec3f2" stroke-width="0.8" opacity="0.5"/><line x1="246.0" y1="104.0" x2="232.5" y2="136.5" stroke="#9ec3f2" stroke-width="0.8" opacity="0.5"/><line x1="246.0" y1="104.0" x2="200.0" y2="150.0" stroke="#9ec3f2" stroke-width="0.8" opacity="0.5"/><line x1="246.0" y1="104.0" x2="167.5" y2="136.5" stroke="#9ec3f2" stroke-width="0.8" opacity="0.5"/><line x1="246.0" y1="104.0" x2="154.0" y2="104.0" stroke="#9ec3f2" stroke-width="0.8" opacity="0.5"/><line x1="246.0" y1="104.0" x2="167.5" y2="71.5" stroke="#9ec3f2" stroke-width="0.8" opacity="0.5"/><line x1="232.5" y1="136.5" x2="200.0" y2="150.0" stroke="#9ec3f2" stroke-width="0.8" opacity="0.5"/><line x1="232.5" y1="136.5" x2="167.5" y2="136.5" stroke="#9ec3f2" stroke-width="0.8" opacity="0.5"/><line x1="232.5" y1="136.5" x2="154.0" y2="104.0" stroke="#9ec3f2" stroke-width="0.8" opacity="0.5"/><line x1="232.5" y1="136.5" x2="167.5" y2="71.5" stroke="#9ec3f2" stroke-width="0.8" opacity="0.5"/><line x1="200.0" y1="150.0" x2="167.5" y2="136.5" stroke="#9ec3f2" stroke-width="0.8" opacity="0.5"/><line x1="200.0" y1="150.0" x2="154.0" y2="104.0" stroke="#9ec3f2" stroke-width="0.8" opacity="0.5"/><line x1="200.0" y1="150.0" x2="167.5" y2="71.5" stroke="#9ec3f2" stroke-width="0.8" opacity="0.5"/><line x1="167.5" y1="136.5" x2="154.0" y2="104.0" stroke="#9ec3f2" stroke-width="0.8" opacity="0.5"/><line x1="167.5" y1="136.5" x2="167.5" y2="71.5" stroke="#9ec3f2" stroke-width="0.8" opacity="0.5"/><line x1="154.0" y1="104.0" x2="167.5" y2="71.5" stroke="#9ec3f2" stroke-width="0.8" opacity="0.5"/><circle cx="200.0" cy="58.0" r="7" fill="#64748b"/><circle cx="232.5" cy="71.5" r="11" fill="none" stroke="#334155" stroke-width="2" stroke-dasharray="3 2.5"/><circle cx="232.5" cy="71.5" r="7" fill="#64748b"/><circle cx="246.0" cy="104.0" r="7" fill="#64748b"/><circle cx="232.5" cy="136.5" r="7" fill="#64748b"/><circle cx="200.0" cy="150.0" r="7" fill="#64748b"/><circle cx="167.5" cy="136.5" r="7" fill="#64748b"/><circle cx="154.0" cy="104.0" r="7" fill="#64748b"/><circle cx="167.5" cy="71.5" r="7" fill="#64748b"/><text x="200" y="174" fill="#334155" font-size="13" font-weight="500" text-anchor="middle" font-family="-apple-system, BlinkMacSystemFont, 'Segoe UI', 'Inter', Helvetica, Arial, sans-serif">8 nodes, all-to-all coupling</text><line x1="238.5" y1="77.5" x2="248.0" y2="232.0" stroke="#94a3b8" stroke-width="1.3" stroke-dasharray="4 3" opacity="0.7"/><line x1="238.5" y1="77.5" x2="150.0" y2="232.0" stroke="#94a3b8" stroke-width="1.3" stroke-dasharray="4 3" opacity="0.7"/><circle cx="150" cy="300" r="30" fill="#059669"/><text x="150" y="309" fill="#ffffff" font-size="26" font-weight="600" text-anchor="middle" font-family="-apple-system, BlinkMacSystemFont, 'Segoe UI', 'Inter', Helvetica, Arial, sans-serif">E</text><text x="150" y="352" fill="#334155" font-size="13" font-weight="400" text-anchor="middle" font-family="-apple-system, BlinkMacSystemFont, 'Segoe UI', 'Inter', Helvetica, Arial, sans-serif">excitatory</text><circle cx="252" cy="300" r="30" fill="#7c3aed"/><text x="252" y="309" fill="#ffffff" font-size="26" font-weight="600" text-anchor="middle" font-family="-apple-system, BlinkMacSystemFont, 'Segoe UI', 'Inter', Helvetica, Arial, sans-serif">I</text><text x="252" y="352" fill="#334155" font-size="13" font-weight="400" text-anchor="middle" font-family="-apple-system, BlinkMacSystemFont, 'Segoe UI', 'Inter', Helvetica, Arial, sans-serif">inhibitory</text><path d="M 176 284 Q 201.0 242 226 284" fill="none" stroke="#059669" stroke-width="2.6" marker-end="url(#ex)"/><text x="201.0" y="252" fill="#059669" font-size="14" font-weight="600" text-anchor="middle" font-family="-apple-system, BlinkMacSystemFont, 'Segoe UI', 'Inter', Helvetica, Arial, sans-serif">excites</text><path d="M 226 316 Q 201.0 358 176 316" fill="none" stroke="#7c3aed" stroke-width="2.6" marker-end="url(#bar)"/><text x="201.0" y="364" fill="#7c3aed" font-size="14" font-weight="600" text-anchor="middle" font-family="-apple-system, BlinkMacSystemFont, 'Segoe UI', 'Inter', Helvetica, Arial, sans-serif">inhibits</text><rect x="118" y="388" width="164" height="30" rx="15" fill="#f5f3ff" stroke="#7c3aed" stroke-width="1.4"/><text x="140" y="408" fill="#7c3aed" font-size="14.5" font-weight="700" text-anchor="start" font-family="-apple-system, BlinkMacSystemFont, 'Segoe UI', 'Inter', Helvetica, Arial, sans-serif">τ_inh</text><text x="180" y="408" fill="#334155" font-size="13.5" font-weight="500" text-anchor="start" font-family="-apple-system, BlinkMacSystemFont, 'Segoe UI', 'Inter', Helvetica, Arial, sans-serif">the one knob</text><text x="420" y="30" fill="#64748b" font-size="14.5" font-weight="600" text-anchor="start" font-family="-apple-system, BlinkMacSystemFont, 'Segoe UI', 'Inter', Helvetica, Arial, sans-serif">TURN τ_inh UP, THE RHYTHM SLOWS</text><text x="420" y="50" fill="#94a3b8" font-size="12" font-weight="400" text-anchor="start" font-family="-apple-system, BlinkMacSystemFont, 'Segoe UI', 'Inter', Helvetica, Arial, sans-serif">each point = the model run at one knob setting</text><rect x="470" y="78.0" width="310" height="245.0" rx="0" fill="#fffbeb"/><text x="774" y="107.39999999999998" fill="#d8b46a" font-size="11" font-weight="600" text-anchor="end" font-family="-apple-system, BlinkMacSystemFont, 'Segoe UI', 'Inter', Helvetica, Arial, sans-serif">alpha band</text><line x1="470.0" y1="372.0" x2="780.0" y2="372.0" stroke="#cbd5e1" stroke-width="1.4"/><line x1="470.0" y1="78.0" x2="470.0" y2="372.0" stroke="#cbd5e1" stroke-width="1.4"/><line x1="514.3" y1="372.0" x2="514.3" y2="377.0" stroke="#cbd5e1" stroke-width="1.2"/><text x="514.2857142857143" y="394" fill="#64748b" font-size="13" font-weight="400" text-anchor="middle" font-family="-apple-system, BlinkMacSystemFont, 'Segoe UI', 'Inter', Helvetica, Arial, sans-serif">14</text><line x1="602.9" y1="372.0" x2="602.9" y2="377.0" stroke="#cbd5e1" stroke-width="1.2"/><text x="602.8571428571429" y="394" fill="#64748b" font-size="13" font-weight="400" text-anchor="middle" font-family="-apple-system, BlinkMacSystemFont, 'Segoe UI', 'Inter', Helvetica, Arial, sans-serif">18</text><line x1="691.4" y1="372.0" x2="691.4" y2="377.0" stroke="#cbd5e1" stroke-width="1.2"/><text x="691.4285714285714" y="394" fill="#64748b" font-size="13" font-weight="400" text-anchor="middle" font-family="-apple-system, BlinkMacSystemFont, 'Segoe UI', 'Inter', Helvetica, Arial, sans-serif">22</text><line x1="780.0" y1="372.0" x2="780.0" y2="377.0" stroke="#cbd5e1" stroke-width="1.2"/><text x="780.0" y="394" fill="#64748b" font-size="13" font-weight="400" text-anchor="middle" font-family="-apple-system, BlinkMacSystemFont, 'Segoe UI', 'Inter', Helvetica, Arial, sans-serif">26</text><line x1="465.0" y1="323.0" x2="470.0" y2="323.0" stroke="#cbd5e1" stroke-width="1.2"/><text x="461" y="327.0" fill="#94a3b8" font-size="12.5" font-weight="400" text-anchor="end" font-family="-apple-system, BlinkMacSystemFont, 'Segoe UI', 'Inter', Helvetica, Arial, sans-serif">8</text><line x1="465.0" y1="225.0" x2="470.0" y2="225.0" stroke="#cbd5e1" stroke-width="1.2"/><text x="461" y="229.0" fill="#94a3b8" font-size="12.5" font-weight="400" text-anchor="end" font-family="-apple-system, BlinkMacSystemFont, 'Segoe UI', 'Inter', Helvetica, Arial, sans-serif">10</text><line x1="465.0" y1="127.0" x2="470.0" y2="127.0" stroke="#cbd5e1" stroke-width="1.2"/><text x="461" y="131.0" fill="#94a3b8" font-size="12.5" font-weight="400" text-anchor="end" font-family="-apple-system, BlinkMacSystemFont, 'Segoe UI', 'Inter', Helvetica, Arial, sans-serif">12</text><text x="625.0" y="416" fill="#334155" font-size="14" font-weight="500" text-anchor="middle" font-family="-apple-system, BlinkMacSystemFont, 'Segoe UI', 'Inter', Helvetica, Arial, sans-serif">τ_inh — the inhibitory knob (ms)</text><text x="625.0" y="434" fill="#94a3b8" font-size="11.5" font-weight="400" text-anchor="middle" font-family="-apple-system, BlinkMacSystemFont, 'Segoe UI', 'Inter', Helvetica, Arial, sans-serif">longer τ = slower, more sluggish inhibition</text><text x="434" y="225.0" fill="#334155" font-size="14" font-weight="500" text-anchor="middle" font-family="-apple-system, BlinkMacSystemFont, 'Segoe UI', 'Inter', Helvetica, Arial, sans-serif" transform="rotate(-90 434 225)">alpha rhythm (Hz)</text><path d="M 470.0 78.0 L 481.1 102.5 L 492.1 127.0 L 503.2 127.0 L 514.3 151.5 L 525.4 176.0 L 536.4 176.0 L 547.5 200.5 L 558.6 200.5 L 569.6 225.0 L 580.7 225.0 L 591.8 249.5 L 602.9 249.5 L 613.9 274.0 L 625.0 274.0 L 636.1 274.0 L 647.1 298.5 L 658.2 298.5 L 669.3 298.5 L 680.4 323.0 L 691.4 323.0 L 702.5 323.0 L 713.6 347.5 L 724.6 347.5 L 735.7 347.5 L 746.8 347.5 L 757.9 372.0 L 768.9 372.0 L 780.0 372.0" fill="none" stroke="#334155" stroke-width="2.8" stroke-linejoin="round"/><path d="M 619.4 265.8 Q 656.0 323.0 678.4 314.0" fill="none" stroke="#64748b" stroke-width="1.8" stroke-dasharray="4 3" marker-end="url(#sh)"/><circle cx="608.4" cy="261.8" r="8" fill="#185FA5" stroke="#ffffff" stroke-width="2"/><text x="593.3928571428571" y="256.75" fill="#185FA5" font-size="14.5" font-weight="700" text-anchor="end" font-family="-apple-system, BlinkMacSystemFont, 'Segoe UI', 'Inter', Helvetica, Arial, sans-serif">Control</text><text x="593.3928571428571" y="273.75" fill="#185FA5" font-size="11.5" font-weight="400" text-anchor="end" font-family="-apple-system, BlinkMacSystemFont, 'Segoe UI', 'Inter', Helvetica, Arial, sans-serif">18.25 ms · 9.25 Hz</text><circle cx="680.4" cy="323.0" r="8" fill="#a8431f" stroke="#ffffff" stroke-width="2"/><text x="694.3571428571429" y="299.0" fill="#a8431f" font-size="14.5" font-weight="700" text-anchor="start" font-family="-apple-system, BlinkMacSystemFont, 'Segoe UI', 'Inter', Helvetica, Arial, sans-serif">PD</text><text x="694.3571428571429" y="316.0" fill="#a8431f" font-size="11.5" font-weight="400" text-anchor="start" font-family="-apple-system, BlinkMacSystemFont, 'Segoe UI', 'Inter', Helvetica, Arial, sans-serif">21.5 ms · 8 Hz</text><text x="625.0" y="354.85" fill="#64748b" font-size="12.5" font-weight="600" text-anchor="middle" font-family="-apple-system, BlinkMacSystemFont, 'Segoe UI', 'Inter', Helvetica, Arial, sans-serif">+3.25 ms longer τ  →  1.25 Hz slower</text><text x="828" y="30" fill="#64748b" font-size="14.5" font-weight="600" text-anchor="start" font-family="-apple-system, BlinkMacSystemFont, 'Segoe UI', 'Inter', Helvetica, Arial, sans-serif">THE SIMULATED RHYTHM</text><path d="M 838.0 157.26 L 839.3 156.83 L 840.6 156.31 L 841.9 155.66 L 843.2 154.79 L 844.5 153.38 L 845.8 149.63 L 847.2 108.24 L 848.5 98.64 L 849.8 98.01 L 851.1 98.05 L 852.4 98.23 L 853.7 98.51 L 855.0 98.87 L 856.3 99.33 L 857.6 99.85 L 858.9 100.43 L 860.2 101.12 L 861.5 102.02 L 862.8 103.51 L 864.2 110.09 L 865.5 142.64 L 866.8 154.47 L 868.1 157.68 L 869.4 158.54 L 870.7 158.75 L 872.0 158.78 L 873.4 158.72 L 874.7 158.62 L 876.0 158.48 L 877.3 158.30 L 878.6 158.06 L 879.9 157.78 L 881.2 157.44 L 882.5 157.04 L 883.8 156.57 L 885.1 155.99 L 886.4 155.24 L 887.7 154.15 L 889.0 152.05 L 890.4 133.01 L 891.7 100.45 L 893.0 98.11 L 894.3 98.01 L 895.6 98.13 L 896.9 98.36 L 898.2 98.70 L 899.6 99.11 L 900.9 99.60 L 902.2 100.15 L 903.5 100.78 L 904.8 101.56 L 906.1 102.67 L 907.4 105.36 L 908.7 128.99 L 910.0 150.72 L 911.3 156.66 L 912.6 158.27 L 913.9 158.69 L 915.3 158.78 L 916.6 158.75 L 917.9 158.67 L 919.2 158.55 L 920.5 158.39 L 921.8 158.18 L 923.1 157.92 L 924.4 157.60 L 925.7 157.24 L 927.1 156.80 L 928.4 156.28 L 929.7 155.62 L 931.0 154.73 L 932.3 153.21 L 933.6 148.84 L 934.9 106.82 L 936.2 98.55 L 937.5 98.00 L 938.8 98.06 L 940.1 98.24 L 941.5 98.53 L 942.8 98.91 L 944.1 99.36 L 945.4 99.88 L 946.7 100.47 L 948.0 101.17 L 949.3 102.11 L 950.6 103.72 L 951.9 111.29 L 953.2 143.77 L 954.5 154.78 L 955.9 157.76 L 957.2 158.56 L 958.5 158.76 L 959.8 158.77 L 961.1 158.72 L 962.4 158.62 L 963.7 158.47 L 965.0 158.28 L 966.3 158.05 L 967.7 157.76 L 969.0 157.42 L 970.3 157.02 L 971.6 156.54 L 972.9 155.95 L 974.2 155.19 L 975.5 154.03 L 976.8 151.74 L 978.1 128.72 L 979.4 100.10 L 980.7 98.09 L 982.0 98.01 L 983.3 98.14 L 984.7 98.39 L 986.0 98.72 L 987.3 99.14 L 988.6 99.63 L 989.9 100.18 L 991.2 100.82 L 992.6 101.64 L 993.9 102.80 L 995.2 105.66 L 996.5 131.04 L 997.8 151.29 L 999.1 156.82 L 1000.4 158.31 L 1001.7 158.71 L 1003.0 158.78 L 1004.3 158.75 L 1005.6 158.67 L 1006.9 158.54 L 1008.2 158.38 L 1009.6 158.16 L 1010.9 157.90 L 1012.2 157.59 L 1013.5 157.22 L 1014.8 156.78 L 1016.1 156.25 L 1017.4 155.58 L 1018.7 154.63 L 1020.1 153.09 L 1021.4 148.22 L 1022.7 105.59 L 1024.0 98.46 L 1025.3 98.00 L 1026.6 98.07 L 1027.9 98.26 L 1029.2 98.55 L 1030.5 98.93 L 1031.8 99.39 L 1033.1 99.91 L 1034.4 100.50 L 1035.8 101.23 L 1037.1 102.18 L 1038.4 103.86 L 1039.7 112.75 L 1041.0 144.83 L 1042.3 155.07 L 1043.6 157.88 L 1044.9 158.59 L 1046.2 158.76 L 1047.5 158.77 L 1048.9 158.71 L 1050.2 158.61 L 1051.5 158.46 L 1052.8 158.27 L 1054.1 158.03 L 1055.4 157.74 L 1056.7 157.40 L 1058.0 156.99 L 1059.3 156.51 L 1060.7 155.89 L 1062.0 155.11 L 1063.3 153.95 L 1064.6 151.52 L 1065.9 124.68 L 1067.2 99.80 L 1068.5 98.07 L 1069.8 98.02 L 1071.1 98.16 L 1072.4 98.40 L 1073.7 98.74 L 1075.0 99.16 L 1076.4 99.65 L 1077.7 100.21 L 1079.0 100.88 L 1080.3 101.69 L 1081.6 102.89 L 1082.9 106.00 L 1084.2 132.96 L 1085.5 151.82 L 1086.9 157.04 L 1088.2 158.37 L 1089.5 158.72 L 1090.8 158.78 L 1092.1 158.75 L 1093.4 158.66 L 1094.7 158.54 L 1096.0 158.36 L 1097.3 158.15 L 1098.6 157.88 L 1099.9 157.57 L 1101.2 157.19 L 1102.5 156.75 L 1103.9 156.19 L 1105.2 155.51 L 1106.5 154.57 L 1107.8 152.97 L 1109.1 147.46 L 1110.4 104.53 L 1111.7 98.39 L 1113.1 98.00 L 1114.4 98.08 L 1115.7 98.28 L 1117.0 98.57 L 1118.3 98.96 L 1119.6 99.41 L 1120.9 99.96 L 1122.2 100.56 L 1123.5 101.28 L 1124.8 102.24 L 1126.1 104.01 L 1127.4 114.50 L 1128.7 145.82 L 1130.1 155.48 L 1131.4 157.95 L 1132.7 158.61 L 1134.0 158.77 L 1135.3 158.77 L 1136.6 158.71 L 1137.9 158.60 L 1139.2 158.45 L 1140.6 158.25 L 1141.9 158.01 L 1143.2 157.72 L 1144.5 157.38 L 1145.8 156.97 L 1147.1 156.46 L 1148.4 155.86 L 1149.7 155.06 L 1151.0 153.86 L 1152.3 151.28 L 1153.6 121.07 L 1155.0 99.41 L 1156.3 98.05 L 1157.6 98.02 L 1158.9 98.17 L 1160.2 98.42 L 1161.5 98.76 L 1162.8 99.19 L 1164.1 99.70 L 1165.4 100.27 L 1166.7 100.92 L 1168.0 101.74 L 1169.4 102.99 L 1170.7 106.39 L 1172.0 135.71" fill="none" stroke="#185FA5" stroke-width="2.6" stroke-linejoin="round" stroke-linecap="round"/><text x="838" y="80" fill="#185FA5" font-size="15" font-weight="600" text-anchor="start" font-family="-apple-system, BlinkMacSystemFont, 'Segoe UI', 'Inter', Helvetica, Arial, sans-serif">Control</text><text x="1172" y="80" fill="#185FA5" font-size="14" font-weight="500" text-anchor="end" font-family="-apple-system, BlinkMacSystemFont, 'Segoe UI', 'Inter', Helvetica, Arial, sans-serif">τ 18.25 ms</text><path d="M 838.0 255.78 L 839.3 257.06 L 840.6 261.82 L 841.9 291.30 L 843.2 303.54 L 844.5 306.86 L 845.8 307.76 L 847.2 307.99 L 848.5 308.04 L 849.8 308.02 L 851.1 307.97 L 852.4 307.89 L 853.7 307.79 L 855.0 307.66 L 856.3 307.50 L 857.6 307.31 L 858.9 307.08 L 860.2 306.82 L 861.5 306.52 L 862.8 306.16 L 864.2 305.73 L 865.5 305.21 L 866.8 304.54 L 868.1 303.54 L 869.4 301.54 L 870.7 282.18 L 872.0 254.10 L 873.4 252.10 L 874.7 252.00 L 876.0 252.07 L 877.3 252.21 L 878.6 252.41 L 879.9 252.68 L 881.2 253.01 L 882.5 253.39 L 883.8 253.81 L 885.1 254.29 L 886.4 254.84 L 887.7 255.54 L 889.0 256.60 L 890.4 259.59 L 891.7 285.00 L 893.0 301.82 L 894.3 306.40 L 895.6 307.63 L 896.9 307.96 L 898.2 308.03 L 899.6 308.03 L 900.9 307.98 L 902.2 307.91 L 903.5 307.82 L 904.8 307.70 L 906.1 307.55 L 907.4 307.36 L 908.7 307.14 L 910.0 306.89 L 911.3 306.59 L 912.6 306.25 L 913.9 305.85 L 915.3 305.35 L 916.6 304.72 L 917.9 303.84 L 919.2 302.23 L 920.5 294.81 L 921.8 256.09 L 923.1 252.24 L 924.4 252.00 L 925.7 252.05 L 927.1 252.17 L 928.4 252.36 L 929.7 252.61 L 931.0 252.92 L 932.3 253.29 L 933.6 253.70 L 934.9 254.16 L 936.2 254.69 L 937.5 255.34 L 938.8 256.28 L 940.1 258.27 L 941.5 276.59 L 942.8 299.44 L 944.1 305.75 L 945.4 307.46 L 946.7 307.92 L 948.0 308.03 L 949.3 308.03 L 950.6 308.00 L 951.9 307.93 L 953.2 307.85 L 954.5 307.73 L 955.9 307.59 L 957.2 307.41 L 958.5 307.20 L 959.8 306.95 L 961.1 306.67 L 962.4 306.34 L 963.7 305.96 L 965.0 305.50 L 966.3 304.92 L 967.7 304.09 L 969.0 302.76 L 970.3 298.72 L 971.6 259.92 L 972.9 252.51 L 974.2 252.01 L 975.5 252.03 L 976.8 252.13 L 978.1 252.31 L 979.4 252.54 L 980.7 252.84 L 982.0 253.19 L 983.3 253.58 L 984.7 254.04 L 986.0 254.55 L 987.3 255.17 L 988.6 256.00 L 989.9 257.55 L 991.2 266.46 L 992.6 296.17 L 993.9 304.87 L 995.2 307.22 L 996.5 307.85 L 997.8 308.01 L 999.1 308.04 L 1000.4 308.01 L 1001.7 307.95 L 1003.0 307.87 L 1004.3 307.76 L 1005.6 307.62 L 1006.9 307.46 L 1008.2 307.26 L 1009.6 307.02 L 1010.9 306.74 L 1012.2 306.43 L 1013.5 306.06 L 1014.8 305.62 L 1016.1 305.07 L 1017.4 304.35 L 1018.7 303.17 L 1020.1 300.45 L 1021.4 267.28 L 1022.7 253.02 L 1024.0 252.04 L 1025.3 252.01 L 1026.6 252.10 L 1027.9 252.26 L 1029.2 252.48 L 1030.5 252.76 L 1031.8 253.10 L 1033.1 253.48 L 1034.4 253.92 L 1035.8 254.42 L 1037.1 255.00 L 1038.4 255.76 L 1039.7 257.03 L 1041.0 261.63 L 1042.3 290.99 L 1043.6 303.64 L 1044.9 306.89 L 1046.2 307.77 L 1047.5 307.99 L 1048.9 308.04 L 1050.2 308.02 L 1051.5 307.97 L 1052.8 307.89 L 1054.1 307.79 L 1055.4 307.66 L 1056.7 307.50 L 1058.0 307.31 L 1059.3 307.09 L 1060.7 306.81 L 1062.0 306.51 L 1063.3 306.15 L 1064.6 305.73 L 1065.9 305.22 L 1067.2 304.55 L 1068.5 303.56 L 1069.8 301.48 L 1071.1 280.98 L 1072.4 254.00 L 1073.7 252.10 L 1075.0 252.00 L 1076.4 252.07 L 1077.7 252.21 L 1079.0 252.42 L 1080.3 252.69 L 1081.6 253.01 L 1082.9 253.38 L 1084.2 253.80 L 1085.5 254.28 L 1086.9 254.85 L 1088.2 255.55 L 1089.5 256.63 L 1090.8 259.50 L 1092.1 284.57 L 1093.4 301.70 L 1094.7 306.37 L 1096.0 307.64 L 1097.3 307.96 L 1098.6 308.03 L 1099.9 308.03 L 1101.2 307.98 L 1102.5 307.92 L 1103.9 307.82 L 1105.2 307.69 L 1106.5 307.54 L 1107.8 307.36 L 1109.1 307.14 L 1110.4 306.89 L 1111.7 306.60 L 1113.1 306.25 L 1114.4 305.84 L 1115.7 305.36 L 1117.0 304.74 L 1118.3 303.85 L 1119.6 302.27 L 1120.9 294.34 L 1122.2 255.91 L 1123.5 252.23 L 1124.8 252.00 L 1126.1 252.05 L 1127.4 252.17 L 1128.7 252.35 L 1130.1 252.61 L 1131.4 252.92 L 1132.7 253.29 L 1134.0 253.69 L 1135.3 254.16 L 1136.6 254.68 L 1137.9 255.36 L 1139.2 256.30 L 1140.6 258.34 L 1141.9 276.04 L 1143.2 299.28 L 1144.5 305.71 L 1145.8 307.45 L 1147.1 307.92 L 1148.4 308.03 L 1149.7 308.03 L 1151.0 308.00 L 1152.3 307.93 L 1153.6 307.85 L 1155.0 307.73 L 1156.3 307.58 L 1157.6 307.41 L 1158.9 307.20 L 1160.2 306.96 L 1161.5 306.68 L 1162.8 306.35 L 1164.1 305.95 L 1165.4 305.49 L 1166.7 304.90 L 1168.0 304.11 L 1169.4 302.78 L 1170.7 298.85 L 1172.0 259.57" fill="none" stroke="#a8431f" stroke-width="2.6" stroke-linejoin="round" stroke-linecap="round"/><text x="838" y="234" fill="#a8431f" font-size="15" font-weight="600" text-anchor="start" font-family="-apple-system, BlinkMacSystemFont, 'Segoe UI', 'Inter', Helvetica, Arial, sans-serif">Parkinson's</text><text x="1172" y="234" fill="#a8431f" font-size="14" font-weight="500" text-anchor="end" font-family="-apple-system, BlinkMacSystemFont, 'Segoe UI', 'Inter', Helvetica, Arial, sans-serif">τ 21.5 ms</text><text x="1005.0" y="372" fill="#94a3b8" font-size="12.5" font-weight="400" text-anchor="middle" font-family="-apple-system, BlinkMacSystemFont, 'Segoe UI', 'Inter', Helvetica, Arial, sans-serif">same 0.82 s window — the patient rhythm fits in fewer cycles</text></svg>