<svg viewBox="0 0 920 440" xmlns="http://www.w3.org/2000/svg" font-family="-apple-system, BlinkMacSystemFont, 'Segoe UI', 'Inter', Helvetica, Arial, sans-serif"><defs><marker id="up" markerWidth="9" markerHeight="9" refX="6" refY="4.5" orient="auto"><path d="M0,0 L0,9 L8,4.5 z" fill="#a8431f"/></marker><marker id="dn" markerWidth="9" markerHeight="9" refX="6" refY="4.5" orient="auto"><path d="M0,0 L0,9 L8,4.5 z" fill="#185FA5"/></marker><marker id="lf" markerWidth="9" markerHeight="9" refX="6" refY="4.5" orient="auto"><path d="M0,0 L0,9 L8,4.5 z" fill="#334155"/></marker></defs><rect width="920" height="440" rx="16" fill="#ffffff"/><text x="84" y="36" fill="#64748b" font-size="15" font-weight="500" text-anchor="start" font-family="-apple-system, BlinkMacSystemFont, 'Segoe UI', 'Inter', Helvetica, Arial, sans-serif">Posterior EEG power spectrum, group average  ±SEM</text><rect x="108.6" y="60" width="98.3" height="312" fill="#f0fdf4"/><text x="157.74193548387098" y="362" fill="#94a3b8" font-size="11.5" font-weight="600" text-anchor="middle" font-family="-apple-system, BlinkMacSystemFont, 'Segoe UI', 'Inter', Helvetica, Arial, sans-serif">THETA</text><rect x="206.9" y="60" width="122.9" height="312" fill="#fffbeb"/><text x="268.35483870967744" y="362" fill="#94a3b8" font-size="11.5" font-weight="600" text-anchor="middle" font-family="-apple-system, BlinkMacSystemFont, 'Segoe UI', 'Inter', Helvetica, Arial, sans-serif">ALPHA</text><rect x="329.8" y="60" width="417.9" height="312" fill="#f1f5f9"/><text x="538.741935483871" y="362" fill="#94a3b8" font-size="11.5" font-weight="600" text-anchor="middle" font-family="-apple-system, BlinkMacSystemFont, 'Segoe UI', 'Inter', Helvetica, Arial, sans-serif">BETA</text><line x1="84.0" y1="372.0" x2="846.0" y2="372.0" stroke="#cbd5e1" stroke-width="1.4"/><line x1="84.0" y1="60.0" x2="84.0" y2="372.0" stroke="#cbd5e1" stroke-width="1.4"/><line x1="133.2" y1="372.0" x2="133.2" y2="377.0" stroke="#cbd5e1" stroke-width="1.2"/><text x="133.16129032258064" y="394" fill="#64748b" font-size="13" font-weight="400" text-anchor="middle" font-family="-apple-system, BlinkMacSystemFont, 'Segoe UI', 'Inter', Helvetica, Arial, sans-serif">5</text><line x1="256.1" y1="372.0" x2="256.1" y2="377.0" stroke="#cbd5e1" stroke-width="1.2"/><text x="256.06451612903226" y="394" fill="#64748b" font-size="13" font-weight="400" text-anchor="middle" font-family="-apple-system, BlinkMacSystemFont, 'Segoe UI', 'Inter', Helvetica, Arial, sans-serif">10</text><line x1="379.0" y1="372.0" x2="379.0" y2="377.0" stroke="#cbd5e1" stroke-width="1.2"/><text x="378.96774193548384" y="394" fill="#64748b" font-size="13" font-weight="400" text-anchor="middle" font-family="-apple-system, BlinkMacSystemFont, 'Segoe UI', 'Inter', Helvetica, Arial, sans-serif">15</text><line x1="501.9" y1="372.0" x2="501.9" y2="377.0" stroke="#cbd5e1" stroke-width="1.2"/><text x="501.87096774193543" y="394" fill="#64748b" font-size="13" font-weight="400" text-anchor="middle" font-family="-apple-system, BlinkMacSystemFont, 'Segoe UI', 'Inter', Helvetica, Arial, sans-serif">20</text><line x1="624.8" y1="372.0" x2="624.8" y2="377.0" stroke="#cbd5e1" stroke-width="1.2"/><text x="624.7741935483871" y="394" fill="#64748b" font-size="13" font-weight="400" text-anchor="middle" font-family="-apple-system, BlinkMacSystemFont, 'Segoe UI', 'Inter', Helvetica, Arial, sans-serif">25</text><line x1="747.7" y1="372.0" x2="747.7" y2="377.0" stroke="#cbd5e1" stroke-width="1.2"/><text x="747.6774193548387" y="394" fill="#64748b" font-size="13" font-weight="400" text-anchor="middle" font-family="-apple-system, BlinkMacSystemFont, 'Segoe UI', 'Inter', Helvetica, Arial, sans-serif">30</text><line x1="79.0" y1="372.0" x2="84.0" y2="372.0" stroke="#cbd5e1" stroke-width="1.2"/><text x="74" y="376.0" fill="#94a3b8" font-size="12" font-weight="400" text-anchor="end" font-family="-apple-system, BlinkMacSystemFont, 'Segoe UI', 'Inter', Helvetica, Arial, sans-serif">0.00</text><line x1="79.0" y1="230.2" x2="84.0" y2="230.2" stroke="#cbd5e1" stroke-width="1.2"/><text x="74" y="234.18181818181816" fill="#94a3b8" font-size="12" font-weight="400" text-anchor="end" font-family="-apple-system, BlinkMacSystemFont, 'Segoe UI', 'Inter', Helvetica, Arial, sans-serif">0.05</text><line x1="79.0" y1="88.4" x2="84.0" y2="88.4" stroke="#cbd5e1" stroke-width="1.2"/><text x="74" y="92.36363636363632" fill="#94a3b8" font-size="12" font-weight="400" text-anchor="end" font-family="-apple-system, BlinkMacSystemFont, 'Segoe UI', 'Inter', Helvetica, Arial, sans-serif">0.10</text><text x="465.0" y="416" fill="#334155" font-size="15" font-weight="500" text-anchor="middle" font-family="-apple-system, BlinkMacSystemFont, 'Segoe UI', 'Inter', Helvetica, Arial, sans-serif">Frequency (Hz)</text><text x="26" y="216.0" fill="#334155" font-size="15" font-weight="500" text-anchor="middle" font-family="-apple-system, BlinkMacSystemFont, 'Segoe UI', 'Inter', Helvetica, Arial, sans-serif" transform="rotate(-90 26 216)">Relative power</text><path d="M 84.0 163.3 L 90.1 182.0 L 96.3 192.5 L 102.4 210.3 L 108.6 228.1 L 114.7 244.8 L 120.9 255.2 L 127.0 257.2 L 133.2 256.7 L 139.3 262.8 L 145.5 271.8 L 151.6 271.5 L 157.7 271.0 L 163.9 272.1 L 170.0 269.1 L 176.2 259.3 L 182.3 248.5 L 188.5 219.8 L 194.6 185.3 L 200.8 155.9 L 206.9 124.1 L 213.0 92.4 L 219.2 94.2 L 225.3 79.4 L 231.5 95.7 L 237.6 105.6 L 243.8 97.1 L 249.9 107.8 L 256.1 123.7 L 262.2 142.3 L 268.4 171.5 L 274.5 204.1 L 280.6 231.1 L 286.8 247.1 L 292.9 256.9 L 299.1 264.3 L 305.2 271.6 L 311.4 276.4 L 317.5 282.5 L 323.7 283.9 L 329.8 287.3 L 336.0 288.3 L 342.1 289.4 L 348.2 291.7 L 354.4 292.4 L 360.5 290.2 L 366.7 291.2 L 372.8 292.9 L 379.0 293.9 L 385.1 296.3 L 391.3 296.4 L 397.4 296.1 L 403.5 297.0 L 409.7 298.4 L 415.8 299.5 L 422.0 300.1 L 428.1 301.6 L 434.3 303.9 L 440.4 303.9 L 446.6 304.3 L 452.7 304.3 L 458.9 305.4 L 465.0 306.2 L 471.1 306.5 L 477.3 307.8 L 483.4 310.6 L 489.6 312.0 L 495.7 312.0 L 501.9 311.9 L 508.0 314.0 L 514.2 315.1 L 520.3 315.6 L 526.5 317.8 L 532.6 319.0 L 538.7 319.2 L 544.9 319.9 L 551.0 321.8 L 557.2 323.3 L 563.3 322.9 L 569.5 323.5 L 575.6 322.8 L 581.8 322.4 L 587.9 323.9 L 594.0 324.1 L 600.2 324.6 L 606.3 326.1 L 612.5 326.0 L 618.6 327.9 L 624.8 329.3 L 630.9 330.4 L 637.1 330.8 L 643.2 330.7 L 649.4 330.9 L 655.5 332.1 L 661.6 332.0 L 667.8 332.3 L 673.9 334.0 L 680.1 333.8 L 686.2 333.1 L 692.4 332.9 L 698.5 332.5 L 704.7 333.3 L 710.8 334.7 L 717.0 335.5 L 723.1 335.9 L 729.2 335.9 L 735.4 334.7 L 741.5 335.4 L 747.7 335.7 L 753.8 336.5 L 760.0 335.9 L 766.1 336.0 L 772.3 337.1 L 778.4 336.8 L 784.5 337.2 L 790.7 337.1 L 796.8 337.9 L 803.0 337.8 L 809.1 337.2 L 815.3 336.7 L 821.4 338.2 L 827.6 338.1 L 833.7 338.3 L 839.9 338.8 L 846.0 338.7 L 846.0 345.3 L 839.9 345.4 L 833.7 345.3 L 827.6 345.0 L 821.4 344.6 L 815.3 343.5 L 809.1 344.3 L 803.0 344.9 L 796.8 344.5 L 790.7 343.9 L 784.5 344.1 L 778.4 343.9 L 772.3 344.0 L 766.1 343.2 L 760.0 343.0 L 753.8 343.0 L 747.7 342.5 L 741.5 342.6 L 735.4 342.0 L 729.2 342.8 L 723.1 342.6 L 717.0 342.3 L 710.8 341.5 L 704.7 340.7 L 698.5 339.8 L 692.4 339.8 L 686.2 339.6 L 680.1 339.9 L 673.9 340.3 L 667.8 338.9 L 661.6 338.4 L 655.5 338.0 L 649.4 336.9 L 643.2 336.6 L 637.1 336.7 L 630.9 335.9 L 624.8 334.9 L 618.6 333.7 L 612.5 332.2 L 606.3 332.1 L 600.2 330.9 L 594.0 330.4 L 587.9 330.1 L 581.8 328.8 L 575.6 329.3 L 569.5 329.6 L 563.3 329.0 L 557.2 329.3 L 551.0 328.0 L 544.9 326.6 L 538.7 325.6 L 532.6 325.3 L 526.5 324.4 L 520.3 322.6 L 514.2 321.5 L 508.0 320.4 L 501.9 318.7 L 495.7 319.0 L 489.6 318.8 L 483.4 317.5 L 477.3 315.4 L 471.1 314.4 L 465.0 313.5 L 458.9 312.7 L 452.7 312.2 L 446.6 312.0 L 440.4 311.2 L 434.3 310.8 L 428.1 309.4 L 422.0 308.2 L 415.8 307.8 L 409.7 306.9 L 403.5 305.4 L 397.4 305.2 L 391.3 305.1 L 385.1 304.9 L 379.0 303.2 L 372.8 302.5 L 366.7 301.2 L 360.5 300.1 L 354.4 301.5 L 348.2 300.6 L 342.1 298.6 L 336.0 297.2 L 329.8 296.1 L 323.7 293.2 L 317.5 292.2 L 311.4 287.2 L 305.2 283.3 L 299.1 277.3 L 292.9 271.0 L 286.8 264.0 L 280.6 252.5 L 274.5 234.5 L 268.4 213.6 L 262.2 195.3 L 256.1 184.3 L 249.9 169.3 L 243.8 157.0 L 237.6 162.8 L 231.5 162.2 L 225.3 158.3 L 219.2 165.3 L 213.0 173.0 L 206.9 193.4 L 200.8 216.9 L 194.6 234.4 L 188.5 251.1 L 182.3 267.5 L 176.2 274.9 L 170.0 281.0 L 163.9 283.5 L 157.7 283.3 L 151.6 283.7 L 145.5 284.2 L 139.3 277.9 L 133.2 273.3 L 127.0 272.4 L 120.9 270.8 L 114.7 263.1 L 108.6 249.8 L 102.4 236.5 L 96.3 223.7 L 90.1 214.1 L 84.0 197.8 Z" fill="#185FA5" fill-opacity="0.16"/><path d="M 84.0 192.3 L 90.1 204.1 L 96.3 209.8 L 102.4 215.8 L 108.6 216.6 L 114.7 230.4 L 120.9 232.5 L 127.0 232.8 L 133.2 225.7 L 139.3 219.6 L 145.5 208.5 L 151.6 180.3 L 157.7 143.5 L 163.9 113.1 L 170.0 91.9 L 176.2 87.2 L 182.3 83.1 L 188.5 83.5 L 194.6 80.1 L 200.8 83.9 L 206.9 72.5 L 213.0 64.0 L 219.2 65.5 L 225.3 80.8 L 231.5 91.5 L 237.6 99.5 L 243.8 107.8 L 249.9 137.4 L 256.1 161.3 L 262.2 183.4 L 268.4 218.4 L 274.5 242.7 L 280.6 252.9 L 286.8 261.1 L 292.9 264.6 L 299.1 270.7 L 305.2 280.7 L 311.4 289.0 L 317.5 295.2 L 323.7 297.0 L 329.8 296.8 L 336.0 299.4 L 342.1 303.3 L 348.2 308.1 L 354.4 310.6 L 360.5 312.4 L 366.7 313.3 L 372.8 314.2 L 379.0 315.7 L 385.1 316.5 L 391.3 316.9 L 397.4 317.7 L 403.5 319.5 L 409.7 321.0 L 415.8 321.6 L 422.0 321.8 L 428.1 322.7 L 434.3 324.6 L 440.4 326.7 L 446.6 327.3 L 452.7 328.1 L 458.9 327.9 L 465.0 328.9 L 471.1 329.4 L 477.3 329.7 L 483.4 329.6 L 489.6 329.0 L 495.7 329.3 L 501.9 330.6 L 508.0 331.8 L 514.2 332.7 L 520.3 333.2 L 526.5 333.8 L 532.6 334.0 L 538.7 333.3 L 544.9 332.9 L 551.0 333.7 L 557.2 333.5 L 563.3 333.2 L 569.5 334.4 L 575.6 334.5 L 581.8 334.9 L 587.9 336.1 L 594.0 336.7 L 600.2 336.8 L 606.3 338.0 L 612.5 338.5 L 618.6 339.8 L 624.8 340.1 L 630.9 340.5 L 637.1 340.8 L 643.2 339.9 L 649.4 340.2 L 655.5 340.9 L 661.6 340.5 L 667.8 341.0 L 673.9 342.1 L 680.1 343.1 L 686.2 342.8 L 692.4 342.7 L 698.5 343.7 L 704.7 343.8 L 710.8 344.1 L 717.0 344.4 L 723.1 344.7 L 729.2 344.5 L 735.4 344.9 L 741.5 344.8 L 747.7 344.7 L 753.8 345.5 L 760.0 346.2 L 766.1 345.5 L 772.3 345.1 L 778.4 344.9 L 784.5 345.0 L 790.7 345.1 L 796.8 345.2 L 803.0 345.5 L 809.1 345.7 L 815.3 346.2 L 821.4 346.8 L 827.6 346.5 L 833.7 346.1 L 839.9 346.4 L 846.0 345.8 L 846.0 350.3 L 839.9 350.2 L 833.7 349.9 L 827.6 350.3 L 821.4 350.6 L 815.3 349.9 L 809.1 349.5 L 803.0 349.4 L 796.8 349.2 L 790.7 349.3 L 784.5 349.1 L 778.4 348.9 L 772.3 349.0 L 766.1 349.3 L 760.0 349.7 L 753.8 349.4 L 747.7 348.8 L 741.5 348.6 L 735.4 348.6 L 729.2 348.5 L 723.1 348.5 L 717.0 348.1 L 710.8 347.9 L 704.7 347.7 L 698.5 347.4 L 692.4 346.7 L 686.2 346.8 L 680.1 346.8 L 673.9 346.2 L 667.8 345.6 L 661.6 345.0 L 655.5 345.3 L 649.4 344.8 L 643.2 344.4 L 637.1 344.8 L 630.9 344.6 L 624.8 344.3 L 618.6 343.9 L 612.5 342.8 L 606.3 342.4 L 600.2 341.4 L 594.0 341.0 L 587.9 340.7 L 581.8 340.1 L 575.6 339.4 L 569.5 339.2 L 563.3 338.5 L 557.2 338.3 L 551.0 338.2 L 544.9 337.5 L 538.7 337.7 L 532.6 338.1 L 526.5 337.7 L 520.3 337.1 L 514.2 336.8 L 508.0 336.3 L 501.9 335.2 L 495.7 334.1 L 489.6 333.7 L 483.4 334.1 L 477.3 333.9 L 471.1 333.7 L 465.0 333.1 L 458.9 332.2 L 452.7 332.4 L 446.6 331.7 L 440.4 331.0 L 434.3 329.2 L 428.1 327.8 L 422.0 327.1 L 415.8 326.8 L 409.7 326.1 L 403.5 324.7 L 397.4 323.3 L 391.3 322.6 L 385.1 322.0 L 379.0 321.3 L 372.8 319.9 L 366.7 319.0 L 360.5 318.3 L 354.4 316.4 L 348.2 314.6 L 342.1 311.7 L 336.0 309.1 L 329.8 306.7 L 323.7 305.1 L 317.5 303.2 L 311.4 298.1 L 305.2 291.6 L 299.1 284.3 L 292.9 280.1 L 286.8 275.3 L 280.6 267.0 L 274.5 257.6 L 268.4 242.0 L 262.2 219.1 L 256.1 196.0 L 249.9 179.5 L 243.8 157.8 L 237.6 148.5 L 231.5 138.3 L 225.3 126.5 L 219.2 114.8 L 213.0 112.2 L 206.9 115.7 L 200.8 123.1 L 194.6 125.6 L 188.5 129.0 L 182.3 128.5 L 176.2 133.0 L 170.0 139.1 L 163.9 159.1 L 157.7 184.5 L 151.6 210.5 L 145.5 230.2 L 139.3 238.6 L 133.2 243.5 L 127.0 247.2 L 120.9 246.2 L 114.7 244.4 L 108.6 233.4 L 102.4 231.7 L 96.3 226.7 L 90.1 222.4 L 84.0 213.5 Z" fill="#a8431f" fill-opacity="0.16"/><path d="M 84.0 180.5 L 90.1 198.1 L 96.3 208.1 L 102.4 223.4 L 108.6 239.0 L 114.7 254.0 L 120.9 263.0 L 127.0 264.8 L 133.2 265.0 L 139.3 270.4 L 145.5 278.0 L 151.6 277.6 L 157.7 277.1 L 163.9 277.8 L 170.0 275.1 L 176.2 267.1 L 182.3 258.0 L 188.5 235.5 L 194.6 209.9 L 200.8 186.4 L 206.9 158.8 L 213.0 132.7 L 219.2 129.7 L 225.3 118.8 L 231.5 129.0 L 237.6 134.2 L 243.8 127.0 L 249.9 138.5 L 256.1 154.0 L 262.2 168.8 L 268.4 192.5 L 274.5 219.3 L 280.6 241.8 L 286.8 255.5 L 292.9 263.9 L 299.1 270.8 L 305.2 277.5 L 311.4 281.8 L 317.5 287.4 L 323.7 288.6 L 329.8 291.7 L 336.0 292.8 L 342.1 294.0 L 348.2 296.2 L 354.4 296.9 L 360.5 295.2 L 366.7 296.2 L 372.8 297.7 L 379.0 298.6 L 385.1 300.6 L 391.3 300.7 L 397.4 300.7 L 403.5 301.2 L 409.7 302.6 L 415.8 303.7 L 422.0 304.1 L 428.1 305.5 L 434.3 307.4 L 440.4 307.6 L 446.6 308.1 L 452.7 308.3 L 458.9 309.1 L 465.0 309.9 L 471.1 310.5 L 477.3 311.6 L 483.4 314.1 L 489.6 315.4 L 495.7 315.5 L 501.9 315.3 L 508.0 317.2 L 514.2 318.3 L 520.3 319.1 L 526.5 321.1 L 532.6 322.2 L 538.7 322.4 L 544.9 323.3 L 551.0 324.9 L 557.2 326.3 L 563.3 325.9 L 569.5 326.6 L 575.6 326.0 L 581.8 325.6 L 587.9 327.0 L 594.0 327.2 L 600.2 327.7 L 606.3 329.1 L 612.5 329.1 L 618.6 330.8 L 624.8 332.1 L 630.9 333.1 L 637.1 333.8 L 643.2 333.6 L 649.4 333.9 L 655.5 335.1 L 661.6 335.2 L 667.8 335.6 L 673.9 337.2 L 680.1 336.9 L 686.2 336.4 L 692.4 336.4 L 698.5 336.1 L 704.7 337.0 L 710.8 338.1 L 717.0 338.9 L 723.1 339.3 L 729.2 339.4 L 735.4 338.4 L 741.5 339.0 L 747.7 339.1 L 753.8 339.8 L 760.0 339.5 L 766.1 339.6 L 772.3 340.6 L 778.4 340.3 L 784.5 340.6 L 790.7 340.5 L 796.8 341.2 L 803.0 341.3 L 809.1 340.8 L 815.3 340.1 L 821.4 341.4 L 827.6 341.5 L 833.7 341.8 L 839.9 342.1 L 846.0 342.0" fill="none" stroke="#185FA5" stroke-width="2.8" stroke-linejoin="round"/><path d="M 84.0 202.9 L 90.1 213.3 L 96.3 218.2 L 102.4 223.7 L 108.6 225.0 L 114.7 237.4 L 120.9 239.3 L 127.0 240.0 L 133.2 234.6 L 139.3 229.1 L 145.5 219.4 L 151.6 195.4 L 157.7 164.0 L 163.9 136.1 L 170.0 115.5 L 176.2 110.1 L 182.3 105.8 L 188.5 106.2 L 194.6 102.8 L 200.8 103.5 L 206.9 94.1 L 213.0 88.1 L 219.2 90.2 L 225.3 103.6 L 231.5 114.9 L 237.6 124.0 L 243.8 132.8 L 249.9 158.4 L 256.1 178.6 L 262.2 201.3 L 268.4 230.2 L 274.5 250.2 L 280.6 260.0 L 286.8 268.2 L 292.9 272.4 L 299.1 277.5 L 305.2 286.1 L 311.4 293.6 L 317.5 299.2 L 323.7 301.0 L 329.8 301.7 L 336.0 304.2 L 342.1 307.5 L 348.2 311.4 L 354.4 313.5 L 360.5 315.3 L 366.7 316.1 L 372.8 317.1 L 379.0 318.5 L 385.1 319.3 L 391.3 319.7 L 397.4 320.5 L 403.5 322.1 L 409.7 323.6 L 415.8 324.2 L 422.0 324.4 L 428.1 325.2 L 434.3 326.9 L 440.4 328.8 L 446.6 329.5 L 452.7 330.2 L 458.9 330.1 L 465.0 331.0 L 471.1 331.5 L 477.3 331.8 L 483.4 331.9 L 489.6 331.4 L 495.7 331.7 L 501.9 332.9 L 508.0 334.0 L 514.2 334.7 L 520.3 335.1 L 526.5 335.7 L 532.6 336.1 L 538.7 335.5 L 544.9 335.2 L 551.0 336.0 L 557.2 335.9 L 563.3 335.8 L 569.5 336.8 L 575.6 337.0 L 581.8 337.5 L 587.9 338.4 L 594.0 338.9 L 600.2 339.1 L 606.3 340.2 L 612.5 340.7 L 618.6 341.8 L 624.8 342.2 L 630.9 342.6 L 637.1 342.8 L 643.2 342.1 L 649.4 342.5 L 655.5 343.1 L 661.6 342.7 L 667.8 343.3 L 673.9 344.1 L 680.1 344.9 L 686.2 344.8 L 692.4 344.7 L 698.5 345.5 L 704.7 345.7 L 710.8 346.0 L 717.0 346.2 L 723.1 346.6 L 729.2 346.5 L 735.4 346.7 L 741.5 346.7 L 747.7 346.7 L 753.8 347.5 L 760.0 347.9 L 766.1 347.4 L 772.3 347.0 L 778.4 346.9 L 784.5 347.0 L 790.7 347.2 L 796.8 347.2 L 803.0 347.4 L 809.1 347.6 L 815.3 348.0 L 821.4 348.7 L 827.6 348.4 L 833.7 348.0 L 839.9 348.3 L 846.0 348.0" fill="none" stroke="#a8431f" stroke-width="2.8" stroke-linejoin="round"/><line x1="152.8" y1="275.6" x2="152.8" y2="203.4" stroke="#a8431f" stroke-width="2.2" marker-end="url(#up)"/><text x="147.90967741935484" y="79.85454545454547" fill="#a8431f" font-size="14.5" font-weight="600" text-anchor="middle" font-family="-apple-system, BlinkMacSystemFont, 'Segoe UI', 'Inter', Helvetica, Arial, sans-serif">theta power</text><text x="147.90967741935484" y="96.87272727272727" fill="#a8431f" font-size="14.5" font-weight="600" text-anchor="middle" font-family="-apple-system, BlinkMacSystemFont, 'Segoe UI', 'Inter', Helvetica, Arial, sans-serif">higher in PD</text><text x="288.01935483870966" y="68.5090909090909" fill="#334155" font-size="14.5" font-weight="600" text-anchor="middle" font-family="-apple-system, BlinkMacSystemFont, 'Segoe UI', 'Inter', Helvetica, Arial, sans-serif">alpha peak slows</text><line x1="270.8" y1="91.2" x2="224.1" y2="91.2" stroke="#334155" stroke-width="2.2" marker-end="url(#lf)"/><line x1="514.2" y1="312.3" x2="514.2" y2="333.7" stroke="#185FA5" stroke-width="2.2" marker-end="url(#dn)"/><text x="563.3225806451612" y="184.8" fill="#185FA5" font-size="14.5" font-weight="600" text-anchor="middle" font-family="-apple-system, BlinkMacSystemFont, 'Segoe UI', 'Inter', Helvetica, Arial, sans-serif">beta power</text><text x="563.3225806451612" y="201.81818181818184" fill="#185FA5" font-size="14.5" font-weight="600" text-anchor="middle" font-family="-apple-system, BlinkMacSystemFont, 'Segoe UI', 'Inter', Helvetica, Arial, sans-serif">lower in PD</text><rect x="666" y="60" width="178" height="50" rx="9" fill="#ffffff" fill-opacity="0.86" stroke="#e2e8f0"/><line x1="678.0" y1="76.0" x2="704.0" y2="76.0" stroke="#185FA5" stroke-width="3"/><text x="712" y="81" fill="#334155" font-size="13.5" font-weight="500" text-anchor="start" font-family="-apple-system, BlinkMacSystemFont, 'Segoe UI', 'Inter', Helvetica, Arial, sans-serif">Control  (n = 49)</text><line x1="678.0" y1="98.0" x2="704.0" y2="98.0" stroke="#a8431f" stroke-width="3"/><text x="712" y="103" fill="#334155" font-size="13.5" font-weight="500" text-anchor="start" font-family="-apple-system, BlinkMacSystemFont, 'Segoe UI', 'Inter', Helvetica, Arial, sans-serif">PD  (n = 100)</text></svg>