<svg viewBox="0 0 920 430" xmlns="http://www.w3.org/2000/svg" font-family="-apple-system, BlinkMacSystemFont, 'Segoe UI', 'Inter', Helvetica, Arial, sans-serif"><defs><marker id="up" markerWidth="9" markerHeight="9" refX="6" refY="4.5" orient="auto"><path d="M0,0 L0,9 L8,4.5 z" fill="#a8431f"/></marker><marker id="dn" markerWidth="9" markerHeight="9" refX="6" refY="4.5" orient="auto"><path d="M0,0 L0,9 L8,4.5 z" fill="#185FA5"/></marker><marker id="lf" markerWidth="9" markerHeight="9" refX="6" refY="4.5" orient="auto"><path d="M0,0 L0,9 L8,4.5 z" fill="#334155"/></marker></defs><rect width="920" height="430" rx="16" fill="#ffffff"/><rect x="108.6" y="60" width="98.3" height="312" fill="#f0fdf4"/><text x="157.74193548387098" y="362" fill="#94a3b8" font-size="11.5" font-weight="600" text-anchor="middle" font-family="-apple-system, BlinkMacSystemFont, 'Segoe UI', 'Inter', Helvetica, Arial, sans-serif">THETA</text><rect x="206.9" y="60" width="122.9" height="312" fill="#fffbeb"/><text x="268.35483870967744" y="362" fill="#94a3b8" font-size="11.5" font-weight="600" text-anchor="middle" font-family="-apple-system, BlinkMacSystemFont, 'Segoe UI', 'Inter', Helvetica, Arial, sans-serif">ALPHA</text><rect x="329.8" y="60" width="417.9" height="312" fill="#f1f5f9"/><text x="538.741935483871" y="362" fill="#94a3b8" font-size="11.5" font-weight="600" text-anchor="middle" font-family="-apple-system, BlinkMacSystemFont, 'Segoe UI', 'Inter', Helvetica, Arial, sans-serif">BETA</text><line x1="84.0" y1="372.0" x2="846.0" y2="372.0" stroke="#cbd5e1" stroke-width="1.4"/><line x1="84.0" y1="60.0" x2="84.0" y2="372.0" stroke="#cbd5e1" stroke-width="1.4"/><line x1="133.2" y1="372.0" x2="133.2" y2="377.0" stroke="#cbd5e1" stroke-width="1.2"/><text x="133.16129032258064" y="394" fill="#64748b" font-size="13" font-weight="400" text-anchor="middle" font-family="-apple-system, BlinkMacSystemFont, 'Segoe UI', 'Inter', Helvetica, Arial, sans-serif">5</text><line x1="256.1" y1="372.0" x2="256.1" y2="377.0" stroke="#cbd5e1" stroke-width="1.2"/><text x="256.06451612903226" y="394" fill="#64748b" font-size="13" font-weight="400" text-anchor="middle" font-family="-apple-system, BlinkMacSystemFont, 'Segoe UI', 'Inter', Helvetica, Arial, sans-serif">10</text><line x1="379.0" y1="372.0" x2="379.0" y2="377.0" stroke="#cbd5e1" stroke-width="1.2"/><text x="378.96774193548384" y="394" fill="#64748b" font-size="13" font-weight="400" text-anchor="middle" font-family="-apple-system, BlinkMacSystemFont, 'Segoe UI', 'Inter', Helvetica, Arial, sans-serif">15</text><line x1="501.9" y1="372.0" x2="501.9" y2="377.0" stroke="#cbd5e1" stroke-width="1.2"/><text x="501.87096774193543" y="394" fill="#64748b" font-size="13" font-weight="400" text-anchor="middle" font-family="-apple-system, BlinkMacSystemFont, 'Segoe UI', 'Inter', Helvetica, Arial, sans-serif">20</text><line x1="624.8" y1="372.0" x2="624.8" y2="377.0" stroke="#cbd5e1" stroke-width="1.2"/><text x="624.7741935483871" y="394" fill="#64748b" font-size="13" font-weight="400" text-anchor="middle" font-family="-apple-system, BlinkMacSystemFont, 'Segoe UI', 'Inter', Helvetica, Arial, sans-serif">25</text><line x1="747.7" y1="372.0" x2="747.7" y2="377.0" stroke="#cbd5e1" stroke-width="1.2"/><text x="747.6774193548387" y="394" fill="#64748b" font-size="13" font-weight="400" text-anchor="middle" font-family="-apple-system, BlinkMacSystemFont, 'Segoe UI', 'Inter', Helvetica, Arial, sans-serif">30</text><line x1="79.0" y1="372.0" x2="84.0" y2="372.0" stroke="#cbd5e1" stroke-width="1.2"/><text x="74" y="376.0" fill="#94a3b8" font-size="12" font-weight="400" text-anchor="end" font-family="-apple-system, BlinkMacSystemFont, 'Segoe UI', 'Inter', Helvetica, Arial, sans-serif">0.00</text><line x1="79.0" y1="236.3" x2="84.0" y2="236.3" stroke="#cbd5e1" stroke-width="1.2"/><text x="74" y="240.34782608695653" fill="#94a3b8" font-size="12" font-weight="400" text-anchor="end" font-family="-apple-system, BlinkMacSystemFont, 'Segoe UI', 'Inter', Helvetica, Arial, sans-serif">0.05</text><line x1="79.0" y1="100.7" x2="84.0" y2="100.7" stroke="#cbd5e1" stroke-width="1.2"/><text x="74" y="104.69565217391306" fill="#94a3b8" font-size="12" font-weight="400" text-anchor="end" font-family="-apple-system, BlinkMacSystemFont, 'Segoe UI', 'Inter', Helvetica, Arial, sans-serif">0.10</text><text x="465.0" y="416" fill="#334155" font-size="15" font-weight="500" text-anchor="middle" font-family="-apple-system, BlinkMacSystemFont, 'Segoe UI', 'Inter', Helvetica, Arial, sans-serif">Frequency (Hz)</text><text x="26" y="216.0" fill="#334155" font-size="15" font-weight="500" text-anchor="middle" font-family="-apple-system, BlinkMacSystemFont, 'Segoe UI', 'Inter', Helvetica, Arial, sans-serif" transform="rotate(-90 26 216)">Relative power</text><path d="M 84.0 172.4 L 90.1 190.3 L 96.3 200.3 L 102.4 217.3 L 108.6 234.4 L 114.7 250.4 L 120.9 260.3 L 127.0 262.2 L 133.2 261.7 L 139.3 267.6 L 145.5 276.1 L 151.6 275.8 L 157.7 275.4 L 163.9 276.4 L 170.0 273.6 L 176.2 264.2 L 182.3 253.8 L 188.5 226.4 L 194.6 193.4 L 200.8 165.3 L 206.9 134.9 L 213.0 104.6 L 219.2 106.2 L 225.3 92.1 L 231.5 107.7 L 237.6 117.2 L 243.8 109.0 L 249.9 119.3 L 256.1 134.5 L 262.2 152.3 L 268.4 180.3 L 274.5 211.4 L 280.6 237.2 L 286.8 252.5 L 292.9 261.9 L 299.1 269.0 L 305.2 276.0 L 311.4 280.6 L 317.5 286.4 L 323.7 287.7 L 329.8 290.9 L 336.0 291.9 L 342.1 293.0 L 348.2 295.2 L 354.4 295.8 L 360.5 293.8 L 366.7 294.7 L 372.8 296.4 L 379.0 297.3 L 385.1 299.6 L 391.3 299.7 L 397.4 299.4 L 403.5 300.3 L 409.7 301.6 L 415.8 302.7 L 422.0 303.2 L 428.1 304.7 L 434.3 306.9 L 440.4 306.9 L 446.6 307.2 L 452.7 307.3 L 458.9 308.3 L 465.0 309.1 L 471.1 309.3 L 477.3 310.6 L 483.4 313.3 L 489.6 314.6 L 495.7 314.6 L 501.9 314.5 L 508.0 316.5 L 514.2 317.6 L 520.3 318.1 L 526.5 320.2 L 532.6 321.3 L 538.7 321.5 L 544.9 322.2 L 551.0 323.9 L 557.2 325.5 L 563.3 325.0 L 569.5 325.6 L 575.6 325.0 L 581.8 324.5 L 587.9 326.0 L 594.0 326.1 L 600.2 326.7 L 606.3 328.1 L 612.5 328.0 L 618.6 329.8 L 624.8 331.1 L 630.9 332.2 L 637.1 332.6 L 643.2 332.5 L 649.4 332.7 L 655.5 333.8 L 661.6 333.7 L 667.8 334.1 L 673.9 335.6 L 680.1 335.4 L 686.2 334.8 L 692.4 334.6 L 698.5 334.2 L 704.7 334.9 L 710.8 336.3 L 717.0 337.1 L 723.1 337.5 L 729.2 337.5 L 735.4 336.3 L 741.5 337.0 L 747.7 337.3 L 753.8 338.0 L 760.0 337.5 L 766.1 337.6 L 772.3 338.6 L 778.4 338.3 L 784.5 338.7 L 790.7 338.6 L 796.8 339.3 L 803.0 339.3 L 809.1 338.7 L 815.3 338.3 L 821.4 339.7 L 827.6 339.6 L 833.7 339.8 L 839.9 340.2 L 846.0 340.1 L 846.0 346.4 L 839.9 346.6 L 833.7 346.4 L 827.6 346.1 L 821.4 345.8 L 815.3 344.8 L 809.1 345.5 L 803.0 346.0 L 796.8 345.7 L 790.7 345.1 L 784.5 345.3 L 778.4 345.1 L 772.3 345.3 L 766.1 344.4 L 760.0 344.3 L 753.8 344.3 L 747.7 343.8 L 741.5 343.9 L 735.4 343.3 L 729.2 344.1 L 723.1 343.9 L 717.0 343.6 L 710.8 342.9 L 704.7 342.1 L 698.5 341.2 L 692.4 341.2 L 686.2 341.1 L 680.1 341.3 L 673.9 341.7 L 667.8 340.4 L 661.6 339.9 L 655.5 339.5 L 649.4 338.4 L 643.2 338.1 L 637.1 338.2 L 630.9 337.5 L 624.8 336.5 L 618.6 335.4 L 612.5 334.0 L 606.3 333.8 L 600.2 332.7 L 594.0 332.2 L 587.9 331.9 L 581.8 330.7 L 575.6 331.1 L 569.5 331.5 L 563.3 330.9 L 557.2 331.2 L 551.0 329.9 L 544.9 328.6 L 538.7 327.6 L 532.6 327.3 L 526.5 326.5 L 520.3 324.7 L 514.2 323.7 L 508.0 322.7 L 501.9 321.0 L 495.7 321.3 L 489.6 321.1 L 483.4 319.9 L 477.3 317.8 L 471.1 316.9 L 465.0 316.1 L 458.9 315.3 L 452.7 314.8 L 446.6 314.6 L 440.4 313.8 L 434.3 313.5 L 428.1 312.1 L 422.0 311.0 L 415.8 310.6 L 409.7 309.7 L 403.5 308.3 L 397.4 308.1 L 391.3 308.0 L 385.1 307.8 L 379.0 306.2 L 372.8 305.5 L 366.7 304.2 L 360.5 303.2 L 354.4 304.6 L 348.2 303.7 L 342.1 301.8 L 336.0 300.5 L 329.8 299.4 L 323.7 296.7 L 317.5 295.7 L 311.4 290.9 L 305.2 287.2 L 299.1 281.4 L 292.9 275.4 L 286.8 268.7 L 280.6 257.7 L 274.5 240.5 L 268.4 220.4 L 262.2 203.0 L 256.1 192.5 L 249.9 178.1 L 243.8 166.3 L 237.6 171.9 L 231.5 171.3 L 225.3 167.6 L 219.2 174.3 L 213.0 181.7 L 206.9 201.2 L 200.8 223.6 L 194.6 240.4 L 188.5 256.4 L 182.3 272.1 L 176.2 279.1 L 170.0 285.0 L 163.9 287.3 L 157.7 287.2 L 151.6 287.5 L 145.5 288.1 L 139.3 282.0 L 133.2 277.6 L 127.0 276.8 L 120.9 275.2 L 114.7 267.8 L 108.6 255.1 L 102.4 242.4 L 96.3 230.2 L 90.1 221.0 L 84.0 205.3 Z" fill="#185FA5" fill-opacity="0.16"/><path d="M 84.0 200.1 L 90.1 211.4 L 96.3 216.9 L 102.4 222.6 L 108.6 223.3 L 114.7 236.5 L 120.9 238.5 L 127.0 238.8 L 133.2 232.1 L 139.3 226.2 L 145.5 215.6 L 151.6 188.6 L 157.7 153.5 L 163.9 124.3 L 170.0 104.1 L 176.2 99.6 L 182.3 95.7 L 188.5 96.0 L 194.6 92.8 L 200.8 96.4 L 206.9 85.5 L 213.0 77.4 L 219.2 78.9 L 225.3 93.4 L 231.5 103.7 L 237.6 111.3 L 243.8 119.3 L 249.9 147.6 L 256.1 170.4 L 262.2 191.6 L 268.4 225.1 L 274.5 248.3 L 280.6 258.1 L 286.8 265.9 L 292.9 269.2 L 299.1 275.1 L 305.2 284.6 L 311.4 292.6 L 317.5 298.5 L 323.7 300.2 L 329.8 300.1 L 336.0 302.5 L 342.1 306.3 L 348.2 310.9 L 354.4 313.3 L 360.5 315.0 L 366.7 315.8 L 372.8 316.8 L 379.0 318.2 L 385.1 318.9 L 391.3 319.3 L 397.4 320.1 L 403.5 321.8 L 409.7 323.2 L 415.8 323.8 L 422.0 323.9 L 428.1 324.8 L 434.3 326.7 L 440.4 328.7 L 446.6 329.2 L 452.7 330.0 L 458.9 329.8 L 465.0 330.7 L 471.1 331.2 L 477.3 331.5 L 483.4 331.5 L 489.6 330.9 L 495.7 331.2 L 501.9 332.4 L 508.0 333.6 L 514.2 334.4 L 520.3 334.9 L 526.5 335.4 L 532.6 335.7 L 538.7 334.9 L 544.9 334.6 L 551.0 335.4 L 557.2 335.2 L 563.3 334.8 L 569.5 336.0 L 575.6 336.1 L 581.8 336.6 L 587.9 337.7 L 594.0 338.3 L 600.2 338.3 L 606.3 339.5 L 612.5 340.0 L 618.6 341.2 L 624.8 341.5 L 630.9 341.9 L 637.1 342.1 L 643.2 341.3 L 649.4 341.6 L 655.5 342.2 L 661.6 341.8 L 667.8 342.4 L 673.9 343.4 L 680.1 344.3 L 686.2 344.1 L 692.4 344.0 L 698.5 344.9 L 704.7 345.1 L 710.8 345.3 L 717.0 345.6 L 723.1 345.8 L 729.2 345.7 L 735.4 346.0 L 741.5 346.0 L 747.7 345.9 L 753.8 346.7 L 760.0 347.3 L 766.1 346.7 L 772.3 346.2 L 778.4 346.1 L 784.5 346.1 L 790.7 346.2 L 796.8 346.3 L 803.0 346.6 L 809.1 346.8 L 815.3 347.3 L 821.4 347.9 L 827.6 347.6 L 833.7 347.2 L 839.9 347.5 L 846.0 346.9 L 846.0 351.2 L 839.9 351.2 L 833.7 350.9 L 827.6 351.2 L 821.4 351.5 L 815.3 350.9 L 809.1 350.5 L 803.0 350.4 L 796.8 350.2 L 790.7 350.3 L 784.5 350.0 L 778.4 350.0 L 772.3 350.0 L 766.1 350.3 L 760.0 350.7 L 753.8 350.4 L 747.7 349.8 L 741.5 349.6 L 735.4 349.6 L 729.2 349.5 L 723.1 349.5 L 717.0 349.1 L 710.8 348.9 L 704.7 348.7 L 698.5 348.5 L 692.4 347.8 L 686.2 347.9 L 680.1 347.9 L 673.9 347.3 L 667.8 346.7 L 661.6 346.2 L 655.5 346.4 L 649.4 346.0 L 643.2 345.6 L 637.1 346.0 L 630.9 345.8 L 624.8 345.5 L 618.6 345.1 L 612.5 344.1 L 606.3 343.7 L 600.2 342.8 L 594.0 342.4 L 587.9 342.1 L 581.8 341.5 L 575.6 340.9 L 569.5 340.6 L 563.3 340.0 L 557.2 339.8 L 551.0 339.7 L 544.9 339.0 L 538.7 339.1 L 532.6 339.6 L 526.5 339.2 L 520.3 338.6 L 514.2 338.3 L 508.0 337.8 L 501.9 336.8 L 495.7 335.7 L 489.6 335.4 L 483.4 335.7 L 477.3 335.6 L 471.1 335.3 L 465.0 334.8 L 458.9 334.0 L 452.7 334.1 L 446.6 333.5 L 440.4 332.8 L 434.3 331.1 L 428.1 329.7 L 422.0 329.0 L 415.8 328.7 L 409.7 328.1 L 403.5 326.8 L 397.4 325.4 L 391.3 324.7 L 385.1 324.2 L 379.0 323.5 L 372.8 322.1 L 366.7 321.3 L 360.5 320.6 L 354.4 318.9 L 348.2 317.1 L 342.1 314.4 L 336.0 311.8 L 329.8 309.5 L 323.7 308.0 L 317.5 306.2 L 311.4 301.3 L 305.2 295.1 L 299.1 288.1 L 292.9 284.1 L 286.8 279.5 L 280.6 271.6 L 274.5 262.6 L 268.4 247.7 L 262.2 225.8 L 256.1 203.7 L 249.9 187.9 L 243.8 167.1 L 237.6 158.2 L 231.5 148.5 L 225.3 137.1 L 219.2 126.0 L 213.0 123.5 L 206.9 126.9 L 200.8 133.9 L 194.6 136.3 L 188.5 139.5 L 182.3 139.1 L 176.2 143.4 L 170.0 149.2 L 163.9 168.3 L 157.7 192.7 L 151.6 217.5 L 145.5 236.4 L 139.3 244.4 L 133.2 249.0 L 127.0 252.6 L 120.9 251.7 L 114.7 250.0 L 108.6 239.4 L 102.4 237.8 L 96.3 233.0 L 90.1 228.9 L 84.0 220.4 Z" fill="#a8431f" fill-opacity="0.16"/><path d="M 84.0 188.9 L 90.1 205.6 L 96.3 215.3 L 102.4 229.8 L 108.6 244.8 L 114.7 259.1 L 120.9 267.8 L 127.0 269.5 L 133.2 269.7 L 139.3 274.8 L 145.5 282.1 L 151.6 281.7 L 157.7 281.3 L 163.9 281.9 L 170.0 279.3 L 176.2 271.6 L 182.3 263.0 L 188.5 241.4 L 194.6 216.9 L 200.8 194.5 L 206.9 168.0 L 213.0 143.1 L 219.2 140.3 L 225.3 129.8 L 231.5 139.5 L 237.6 144.5 L 243.8 137.7 L 249.9 148.7 L 256.1 163.5 L 262.2 177.6 L 268.4 200.3 L 274.5 225.9 L 280.6 247.4 L 286.8 260.6 L 292.9 268.6 L 299.1 275.2 L 305.2 281.6 L 311.4 285.8 L 317.5 291.0 L 323.7 292.2 L 329.8 295.1 L 336.0 296.2 L 342.1 297.4 L 348.2 299.5 L 354.4 300.2 L 360.5 298.5 L 366.7 299.5 L 372.8 301.0 L 379.0 301.7 L 385.1 303.7 L 391.3 303.8 L 397.4 303.8 L 403.5 304.3 L 409.7 305.6 L 415.8 306.7 L 422.0 307.1 L 428.1 308.4 L 434.3 310.2 L 440.4 310.4 L 446.6 310.9 L 452.7 311.0 L 458.9 311.8 L 465.0 312.6 L 471.1 313.1 L 477.3 314.2 L 483.4 316.6 L 489.6 317.8 L 495.7 317.9 L 501.9 317.8 L 508.0 319.6 L 514.2 320.7 L 520.3 321.4 L 526.5 323.3 L 532.6 324.3 L 538.7 324.5 L 544.9 325.4 L 551.0 326.9 L 557.2 328.3 L 563.3 327.9 L 569.5 328.5 L 575.6 328.0 L 581.8 327.6 L 587.9 329.0 L 594.0 329.2 L 600.2 329.7 L 606.3 330.9 L 612.5 331.0 L 618.6 332.6 L 624.8 333.8 L 630.9 334.8 L 637.1 335.4 L 643.2 335.3 L 649.4 335.6 L 655.5 336.7 L 661.6 336.8 L 667.8 337.2 L 673.9 338.7 L 680.1 338.4 L 686.2 337.9 L 692.4 337.9 L 698.5 337.7 L 704.7 338.5 L 710.8 339.6 L 717.0 340.3 L 723.1 340.7 L 729.2 340.8 L 735.4 339.8 L 741.5 340.5 L 747.7 340.5 L 753.8 341.2 L 760.0 340.9 L 766.1 341.0 L 772.3 342.0 L 778.4 341.7 L 784.5 342.0 L 790.7 341.9 L 796.8 342.5 L 803.0 342.7 L 809.1 342.1 L 815.3 341.5 L 821.4 342.7 L 827.6 342.9 L 833.7 343.1 L 839.9 343.4 L 846.0 343.3" fill="none" stroke="#185FA5" stroke-width="2.8" stroke-linejoin="round"/><path d="M 84.0 210.2 L 90.1 220.2 L 96.3 224.9 L 102.4 230.2 L 108.6 231.4 L 114.7 243.3 L 120.9 245.1 L 127.0 245.7 L 133.2 240.6 L 139.3 235.3 L 145.5 226.0 L 151.6 203.1 L 157.7 173.1 L 163.9 146.3 L 170.0 126.6 L 176.2 121.5 L 182.3 117.4 L 188.5 117.8 L 194.6 114.5 L 200.8 115.2 L 206.9 106.2 L 213.0 100.4 L 219.2 102.4 L 225.3 115.3 L 231.5 126.1 L 237.6 134.8 L 243.8 143.2 L 249.9 167.7 L 256.1 187.0 L 262.2 208.7 L 268.4 236.4 L 274.5 255.5 L 280.6 264.8 L 286.8 272.7 L 292.9 276.7 L 299.1 281.6 L 305.2 289.9 L 311.4 297.0 L 317.5 302.3 L 323.7 304.1 L 329.8 304.8 L 336.0 307.2 L 342.1 310.3 L 348.2 314.0 L 354.4 316.1 L 360.5 317.8 L 366.7 318.6 L 372.8 319.4 L 379.0 320.8 L 385.1 321.6 L 391.3 322.0 L 397.4 322.7 L 403.5 324.3 L 409.7 325.7 L 415.8 326.3 L 422.0 326.5 L 428.1 327.3 L 434.3 328.9 L 440.4 330.7 L 446.6 331.3 L 452.7 332.1 L 458.9 331.9 L 465.0 332.8 L 471.1 333.3 L 477.3 333.5 L 483.4 333.6 L 489.6 333.1 L 495.7 333.5 L 501.9 334.6 L 508.0 335.7 L 514.2 336.4 L 520.3 336.7 L 526.5 337.3 L 532.6 337.6 L 538.7 337.0 L 544.9 336.8 L 551.0 337.5 L 557.2 337.5 L 563.3 337.4 L 569.5 338.3 L 575.6 338.5 L 581.8 339.0 L 587.9 339.9 L 594.0 340.3 L 600.2 340.5 L 606.3 341.6 L 612.5 342.0 L 618.6 343.1 L 624.8 343.5 L 630.9 343.9 L 637.1 344.1 L 643.2 343.4 L 649.4 343.8 L 655.5 344.3 L 661.6 344.0 L 667.8 344.5 L 673.9 345.4 L 680.1 346.1 L 686.2 346.0 L 692.4 345.9 L 698.5 346.7 L 704.7 346.9 L 710.8 347.1 L 717.0 347.3 L 723.1 347.7 L 729.2 347.6 L 735.4 347.8 L 741.5 347.8 L 747.7 347.8 L 753.8 348.5 L 760.0 349.0 L 766.1 348.5 L 772.3 348.1 L 778.4 348.0 L 784.5 348.1 L 790.7 348.2 L 796.8 348.3 L 803.0 348.5 L 809.1 348.7 L 815.3 349.1 L 821.4 349.7 L 827.6 349.4 L 833.7 349.0 L 839.9 349.3 L 846.0 349.0" fill="none" stroke="#a8431f" stroke-width="2.8" stroke-linejoin="round"/><line x1="147.9" y1="192.9" x2="167.6" y2="141.4" stroke="#94a3b8" stroke-width="1.4"/><circle cx="147.9" cy="192.9" r="14" fill="#334155" stroke="#ffffff" stroke-width="2"/><text x="147.90967741935484" y="198.9391304347826" fill="#ffffff" font-size="17" font-weight="700" text-anchor="middle" font-family="-apple-system, BlinkMacSystemFont, 'Segoe UI', 'Inter', Helvetica, Arial, sans-serif">1</text><line x1="216.7" y1="73.6" x2="216.7" y2="98.0" stroke="#94a3b8" stroke-width="1.4"/><circle cx="216.7" cy="73.6" r="14" fill="#334155" stroke="#ffffff" stroke-width="2"/><text x="216.73548387096776" y="79.56521739130437" fill="#ffffff" font-size="17" font-weight="700" text-anchor="middle" font-family="-apple-system, BlinkMacSystemFont, 'Segoe UI', 'Inter', Helvetica, Arial, sans-serif">2</text><line x1="501.9" y1="236.3" x2="501.9" y2="317.7" stroke="#94a3b8" stroke-width="1.4"/><circle cx="501.9" cy="236.3" r="14" fill="#334155" stroke="#ffffff" stroke-width="2"/><text x="501.87096774193543" y="242.34782608695653" fill="#ffffff" font-size="17" font-weight="700" text-anchor="middle" font-family="-apple-system, BlinkMacSystemFont, 'Segoe UI', 'Inter', Helvetica, Arial, sans-serif">3</text><rect x="666" y="60" width="178" height="50" rx="9" fill="#ffffff" fill-opacity="0.86" stroke="#e2e8f0"/><line x1="678.0" y1="76.0" x2="704.0" y2="76.0" stroke="#185FA5" stroke-width="3"/><text x="712" y="81" fill="#334155" font-size="13.5" font-weight="500" text-anchor="start" font-family="-apple-system, BlinkMacSystemFont, 'Segoe UI', 'Inter', Helvetica, Arial, sans-serif">Control  (n = 49)</text><line x1="678.0" y1="98.0" x2="704.0" y2="98.0" stroke="#a8431f" stroke-width="3"/><text x="712" y="103" fill="#334155" font-size="13.5" font-weight="500" text-anchor="start" font-family="-apple-system, BlinkMacSystemFont, 'Segoe UI', 'Inter', Helvetica, Arial, sans-serif">PD  (n = 100)</text></svg>