<svg viewBox="0 0 1180 440" xmlns="http://www.w3.org/2000/svg" font-family="-apple-system, BlinkMacSystemFont, 'Segoe UI', 'Inter', Helvetica, Arial, sans-serif"><defs><marker id="sh" markerWidth="9" markerHeight="9" refX="6.5" refY="4.5" orient="auto"><path d="M0,0 L0,9 L8,4.5 z" fill="#64748b"/></marker></defs><rect width="1180" height="440" rx="16" fill="#ffffff"/><line x1="560.0" y1="36.0" x2="560.0" y2="410.0" stroke="#e2e8f0" stroke-width="1.4"/><text x="24" y="28" fill="#64748b" font-size="14.5" font-weight="600" text-anchor="start" font-family="-apple-system, BlinkMacSystemFont, 'Segoe UI', 'Inter', Helvetica, Arial, sans-serif">THE SEPARATION</text><text x="170" y="28" fill="#94a3b8" font-size="12.5" font-weight="400" text-anchor="start" font-family="-apple-system, BlinkMacSystemFont, 'Segoe UI', 'Inter', Helvetica, Arial, sans-serif">fitted τ_inh per subject, Control vs PD</text><line x1="84.0" y1="286.0" x2="536.0" y2="286.0" stroke="#cbd5e1" stroke-width="1.4"/><line x1="112.2" y1="286.0" x2="112.2" y2="291.0" stroke="#cbd5e1" stroke-width="1.2"/><text x="112.25" y="307" fill="#64748b" font-size="12.5" font-weight="400" text-anchor="middle" font-family="-apple-system, BlinkMacSystemFont, 'Segoe UI', 'Inter', Helvetica, Arial, sans-serif">12</text><line x1="225.2" y1="286.0" x2="225.2" y2="291.0" stroke="#cbd5e1" stroke-width="1.2"/><text x="225.25" y="307" fill="#64748b" font-size="12.5" font-weight="400" text-anchor="middle" font-family="-apple-system, BlinkMacSystemFont, 'Segoe UI', 'Inter', Helvetica, Arial, sans-serif">16</text><line x1="338.2" y1="286.0" x2="338.2" y2="291.0" stroke="#cbd5e1" stroke-width="1.2"/><text x="338.25" y="307" fill="#64748b" font-size="12.5" font-weight="400" text-anchor="middle" font-family="-apple-system, BlinkMacSystemFont, 'Segoe UI', 'Inter', Helvetica, Arial, sans-serif">20</text><line x1="451.2" y1="286.0" x2="451.2" y2="291.0" stroke="#cbd5e1" stroke-width="1.2"/><text x="451.25" y="307" fill="#64748b" font-size="12.5" font-weight="400" text-anchor="middle" font-family="-apple-system, BlinkMacSystemFont, 'Segoe UI', 'Inter', Helvetica, Arial, sans-serif">24</text><text x="310.0" y="322" fill="#334155" font-size="13.5" font-weight="500" text-anchor="middle" font-family="-apple-system, BlinkMacSystemFont, 'Segoe UI', 'Inter', Helvetica, Arial, sans-serif">fitted τ_inh (ms)</text><path d="M 84.0 286.0 L 84.0 273.8 L 85.9 273.2 L 87.8 272.6 L 89.7 272.0 L 91.6 271.4 L 93.5 270.8 L 95.3 270.3 L 97.2 269.8 L 99.1 269.2 L 101.0 268.7 L 102.9 268.3 L 104.8 267.8 L 106.7 267.4 L 108.6 267.0 L 110.5 266.6 L 112.4 266.2 L 114.3 265.9 L 116.2 265.5 L 118.0 265.2 L 119.9 264.9 L 121.8 264.6 L 123.7 264.3 L 125.6 263.9 L 127.5 263.6 L 129.4 263.3 L 131.3 262.9 L 133.2 262.5 L 135.1 262.1 L 137.0 261.6 L 138.8 261.1 L 140.7 260.5 L 142.6 259.8 L 144.5 259.1 L 146.4 258.2 L 148.3 257.3 L 150.2 256.3 L 152.1 255.1 L 154.0 253.9 L 155.9 252.5 L 157.8 251.0 L 159.6 249.3 L 161.5 247.6 L 163.4 245.6 L 165.3 243.6 L 167.2 241.3 L 169.1 239.0 L 171.0 236.5 L 172.9 233.8 L 174.8 231.0 L 176.7 228.1 L 178.6 225.0 L 180.5 221.8 L 182.3 218.4 L 184.2 215.0 L 186.1 211.4 L 188.0 207.8 L 189.9 204.1 L 191.8 200.2 L 193.7 196.4 L 195.6 192.5 L 197.5 188.5 L 199.4 184.5 L 201.3 180.6 L 203.1 176.6 L 205.0 172.7 L 206.9 168.8 L 208.8 165.0 L 210.7 161.2 L 212.6 157.5 L 214.5 153.9 L 216.4 150.5 L 218.3 147.1 L 220.2 144.0 L 222.1 140.9 L 223.9 138.0 L 225.8 135.3 L 227.7 132.8 L 229.6 130.5 L 231.5 128.4 L 233.4 126.4 L 235.3 124.7 L 237.2 123.2 L 239.1 121.9 L 241.0 120.8 L 242.9 119.9 L 244.8 119.3 L 246.6 118.8 L 248.5 118.6 L 250.4 118.6 L 252.3 118.7 L 254.2 119.1 L 256.1 119.7 L 258.0 120.5 L 259.9 121.4 L 261.8 122.5 L 263.7 123.8 L 265.6 125.2 L 267.4 126.8 L 269.3 128.5 L 271.2 130.3 L 273.1 132.2 L 275.0 134.2 L 276.9 136.4 L 278.8 138.5 L 280.7 140.8 L 282.6 143.0 L 284.5 145.3 L 286.4 147.6 L 288.3 149.9 L 290.1 152.2 L 292.0 154.5 L 293.9 156.7 L 295.8 158.9 L 297.7 160.9 L 299.6 162.9 L 301.5 164.8 L 303.4 166.6 L 305.3 168.3 L 307.2 169.8 L 309.1 171.2 L 310.9 172.5 L 312.8 173.6 L 314.7 174.6 L 316.6 175.5 L 318.5 176.2 L 320.4 176.7 L 322.3 177.2 L 324.2 177.4 L 326.1 177.6 L 328.0 177.6 L 329.9 177.6 L 331.7 177.4 L 333.6 177.1 L 335.5 176.8 L 337.4 176.4 L 339.3 175.9 L 341.2 175.5 L 343.1 175.0 L 345.0 174.5 L 346.9 174.0 L 348.8 173.5 L 350.7 173.0 L 352.6 172.6 L 354.4 172.3 L 356.3 172.0 L 358.2 171.8 L 360.1 171.7 L 362.0 171.7 L 363.9 171.7 L 365.8 171.9 L 367.7 172.2 L 369.6 172.6 L 371.5 173.1 L 373.4 173.7 L 375.2 174.4 L 377.1 175.2 L 379.0 176.2 L 380.9 177.2 L 382.8 178.3 L 384.7 179.6 L 386.6 180.9 L 388.5 182.3 L 390.4 183.7 L 392.3 185.3 L 394.2 186.9 L 396.1 188.5 L 397.9 190.2 L 399.8 192.0 L 401.7 193.7 L 403.6 195.5 L 405.5 197.4 L 407.4 199.2 L 409.3 201.1 L 411.2 202.9 L 413.1 204.8 L 415.0 206.6 L 416.9 208.4 L 418.7 210.2 L 420.6 212.0 L 422.5 213.7 L 424.4 215.4 L 426.3 217.1 L 428.2 218.7 L 430.1 220.3 L 432.0 221.7 L 433.9 223.2 L 435.8 224.5 L 437.7 225.8 L 439.5 227.0 L 441.4 228.1 L 443.3 229.1 L 445.2 230.1 L 447.1 230.9 L 449.0 231.7 L 450.9 232.4 L 452.8 232.9 L 454.7 233.4 L 456.6 233.8 L 458.5 234.1 L 460.4 234.4 L 462.2 234.5 L 464.1 234.6 L 466.0 234.6 L 467.9 234.6 L 469.8 234.5 L 471.7 234.3 L 473.6 234.1 L 475.5 233.9 L 477.4 233.7 L 479.3 233.5 L 481.2 233.2 L 483.0 233.0 L 484.9 232.8 L 486.8 232.6 L 488.7 232.5 L 490.6 232.4 L 492.5 232.3 L 494.4 232.3 L 496.3 232.4 L 498.2 232.6 L 500.1 232.8 L 502.0 233.1 L 503.8 233.5 L 505.7 234.0 L 507.6 234.5 L 509.5 235.2 L 511.4 235.9 L 513.3 236.7 L 515.2 237.6 L 517.1 238.6 L 519.0 239.7 L 520.9 240.8 L 522.8 242.0 L 524.7 243.2 L 526.5 244.5 L 528.4 245.9 L 530.3 247.3 L 532.2 248.7 L 534.1 250.2 L 536.0 251.7 L 536.0 286.0 Z" fill="#185FA5" fill-opacity="0.16"/><path d="M 84.0 273.8 L 85.9 273.2 L 87.8 272.6 L 89.7 272.0 L 91.6 271.4 L 93.5 270.8 L 95.3 270.3 L 97.2 269.8 L 99.1 269.2 L 101.0 268.7 L 102.9 268.3 L 104.8 267.8 L 106.7 267.4 L 108.6 267.0 L 110.5 266.6 L 112.4 266.2 L 114.3 265.9 L 116.2 265.5 L 118.0 265.2 L 119.9 264.9 L 121.8 264.6 L 123.7 264.3 L 125.6 263.9 L 127.5 263.6 L 129.4 263.3 L 131.3 262.9 L 133.2 262.5 L 135.1 262.1 L 137.0 261.6 L 138.8 261.1 L 140.7 260.5 L 142.6 259.8 L 144.5 259.1 L 146.4 258.2 L 148.3 257.3 L 150.2 256.3 L 152.1 255.1 L 154.0 253.9 L 155.9 252.5 L 157.8 251.0 L 159.6 249.3 L 161.5 247.6 L 163.4 245.6 L 165.3 243.6 L 167.2 241.3 L 169.1 239.0 L 171.0 236.5 L 172.9 233.8 L 174.8 231.0 L 176.7 228.1 L 178.6 225.0 L 180.5 221.8 L 182.3 218.4 L 184.2 215.0 L 186.1 211.4 L 188.0 207.8 L 189.9 204.1 L 191.8 200.2 L 193.7 196.4 L 195.6 192.5 L 197.5 188.5 L 199.4 184.5 L 201.3 180.6 L 203.1 176.6 L 205.0 172.7 L 206.9 168.8 L 208.8 165.0 L 210.7 161.2 L 212.6 157.5 L 214.5 153.9 L 216.4 150.5 L 218.3 147.1 L 220.2 144.0 L 222.1 140.9 L 223.9 138.0 L 225.8 135.3 L 227.7 132.8 L 229.6 130.5 L 231.5 128.4 L 233.4 126.4 L 235.3 124.7 L 237.2 123.2 L 239.1 121.9 L 241.0 120.8 L 242.9 119.9 L 244.8 119.3 L 246.6 118.8 L 248.5 118.6 L 250.4 118.6 L 252.3 118.7 L 254.2 119.1 L 256.1 119.7 L 258.0 120.5 L 259.9 121.4 L 261.8 122.5 L 263.7 123.8 L 265.6 125.2 L 267.4 126.8 L 269.3 128.5 L 271.2 130.3 L 273.1 132.2 L 275.0 134.2 L 276.9 136.4 L 278.8 138.5 L 280.7 140.8 L 282.6 143.0 L 284.5 145.3 L 286.4 147.6 L 288.3 149.9 L 290.1 152.2 L 292.0 154.5 L 293.9 156.7 L 295.8 158.9 L 297.7 160.9 L 299.6 162.9 L 301.5 164.8 L 303.4 166.6 L 305.3 168.3 L 307.2 169.8 L 309.1 171.2 L 310.9 172.5 L 312.8 173.6 L 314.7 174.6 L 316.6 175.5 L 318.5 176.2 L 320.4 176.7 L 322.3 177.2 L 324.2 177.4 L 326.1 177.6 L 328.0 177.6 L 329.9 177.6 L 331.7 177.4 L 333.6 177.1 L 335.5 176.8 L 337.4 176.4 L 339.3 175.9 L 341.2 175.5 L 343.1 175.0 L 345.0 174.5 L 346.9 174.0 L 348.8 173.5 L 350.7 173.0 L 352.6 172.6 L 354.4 172.3 L 356.3 172.0 L 358.2 171.8 L 360.1 171.7 L 362.0 171.7 L 363.9 171.7 L 365.8 171.9 L 367.7 172.2 L 369.6 172.6 L 371.5 173.1 L 373.4 173.7 L 375.2 174.4 L 377.1 175.2 L 379.0 176.2 L 380.9 177.2 L 382.8 178.3 L 384.7 179.6 L 386.6 180.9 L 388.5 182.3 L 390.4 183.7 L 392.3 185.3 L 394.2 186.9 L 396.1 188.5 L 397.9 190.2 L 399.8 192.0 L 401.7 193.7 L 403.6 195.5 L 405.5 197.4 L 407.4 199.2 L 409.3 201.1 L 411.2 202.9 L 413.1 204.8 L 415.0 206.6 L 416.9 208.4 L 418.7 210.2 L 420.6 212.0 L 422.5 213.7 L 424.4 215.4 L 426.3 217.1 L 428.2 218.7 L 430.1 220.3 L 432.0 221.7 L 433.9 223.2 L 435.8 224.5 L 437.7 225.8 L 439.5 227.0 L 441.4 228.1 L 443.3 229.1 L 445.2 230.1 L 447.1 230.9 L 449.0 231.7 L 450.9 232.4 L 452.8 232.9 L 454.7 233.4 L 456.6 233.8 L 458.5 234.1 L 460.4 234.4 L 462.2 234.5 L 464.1 234.6 L 466.0 234.6 L 467.9 234.6 L 469.8 234.5 L 471.7 234.3 L 473.6 234.1 L 475.5 233.9 L 477.4 233.7 L 479.3 233.5 L 481.2 233.2 L 483.0 233.0 L 484.9 232.8 L 486.8 232.6 L 488.7 232.5 L 490.6 232.4 L 492.5 232.3 L 494.4 232.3 L 496.3 232.4 L 498.2 232.6 L 500.1 232.8 L 502.0 233.1 L 503.8 233.5 L 505.7 234.0 L 507.6 234.5 L 509.5 235.2 L 511.4 235.9 L 513.3 236.7 L 515.2 237.6 L 517.1 238.6 L 519.0 239.7 L 520.9 240.8 L 522.8 242.0 L 524.7 243.2 L 526.5 244.5 L 528.4 245.9 L 530.3 247.3 L 532.2 248.7 L 534.1 250.2 L 536.0 251.7" fill="none" stroke="#185FA5" stroke-width="2.6"/><path d="M 84.0 286.0 L 84.0 274.0 L 85.9 273.5 L 87.8 273.0 L 89.7 272.5 L 91.6 272.0 L 93.5 271.5 L 95.3 270.9 L 97.2 270.4 L 99.1 269.9 L 101.0 269.4 L 102.9 268.9 L 104.8 268.4 L 106.7 268.0 L 108.6 267.5 L 110.5 267.0 L 112.4 266.6 L 114.3 266.1 L 116.2 265.7 L 118.0 265.3 L 119.9 264.9 L 121.8 264.5 L 123.7 264.1 L 125.6 263.7 L 127.5 263.3 L 129.4 262.9 L 131.3 262.5 L 133.2 262.2 L 135.1 261.8 L 137.0 261.5 L 138.8 261.1 L 140.7 260.8 L 142.6 260.4 L 144.5 260.0 L 146.4 259.7 L 148.3 259.3 L 150.2 258.9 L 152.1 258.5 L 154.0 258.1 L 155.9 257.6 L 157.8 257.2 L 159.6 256.7 L 161.5 256.2 L 163.4 255.7 L 165.3 255.1 L 167.2 254.6 L 169.1 253.9 L 171.0 253.3 L 172.9 252.6 L 174.8 251.9 L 176.7 251.2 L 178.6 250.4 L 180.5 249.6 L 182.3 248.7 L 184.2 247.9 L 186.1 246.9 L 188.0 246.0 L 189.9 245.0 L 191.8 244.0 L 193.7 242.9 L 195.6 241.8 L 197.5 240.7 L 199.4 239.5 L 201.3 238.4 L 203.1 237.2 L 205.0 236.0 L 206.9 234.8 L 208.8 233.5 L 210.7 232.3 L 212.6 231.1 L 214.5 229.8 L 216.4 228.6 L 218.3 227.4 L 220.2 226.1 L 222.1 224.9 L 223.9 223.8 L 225.8 222.6 L 227.7 221.5 L 229.6 220.4 L 231.5 219.4 L 233.4 218.4 L 235.3 217.4 L 237.2 216.5 L 239.1 215.6 L 241.0 214.8 L 242.9 214.0 L 244.8 213.3 L 246.6 212.7 L 248.5 212.1 L 250.4 211.5 L 252.3 211.0 L 254.2 210.6 L 256.1 210.2 L 258.0 209.9 L 259.9 209.6 L 261.8 209.4 L 263.7 209.2 L 265.6 209.1 L 267.4 209.0 L 269.3 208.9 L 271.2 208.8 L 273.1 208.8 L 275.0 208.8 L 276.9 208.8 L 278.8 208.8 L 280.7 208.8 L 282.6 208.8 L 284.5 208.7 L 286.4 208.7 L 288.3 208.6 L 290.1 208.5 L 292.0 208.3 L 293.9 208.1 L 295.8 207.9 L 297.7 207.6 L 299.6 207.2 L 301.5 206.7 L 303.4 206.2 L 305.3 205.7 L 307.2 205.0 L 309.1 204.3 L 310.9 203.5 L 312.8 202.6 L 314.7 201.7 L 316.6 200.7 L 318.5 199.6 L 320.4 198.4 L 322.3 197.2 L 324.2 195.9 L 326.1 194.5 L 328.0 193.1 L 329.9 191.6 L 331.7 190.1 L 333.6 188.6 L 335.5 187.1 L 337.4 185.5 L 339.3 183.9 L 341.2 182.3 L 343.1 180.7 L 345.0 179.2 L 346.9 177.6 L 348.8 176.1 L 350.7 174.6 L 352.6 173.2 L 354.4 171.9 L 356.3 170.6 L 358.2 169.4 L 360.1 168.2 L 362.0 167.2 L 363.9 166.2 L 365.8 165.4 L 367.7 164.6 L 369.6 164.0 L 371.5 163.5 L 373.4 163.0 L 375.2 162.8 L 377.1 162.6 L 379.0 162.5 L 380.9 162.6 L 382.8 162.8 L 384.7 163.1 L 386.6 163.6 L 388.5 164.1 L 390.4 164.8 L 392.3 165.6 L 394.2 166.5 L 396.1 167.4 L 397.9 168.5 L 399.8 169.7 L 401.7 170.9 L 403.6 172.3 L 405.5 173.7 L 407.4 175.1 L 409.3 176.6 L 411.2 178.1 L 413.1 179.7 L 415.0 181.3 L 416.9 182.9 L 418.7 184.5 L 420.6 186.1 L 422.5 187.7 L 424.4 189.3 L 426.3 190.8 L 428.2 192.2 L 430.1 193.6 L 432.0 195.0 L 433.9 196.2 L 435.8 197.4 L 437.7 198.5 L 439.5 199.5 L 441.4 200.3 L 443.3 201.1 L 445.2 201.7 L 447.1 202.2 L 449.0 202.5 L 450.9 202.7 L 452.8 202.8 L 454.7 202.7 L 456.6 202.5 L 458.5 202.1 L 460.4 201.6 L 462.2 200.9 L 464.1 200.1 L 466.0 199.2 L 467.9 198.1 L 469.8 197.0 L 471.7 195.7 L 473.6 194.3 L 475.5 192.8 L 477.4 191.2 L 479.3 189.6 L 481.2 187.9 L 483.0 186.2 L 484.9 184.5 L 486.8 182.7 L 488.7 181.0 L 490.6 179.2 L 492.5 177.5 L 494.4 175.9 L 496.3 174.3 L 498.2 172.8 L 500.1 171.4 L 502.0 170.2 L 503.8 169.0 L 505.7 168.0 L 507.6 167.1 L 509.5 166.4 L 511.4 165.9 L 513.3 165.6 L 515.2 165.4 L 517.1 165.4 L 519.0 165.7 L 520.9 166.1 L 522.8 166.8 L 524.7 167.6 L 526.5 168.7 L 528.4 169.9 L 530.3 171.4 L 532.2 173.0 L 534.1 174.8 L 536.0 176.8 L 536.0 286.0 Z" fill="#a8431f" fill-opacity="0.16"/><path d="M 84.0 274.0 L 85.9 273.5 L 87.8 273.0 L 89.7 272.5 L 91.6 272.0 L 93.5 271.5 L 95.3 270.9 L 97.2 270.4 L 99.1 269.9 L 101.0 269.4 L 102.9 268.9 L 104.8 268.4 L 106.7 268.0 L 108.6 267.5 L 110.5 267.0 L 112.4 266.6 L 114.3 266.1 L 116.2 265.7 L 118.0 265.3 L 119.9 264.9 L 121.8 264.5 L 123.7 264.1 L 125.6 263.7 L 127.5 263.3 L 129.4 262.9 L 131.3 262.5 L 133.2 262.2 L 135.1 261.8 L 137.0 261.5 L 138.8 261.1 L 140.7 260.8 L 142.6 260.4 L 144.5 260.0 L 146.4 259.7 L 148.3 259.3 L 150.2 258.9 L 152.1 258.5 L 154.0 258.1 L 155.9 257.6 L 157.8 257.2 L 159.6 256.7 L 161.5 256.2 L 163.4 255.7 L 165.3 255.1 L 167.2 254.6 L 169.1 253.9 L 171.0 253.3 L 172.9 252.6 L 174.8 251.9 L 176.7 251.2 L 178.6 250.4 L 180.5 249.6 L 182.3 248.7 L 184.2 247.9 L 186.1 246.9 L 188.0 246.0 L 189.9 245.0 L 191.8 244.0 L 193.7 242.9 L 195.6 241.8 L 197.5 240.7 L 199.4 239.5 L 201.3 238.4 L 203.1 237.2 L 205.0 236.0 L 206.9 234.8 L 208.8 233.5 L 210.7 232.3 L 212.6 231.1 L 214.5 229.8 L 216.4 228.6 L 218.3 227.4 L 220.2 226.1 L 222.1 224.9 L 223.9 223.8 L 225.8 222.6 L 227.7 221.5 L 229.6 220.4 L 231.5 219.4 L 233.4 218.4 L 235.3 217.4 L 237.2 216.5 L 239.1 215.6 L 241.0 214.8 L 242.9 214.0 L 244.8 213.3 L 246.6 212.7 L 248.5 212.1 L 250.4 211.5 L 252.3 211.0 L 254.2 210.6 L 256.1 210.2 L 258.0 209.9 L 259.9 209.6 L 261.8 209.4 L 263.7 209.2 L 265.6 209.1 L 267.4 209.0 L 269.3 208.9 L 271.2 208.8 L 273.1 208.8 L 275.0 208.8 L 276.9 208.8 L 278.8 208.8 L 280.7 208.8 L 282.6 208.8 L 284.5 208.7 L 286.4 208.7 L 288.3 208.6 L 290.1 208.5 L 292.0 208.3 L 293.9 208.1 L 295.8 207.9 L 297.7 207.6 L 299.6 207.2 L 301.5 206.7 L 303.4 206.2 L 305.3 205.7 L 307.2 205.0 L 309.1 204.3 L 310.9 203.5 L 312.8 202.6 L 314.7 201.7 L 316.6 200.7 L 318.5 199.6 L 320.4 198.4 L 322.3 197.2 L 324.2 195.9 L 326.1 194.5 L 328.0 193.1 L 329.9 191.6 L 331.7 190.1 L 333.6 188.6 L 335.5 187.1 L 337.4 185.5 L 339.3 183.9 L 341.2 182.3 L 343.1 180.7 L 345.0 179.2 L 346.9 177.6 L 348.8 176.1 L 350.7 174.6 L 352.6 173.2 L 354.4 171.9 L 356.3 170.6 L 358.2 169.4 L 360.1 168.2 L 362.0 167.2 L 363.9 166.2 L 365.8 165.4 L 367.7 164.6 L 369.6 164.0 L 371.5 163.5 L 373.4 163.0 L 375.2 162.8 L 377.1 162.6 L 379.0 162.5 L 380.9 162.6 L 382.8 162.8 L 384.7 163.1 L 386.6 163.6 L 388.5 164.1 L 390.4 164.8 L 392.3 165.6 L 394.2 166.5 L 396.1 167.4 L 397.9 168.5 L 399.8 169.7 L 401.7 170.9 L 403.6 172.3 L 405.5 173.7 L 407.4 175.1 L 409.3 176.6 L 411.2 178.1 L 413.1 179.7 L 415.0 181.3 L 416.9 182.9 L 418.7 184.5 L 420.6 186.1 L 422.5 187.7 L 424.4 189.3 L 426.3 190.8 L 428.2 192.2 L 430.1 193.6 L 432.0 195.0 L 433.9 196.2 L 435.8 197.4 L 437.7 198.5 L 439.5 199.5 L 441.4 200.3 L 443.3 201.1 L 445.2 201.7 L 447.1 202.2 L 449.0 202.5 L 450.9 202.7 L 452.8 202.8 L 454.7 202.7 L 456.6 202.5 L 458.5 202.1 L 460.4 201.6 L 462.2 200.9 L 464.1 200.1 L 466.0 199.2 L 467.9 198.1 L 469.8 197.0 L 471.7 195.7 L 473.6 194.3 L 475.5 192.8 L 477.4 191.2 L 479.3 189.6 L 481.2 187.9 L 483.0 186.2 L 484.9 184.5 L 486.8 182.7 L 488.7 181.0 L 490.6 179.2 L 492.5 177.5 L 494.4 175.9 L 496.3 174.3 L 498.2 172.8 L 500.1 171.4 L 502.0 170.2 L 503.8 169.0 L 505.7 168.0 L 507.6 167.1 L 509.5 166.4 L 511.4 165.9 L 513.3 165.6 L 515.2 165.4 L 517.1 165.4 L 519.0 165.7 L 520.9 166.1 L 522.8 166.8 L 524.7 167.6 L 526.5 168.7 L 528.4 169.9 L 530.3 171.4 L 532.2 173.0 L 534.1 174.8 L 536.0 176.8" fill="none" stroke="#a8431f" stroke-width="2.6"/><line x1="288.8" y1="286.0" x2="288.8" y2="128.0" stroke="#185FA5" stroke-width="1.6" stroke-dasharray="4 3"/><line x1="380.6" y1="286.0" x2="380.6" y2="128.0" stroke="#a8431f" stroke-width="1.6" stroke-dasharray="4 3"/><line x1="291.8" y1="124.0" x2="377.6" y2="124.0" stroke="#64748b" stroke-width="1.8" marker-end="url(#sh)"/><text x="334.71875" y="117" fill="#64748b" font-size="13" font-weight="700" text-anchor="middle" font-family="-apple-system, BlinkMacSystemFont, 'Segoe UI', 'Inter', Helvetica, Arial, sans-serif">+3.25 ms</text><rect x="94" y="114" width="15" height="4.5" rx="2" fill="#185FA5"/><text x="116" y="122" fill="#185FA5" font-size="12.5" font-weight="600" text-anchor="start" font-family="-apple-system, BlinkMacSystemFont, 'Segoe UI', 'Inter', Helvetica, Arial, sans-serif">Control</text><rect x="94" y="132" width="15" height="4.5" rx="2" fill="#a8431f"/><text x="116" y="140" fill="#a8431f" font-size="12.5" font-weight="600" text-anchor="start" font-family="-apple-system, BlinkMacSystemFont, 'Segoe UI', 'Inter', Helvetica, Arial, sans-serif">PD</text><text x="24" y="344" fill="#334155" font-size="13" font-weight="500" text-anchor="start" font-family="-apple-system, BlinkMacSystemFont, 'Segoe UI', 'Inter', Helvetica, Arial, sans-serif">Medians differ by +3.25 ms (Control 18.25, PD 21.5 ms).</text><text x="24" y="366" fill="#64748b" font-size="12.5" font-weight="400" text-anchor="start" font-family="-apple-system, BlinkMacSystemFont, 'Segoe UI', 'Inter', Helvetica, Arial, sans-serif">But individuals overlap: a random PD is higher only ≈ 68% of the time.</text><text x="584" y="28" fill="#64748b" font-size="14.5" font-weight="600" text-anchor="start" font-family="-apple-system, BlinkMacSystemFont, 'Segoe UI', 'Inter', Helvetica, Arial, sans-serif">IS THE DIFFERENCE REAL?</text><text x="820" y="28" fill="#94a3b8" font-size="12.5" font-weight="400" text-anchor="start" font-family="-apple-system, BlinkMacSystemFont, 'Segoe UI', 'Inter', Helvetica, Arial, sans-serif">validate the fit, then compare to the effect</text><line x1="624.0" y1="248.0" x2="812.0" y2="90.0" stroke="#cbd5e1" stroke-width="1.6" stroke-dasharray="4 4"/><text x="639.6666666666666" y="164.61111111111111" fill="#94a3b8" font-size="11" font-weight="400" text-anchor="start" font-family="-apple-system, BlinkMacSystemFont, 'Segoe UI', 'Inter', Helvetica, Arial, sans-serif">perfect</text><text x="639.6666666666666" y="177.77777777777777" fill="#94a3b8" font-size="11" font-weight="400" text-anchor="start" font-family="-apple-system, BlinkMacSystemFont, 'Segoe UI', 'Inter', Helvetica, Arial, sans-serif">recovery</text><line x1="624.0" y1="248.0" x2="812.0" y2="248.0" stroke="#cbd5e1" stroke-width="1.3"/><line x1="624.0" y1="90.0" x2="624.0" y2="248.0" stroke="#cbd5e1" stroke-width="1.3"/><line x1="634.4" y1="248.0" x2="634.4" y2="253.0" stroke="#cbd5e1" stroke-width="1.1"/><text x="634.4444444444445" y="267" fill="#94a3b8" font-size="11.5" font-weight="400" text-anchor="middle" font-family="-apple-system, BlinkMacSystemFont, 'Segoe UI', 'Inter', Helvetica, Arial, sans-serif">12</text><line x1="619.0" y1="239.2" x2="624.0" y2="239.2" stroke="#cbd5e1" stroke-width="1.1"/><text x="615" y="243.22222222222223" fill="#94a3b8" font-size="11.5" font-weight="400" text-anchor="end" font-family="-apple-system, BlinkMacSystemFont, 'Segoe UI', 'Inter', Helvetica, Arial, sans-serif">12</text><line x1="697.1" y1="248.0" x2="697.1" y2="253.0" stroke="#cbd5e1" stroke-width="1.1"/><text x="697.1111111111111" y="267" fill="#94a3b8" font-size="11.5" font-weight="400" text-anchor="middle" font-family="-apple-system, BlinkMacSystemFont, 'Segoe UI', 'Inter', Helvetica, Arial, sans-serif">18</text><line x1="619.0" y1="186.6" x2="624.0" y2="186.6" stroke="#cbd5e1" stroke-width="1.1"/><text x="615" y="190.55555555555554" fill="#94a3b8" font-size="11.5" font-weight="400" text-anchor="end" font-family="-apple-system, BlinkMacSystemFont, 'Segoe UI', 'Inter', Helvetica, Arial, sans-serif">18</text><line x1="759.8" y1="248.0" x2="759.8" y2="253.0" stroke="#cbd5e1" stroke-width="1.1"/><text x="759.7777777777778" y="267" fill="#94a3b8" font-size="11.5" font-weight="400" text-anchor="middle" font-family="-apple-system, BlinkMacSystemFont, 'Segoe UI', 'Inter', Helvetica, Arial, sans-serif">24</text><line x1="619.0" y1="133.9" x2="624.0" y2="133.9" stroke="#cbd5e1" stroke-width="1.1"/><text x="615" y="137.88888888888889" fill="#94a3b8" font-size="11.5" font-weight="400" text-anchor="end" font-family="-apple-system, BlinkMacSystemFont, 'Segoe UI', 'Inter', Helvetica, Arial, sans-serif">24</text><text x="718.0" y="288" fill="#334155" font-size="12.5" font-weight="500" text-anchor="middle" font-family="-apple-system, BlinkMacSystemFont, 'Segoe UI', 'Inter', Helvetica, Arial, sans-serif">true τ (ms)</text><text x="588" y="169.0" fill="#334155" font-size="12.5" font-weight="500" text-anchor="middle" font-family="-apple-system, BlinkMacSystemFont, 'Segoe UI', 'Inter', Helvetica, Arial, sans-serif" transform="rotate(-90 588 169)">fitted τ (ms)</text><circle cx="634.4" cy="239.2" r="4.5" fill="#185FA5" fill-opacity="0.85"/><circle cx="642.3" cy="234.8" r="4.5" fill="#185FA5" fill-opacity="0.85"/><circle cx="650.1" cy="230.4" r="4.5" fill="#185FA5" fill-opacity="0.85"/><circle cx="657.9" cy="221.7" r="4.5" fill="#185FA5" fill-opacity="0.85"/><circle cx="665.8" cy="217.3" r="4.5" fill="#185FA5" fill-opacity="0.85"/><circle cx="673.6" cy="204.1" r="4.5" fill="#185FA5" fill-opacity="0.85"/><circle cx="681.4" cy="199.7" r="4.5" fill="#185FA5" fill-opacity="0.85"/><circle cx="689.3" cy="190.9" r="4.5" fill="#185FA5" fill-opacity="0.85"/><circle cx="697.1" cy="190.9" r="4.5" fill="#185FA5" fill-opacity="0.85"/><circle cx="704.9" cy="182.2" r="4.5" fill="#185FA5" fill-opacity="0.85"/><circle cx="712.8" cy="182.2" r="4.5" fill="#185FA5" fill-opacity="0.85"/><circle cx="720.6" cy="160.2" r="4.5" fill="#185FA5" fill-opacity="0.85"/><circle cx="728.4" cy="160.2" r="4.5" fill="#185FA5" fill-opacity="0.85"/><circle cx="736.3" cy="155.8" r="4.5" fill="#185FA5" fill-opacity="0.85"/><circle cx="744.1" cy="155.8" r="4.5" fill="#185FA5" fill-opacity="0.85"/><circle cx="751.9" cy="142.7" r="4.5" fill="#185FA5" fill-opacity="0.85"/><circle cx="759.8" cy="142.7" r="4.5" fill="#185FA5" fill-opacity="0.85"/><circle cx="767.6" cy="111.9" r="4.5" fill="#185FA5" fill-opacity="0.85"/><circle cx="775.4" cy="111.9" r="4.5" fill="#185FA5" fill-opacity="0.85"/><circle cx="783.3" cy="111.9" r="4.5" fill="#185FA5" fill-opacity="0.85"/><circle cx="791.1" cy="107.6" r="4.5" fill="#185FA5" fill-opacity="0.85"/><circle cx="798.9" cy="107.6" r="4.5" fill="#185FA5" fill-opacity="0.85"/><text x="862" y="116" fill="#0f172a" font-size="15" font-weight="600" text-anchor="start" font-family="-apple-system, BlinkMacSystemFont, 'Segoe UI', 'Inter', Helvetica, Arial, sans-serif">The fit is unbiased.</text><text x="862" y="144" fill="#334155" font-size="13" font-weight="400" text-anchor="start" font-family="-apple-system, BlinkMacSystemFont, 'Segoe UI', 'Inter', Helvetica, Arial, sans-serif">mean error  −0.1 ms</text><text x="862" y="166" fill="#334155" font-size="13" font-weight="400" text-anchor="start" font-family="-apple-system, BlinkMacSystemFont, 'Segoe UI', 'Inter', Helvetica, Arial, sans-serif">typical error  ±0.5 ms</text><text x="862" y="188" fill="#94a3b8" font-size="13" font-weight="400" text-anchor="start" font-family="-apple-system, BlinkMacSystemFont, 'Segoe UI', 'Inter', Helvetica, Arial, sans-serif">worst error  1.75 ms</text><text x="584" y="304" fill="#0f172a" font-size="14.5" font-weight="600" text-anchor="start" font-family="-apple-system, BlinkMacSystemFont, 'Segoe UI', 'Inter', Helvetica, Arial, sans-serif">The +3.25 ms difference is 6× the fitting error:</text><rect x="760" y="331" width="52.16216216216216" height="18" rx="4" fill="#cbd5e1"/><text x="748" y="345" fill="#64748b" font-size="12.5" font-weight="500" text-anchor="end" font-family="-apple-system, BlinkMacSystemFont, 'Segoe UI', 'Inter', Helvetica, Arial, sans-serif">fitting error</text><text x="821.1621621621622" y="345" fill="#64748b" font-size="12" font-weight="500" text-anchor="start" font-family="-apple-system, BlinkMacSystemFont, 'Segoe UI', 'Inter', Helvetica, Arial, sans-serif">±0.5 ms</text><rect x="760" y="367" width="339.05405405405406" height="18" rx="4" fill="#a8431f"/><text x="748" y="381" fill="#a8431f" font-size="12.5" font-weight="600" text-anchor="end" font-family="-apple-system, BlinkMacSystemFont, 'Segoe UI', 'Inter', Helvetica, Arial, sans-serif">group difference</text><text x="1108.0540540540542" y="381" fill="#a8431f" font-size="12" font-weight="600" text-anchor="start" font-family="-apple-system, BlinkMacSystemFont, 'Segoe UI', 'Inter', Helvetica, Arial, sans-serif">+3.25 ms</text></svg>