<svg viewBox="0 0 1180 458" xmlns="http://www.w3.org/2000/svg" font-family="-apple-system, BlinkMacSystemFont, 'Segoe UI', 'Inter', Helvetica, Arial, sans-serif"><defs><marker id="sh" markerWidth="9" markerHeight="9" refX="6.5" refY="4.5" orient="auto"><path d="M0,0 L0,9 L8,4.5 z" fill="#64748b"/></marker></defs><rect width="1180" height="458" rx="16" fill="#ffffff"/><line x1="560.0" y1="34.0" x2="560.0" y2="350.0" stroke="#e2e8f0" stroke-width="1.4"/><line x1="20.0" y1="362.0" x2="1160.0" y2="362.0" stroke="#e2e8f0" stroke-width="1.4"/><text x="24" y="28" fill="#64748b" font-size="14.5" font-weight="600" text-anchor="start" font-family="-apple-system, BlinkMacSystemFont, 'Segoe UI', 'Inter', Helvetica, Arial, sans-serif">THE SEPARATION</text><text x="172" y="28" fill="#94a3b8" font-size="12.5" font-weight="400" text-anchor="start" font-family="-apple-system, BlinkMacSystemFont, 'Segoe UI', 'Inter', Helvetica, Arial, sans-serif">fitted τ_inh, Control vs PD</text><line x1="82.0" y1="262.0" x2="538.0" y2="262.0" stroke="#cbd5e1" stroke-width="1.4"/><line x1="110.5" y1="262.0" x2="110.5" y2="267.0" stroke="#cbd5e1" stroke-width="1.2"/><text x="110.5" y="283" fill="#64748b" font-size="12.5" font-weight="400" text-anchor="middle" font-family="-apple-system, BlinkMacSystemFont, 'Segoe UI', 'Inter', Helvetica, Arial, sans-serif">12</text><line x1="224.5" y1="262.0" x2="224.5" y2="267.0" stroke="#cbd5e1" stroke-width="1.2"/><text x="224.5" y="283" fill="#64748b" font-size="12.5" font-weight="400" text-anchor="middle" font-family="-apple-system, BlinkMacSystemFont, 'Segoe UI', 'Inter', Helvetica, Arial, sans-serif">16</text><line x1="338.5" y1="262.0" x2="338.5" y2="267.0" stroke="#cbd5e1" stroke-width="1.2"/><text x="338.5" y="283" fill="#64748b" font-size="12.5" font-weight="400" text-anchor="middle" font-family="-apple-system, BlinkMacSystemFont, 'Segoe UI', 'Inter', Helvetica, Arial, sans-serif">20</text><line x1="452.5" y1="262.0" x2="452.5" y2="267.0" stroke="#cbd5e1" stroke-width="1.2"/><text x="452.5" y="283" fill="#64748b" font-size="12.5" font-weight="400" text-anchor="middle" font-family="-apple-system, BlinkMacSystemFont, 'Segoe UI', 'Inter', Helvetica, Arial, sans-serif">24</text><text x="310.0" y="304" fill="#334155" font-size="13.5" font-weight="500" text-anchor="middle" font-family="-apple-system, BlinkMacSystemFont, 'Segoe UI', 'Inter', Helvetica, Arial, sans-serif">fitted τ_inh (ms)</text><path d="M 82.0 262.0 L 82.0 250.4 L 83.9 249.9 L 85.8 249.3 L 87.7 248.7 L 89.6 248.2 L 91.5 247.7 L 93.4 247.1 L 95.4 246.6 L 97.3 246.1 L 99.2 245.7 L 101.1 245.2 L 103.0 244.8 L 104.9 244.4 L 106.8 244.0 L 108.7 243.6 L 110.6 243.3 L 112.5 242.9 L 114.4 242.6 L 116.3 242.3 L 118.3 242.0 L 120.2 241.7 L 122.1 241.4 L 124.0 241.1 L 125.9 240.8 L 127.8 240.5 L 129.7 240.2 L 131.6 239.8 L 133.5 239.4 L 135.4 238.9 L 137.3 238.4 L 139.2 237.8 L 141.1 237.2 L 143.1 236.5 L 145.0 235.7 L 146.9 234.8 L 148.8 233.9 L 150.7 232.8 L 152.6 231.6 L 154.5 230.3 L 156.4 228.9 L 158.3 227.3 L 160.2 225.6 L 162.1 223.8 L 164.0 221.9 L 165.9 219.8 L 167.9 217.5 L 169.8 215.1 L 171.7 212.6 L 173.6 210.0 L 175.5 207.2 L 177.4 204.3 L 179.3 201.2 L 181.2 198.1 L 183.1 194.8 L 185.0 191.5 L 186.9 188.0 L 188.8 184.5 L 190.8 180.9 L 192.7 177.2 L 194.6 173.5 L 196.5 169.8 L 198.4 166.0 L 200.3 162.3 L 202.2 158.5 L 204.1 154.8 L 206.0 151.1 L 207.9 147.5 L 209.8 143.9 L 211.7 140.5 L 213.6 137.1 L 215.6 133.8 L 217.5 130.6 L 219.4 127.6 L 221.3 124.8 L 223.2 122.0 L 225.1 119.5 L 227.0 117.1 L 228.9 114.9 L 230.8 112.9 L 232.7 111.0 L 234.6 109.4 L 236.5 108.0 L 238.5 106.7 L 240.4 105.7 L 242.3 104.9 L 244.2 104.3 L 246.1 103.8 L 248.0 103.6 L 249.9 103.6 L 251.8 103.8 L 253.7 104.1 L 255.6 104.7 L 257.5 105.4 L 259.4 106.3 L 261.3 107.3 L 263.3 108.5 L 265.2 109.9 L 267.1 111.4 L 269.0 113.0 L 270.9 114.7 L 272.8 116.5 L 274.7 118.4 L 276.6 120.4 L 278.5 122.5 L 280.4 124.6 L 282.3 126.8 L 284.2 128.9 L 286.2 131.1 L 288.1 133.3 L 290.0 135.5 L 291.9 137.6 L 293.8 139.7 L 295.7 141.7 L 297.6 143.7 L 299.5 145.6 L 301.4 147.4 L 303.3 149.1 L 305.2 150.6 L 307.1 152.1 L 309.0 153.4 L 311.0 154.6 L 312.9 155.7 L 314.8 156.6 L 316.7 157.4 L 318.6 158.1 L 320.5 158.6 L 322.4 159.0 L 324.3 159.3 L 326.2 159.4 L 328.1 159.5 L 330.0 159.4 L 331.9 159.2 L 333.8 159.0 L 335.8 158.7 L 337.7 158.3 L 339.6 157.9 L 341.5 157.4 L 343.4 157.0 L 345.3 156.5 L 347.2 156.0 L 349.1 155.6 L 351.0 155.1 L 352.9 154.7 L 354.8 154.4 L 356.7 154.2 L 358.7 154.0 L 360.6 153.9 L 362.5 153.8 L 364.4 153.9 L 366.3 154.1 L 368.2 154.3 L 370.1 154.7 L 372.0 155.2 L 373.9 155.8 L 375.8 156.4 L 377.7 157.2 L 379.6 158.1 L 381.5 159.1 L 383.5 160.2 L 385.4 161.3 L 387.3 162.6 L 389.2 163.9 L 391.1 165.3 L 393.0 166.7 L 394.9 168.2 L 396.8 169.8 L 398.7 171.4 L 400.6 173.0 L 402.5 174.7 L 404.4 176.4 L 406.4 178.2 L 408.3 179.9 L 410.2 181.6 L 412.1 183.4 L 414.0 185.1 L 415.9 186.9 L 417.8 188.6 L 419.7 190.3 L 421.6 192.0 L 423.5 193.6 L 425.4 195.3 L 427.3 196.8 L 429.2 198.3 L 431.2 199.8 L 433.1 201.2 L 435.0 202.6 L 436.9 203.8 L 438.8 205.0 L 440.7 206.2 L 442.6 207.2 L 444.5 208.2 L 446.4 209.1 L 448.3 209.9 L 450.2 210.6 L 452.1 211.2 L 454.1 211.8 L 456.0 212.3 L 457.9 212.6 L 459.8 212.9 L 461.7 213.1 L 463.6 213.3 L 465.5 213.4 L 467.4 213.4 L 469.3 213.3 L 471.2 213.2 L 473.1 213.1 L 475.0 212.9 L 476.9 212.7 L 478.9 212.5 L 480.8 212.3 L 482.7 212.1 L 484.6 211.9 L 486.5 211.7 L 488.4 211.5 L 490.3 211.4 L 492.2 211.3 L 494.1 211.2 L 496.0 211.2 L 497.9 211.3 L 499.8 211.4 L 501.7 211.7 L 503.7 211.9 L 505.6 212.3 L 507.5 212.8 L 509.4 213.3 L 511.3 213.9 L 513.2 214.6 L 515.1 215.4 L 517.0 216.2 L 518.9 217.2 L 520.8 218.2 L 522.7 219.2 L 524.6 220.4 L 526.6 221.5 L 528.5 222.8 L 530.4 224.1 L 532.3 225.4 L 534.2 226.7 L 536.1 228.1 L 538.0 229.5 L 538.0 262.0 Z" fill="#185FA5" fill-opacity="0.16"/><path d="M 82.0 250.4 L 83.9 249.9 L 85.8 249.3 L 87.7 248.7 L 89.6 248.2 L 91.5 247.7 L 93.4 247.1 L 95.4 246.6 L 97.3 246.1 L 99.2 245.7 L 101.1 245.2 L 103.0 244.8 L 104.9 244.4 L 106.8 244.0 L 108.7 243.6 L 110.6 243.3 L 112.5 242.9 L 114.4 242.6 L 116.3 242.3 L 118.3 242.0 L 120.2 241.7 L 122.1 241.4 L 124.0 241.1 L 125.9 240.8 L 127.8 240.5 L 129.7 240.2 L 131.6 239.8 L 133.5 239.4 L 135.4 238.9 L 137.3 238.4 L 139.2 237.8 L 141.1 237.2 L 143.1 236.5 L 145.0 235.7 L 146.9 234.8 L 148.8 233.9 L 150.7 232.8 L 152.6 231.6 L 154.5 230.3 L 156.4 228.9 L 158.3 227.3 L 160.2 225.6 L 162.1 223.8 L 164.0 221.9 L 165.9 219.8 L 167.9 217.5 L 169.8 215.1 L 171.7 212.6 L 173.6 210.0 L 175.5 207.2 L 177.4 204.3 L 179.3 201.2 L 181.2 198.1 L 183.1 194.8 L 185.0 191.5 L 186.9 188.0 L 188.8 184.5 L 190.8 180.9 L 192.7 177.2 L 194.6 173.5 L 196.5 169.8 L 198.4 166.0 L 200.3 162.3 L 202.2 158.5 L 204.1 154.8 L 206.0 151.1 L 207.9 147.5 L 209.8 143.9 L 211.7 140.5 L 213.6 137.1 L 215.6 133.8 L 217.5 130.6 L 219.4 127.6 L 221.3 124.8 L 223.2 122.0 L 225.1 119.5 L 227.0 117.1 L 228.9 114.9 L 230.8 112.9 L 232.7 111.0 L 234.6 109.4 L 236.5 108.0 L 238.5 106.7 L 240.4 105.7 L 242.3 104.9 L 244.2 104.3 L 246.1 103.8 L 248.0 103.6 L 249.9 103.6 L 251.8 103.8 L 253.7 104.1 L 255.6 104.7 L 257.5 105.4 L 259.4 106.3 L 261.3 107.3 L 263.3 108.5 L 265.2 109.9 L 267.1 111.4 L 269.0 113.0 L 270.9 114.7 L 272.8 116.5 L 274.7 118.4 L 276.6 120.4 L 278.5 122.5 L 280.4 124.6 L 282.3 126.8 L 284.2 128.9 L 286.2 131.1 L 288.1 133.3 L 290.0 135.5 L 291.9 137.6 L 293.8 139.7 L 295.7 141.7 L 297.6 143.7 L 299.5 145.6 L 301.4 147.4 L 303.3 149.1 L 305.2 150.6 L 307.1 152.1 L 309.0 153.4 L 311.0 154.6 L 312.9 155.7 L 314.8 156.6 L 316.7 157.4 L 318.6 158.1 L 320.5 158.6 L 322.4 159.0 L 324.3 159.3 L 326.2 159.4 L 328.1 159.5 L 330.0 159.4 L 331.9 159.2 L 333.8 159.0 L 335.8 158.7 L 337.7 158.3 L 339.6 157.9 L 341.5 157.4 L 343.4 157.0 L 345.3 156.5 L 347.2 156.0 L 349.1 155.6 L 351.0 155.1 L 352.9 154.7 L 354.8 154.4 L 356.7 154.2 L 358.7 154.0 L 360.6 153.9 L 362.5 153.8 L 364.4 153.9 L 366.3 154.1 L 368.2 154.3 L 370.1 154.7 L 372.0 155.2 L 373.9 155.8 L 375.8 156.4 L 377.7 157.2 L 379.6 158.1 L 381.5 159.1 L 383.5 160.2 L 385.4 161.3 L 387.3 162.6 L 389.2 163.9 L 391.1 165.3 L 393.0 166.7 L 394.9 168.2 L 396.8 169.8 L 398.7 171.4 L 400.6 173.0 L 402.5 174.7 L 404.4 176.4 L 406.4 178.2 L 408.3 179.9 L 410.2 181.6 L 412.1 183.4 L 414.0 185.1 L 415.9 186.9 L 417.8 188.6 L 419.7 190.3 L 421.6 192.0 L 423.5 193.6 L 425.4 195.3 L 427.3 196.8 L 429.2 198.3 L 431.2 199.8 L 433.1 201.2 L 435.0 202.6 L 436.9 203.8 L 438.8 205.0 L 440.7 206.2 L 442.6 207.2 L 444.5 208.2 L 446.4 209.1 L 448.3 209.9 L 450.2 210.6 L 452.1 211.2 L 454.1 211.8 L 456.0 212.3 L 457.9 212.6 L 459.8 212.9 L 461.7 213.1 L 463.6 213.3 L 465.5 213.4 L 467.4 213.4 L 469.3 213.3 L 471.2 213.2 L 473.1 213.1 L 475.0 212.9 L 476.9 212.7 L 478.9 212.5 L 480.8 212.3 L 482.7 212.1 L 484.6 211.9 L 486.5 211.7 L 488.4 211.5 L 490.3 211.4 L 492.2 211.3 L 494.1 211.2 L 496.0 211.2 L 497.9 211.3 L 499.8 211.4 L 501.7 211.7 L 503.7 211.9 L 505.6 212.3 L 507.5 212.8 L 509.4 213.3 L 511.3 213.9 L 513.2 214.6 L 515.1 215.4 L 517.0 216.2 L 518.9 217.2 L 520.8 218.2 L 522.7 219.2 L 524.6 220.4 L 526.6 221.5 L 528.5 222.8 L 530.4 224.1 L 532.3 225.4 L 534.2 226.7 L 536.1 228.1 L 538.0 229.5" fill="none" stroke="#185FA5" stroke-width="2.6"/><path d="M 82.0 262.0 L 82.0 250.7 L 83.9 250.2 L 85.8 249.7 L 87.7 249.2 L 89.6 248.7 L 91.5 248.2 L 93.4 247.8 L 95.4 247.3 L 97.3 246.8 L 99.2 246.3 L 101.1 245.9 L 103.0 245.4 L 104.9 244.9 L 106.8 244.5 L 108.7 244.1 L 110.6 243.6 L 112.5 243.2 L 114.4 242.8 L 116.3 242.4 L 118.3 242.0 L 120.2 241.6 L 122.1 241.2 L 124.0 240.9 L 125.9 240.5 L 127.8 240.2 L 129.7 239.8 L 131.6 239.5 L 133.5 239.1 L 135.4 238.8 L 137.3 238.5 L 139.2 238.1 L 141.1 237.8 L 143.1 237.4 L 145.0 237.1 L 146.9 236.7 L 148.8 236.4 L 150.7 236.0 L 152.6 235.6 L 154.5 235.2 L 156.4 234.7 L 158.3 234.3 L 160.2 233.8 L 162.1 233.3 L 164.0 232.8 L 165.9 232.3 L 167.9 231.7 L 169.8 231.1 L 171.7 230.4 L 173.6 229.8 L 175.5 229.1 L 177.4 228.3 L 179.3 227.6 L 181.2 226.8 L 183.1 225.9 L 185.0 225.0 L 186.9 224.1 L 188.8 223.2 L 190.8 222.2 L 192.7 221.2 L 194.6 220.2 L 196.5 219.1 L 198.4 218.1 L 200.3 217.0 L 202.2 215.8 L 204.1 214.7 L 206.0 213.5 L 207.9 212.4 L 209.8 211.2 L 211.7 210.0 L 213.6 208.8 L 215.6 207.7 L 217.5 206.5 L 219.4 205.4 L 221.3 204.2 L 223.2 203.1 L 225.1 202.0 L 227.0 201.0 L 228.9 200.0 L 230.8 199.0 L 232.7 198.0 L 234.6 197.1 L 236.5 196.2 L 238.5 195.4 L 240.4 194.6 L 242.3 193.9 L 244.2 193.2 L 246.1 192.6 L 248.0 192.1 L 249.9 191.6 L 251.8 191.1 L 253.7 190.7 L 255.6 190.3 L 257.5 190.0 L 259.4 189.8 L 261.3 189.6 L 263.3 189.4 L 265.2 189.2 L 267.1 189.1 L 269.0 189.1 L 270.9 189.0 L 272.8 189.0 L 274.7 189.0 L 276.6 189.0 L 278.5 189.0 L 280.4 188.9 L 282.3 188.9 L 284.2 188.9 L 286.2 188.8 L 288.1 188.8 L 290.0 188.7 L 291.9 188.5 L 293.8 188.3 L 295.7 188.1 L 297.6 187.8 L 299.5 187.4 L 301.4 187.0 L 303.3 186.6 L 305.2 186.0 L 307.1 185.4 L 309.0 184.7 L 311.0 184.0 L 312.9 183.1 L 314.8 182.2 L 316.7 181.3 L 318.6 180.2 L 320.5 179.1 L 322.4 178.0 L 324.3 176.7 L 326.2 175.4 L 328.1 174.1 L 330.0 172.7 L 331.9 171.3 L 333.8 169.9 L 335.8 168.4 L 337.7 166.9 L 339.6 165.4 L 341.5 163.9 L 343.4 162.4 L 345.3 160.9 L 347.2 159.5 L 349.1 158.0 L 351.0 156.7 L 352.9 155.3 L 354.8 154.0 L 356.7 152.8 L 358.7 151.7 L 360.6 150.6 L 362.5 149.6 L 364.4 148.7 L 366.3 147.9 L 368.2 147.2 L 370.1 146.6 L 372.0 146.1 L 373.9 145.7 L 375.8 145.4 L 377.7 145.2 L 379.6 145.2 L 381.5 145.3 L 383.5 145.5 L 385.4 145.8 L 387.3 146.2 L 389.2 146.7 L 391.1 147.3 L 393.0 148.1 L 394.9 148.9 L 396.8 149.8 L 398.7 150.9 L 400.6 152.0 L 402.5 153.1 L 404.4 154.4 L 406.4 155.7 L 408.3 157.1 L 410.2 158.5 L 412.1 160.0 L 414.0 161.5 L 415.9 163.0 L 417.8 164.5 L 419.7 166.0 L 421.6 167.5 L 423.5 169.0 L 425.4 170.5 L 427.3 171.9 L 429.2 173.3 L 431.2 174.6 L 433.1 175.9 L 435.0 177.1 L 436.9 178.2 L 438.8 179.2 L 440.7 180.1 L 442.6 181.0 L 444.5 181.7 L 446.4 182.2 L 448.3 182.7 L 450.2 183.0 L 452.1 183.2 L 454.1 183.3 L 456.0 183.2 L 457.9 183.0 L 459.8 182.6 L 461.7 182.1 L 463.6 181.5 L 465.5 180.8 L 467.4 179.9 L 469.3 178.9 L 471.2 177.8 L 473.1 176.5 L 475.0 175.2 L 476.9 173.8 L 478.9 172.4 L 480.8 170.8 L 482.7 169.2 L 484.6 167.6 L 486.5 166.0 L 488.4 164.3 L 490.3 162.6 L 492.2 161.0 L 494.1 159.4 L 496.0 157.8 L 497.9 156.4 L 499.8 154.9 L 501.7 153.6 L 503.7 152.4 L 505.6 151.3 L 507.5 150.4 L 509.4 149.6 L 511.3 148.9 L 513.2 148.4 L 515.1 148.1 L 517.0 147.9 L 518.9 148.0 L 520.8 148.2 L 522.7 148.6 L 524.6 149.2 L 526.6 150.0 L 528.5 151.0 L 530.4 152.2 L 532.3 153.5 L 534.2 155.1 L 536.1 156.8 L 538.0 158.7 L 538.0 262.0 Z" fill="#a8431f" fill-opacity="0.16"/><path d="M 82.0 250.7 L 83.9 250.2 L 85.8 249.7 L 87.7 249.2 L 89.6 248.7 L 91.5 248.2 L 93.4 247.8 L 95.4 247.3 L 97.3 246.8 L 99.2 246.3 L 101.1 245.9 L 103.0 245.4 L 104.9 244.9 L 106.8 244.5 L 108.7 244.1 L 110.6 243.6 L 112.5 243.2 L 114.4 242.8 L 116.3 242.4 L 118.3 242.0 L 120.2 241.6 L 122.1 241.2 L 124.0 240.9 L 125.9 240.5 L 127.8 240.2 L 129.7 239.8 L 131.6 239.5 L 133.5 239.1 L 135.4 238.8 L 137.3 238.5 L 139.2 238.1 L 141.1 237.8 L 143.1 237.4 L 145.0 237.1 L 146.9 236.7 L 148.8 236.4 L 150.7 236.0 L 152.6 235.6 L 154.5 235.2 L 156.4 234.7 L 158.3 234.3 L 160.2 233.8 L 162.1 233.3 L 164.0 232.8 L 165.9 232.3 L 167.9 231.7 L 169.8 231.1 L 171.7 230.4 L 173.6 229.8 L 175.5 229.1 L 177.4 228.3 L 179.3 227.6 L 181.2 226.8 L 183.1 225.9 L 185.0 225.0 L 186.9 224.1 L 188.8 223.2 L 190.8 222.2 L 192.7 221.2 L 194.6 220.2 L 196.5 219.1 L 198.4 218.1 L 200.3 217.0 L 202.2 215.8 L 204.1 214.7 L 206.0 213.5 L 207.9 212.4 L 209.8 211.2 L 211.7 210.0 L 213.6 208.8 L 215.6 207.7 L 217.5 206.5 L 219.4 205.4 L 221.3 204.2 L 223.2 203.1 L 225.1 202.0 L 227.0 201.0 L 228.9 200.0 L 230.8 199.0 L 232.7 198.0 L 234.6 197.1 L 236.5 196.2 L 238.5 195.4 L 240.4 194.6 L 242.3 193.9 L 244.2 193.2 L 246.1 192.6 L 248.0 192.1 L 249.9 191.6 L 251.8 191.1 L 253.7 190.7 L 255.6 190.3 L 257.5 190.0 L 259.4 189.8 L 261.3 189.6 L 263.3 189.4 L 265.2 189.2 L 267.1 189.1 L 269.0 189.1 L 270.9 189.0 L 272.8 189.0 L 274.7 189.0 L 276.6 189.0 L 278.5 189.0 L 280.4 188.9 L 282.3 188.9 L 284.2 188.9 L 286.2 188.8 L 288.1 188.8 L 290.0 188.7 L 291.9 188.5 L 293.8 188.3 L 295.7 188.1 L 297.6 187.8 L 299.5 187.4 L 301.4 187.0 L 303.3 186.6 L 305.2 186.0 L 307.1 185.4 L 309.0 184.7 L 311.0 184.0 L 312.9 183.1 L 314.8 182.2 L 316.7 181.3 L 318.6 180.2 L 320.5 179.1 L 322.4 178.0 L 324.3 176.7 L 326.2 175.4 L 328.1 174.1 L 330.0 172.7 L 331.9 171.3 L 333.8 169.9 L 335.8 168.4 L 337.7 166.9 L 339.6 165.4 L 341.5 163.9 L 343.4 162.4 L 345.3 160.9 L 347.2 159.5 L 349.1 158.0 L 351.0 156.7 L 352.9 155.3 L 354.8 154.0 L 356.7 152.8 L 358.7 151.7 L 360.6 150.6 L 362.5 149.6 L 364.4 148.7 L 366.3 147.9 L 368.2 147.2 L 370.1 146.6 L 372.0 146.1 L 373.9 145.7 L 375.8 145.4 L 377.7 145.2 L 379.6 145.2 L 381.5 145.3 L 383.5 145.5 L 385.4 145.8 L 387.3 146.2 L 389.2 146.7 L 391.1 147.3 L 393.0 148.1 L 394.9 148.9 L 396.8 149.8 L 398.7 150.9 L 400.6 152.0 L 402.5 153.1 L 404.4 154.4 L 406.4 155.7 L 408.3 157.1 L 410.2 158.5 L 412.1 160.0 L 414.0 161.5 L 415.9 163.0 L 417.8 164.5 L 419.7 166.0 L 421.6 167.5 L 423.5 169.0 L 425.4 170.5 L 427.3 171.9 L 429.2 173.3 L 431.2 174.6 L 433.1 175.9 L 435.0 177.1 L 436.9 178.2 L 438.8 179.2 L 440.7 180.1 L 442.6 181.0 L 444.5 181.7 L 446.4 182.2 L 448.3 182.7 L 450.2 183.0 L 452.1 183.2 L 454.1 183.3 L 456.0 183.2 L 457.9 183.0 L 459.8 182.6 L 461.7 182.1 L 463.6 181.5 L 465.5 180.8 L 467.4 179.9 L 469.3 178.9 L 471.2 177.8 L 473.1 176.5 L 475.0 175.2 L 476.9 173.8 L 478.9 172.4 L 480.8 170.8 L 482.7 169.2 L 484.6 167.6 L 486.5 166.0 L 488.4 164.3 L 490.3 162.6 L 492.2 161.0 L 494.1 159.4 L 496.0 157.8 L 497.9 156.4 L 499.8 154.9 L 501.7 153.6 L 503.7 152.4 L 505.6 151.3 L 507.5 150.4 L 509.4 149.6 L 511.3 148.9 L 513.2 148.4 L 515.1 148.1 L 517.0 147.9 L 518.9 148.0 L 520.8 148.2 L 522.7 148.6 L 524.6 149.2 L 526.6 150.0 L 528.5 151.0 L 530.4 152.2 L 532.3 153.5 L 534.2 155.1 L 536.1 156.8 L 538.0 158.7" fill="none" stroke="#a8431f" stroke-width="2.6"/><line x1="288.6" y1="262.0" x2="288.6" y2="108.0" stroke="#185FA5" stroke-width="1.6" stroke-dasharray="4 3"/><line x1="381.2" y1="262.0" x2="381.2" y2="108.0" stroke="#a8431f" stroke-width="1.6" stroke-dasharray="4 3"/><line x1="291.6" y1="104.0" x2="378.2" y2="104.0" stroke="#64748b" stroke-width="1.8" marker-end="url(#sh)"/><text x="334.9375" y="97" fill="#64748b" font-size="13" font-weight="700" text-anchor="middle" font-family="-apple-system, BlinkMacSystemFont, 'Segoe UI', 'Inter', Helvetica, Arial, sans-serif">+3.25 ms</text><rect x="92" y="96" width="15" height="4.5" rx="2" fill="#185FA5"/><text x="114" y="104" fill="#185FA5" font-size="12.5" font-weight="600" text-anchor="start" font-family="-apple-system, BlinkMacSystemFont, 'Segoe UI', 'Inter', Helvetica, Arial, sans-serif">Control</text><rect x="92" y="114" width="15" height="4.5" rx="2" fill="#a8431f"/><text x="114" y="122" fill="#a8431f" font-size="12.5" font-weight="600" text-anchor="start" font-family="-apple-system, BlinkMacSystemFont, 'Segoe UI', 'Inter', Helvetica, Arial, sans-serif">PD</text><text x="24" y="332" fill="#334155" font-size="13" font-weight="500" text-anchor="start" font-family="-apple-system, BlinkMacSystemFont, 'Segoe UI', 'Inter', Helvetica, Arial, sans-serif">Control 18.25 vs PD 21.5 ms at the median.</text><text x="24" y="352" fill="#64748b" font-size="12.5" font-weight="400" text-anchor="start" font-family="-apple-system, BlinkMacSystemFont, 'Segoe UI', 'Inter', Helvetica, Arial, sans-serif">The distributions overlap: a random PD is higher ≈ 68% of the time.</text><text x="584" y="28" fill="#64748b" font-size="14.5" font-weight="600" text-anchor="start" font-family="-apple-system, BlinkMacSystemFont, 'Segoe UI', 'Inter', Helvetica, Arial, sans-serif">PARAMETER RECOVERY</text><text x="782" y="28" fill="#94a3b8" font-size="12.5" font-weight="400" text-anchor="start" font-family="-apple-system, BlinkMacSystemFont, 'Segoe UI', 'Inter', Helvetica, Arial, sans-serif">simulate a known τ, fit it back</text><line x1="632.0" y1="262.0" x2="812.0" y2="86.0" stroke="#cbd5e1" stroke-width="1.6" stroke-dasharray="4 4"/><text x="647.0" y="169.11111111111111" fill="#94a3b8" font-size="11" font-weight="400" text-anchor="start" font-family="-apple-system, BlinkMacSystemFont, 'Segoe UI', 'Inter', Helvetica, Arial, sans-serif">perfect</text><text x="647.0" y="183.77777777777777" fill="#94a3b8" font-size="11" font-weight="400" text-anchor="start" font-family="-apple-system, BlinkMacSystemFont, 'Segoe UI', 'Inter', Helvetica, Arial, sans-serif">recovery</text><line x1="632.0" y1="262.0" x2="812.0" y2="262.0" stroke="#cbd5e1" stroke-width="1.3"/><line x1="632.0" y1="86.0" x2="632.0" y2="262.0" stroke="#cbd5e1" stroke-width="1.3"/><line x1="642.0" y1="262.0" x2="642.0" y2="267.0" stroke="#cbd5e1" stroke-width="1.1"/><text x="642.0" y="281" fill="#94a3b8" font-size="11.5" font-weight="400" text-anchor="middle" font-family="-apple-system, BlinkMacSystemFont, 'Segoe UI', 'Inter', Helvetica, Arial, sans-serif">12</text><line x1="627.0" y1="252.2" x2="632.0" y2="252.2" stroke="#cbd5e1" stroke-width="1.1"/><text x="623" y="256.22222222222223" fill="#94a3b8" font-size="11.5" font-weight="400" text-anchor="end" font-family="-apple-system, BlinkMacSystemFont, 'Segoe UI', 'Inter', Helvetica, Arial, sans-serif">12</text><line x1="702.0" y1="262.0" x2="702.0" y2="267.0" stroke="#cbd5e1" stroke-width="1.1"/><text x="702.0" y="281" fill="#94a3b8" font-size="11.5" font-weight="400" text-anchor="middle" font-family="-apple-system, BlinkMacSystemFont, 'Segoe UI', 'Inter', Helvetica, Arial, sans-serif">18</text><line x1="627.0" y1="193.6" x2="632.0" y2="193.6" stroke="#cbd5e1" stroke-width="1.1"/><text x="623" y="197.55555555555554" fill="#94a3b8" font-size="11.5" font-weight="400" text-anchor="end" font-family="-apple-system, BlinkMacSystemFont, 'Segoe UI', 'Inter', Helvetica, Arial, sans-serif">18</text><line x1="762.0" y1="262.0" x2="762.0" y2="267.0" stroke="#cbd5e1" stroke-width="1.1"/><text x="762.0" y="281" fill="#94a3b8" font-size="11.5" font-weight="400" text-anchor="middle" font-family="-apple-system, BlinkMacSystemFont, 'Segoe UI', 'Inter', Helvetica, Arial, sans-serif">24</text><line x1="627.0" y1="134.9" x2="632.0" y2="134.9" stroke="#cbd5e1" stroke-width="1.1"/><text x="623" y="138.88888888888889" fill="#94a3b8" font-size="11.5" font-weight="400" text-anchor="end" font-family="-apple-system, BlinkMacSystemFont, 'Segoe UI', 'Inter', Helvetica, Arial, sans-serif">24</text><text x="722.0" y="302" fill="#334155" font-size="12.5" font-weight="500" text-anchor="middle" font-family="-apple-system, BlinkMacSystemFont, 'Segoe UI', 'Inter', Helvetica, Arial, sans-serif">true τ (ms)</text><text x="594" y="174.0" fill="#334155" font-size="12.5" font-weight="500" text-anchor="middle" font-family="-apple-system, BlinkMacSystemFont, 'Segoe UI', 'Inter', Helvetica, Arial, sans-serif" transform="rotate(-90 594 174)">fitted τ (ms)</text><circle cx="642.0" cy="252.2" r="4.5" fill="#185FA5" fill-opacity="0.85"/><circle cx="649.5" cy="247.3" r="4.5" fill="#185FA5" fill-opacity="0.85"/><circle cx="657.0" cy="242.4" r="4.5" fill="#185FA5" fill-opacity="0.85"/><circle cx="664.5" cy="232.7" r="4.5" fill="#185FA5" fill-opacity="0.85"/><circle cx="672.0" cy="227.8" r="4.5" fill="#185FA5" fill-opacity="0.85"/><circle cx="679.5" cy="213.1" r="4.5" fill="#185FA5" fill-opacity="0.85"/><circle cx="687.0" cy="208.2" r="4.5" fill="#185FA5" fill-opacity="0.85"/><circle cx="694.5" cy="198.4" r="4.5" fill="#185FA5" fill-opacity="0.85"/><circle cx="702.0" cy="198.4" r="4.5" fill="#185FA5" fill-opacity="0.85"/><circle cx="709.5" cy="188.7" r="4.5" fill="#185FA5" fill-opacity="0.85"/><circle cx="717.0" cy="188.7" r="4.5" fill="#185FA5" fill-opacity="0.85"/><circle cx="724.5" cy="164.2" r="4.5" fill="#185FA5" fill-opacity="0.85"/><circle cx="732.0" cy="164.2" r="4.5" fill="#185FA5" fill-opacity="0.85"/><circle cx="739.5" cy="159.3" r="4.5" fill="#185FA5" fill-opacity="0.85"/><circle cx="747.0" cy="159.3" r="4.5" fill="#185FA5" fill-opacity="0.85"/><circle cx="754.5" cy="144.7" r="4.5" fill="#185FA5" fill-opacity="0.85"/><circle cx="762.0" cy="144.7" r="4.5" fill="#185FA5" fill-opacity="0.85"/><circle cx="769.5" cy="110.4" r="4.5" fill="#185FA5" fill-opacity="0.85"/><circle cx="777.0" cy="110.4" r="4.5" fill="#185FA5" fill-opacity="0.85"/><circle cx="784.5" cy="110.4" r="4.5" fill="#185FA5" fill-opacity="0.85"/><circle cx="792.0" cy="105.6" r="4.5" fill="#185FA5" fill-opacity="0.85"/><circle cx="799.5" cy="105.6" r="4.5" fill="#185FA5" fill-opacity="0.85"/><text x="866" y="130" fill="#0f172a" font-size="15.5" font-weight="600" text-anchor="start" font-family="-apple-system, BlinkMacSystemFont, 'Segoe UI', 'Inter', Helvetica, Arial, sans-serif">The fit is unbiased.</text><text x="866" y="160" fill="#334155" font-size="13" font-weight="400" text-anchor="start" font-family="-apple-system, BlinkMacSystemFont, 'Segoe UI', 'Inter', Helvetica, Arial, sans-serif">mean error  −0.1 ms</text><text x="866" y="182" fill="#334155" font-size="13" font-weight="400" text-anchor="start" font-family="-apple-system, BlinkMacSystemFont, 'Segoe UI', 'Inter', Helvetica, Arial, sans-serif">typical error  ±0.5 ms</text><text x="866" y="204" fill="#94a3b8" font-size="13" font-weight="400" text-anchor="start" font-family="-apple-system, BlinkMacSystemFont, 'Segoe UI', 'Inter', Helvetica, Arial, sans-serif">worst error  1.75 ms</text><rect x="360" y="389" width="105.55555555555556" height="18" rx="4" fill="#cbd5e1"/><text x="346" y="403" fill="#64748b" font-size="13" font-weight="500" text-anchor="end" font-family="-apple-system, BlinkMacSystemFont, 'Segoe UI', 'Inter', Helvetica, Arial, sans-serif">fitting error</text><text x="475.55555555555554" y="403" fill="#64748b" font-size="12.5" font-weight="500" text-anchor="start" font-family="-apple-system, BlinkMacSystemFont, 'Segoe UI', 'Inter', Helvetica, Arial, sans-serif">±0.5 ms</text><rect x="360" y="421" width="686.1111111111111" height="18" rx="4" fill="#a8431f"/><text x="346" y="435" fill="#a8431f" font-size="13" font-weight="600" text-anchor="end" font-family="-apple-system, BlinkMacSystemFont, 'Segoe UI', 'Inter', Helvetica, Arial, sans-serif">group difference</text><text x="1056.111111111111" y="435" fill="#a8431f" font-size="12.5" font-weight="600" text-anchor="start" font-family="-apple-system, BlinkMacSystemFont, 'Segoe UI', 'Inter', Helvetica, Arial, sans-serif">+3.25 ms</text><line x1="465.6" y1="384.0" x2="465.6" y2="444.0" stroke="#94a3b8" stroke-width="1.2" stroke-dasharray="3 3"/><text x="483.55555555555554" y="419.0" fill="#334155" font-size="17" font-weight="700" text-anchor="start" font-family="-apple-system, BlinkMacSystemFont, 'Segoe UI', 'Inter', Helvetica, Arial, sans-serif">6×</text></svg>