<svg viewBox="0 0 1180 500" xmlns="http://www.w3.org/2000/svg" font-family="-apple-system, BlinkMacSystemFont, 'Segoe UI', 'Inter', Helvetica, Arial, sans-serif"><defs><marker id="sh" markerWidth="9" markerHeight="9" refX="6.5" refY="4.5" orient="auto"><path d="M0,0 L0,9 L8,4.5 z" fill="#64748b"/></marker></defs><rect width="1180" height="500" rx="16" fill="#ffffff"/><line x1="564.0" y1="34.0" x2="564.0" y2="474.0" stroke="#e2e8f0" stroke-width="1.4"/><text x="24" y="28" fill="#64748b" font-size="14.5" font-weight="600" text-anchor="start" font-family="-apple-system, BlinkMacSystemFont, 'Segoe UI', 'Inter', Helvetica, Arial, sans-serif">THE SEPARATION</text><text x="172" y="28" fill="#94a3b8" font-size="12.5" font-weight="400" text-anchor="start" font-family="-apple-system, BlinkMacSystemFont, 'Segoe UI', 'Inter', Helvetica, Arial, sans-serif">fitted τ_inh, Control vs PD</text><line x1="84.0" y1="400.0" x2="540.0" y2="400.0" stroke="#cbd5e1" stroke-width="1.4"/><line x1="112.5" y1="400.0" x2="112.5" y2="405.0" stroke="#cbd5e1" stroke-width="1.2"/><text x="112.5" y="421" fill="#64748b" font-size="12.5" font-weight="400" text-anchor="middle" font-family="-apple-system, BlinkMacSystemFont, 'Segoe UI', 'Inter', Helvetica, Arial, sans-serif">12</text><line x1="226.5" y1="400.0" x2="226.5" y2="405.0" stroke="#cbd5e1" stroke-width="1.2"/><text x="226.5" y="421" fill="#64748b" font-size="12.5" font-weight="400" text-anchor="middle" font-family="-apple-system, BlinkMacSystemFont, 'Segoe UI', 'Inter', Helvetica, Arial, sans-serif">16</text><line x1="340.5" y1="400.0" x2="340.5" y2="405.0" stroke="#cbd5e1" stroke-width="1.2"/><text x="340.5" y="421" fill="#64748b" font-size="12.5" font-weight="400" text-anchor="middle" font-family="-apple-system, BlinkMacSystemFont, 'Segoe UI', 'Inter', Helvetica, Arial, sans-serif">20</text><line x1="454.5" y1="400.0" x2="454.5" y2="405.0" stroke="#cbd5e1" stroke-width="1.2"/><text x="454.5" y="421" fill="#64748b" font-size="12.5" font-weight="400" text-anchor="middle" font-family="-apple-system, BlinkMacSystemFont, 'Segoe UI', 'Inter', Helvetica, Arial, sans-serif">24</text><text x="312.0" y="442" fill="#334155" font-size="13.5" font-weight="500" text-anchor="middle" font-family="-apple-system, BlinkMacSystemFont, 'Segoe UI', 'Inter', Helvetica, Arial, sans-serif">fitted τ_inh (ms)</text><path d="M 84.0 400.0 L 84.0 380.3 L 85.9 379.3 L 87.8 378.3 L 89.7 377.4 L 91.6 376.5 L 93.5 375.6 L 95.4 374.7 L 97.4 373.8 L 99.3 373.0 L 101.2 372.2 L 103.1 371.4 L 105.0 370.7 L 106.9 370.0 L 108.8 369.3 L 110.7 368.7 L 112.6 368.1 L 114.5 367.5 L 116.4 367.0 L 118.3 366.4 L 120.3 365.9 L 122.2 365.4 L 124.1 364.9 L 126.0 364.4 L 127.9 363.9 L 129.8 363.4 L 131.7 362.8 L 133.6 362.1 L 135.5 361.4 L 137.4 360.7 L 139.3 359.8 L 141.2 358.8 L 143.1 357.8 L 145.1 356.6 L 147.0 355.2 L 148.9 353.7 L 150.8 352.1 L 152.7 350.2 L 154.6 348.2 L 156.5 346.0 L 158.4 343.5 L 160.3 340.9 L 162.2 338.0 L 164.1 334.9 L 166.0 331.6 L 167.9 328.0 L 169.9 324.2 L 171.8 320.1 L 173.7 315.8 L 175.6 311.3 L 177.5 306.6 L 179.4 301.6 L 181.3 296.4 L 183.2 291.1 L 185.1 285.5 L 187.0 279.8 L 188.9 273.9 L 190.8 267.9 L 192.8 261.7 L 194.7 255.5 L 196.6 249.2 L 198.5 242.8 L 200.4 236.4 L 202.3 230.0 L 204.2 223.6 L 206.1 217.3 L 208.0 211.0 L 209.9 204.8 L 211.8 198.7 L 213.7 192.8 L 215.6 187.1 L 217.6 181.5 L 219.5 176.1 L 221.4 171.0 L 223.3 166.1 L 225.2 161.4 L 227.1 157.1 L 229.0 153.0 L 230.9 149.2 L 232.8 145.8 L 234.7 142.7 L 236.6 139.9 L 238.5 137.5 L 240.5 135.4 L 242.4 133.6 L 244.3 132.2 L 246.2 131.1 L 248.1 130.4 L 250.0 130.0 L 251.9 130.0 L 253.8 130.3 L 255.7 130.9 L 257.6 131.8 L 259.5 133.0 L 261.4 134.6 L 263.3 136.4 L 265.3 138.4 L 267.2 140.7 L 269.1 143.2 L 271.0 146.0 L 272.9 148.9 L 274.8 152.0 L 276.7 155.3 L 278.6 158.7 L 280.5 162.2 L 282.4 165.8 L 284.3 169.5 L 286.2 173.2 L 288.2 176.9 L 290.1 180.6 L 292.0 184.3 L 293.9 187.9 L 295.8 191.5 L 297.7 195.0 L 299.6 198.3 L 301.5 201.5 L 303.4 204.6 L 305.3 207.5 L 307.2 210.2 L 309.1 212.7 L 311.0 214.9 L 313.0 217.0 L 314.9 218.8 L 316.8 220.4 L 318.7 221.8 L 320.6 222.9 L 322.5 223.8 L 324.4 224.5 L 326.3 224.9 L 328.2 225.2 L 330.1 225.2 L 332.0 225.1 L 333.9 224.9 L 335.8 224.4 L 337.8 223.9 L 339.7 223.3 L 341.6 222.5 L 343.5 221.8 L 345.4 221.0 L 347.3 220.1 L 349.2 219.3 L 351.1 218.6 L 353.0 217.8 L 354.9 217.2 L 356.8 216.6 L 358.7 216.2 L 360.7 215.8 L 362.6 215.7 L 364.5 215.6 L 366.4 215.7 L 368.3 216.0 L 370.2 216.5 L 372.1 217.1 L 374.0 217.9 L 375.9 218.9 L 377.8 220.1 L 379.7 221.4 L 381.6 222.9 L 383.5 224.6 L 385.5 226.4 L 387.4 228.4 L 389.3 230.5 L 391.2 232.7 L 393.1 235.1 L 395.0 237.6 L 396.9 240.2 L 398.8 242.8 L 400.7 245.6 L 402.6 248.4 L 404.5 251.2 L 406.4 254.1 L 408.4 257.1 L 410.3 260.1 L 412.2 263.0 L 414.1 266.0 L 416.0 269.0 L 417.9 272.0 L 419.8 274.9 L 421.7 277.8 L 423.6 280.7 L 425.5 283.5 L 427.4 286.2 L 429.3 288.9 L 431.2 291.5 L 433.2 294.0 L 435.1 296.4 L 437.0 298.7 L 438.9 300.9 L 440.8 302.9 L 442.7 304.8 L 444.6 306.6 L 446.5 308.3 L 448.4 309.8 L 450.3 311.2 L 452.2 312.4 L 454.1 313.5 L 456.1 314.4 L 458.0 315.2 L 459.9 315.9 L 461.8 316.4 L 463.7 316.7 L 465.6 317.0 L 467.5 317.1 L 469.4 317.1 L 471.3 317.0 L 473.2 316.9 L 475.1 316.7 L 477.0 316.4 L 478.9 316.0 L 480.9 315.7 L 482.8 315.3 L 484.7 314.9 L 486.6 314.5 L 488.5 314.2 L 490.4 313.9 L 492.3 313.7 L 494.2 313.5 L 496.1 313.4 L 498.0 313.5 L 499.9 313.6 L 501.8 313.8 L 503.7 314.2 L 505.7 314.7 L 507.6 315.3 L 509.5 316.1 L 511.4 317.0 L 513.3 318.0 L 515.2 319.2 L 517.1 320.5 L 519.0 322.0 L 520.9 323.6 L 522.8 325.3 L 524.7 327.1 L 526.6 329.0 L 528.6 331.0 L 530.5 333.2 L 532.4 335.3 L 534.3 337.6 L 536.2 339.9 L 538.1 342.2 L 540.0 344.6 L 540.0 400.0 Z" fill="#185FA5" fill-opacity="0.16"/><path d="M 84.0 380.3 L 85.9 379.3 L 87.8 378.3 L 89.7 377.4 L 91.6 376.5 L 93.5 375.6 L 95.4 374.7 L 97.4 373.8 L 99.3 373.0 L 101.2 372.2 L 103.1 371.4 L 105.0 370.7 L 106.9 370.0 L 108.8 369.3 L 110.7 368.7 L 112.6 368.1 L 114.5 367.5 L 116.4 367.0 L 118.3 366.4 L 120.3 365.9 L 122.2 365.4 L 124.1 364.9 L 126.0 364.4 L 127.9 363.9 L 129.8 363.4 L 131.7 362.8 L 133.6 362.1 L 135.5 361.4 L 137.4 360.7 L 139.3 359.8 L 141.2 358.8 L 143.1 357.8 L 145.1 356.6 L 147.0 355.2 L 148.9 353.7 L 150.8 352.1 L 152.7 350.2 L 154.6 348.2 L 156.5 346.0 L 158.4 343.5 L 160.3 340.9 L 162.2 338.0 L 164.1 334.9 L 166.0 331.6 L 167.9 328.0 L 169.9 324.2 L 171.8 320.1 L 173.7 315.8 L 175.6 311.3 L 177.5 306.6 L 179.4 301.6 L 181.3 296.4 L 183.2 291.1 L 185.1 285.5 L 187.0 279.8 L 188.9 273.9 L 190.8 267.9 L 192.8 261.7 L 194.7 255.5 L 196.6 249.2 L 198.5 242.8 L 200.4 236.4 L 202.3 230.0 L 204.2 223.6 L 206.1 217.3 L 208.0 211.0 L 209.9 204.8 L 211.8 198.7 L 213.7 192.8 L 215.6 187.1 L 217.6 181.5 L 219.5 176.1 L 221.4 171.0 L 223.3 166.1 L 225.2 161.4 L 227.1 157.1 L 229.0 153.0 L 230.9 149.2 L 232.8 145.8 L 234.7 142.7 L 236.6 139.9 L 238.5 137.5 L 240.5 135.4 L 242.4 133.6 L 244.3 132.2 L 246.2 131.1 L 248.1 130.4 L 250.0 130.0 L 251.9 130.0 L 253.8 130.3 L 255.7 130.9 L 257.6 131.8 L 259.5 133.0 L 261.4 134.6 L 263.3 136.4 L 265.3 138.4 L 267.2 140.7 L 269.1 143.2 L 271.0 146.0 L 272.9 148.9 L 274.8 152.0 L 276.7 155.3 L 278.6 158.7 L 280.5 162.2 L 282.4 165.8 L 284.3 169.5 L 286.2 173.2 L 288.2 176.9 L 290.1 180.6 L 292.0 184.3 L 293.9 187.9 L 295.8 191.5 L 297.7 195.0 L 299.6 198.3 L 301.5 201.5 L 303.4 204.6 L 305.3 207.5 L 307.2 210.2 L 309.1 212.7 L 311.0 214.9 L 313.0 217.0 L 314.9 218.8 L 316.8 220.4 L 318.7 221.8 L 320.6 222.9 L 322.5 223.8 L 324.4 224.5 L 326.3 224.9 L 328.2 225.2 L 330.1 225.2 L 332.0 225.1 L 333.9 224.9 L 335.8 224.4 L 337.8 223.9 L 339.7 223.3 L 341.6 222.5 L 343.5 221.8 L 345.4 221.0 L 347.3 220.1 L 349.2 219.3 L 351.1 218.6 L 353.0 217.8 L 354.9 217.2 L 356.8 216.6 L 358.7 216.2 L 360.7 215.8 L 362.6 215.7 L 364.5 215.6 L 366.4 215.7 L 368.3 216.0 L 370.2 216.5 L 372.1 217.1 L 374.0 217.9 L 375.9 218.9 L 377.8 220.1 L 379.7 221.4 L 381.6 222.9 L 383.5 224.6 L 385.5 226.4 L 387.4 228.4 L 389.3 230.5 L 391.2 232.7 L 393.1 235.1 L 395.0 237.6 L 396.9 240.2 L 398.8 242.8 L 400.7 245.6 L 402.6 248.4 L 404.5 251.2 L 406.4 254.1 L 408.4 257.1 L 410.3 260.1 L 412.2 263.0 L 414.1 266.0 L 416.0 269.0 L 417.9 272.0 L 419.8 274.9 L 421.7 277.8 L 423.6 280.7 L 425.5 283.5 L 427.4 286.2 L 429.3 288.9 L 431.2 291.5 L 433.2 294.0 L 435.1 296.4 L 437.0 298.7 L 438.9 300.9 L 440.8 302.9 L 442.7 304.8 L 444.6 306.6 L 446.5 308.3 L 448.4 309.8 L 450.3 311.2 L 452.2 312.4 L 454.1 313.5 L 456.1 314.4 L 458.0 315.2 L 459.9 315.9 L 461.8 316.4 L 463.7 316.7 L 465.6 317.0 L 467.5 317.1 L 469.4 317.1 L 471.3 317.0 L 473.2 316.9 L 475.1 316.7 L 477.0 316.4 L 478.9 316.0 L 480.9 315.7 L 482.8 315.3 L 484.7 314.9 L 486.6 314.5 L 488.5 314.2 L 490.4 313.9 L 492.3 313.7 L 494.2 313.5 L 496.1 313.4 L 498.0 313.5 L 499.9 313.6 L 501.8 313.8 L 503.7 314.2 L 505.7 314.7 L 507.6 315.3 L 509.5 316.1 L 511.4 317.0 L 513.3 318.0 L 515.2 319.2 L 517.1 320.5 L 519.0 322.0 L 520.9 323.6 L 522.8 325.3 L 524.7 327.1 L 526.6 329.0 L 528.6 331.0 L 530.5 333.2 L 532.4 335.3 L 534.3 337.6 L 536.2 339.9 L 538.1 342.2 L 540.0 344.6" fill="none" stroke="#185FA5" stroke-width="2.6"/><path d="M 84.0 400.0 L 84.0 380.7 L 85.9 379.9 L 87.8 379.1 L 89.7 378.2 L 91.6 377.4 L 93.5 376.6 L 95.4 375.7 L 97.4 374.9 L 99.3 374.1 L 101.2 373.3 L 103.1 372.5 L 105.0 371.7 L 106.9 370.9 L 108.8 370.2 L 110.7 369.4 L 112.6 368.7 L 114.5 368.0 L 116.4 367.3 L 118.3 366.6 L 120.3 365.9 L 122.2 365.3 L 124.1 364.6 L 126.0 364.0 L 127.9 363.4 L 129.8 362.8 L 131.7 362.2 L 133.6 361.6 L 135.5 361.0 L 137.4 360.4 L 139.3 359.9 L 141.2 359.3 L 143.1 358.7 L 145.1 358.1 L 147.0 357.5 L 148.9 356.9 L 150.8 356.3 L 152.7 355.6 L 154.6 355.0 L 156.5 354.3 L 158.4 353.5 L 160.3 352.8 L 162.2 352.0 L 164.1 351.1 L 166.0 350.2 L 167.9 349.3 L 169.9 348.3 L 171.8 347.3 L 173.7 346.2 L 175.6 345.1 L 177.5 343.9 L 179.4 342.6 L 181.3 341.3 L 183.2 339.9 L 185.1 338.5 L 187.0 337.0 L 188.9 335.5 L 190.8 333.9 L 192.8 332.2 L 194.7 330.5 L 196.6 328.7 L 198.5 326.9 L 200.4 325.1 L 202.3 323.2 L 204.2 321.3 L 206.1 319.4 L 208.0 317.4 L 209.9 315.4 L 211.8 313.4 L 213.7 311.4 L 215.6 309.4 L 217.6 307.4 L 219.5 305.4 L 221.4 303.5 L 223.3 301.5 L 225.2 299.7 L 227.1 297.8 L 229.0 296.0 L 230.9 294.2 L 232.8 292.6 L 234.7 290.9 L 236.6 289.4 L 238.5 287.9 L 240.5 286.5 L 242.4 285.2 L 244.3 283.9 L 246.2 282.8 L 248.1 281.8 L 250.0 280.8 L 251.9 279.9 L 253.8 279.1 L 255.7 278.4 L 257.6 277.8 L 259.5 277.3 L 261.4 276.9 L 263.3 276.5 L 265.3 276.2 L 267.2 276.0 L 269.1 275.8 L 271.0 275.7 L 272.9 275.6 L 274.8 275.5 L 276.7 275.5 L 278.6 275.5 L 280.5 275.5 L 282.4 275.5 L 284.3 275.5 L 286.2 275.4 L 288.2 275.3 L 290.1 275.2 L 292.0 275.0 L 293.9 274.7 L 295.8 274.4 L 297.7 274.0 L 299.6 273.5 L 301.5 272.9 L 303.4 272.2 L 305.3 271.4 L 307.2 270.5 L 309.1 269.4 L 311.0 268.3 L 313.0 267.0 L 314.9 265.6 L 316.8 264.0 L 318.7 262.4 L 320.6 260.6 L 322.5 258.7 L 324.4 256.7 L 326.3 254.7 L 328.2 252.5 L 330.1 250.2 L 332.0 247.8 L 333.9 245.4 L 335.8 243.0 L 337.8 240.5 L 339.7 237.9 L 341.6 235.4 L 343.5 232.8 L 345.4 230.2 L 347.3 227.7 L 349.2 225.2 L 351.1 222.8 L 353.0 220.4 L 354.9 218.2 L 356.8 216.0 L 358.7 213.9 L 360.7 211.9 L 362.6 210.1 L 364.5 208.4 L 366.4 206.9 L 368.3 205.5 L 370.2 204.3 L 372.1 203.2 L 374.0 202.4 L 375.9 201.7 L 377.8 201.3 L 379.7 201.0 L 381.6 200.9 L 383.5 201.0 L 385.5 201.4 L 387.4 201.9 L 389.3 202.6 L 391.2 203.5 L 393.1 204.6 L 395.0 205.8 L 396.9 207.2 L 398.8 208.8 L 400.7 210.6 L 402.6 212.4 L 404.5 214.5 L 406.4 216.6 L 408.4 218.8 L 410.3 221.2 L 412.2 223.6 L 414.1 226.1 L 416.0 228.6 L 417.9 231.2 L 419.8 233.8 L 421.7 236.4 L 423.6 238.9 L 425.5 241.5 L 427.4 244.0 L 429.3 246.4 L 431.2 248.8 L 433.2 251.1 L 435.1 253.2 L 437.0 255.3 L 438.9 257.2 L 440.8 258.9 L 442.7 260.5 L 444.6 261.9 L 446.5 263.0 L 448.4 264.0 L 450.3 264.8 L 452.2 265.4 L 454.1 265.7 L 456.1 265.8 L 458.0 265.7 L 459.9 265.3 L 461.8 264.7 L 463.7 263.9 L 465.6 262.8 L 467.5 261.5 L 469.4 260.0 L 471.3 258.3 L 473.2 256.4 L 475.1 254.3 L 477.0 252.1 L 478.9 249.7 L 480.9 247.2 L 482.8 244.6 L 484.7 241.9 L 486.6 239.1 L 488.5 236.3 L 490.4 233.4 L 492.3 230.6 L 494.2 227.8 L 496.1 225.1 L 498.0 222.5 L 499.9 219.9 L 501.8 217.5 L 503.7 215.3 L 505.7 213.2 L 507.6 211.3 L 509.5 209.7 L 511.4 208.3 L 513.3 207.2 L 515.2 206.4 L 517.1 205.8 L 519.0 205.5 L 520.9 205.6 L 522.8 206.0 L 524.7 206.7 L 526.6 207.7 L 528.6 209.1 L 530.5 210.8 L 532.4 212.8 L 534.3 215.1 L 536.2 217.8 L 538.1 220.7 L 540.0 223.9 L 540.0 400.0 Z" fill="#a8431f" fill-opacity="0.16"/><path d="M 84.0 380.7 L 85.9 379.9 L 87.8 379.1 L 89.7 378.2 L 91.6 377.4 L 93.5 376.6 L 95.4 375.7 L 97.4 374.9 L 99.3 374.1 L 101.2 373.3 L 103.1 372.5 L 105.0 371.7 L 106.9 370.9 L 108.8 370.2 L 110.7 369.4 L 112.6 368.7 L 114.5 368.0 L 116.4 367.3 L 118.3 366.6 L 120.3 365.9 L 122.2 365.3 L 124.1 364.6 L 126.0 364.0 L 127.9 363.4 L 129.8 362.8 L 131.7 362.2 L 133.6 361.6 L 135.5 361.0 L 137.4 360.4 L 139.3 359.9 L 141.2 359.3 L 143.1 358.7 L 145.1 358.1 L 147.0 357.5 L 148.9 356.9 L 150.8 356.3 L 152.7 355.6 L 154.6 355.0 L 156.5 354.3 L 158.4 353.5 L 160.3 352.8 L 162.2 352.0 L 164.1 351.1 L 166.0 350.2 L 167.9 349.3 L 169.9 348.3 L 171.8 347.3 L 173.7 346.2 L 175.6 345.1 L 177.5 343.9 L 179.4 342.6 L 181.3 341.3 L 183.2 339.9 L 185.1 338.5 L 187.0 337.0 L 188.9 335.5 L 190.8 333.9 L 192.8 332.2 L 194.7 330.5 L 196.6 328.7 L 198.5 326.9 L 200.4 325.1 L 202.3 323.2 L 204.2 321.3 L 206.1 319.4 L 208.0 317.4 L 209.9 315.4 L 211.8 313.4 L 213.7 311.4 L 215.6 309.4 L 217.6 307.4 L 219.5 305.4 L 221.4 303.5 L 223.3 301.5 L 225.2 299.7 L 227.1 297.8 L 229.0 296.0 L 230.9 294.2 L 232.8 292.6 L 234.7 290.9 L 236.6 289.4 L 238.5 287.9 L 240.5 286.5 L 242.4 285.2 L 244.3 283.9 L 246.2 282.8 L 248.1 281.8 L 250.0 280.8 L 251.9 279.9 L 253.8 279.1 L 255.7 278.4 L 257.6 277.8 L 259.5 277.3 L 261.4 276.9 L 263.3 276.5 L 265.3 276.2 L 267.2 276.0 L 269.1 275.8 L 271.0 275.7 L 272.9 275.6 L 274.8 275.5 L 276.7 275.5 L 278.6 275.5 L 280.5 275.5 L 282.4 275.5 L 284.3 275.5 L 286.2 275.4 L 288.2 275.3 L 290.1 275.2 L 292.0 275.0 L 293.9 274.7 L 295.8 274.4 L 297.7 274.0 L 299.6 273.5 L 301.5 272.9 L 303.4 272.2 L 305.3 271.4 L 307.2 270.5 L 309.1 269.4 L 311.0 268.3 L 313.0 267.0 L 314.9 265.6 L 316.8 264.0 L 318.7 262.4 L 320.6 260.6 L 322.5 258.7 L 324.4 256.7 L 326.3 254.7 L 328.2 252.5 L 330.1 250.2 L 332.0 247.8 L 333.9 245.4 L 335.8 243.0 L 337.8 240.5 L 339.7 237.9 L 341.6 235.4 L 343.5 232.8 L 345.4 230.2 L 347.3 227.7 L 349.2 225.2 L 351.1 222.8 L 353.0 220.4 L 354.9 218.2 L 356.8 216.0 L 358.7 213.9 L 360.7 211.9 L 362.6 210.1 L 364.5 208.4 L 366.4 206.9 L 368.3 205.5 L 370.2 204.3 L 372.1 203.2 L 374.0 202.4 L 375.9 201.7 L 377.8 201.3 L 379.7 201.0 L 381.6 200.9 L 383.5 201.0 L 385.5 201.4 L 387.4 201.9 L 389.3 202.6 L 391.2 203.5 L 393.1 204.6 L 395.0 205.8 L 396.9 207.2 L 398.8 208.8 L 400.7 210.6 L 402.6 212.4 L 404.5 214.5 L 406.4 216.6 L 408.4 218.8 L 410.3 221.2 L 412.2 223.6 L 414.1 226.1 L 416.0 228.6 L 417.9 231.2 L 419.8 233.8 L 421.7 236.4 L 423.6 238.9 L 425.5 241.5 L 427.4 244.0 L 429.3 246.4 L 431.2 248.8 L 433.2 251.1 L 435.1 253.2 L 437.0 255.3 L 438.9 257.2 L 440.8 258.9 L 442.7 260.5 L 444.6 261.9 L 446.5 263.0 L 448.4 264.0 L 450.3 264.8 L 452.2 265.4 L 454.1 265.7 L 456.1 265.8 L 458.0 265.7 L 459.9 265.3 L 461.8 264.7 L 463.7 263.9 L 465.6 262.8 L 467.5 261.5 L 469.4 260.0 L 471.3 258.3 L 473.2 256.4 L 475.1 254.3 L 477.0 252.1 L 478.9 249.7 L 480.9 247.2 L 482.8 244.6 L 484.7 241.9 L 486.6 239.1 L 488.5 236.3 L 490.4 233.4 L 492.3 230.6 L 494.2 227.8 L 496.1 225.1 L 498.0 222.5 L 499.9 219.9 L 501.8 217.5 L 503.7 215.3 L 505.7 213.2 L 507.6 211.3 L 509.5 209.7 L 511.4 208.3 L 513.3 207.2 L 515.2 206.4 L 517.1 205.8 L 519.0 205.5 L 520.9 205.6 L 522.8 206.0 L 524.7 206.7 L 526.6 207.7 L 528.6 209.1 L 530.5 210.8 L 532.4 212.8 L 534.3 215.1 L 536.2 217.8 L 538.1 220.7 L 540.0 223.9" fill="none" stroke="#a8431f" stroke-width="2.6"/><line x1="290.6" y1="400.0" x2="290.6" y2="122.0" stroke="#185FA5" stroke-width="1.6" stroke-dasharray="4 3"/><line x1="383.2" y1="400.0" x2="383.2" y2="122.0" stroke="#a8431f" stroke-width="1.6" stroke-dasharray="4 3"/><line x1="293.6" y1="118.0" x2="380.2" y2="118.0" stroke="#64748b" stroke-width="1.8" marker-end="url(#sh)"/><text x="336.9375" y="111" fill="#64748b" font-size="13" font-weight="700" text-anchor="middle" font-family="-apple-system, BlinkMacSystemFont, 'Segoe UI', 'Inter', Helvetica, Arial, sans-serif">+3.25 ms</text><rect x="94" y="110" width="15" height="4.5" rx="2" fill="#185FA5"/><text x="116" y="118" fill="#185FA5" font-size="12.5" font-weight="600" text-anchor="start" font-family="-apple-system, BlinkMacSystemFont, 'Segoe UI', 'Inter', Helvetica, Arial, sans-serif">Control</text><rect x="94" y="128" width="15" height="4.5" rx="2" fill="#a8431f"/><text x="116" y="136" fill="#a8431f" font-size="12.5" font-weight="600" text-anchor="start" font-family="-apple-system, BlinkMacSystemFont, 'Segoe UI', 'Inter', Helvetica, Arial, sans-serif">PD</text><text x="24" y="458" fill="#334155" font-size="13" font-weight="500" text-anchor="start" font-family="-apple-system, BlinkMacSystemFont, 'Segoe UI', 'Inter', Helvetica, Arial, sans-serif">Control 18.25 vs PD 21.5 ms at the median.</text><text x="24" y="478" fill="#64748b" font-size="12.5" font-weight="400" text-anchor="start" font-family="-apple-system, BlinkMacSystemFont, 'Segoe UI', 'Inter', Helvetica, Arial, sans-serif">The distributions overlap: a random PD is higher ≈ 68% of the time.</text><text x="588" y="28" fill="#64748b" font-size="14.5" font-weight="600" text-anchor="start" font-family="-apple-system, BlinkMacSystemFont, 'Segoe UI', 'Inter', Helvetica, Arial, sans-serif">PARAMETER RECOVERY</text><text x="788" y="28" fill="#94a3b8" font-size="12.5" font-weight="400" text-anchor="start" font-family="-apple-system, BlinkMacSystemFont, 'Segoe UI', 'Inter', Helvetica, Arial, sans-serif">put a known τ in, fit it back</text><line x1="636.0" y1="400.0" x2="912.0" y2="110.0" stroke="#cbd5e1" stroke-width="1.8" stroke-dasharray="5 4"/><text x="654.4" y="219.55555555555554" fill="#94a3b8" font-size="11.5" font-weight="400" text-anchor="start" font-family="-apple-system, BlinkMacSystemFont, 'Segoe UI', 'Inter', Helvetica, Arial, sans-serif">on the line =</text><text x="654.4" y="242.1111111111111" fill="#94a3b8" font-size="11.5" font-weight="400" text-anchor="start" font-family="-apple-system, BlinkMacSystemFont, 'Segoe UI', 'Inter', Helvetica, Arial, sans-serif">recovered exactly</text><line x1="636.0" y1="400.0" x2="912.0" y2="400.0" stroke="#cbd5e1" stroke-width="1.4"/><line x1="636.0" y1="110.0" x2="636.0" y2="400.0" stroke="#cbd5e1" stroke-width="1.4"/><line x1="651.3" y1="400.0" x2="651.3" y2="405.0" stroke="#cbd5e1" stroke-width="1.2"/><text x="651.3333333333334" y="420" fill="#94a3b8" font-size="12" font-weight="400" text-anchor="middle" font-family="-apple-system, BlinkMacSystemFont, 'Segoe UI', 'Inter', Helvetica, Arial, sans-serif">12</text><line x1="631.0" y1="383.9" x2="636.0" y2="383.9" stroke="#cbd5e1" stroke-width="1.2"/><text x="627" y="387.8888888888889" fill="#94a3b8" font-size="12" font-weight="400" text-anchor="end" font-family="-apple-system, BlinkMacSystemFont, 'Segoe UI', 'Inter', Helvetica, Arial, sans-serif">12</text><line x1="712.7" y1="400.0" x2="712.7" y2="405.0" stroke="#cbd5e1" stroke-width="1.2"/><text x="712.6666666666666" y="420" fill="#94a3b8" font-size="12" font-weight="400" text-anchor="middle" font-family="-apple-system, BlinkMacSystemFont, 'Segoe UI', 'Inter', Helvetica, Arial, sans-serif">16</text><line x1="631.0" y1="319.4" x2="636.0" y2="319.4" stroke="#cbd5e1" stroke-width="1.2"/><text x="627" y="323.44444444444446" fill="#94a3b8" font-size="12" font-weight="400" text-anchor="end" font-family="-apple-system, BlinkMacSystemFont, 'Segoe UI', 'Inter', Helvetica, Arial, sans-serif">16</text><line x1="774.0" y1="400.0" x2="774.0" y2="405.0" stroke="#cbd5e1" stroke-width="1.2"/><text x="774.0" y="420" fill="#94a3b8" font-size="12" font-weight="400" text-anchor="middle" font-family="-apple-system, BlinkMacSystemFont, 'Segoe UI', 'Inter', Helvetica, Arial, sans-serif">20</text><line x1="631.0" y1="255.0" x2="636.0" y2="255.0" stroke="#cbd5e1" stroke-width="1.2"/><text x="627" y="259.0" fill="#94a3b8" font-size="12" font-weight="400" text-anchor="end" font-family="-apple-system, BlinkMacSystemFont, 'Segoe UI', 'Inter', Helvetica, Arial, sans-serif">20</text><line x1="835.3" y1="400.0" x2="835.3" y2="405.0" stroke="#cbd5e1" stroke-width="1.2"/><text x="835.3333333333334" y="420" fill="#94a3b8" font-size="12" font-weight="400" text-anchor="middle" font-family="-apple-system, BlinkMacSystemFont, 'Segoe UI', 'Inter', Helvetica, Arial, sans-serif">24</text><line x1="631.0" y1="190.6" x2="636.0" y2="190.6" stroke="#cbd5e1" stroke-width="1.2"/><text x="627" y="194.55555555555557" fill="#94a3b8" font-size="12" font-weight="400" text-anchor="end" font-family="-apple-system, BlinkMacSystemFont, 'Segoe UI', 'Inter', Helvetica, Arial, sans-serif">24</text><line x1="896.7" y1="400.0" x2="896.7" y2="405.0" stroke="#cbd5e1" stroke-width="1.2"/><text x="896.6666666666667" y="420" fill="#94a3b8" font-size="12" font-weight="400" text-anchor="middle" font-family="-apple-system, BlinkMacSystemFont, 'Segoe UI', 'Inter', Helvetica, Arial, sans-serif">28</text><line x1="631.0" y1="126.1" x2="636.0" y2="126.1" stroke="#cbd5e1" stroke-width="1.2"/><text x="627" y="130.11111111111114" fill="#94a3b8" font-size="12" font-weight="400" text-anchor="end" font-family="-apple-system, BlinkMacSystemFont, 'Segoe UI', 'Inter', Helvetica, Arial, sans-serif">28</text><text x="774.0" y="442" fill="#334155" font-size="13.5" font-weight="500" text-anchor="middle" font-family="-apple-system, BlinkMacSystemFont, 'Segoe UI', 'Inter', Helvetica, Arial, sans-serif">τ we put in (ms)</text><text x="594" y="255.0" fill="#334155" font-size="13.5" font-weight="500" text-anchor="middle" font-family="-apple-system, BlinkMacSystemFont, 'Segoe UI', 'Inter', Helvetica, Arial, sans-serif" transform="rotate(-90 594 255)">τ we got back (ms)</text><circle cx="651.3" cy="383.9" r="5.2" fill="#185FA5" fill-opacity="0.85"/><circle cx="662.8" cy="375.8" r="5.2" fill="#185FA5" fill-opacity="0.85"/><circle cx="674.3" cy="367.8" r="5.2" fill="#185FA5" fill-opacity="0.85"/><circle cx="685.8" cy="351.7" r="5.2" fill="#185FA5" fill-opacity="0.85"/><circle cx="697.3" cy="343.6" r="5.2" fill="#185FA5" fill-opacity="0.85"/><circle cx="708.8" cy="319.4" r="5.2" fill="#185FA5" fill-opacity="0.85"/><circle cx="720.3" cy="311.4" r="5.2" fill="#185FA5" fill-opacity="0.85"/><circle cx="731.8" cy="295.3" r="5.2" fill="#185FA5" fill-opacity="0.85"/><circle cx="743.3" cy="295.3" r="5.2" fill="#185FA5" fill-opacity="0.85"/><circle cx="754.8" cy="279.2" r="5.2" fill="#185FA5" fill-opacity="0.85"/><circle cx="766.3" cy="279.2" r="5.2" fill="#185FA5" fill-opacity="0.85"/><circle cx="777.8" cy="238.9" r="5.2" fill="#185FA5" fill-opacity="0.85"/><circle cx="789.3" cy="238.9" r="5.2" fill="#185FA5" fill-opacity="0.85"/><circle cx="800.8" cy="230.8" r="5.2" fill="#185FA5" fill-opacity="0.85"/><circle cx="812.3" cy="230.8" r="5.2" fill="#185FA5" fill-opacity="0.85"/><circle cx="823.8" cy="206.7" r="5.2" fill="#185FA5" fill-opacity="0.85"/><circle cx="835.3" cy="206.7" r="5.2" fill="#185FA5" fill-opacity="0.85"/><circle cx="846.8" cy="150.3" r="5.2" fill="#185FA5" fill-opacity="0.85"/><circle cx="858.3" cy="150.3" r="5.2" fill="#185FA5" fill-opacity="0.85"/><circle cx="869.8" cy="150.3" r="5.2" fill="#185FA5" fill-opacity="0.85"/><circle cx="881.3" cy="142.2" r="5.2" fill="#185FA5" fill-opacity="0.85"/><circle cx="892.8" cy="142.2" r="5.2" fill="#185FA5" fill-opacity="0.85"/><text x="940" y="244" fill="#0f172a" font-size="16" font-weight="600" text-anchor="start" font-family="-apple-system, BlinkMacSystemFont, 'Segoe UI', 'Inter', Helvetica, Arial, sans-serif">The fit is unbiased.</text><text x="940" y="276" fill="#334155" font-size="13.5" font-weight="400" text-anchor="start" font-family="-apple-system, BlinkMacSystemFont, 'Segoe UI', 'Inter', Helvetica, Arial, sans-serif">mean error  −0.1 ms</text><text x="940" y="300" fill="#334155" font-size="13.5" font-weight="400" text-anchor="start" font-family="-apple-system, BlinkMacSystemFont, 'Segoe UI', 'Inter', Helvetica, Arial, sans-serif">typical error  ±0.5 ms</text></svg>