<svg viewBox="0 0 560 400" xmlns="http://www.w3.org/2000/svg" font-family="-apple-system, BlinkMacSystemFont, 'Segoe UI', 'Inter', Helvetica, Arial, sans-serif"><rect x="0" y="0" width="560" height="400" rx="18" fill="#ffffff"/><text x="40" y="52" fill="#0f172a" font-size="22.8" font-weight="500" text-anchor="start">Fitted inhibitory time constant</text><text x="40" y="76" fill="#94a3b8" font-size="15.6" font-weight="400" text-anchor="start">the model parameter we change for a patient</text><text x="40" y="99" fill="#64748b" font-size="15.0" font-weight="400" text-anchor="start">fitting recovers tau to ±0.5 ms, far below this group gap</text><line x1="210" y1="318.5" x2="210" y2="151.5" stroke="#185FA5" stroke-width="1.4"/><rect x="179.0" y="214.8" width="62" height="51.8" rx="5" fill="#3f8ddc" fill-opacity="0.30" stroke="#185FA5" stroke-width="1.6"/><line x1="179.0" y1="246.5" x2="241.0" y2="246.5" stroke="#0f172a" stroke-width="2.4"/><circle cx="213.5" cy="318.5" r="2.4" fill="#185FA5" fill-opacity="0.40"/><circle cx="200.3" cy="266.7" r="2.4" fill="#185FA5" fill-opacity="0.40"/><circle cx="202.3" cy="214.8" r="2.4" fill="#185FA5" fill-opacity="0.40"/><circle cx="164.6" cy="278.2" r="2.4" fill="#185FA5" fill-opacity="0.40"/><circle cx="243.5" cy="191.8" r="2.4" fill="#185FA5" fill-opacity="0.40"/><circle cx="231.3" cy="223.5" r="2.4" fill="#185FA5" fill-opacity="0.40"/><circle cx="203.9" cy="278.2" r="2.4" fill="#185FA5" fill-opacity="0.40"/><circle cx="224.4" cy="272.4" r="2.4" fill="#185FA5" fill-opacity="0.40"/><circle cx="215.2" cy="272.4" r="2.4" fill="#185FA5" fill-opacity="0.40"/><circle cx="199.7" cy="266.7" r="2.4" fill="#185FA5" fill-opacity="0.40"/><circle cx="228.2" cy="315.6" r="2.4" fill="#185FA5" fill-opacity="0.40"/><circle cx="204.2" cy="209.1" r="2.4" fill="#185FA5" fill-opacity="0.40"/><circle cx="203.9" cy="272.4" r="2.4" fill="#185FA5" fill-opacity="0.40"/><circle cx="195.3" cy="197.6" r="2.4" fill="#185FA5" fill-opacity="0.40"/><circle cx="218.5" cy="223.5" r="2.4" fill="#185FA5" fill-opacity="0.40"/><circle cx="208.2" cy="258.0" r="2.4" fill="#185FA5" fill-opacity="0.40"/><circle cx="220.1" cy="223.5" r="2.4" fill="#185FA5" fill-opacity="0.40"/><circle cx="198.7" cy="243.6" r="2.4" fill="#185FA5" fill-opacity="0.40"/><circle cx="212.4" cy="255.2" r="2.4" fill="#185FA5" fill-opacity="0.40"/><circle cx="193.4" cy="246.5" r="2.4" fill="#185FA5" fill-opacity="0.40"/><circle cx="225.7" cy="151.5" r="2.4" fill="#185FA5" fill-opacity="0.40"/><circle cx="213.5" cy="255.2" r="2.4" fill="#185FA5" fill-opacity="0.40"/><circle cx="216.1" cy="289.7" r="2.4" fill="#185FA5" fill-opacity="0.40"/><circle cx="217.6" cy="163.0" r="2.4" fill="#185FA5" fill-opacity="0.40"/><circle cx="191.2" cy="163.0" r="2.4" fill="#185FA5" fill-opacity="0.40"/><circle cx="224.6" cy="163.0" r="2.4" fill="#185FA5" fill-opacity="0.40"/><circle cx="248.3" cy="151.5" r="2.4" fill="#185FA5" fill-opacity="0.40"/><circle cx="179.5" cy="197.6" r="2.4" fill="#185FA5" fill-opacity="0.40"/><circle cx="177.8" cy="246.5" r="2.4" fill="#185FA5" fill-opacity="0.40"/><circle cx="182.0" cy="163.0" r="2.4" fill="#185FA5" fill-opacity="0.40"/><circle cx="225.7" cy="214.8" r="2.4" fill="#185FA5" fill-opacity="0.40"/><circle cx="212.4" cy="223.5" r="2.4" fill="#185FA5" fill-opacity="0.40"/><circle cx="230.1" cy="191.8" r="2.4" fill="#185FA5" fill-opacity="0.40"/><circle cx="223.4" cy="255.2" r="2.4" fill="#185FA5" fill-opacity="0.40"/><circle cx="213.9" cy="214.8" r="2.4" fill="#185FA5" fill-opacity="0.40"/><circle cx="215.3" cy="272.4" r="2.4" fill="#185FA5" fill-opacity="0.40"/><circle cx="206.8" cy="214.8" r="2.4" fill="#185FA5" fill-opacity="0.40"/><circle cx="226.2" cy="258.0" r="2.4" fill="#185FA5" fill-opacity="0.40"/><circle cx="189.0" cy="214.8" r="2.4" fill="#185FA5" fill-opacity="0.40"/><circle cx="202.2" cy="272.4" r="2.4" fill="#185FA5" fill-opacity="0.40"/><circle cx="214.5" cy="246.5" r="2.4" fill="#185FA5" fill-opacity="0.40"/><circle cx="243.5" cy="255.2" r="2.4" fill="#185FA5" fill-opacity="0.40"/><circle cx="195.8" cy="246.5" r="2.4" fill="#185FA5" fill-opacity="0.40"/><circle cx="189.9" cy="255.2" r="2.4" fill="#185FA5" fill-opacity="0.40"/><circle cx="199.5" cy="191.8" r="2.4" fill="#185FA5" fill-opacity="0.40"/><circle cx="228.0" cy="272.4" r="2.4" fill="#185FA5" fill-opacity="0.40"/><circle cx="205.6" cy="272.4" r="2.4" fill="#185FA5" fill-opacity="0.40"/><circle cx="234.6" cy="266.7" r="2.4" fill="#185FA5" fill-opacity="0.40"/><circle cx="175.2" cy="214.8" r="2.4" fill="#185FA5" fill-opacity="0.40"/><line x1="370" y1="318.5" x2="370" y2="151.5" stroke="#a8431f" stroke-width="1.4"/><rect x="339.0" y="151.5" width="62" height="95.0" rx="5" fill="#dd6a3a" fill-opacity="0.30" stroke="#a8431f" stroke-width="1.6"/><line x1="339.0" y1="209.1" x2="401.0" y2="209.1" stroke="#0f172a" stroke-width="2.4"/><circle cx="391.0" cy="151.5" r="2.4" fill="#a8431f" fill-opacity="0.40"/><circle cx="389.2" cy="151.5" r="2.4" fill="#a8431f" fill-opacity="0.40"/><circle cx="343.6" cy="151.5" r="2.4" fill="#a8431f" fill-opacity="0.40"/><circle cx="372.9" cy="151.5" r="2.4" fill="#a8431f" fill-opacity="0.40"/><circle cx="392.6" cy="318.5" r="2.4" fill="#a8431f" fill-opacity="0.40"/><circle cx="371.6" cy="255.2" r="2.4" fill="#a8431f" fill-opacity="0.40"/><circle cx="388.6" cy="223.5" r="2.4" fill="#a8431f" fill-opacity="0.40"/><circle cx="414.2" cy="151.5" r="2.4" fill="#a8431f" fill-opacity="0.40"/><circle cx="375.1" cy="214.8" r="2.4" fill="#a8431f" fill-opacity="0.40"/><circle cx="364.8" cy="151.5" r="2.4" fill="#a8431f" fill-opacity="0.40"/><circle cx="355.7" cy="163.0" r="2.4" fill="#a8431f" fill-opacity="0.40"/><circle cx="382.1" cy="151.5" r="2.4" fill="#a8431f" fill-opacity="0.40"/><circle cx="366.3" cy="151.5" r="2.4" fill="#a8431f" fill-opacity="0.40"/><circle cx="366.7" cy="197.6" r="2.4" fill="#a8431f" fill-opacity="0.40"/><circle cx="368.0" cy="197.6" r="2.4" fill="#a8431f" fill-opacity="0.40"/><circle cx="382.1" cy="318.5" r="2.4" fill="#a8431f" fill-opacity="0.40"/><circle cx="350.2" cy="214.8" r="2.4" fill="#a8431f" fill-opacity="0.40"/><circle cx="341.5" cy="214.8" r="2.4" fill="#a8431f" fill-opacity="0.40"/><circle cx="324.7" cy="209.1" r="2.4" fill="#a8431f" fill-opacity="0.40"/><circle cx="392.3" cy="151.5" r="2.4" fill="#a8431f" fill-opacity="0.40"/><circle cx="371.4" cy="272.4" r="2.4" fill="#a8431f" fill-opacity="0.40"/><circle cx="398.1" cy="266.7" r="2.4" fill="#a8431f" fill-opacity="0.40"/><circle cx="369.8" cy="318.5" r="2.4" fill="#a8431f" fill-opacity="0.40"/><circle cx="356.2" cy="266.7" r="2.4" fill="#a8431f" fill-opacity="0.40"/><circle cx="378.9" cy="151.5" r="2.4" fill="#a8431f" fill-opacity="0.40"/><circle cx="368.6" cy="223.5" r="2.4" fill="#a8431f" fill-opacity="0.40"/><circle cx="346.7" cy="214.8" r="2.4" fill="#a8431f" fill-opacity="0.40"/><circle cx="353.5" cy="191.8" r="2.4" fill="#a8431f" fill-opacity="0.40"/><circle cx="402.9" cy="246.5" r="2.4" fill="#a8431f" fill-opacity="0.40"/><circle cx="376.6" cy="295.5" r="2.4" fill="#a8431f" fill-opacity="0.40"/><circle cx="377.7" cy="214.8" r="2.4" fill="#a8431f" fill-opacity="0.40"/><circle cx="364.9" cy="151.5" r="2.4" fill="#a8431f" fill-opacity="0.40"/><circle cx="357.2" cy="151.5" r="2.4" fill="#a8431f" fill-opacity="0.40"/><circle cx="386.6" cy="272.4" r="2.4" fill="#a8431f" fill-opacity="0.40"/><circle cx="368.1" cy="151.5" r="2.4" fill="#a8431f" fill-opacity="0.40"/><circle cx="355.9" cy="151.5" r="2.4" fill="#a8431f" fill-opacity="0.40"/><circle cx="367.5" cy="214.8" r="2.4" fill="#a8431f" fill-opacity="0.40"/><circle cx="353.2" cy="151.5" r="2.4" fill="#a8431f" fill-opacity="0.40"/><circle cx="373.5" cy="243.6" r="2.4" fill="#a8431f" fill-opacity="0.40"/><circle cx="391.0" cy="163.0" r="2.4" fill="#a8431f" fill-opacity="0.40"/><circle cx="354.4" cy="151.5" r="2.4" fill="#a8431f" fill-opacity="0.40"/><circle cx="396.6" cy="272.4" r="2.4" fill="#a8431f" fill-opacity="0.40"/><circle cx="357.6" cy="151.5" r="2.4" fill="#a8431f" fill-opacity="0.40"/><circle cx="372.9" cy="197.6" r="2.4" fill="#a8431f" fill-opacity="0.40"/><circle cx="354.4" cy="214.8" r="2.4" fill="#a8431f" fill-opacity="0.40"/><circle cx="365.9" cy="223.5" r="2.4" fill="#a8431f" fill-opacity="0.40"/><circle cx="370.9" cy="151.5" r="2.4" fill="#a8431f" fill-opacity="0.40"/><circle cx="361.9" cy="151.5" r="2.4" fill="#a8431f" fill-opacity="0.40"/><circle cx="356.9" cy="246.5" r="2.4" fill="#a8431f" fill-opacity="0.40"/><circle cx="357.4" cy="272.4" r="2.4" fill="#a8431f" fill-opacity="0.40"/><circle cx="354.7" cy="197.6" r="2.4" fill="#a8431f" fill-opacity="0.40"/><circle cx="340.8" cy="214.8" r="2.4" fill="#a8431f" fill-opacity="0.40"/><circle cx="365.1" cy="214.8" r="2.4" fill="#a8431f" fill-opacity="0.40"/><circle cx="377.5" cy="255.2" r="2.4" fill="#a8431f" fill-opacity="0.40"/><circle cx="386.9" cy="258.0" r="2.4" fill="#a8431f" fill-opacity="0.40"/><circle cx="382.0" cy="266.7" r="2.4" fill="#a8431f" fill-opacity="0.40"/><circle cx="415.7" cy="209.1" r="2.4" fill="#a8431f" fill-opacity="0.40"/><circle cx="375.9" cy="223.5" r="2.4" fill="#a8431f" fill-opacity="0.40"/><circle cx="361.5" cy="191.8" r="2.4" fill="#a8431f" fill-opacity="0.40"/><circle cx="404.8" cy="197.6" r="2.4" fill="#a8431f" fill-opacity="0.40"/><circle cx="350.5" cy="223.5" r="2.4" fill="#a8431f" fill-opacity="0.40"/><circle cx="388.0" cy="151.5" r="2.4" fill="#a8431f" fill-opacity="0.40"/><circle cx="352.2" cy="163.0" r="2.4" fill="#a8431f" fill-opacity="0.40"/><circle cx="376.6" cy="151.5" r="2.4" fill="#a8431f" fill-opacity="0.40"/><circle cx="333.4" cy="292.6" r="2.4" fill="#a8431f" fill-opacity="0.40"/><circle cx="386.7" cy="223.5" r="2.4" fill="#a8431f" fill-opacity="0.40"/><circle cx="367.1" cy="214.8" r="2.4" fill="#a8431f" fill-opacity="0.40"/><circle cx="352.0" cy="255.2" r="2.4" fill="#a8431f" fill-opacity="0.40"/><circle cx="401.2" cy="151.5" r="2.4" fill="#a8431f" fill-opacity="0.40"/><circle cx="384.2" cy="209.1" r="2.4" fill="#a8431f" fill-opacity="0.40"/><circle cx="370.9" cy="191.8" r="2.4" fill="#a8431f" fill-opacity="0.40"/><circle cx="356.1" cy="151.5" r="2.4" fill="#a8431f" fill-opacity="0.40"/><circle cx="369.2" cy="255.2" r="2.4" fill="#a8431f" fill-opacity="0.40"/><circle cx="367.0" cy="258.0" r="2.4" fill="#a8431f" fill-opacity="0.40"/><circle cx="383.5" cy="246.5" r="2.4" fill="#a8431f" fill-opacity="0.40"/><circle cx="384.8" cy="197.6" r="2.4" fill="#a8431f" fill-opacity="0.40"/><circle cx="357.6" cy="151.5" r="2.4" fill="#a8431f" fill-opacity="0.40"/><circle cx="359.8" cy="243.6" r="2.4" fill="#a8431f" fill-opacity="0.40"/><circle cx="360.1" cy="151.5" r="2.4" fill="#a8431f" fill-opacity="0.40"/><circle cx="344.9" cy="214.8" r="2.4" fill="#a8431f" fill-opacity="0.40"/><circle cx="359.0" cy="255.2" r="2.4" fill="#a8431f" fill-opacity="0.40"/><circle cx="368.3" cy="191.8" r="2.4" fill="#a8431f" fill-opacity="0.40"/><circle cx="382.9" cy="191.8" r="2.4" fill="#a8431f" fill-opacity="0.40"/><circle cx="394.6" cy="209.1" r="2.4" fill="#a8431f" fill-opacity="0.40"/><circle cx="355.0" cy="266.7" r="2.4" fill="#a8431f" fill-opacity="0.40"/><circle cx="380.2" cy="209.1" r="2.4" fill="#a8431f" fill-opacity="0.40"/><circle cx="361.7" cy="151.5" r="2.4" fill="#a8431f" fill-opacity="0.40"/><circle cx="408.6" cy="151.5" r="2.4" fill="#a8431f" fill-opacity="0.40"/><circle cx="369.1" cy="272.4" r="2.4" fill="#a8431f" fill-opacity="0.40"/><circle cx="379.3" cy="214.8" r="2.4" fill="#a8431f" fill-opacity="0.40"/><circle cx="352.6" cy="191.8" r="2.4" fill="#a8431f" fill-opacity="0.40"/><circle cx="354.9" cy="258.0" r="2.4" fill="#a8431f" fill-opacity="0.40"/><circle cx="373.8" cy="191.8" r="2.4" fill="#a8431f" fill-opacity="0.40"/><circle cx="362.9" cy="209.1" r="2.4" fill="#a8431f" fill-opacity="0.40"/><circle cx="376.6" cy="163.0" r="2.4" fill="#a8431f" fill-opacity="0.40"/><circle cx="341.0" cy="151.5" r="2.4" fill="#a8431f" fill-opacity="0.40"/><circle cx="382.3" cy="191.8" r="2.4" fill="#a8431f" fill-opacity="0.40"/><circle cx="353.3" cy="307.0" r="2.4" fill="#a8431f" fill-opacity="0.40"/><circle cx="402.0" cy="214.8" r="2.4" fill="#a8431f" fill-opacity="0.40"/><circle cx="364.6" cy="298.3" r="2.4" fill="#a8431f" fill-opacity="0.40"/><text x="210" y="356" fill="#64748b" font-size="15.6" font-weight="400" text-anchor="middle">Control</text><text x="210" y="374" fill="#185FA5" font-size="15.6" font-weight="500" text-anchor="middle">18.2 ms</text><text x="370" y="356" fill="#64748b" font-size="15.6" font-weight="400" text-anchor="middle">PD</text><text x="370" y="374" fill="#a8431f" font-size="15.6" font-weight="500" text-anchor="middle">21.5 ms</text><path d="M210 246.5 L210 181.1 L370 181.1 L370 209.1" fill="none" stroke="#334155" stroke-width="1.3"/><rect x="242" y="159.0909090909091" width="96" height="30" rx="15" fill="#fff" stroke="#a8431f" stroke-width="1.4"/><text x="290" y="179.0909090909091" fill="#a8431f" font-size="16.8" font-weight="500" text-anchor="middle">+3.25 ms</text></svg>