<svg viewBox="0 0 1180 426" xmlns="http://www.w3.org/2000/svg" font-family="-apple-system, BlinkMacSystemFont, 'Segoe UI', 'Inter', Helvetica, Arial, sans-serif"><defs><marker id="sh" markerWidth="9" markerHeight="9" refX="6.5" refY="4.5" orient="auto"><path d="M0,0 L0,9 L8,4.5 z" fill="#64748b"/></marker></defs><rect width="1180" height="426" rx="16" fill="#ffffff"/><line x1="564.0" y1="34.0" x2="564.0" y2="400.0" stroke="#e2e8f0" stroke-width="1.4"/><text x="24" y="28" fill="#64748b" font-size="14.5" font-weight="600" text-anchor="start" font-family="-apple-system, BlinkMacSystemFont, 'Segoe UI', 'Inter', Helvetica, Arial, sans-serif">THE SEPARATION</text><text x="172" y="28" fill="#94a3b8" font-size="12.5" font-weight="400" text-anchor="start" font-family="-apple-system, BlinkMacSystemFont, 'Segoe UI', 'Inter', Helvetica, Arial, sans-serif">fitted τ_inh, Control vs PD</text><line x1="84.0" y1="332.0" x2="540.0" y2="332.0" stroke="#cbd5e1" stroke-width="1.4"/><line x1="112.5" y1="332.0" x2="112.5" y2="337.0" stroke="#cbd5e1" stroke-width="1.2"/><text x="112.5" y="353" fill="#64748b" font-size="12.5" font-weight="400" text-anchor="middle" font-family="-apple-system, BlinkMacSystemFont, 'Segoe UI', 'Inter', Helvetica, Arial, sans-serif">12</text><line x1="226.5" y1="332.0" x2="226.5" y2="337.0" stroke="#cbd5e1" stroke-width="1.2"/><text x="226.5" y="353" fill="#64748b" font-size="12.5" font-weight="400" text-anchor="middle" font-family="-apple-system, BlinkMacSystemFont, 'Segoe UI', 'Inter', Helvetica, Arial, sans-serif">16</text><line x1="340.5" y1="332.0" x2="340.5" y2="337.0" stroke="#cbd5e1" stroke-width="1.2"/><text x="340.5" y="353" fill="#64748b" font-size="12.5" font-weight="400" text-anchor="middle" font-family="-apple-system, BlinkMacSystemFont, 'Segoe UI', 'Inter', Helvetica, Arial, sans-serif">20</text><line x1="454.5" y1="332.0" x2="454.5" y2="337.0" stroke="#cbd5e1" stroke-width="1.2"/><text x="454.5" y="353" fill="#64748b" font-size="12.5" font-weight="400" text-anchor="middle" font-family="-apple-system, BlinkMacSystemFont, 'Segoe UI', 'Inter', Helvetica, Arial, sans-serif">24</text><text x="312.0" y="374" fill="#334155" font-size="13.5" font-weight="500" text-anchor="middle" font-family="-apple-system, BlinkMacSystemFont, 'Segoe UI', 'Inter', Helvetica, Arial, sans-serif">fitted τ_inh (ms)</text><path d="M 84.0 332.0 L 84.0 316.2 L 85.9 315.4 L 87.8 314.7 L 89.7 313.9 L 91.6 313.2 L 93.5 312.4 L 95.4 311.7 L 97.4 311.0 L 99.3 310.4 L 101.2 309.7 L 103.1 309.1 L 105.0 308.5 L 106.9 308.0 L 108.8 307.4 L 110.7 306.9 L 112.6 306.5 L 114.5 306.0 L 116.4 305.6 L 118.3 305.2 L 120.3 304.8 L 122.2 304.4 L 124.1 304.0 L 126.0 303.5 L 127.9 303.1 L 129.8 302.7 L 131.7 302.2 L 133.6 301.7 L 135.5 301.1 L 137.4 300.5 L 139.3 299.8 L 141.2 299.1 L 143.1 298.2 L 145.1 297.2 L 147.0 296.2 L 148.9 295.0 L 150.8 293.6 L 152.7 292.2 L 154.6 290.6 L 156.5 288.8 L 158.4 286.8 L 160.3 284.7 L 162.2 282.4 L 164.1 279.9 L 166.0 277.3 L 167.9 274.4 L 169.9 271.3 L 171.8 268.1 L 173.7 264.7 L 175.6 261.1 L 177.5 257.3 L 179.4 253.3 L 181.3 249.2 L 183.2 244.9 L 185.1 240.4 L 187.0 235.8 L 188.9 231.1 L 190.8 226.3 L 192.8 221.4 L 194.7 216.4 L 196.6 211.3 L 198.5 206.2 L 200.4 201.1 L 202.3 196.0 L 204.2 190.9 L 206.1 185.8 L 208.0 180.8 L 209.9 175.8 L 211.8 171.0 L 213.7 166.3 L 215.6 161.6 L 217.6 157.2 L 219.5 152.9 L 221.4 148.8 L 223.3 144.8 L 225.2 141.1 L 227.1 137.7 L 229.0 134.4 L 230.9 131.4 L 232.8 128.6 L 234.7 126.1 L 236.6 123.9 L 238.5 122.0 L 240.5 120.3 L 242.4 118.9 L 244.3 117.8 L 246.2 116.9 L 248.1 116.3 L 250.0 116.0 L 251.9 116.0 L 253.8 116.2 L 255.7 116.7 L 257.6 117.5 L 259.5 118.4 L 261.4 119.6 L 263.3 121.1 L 265.3 122.7 L 267.2 124.6 L 269.1 126.6 L 271.0 128.8 L 272.9 131.1 L 274.8 133.6 L 276.7 136.2 L 278.6 139.0 L 280.5 141.8 L 282.4 144.6 L 284.3 147.6 L 286.2 150.5 L 288.2 153.5 L 290.1 156.5 L 292.0 159.4 L 293.9 162.4 L 295.8 165.2 L 297.7 168.0 L 299.6 170.7 L 301.5 173.2 L 303.4 175.7 L 305.3 178.0 L 307.2 180.1 L 309.1 182.1 L 311.0 184.0 L 313.0 185.6 L 314.9 187.1 L 316.8 188.3 L 318.7 189.4 L 320.6 190.3 L 322.5 191.0 L 324.4 191.6 L 326.3 192.0 L 328.2 192.2 L 330.1 192.2 L 332.0 192.1 L 333.9 191.9 L 335.8 191.6 L 337.8 191.1 L 339.7 190.6 L 341.6 190.0 L 343.5 189.4 L 345.4 188.8 L 347.3 188.1 L 349.2 187.5 L 351.1 186.8 L 353.0 186.3 L 354.9 185.7 L 356.8 185.3 L 358.7 184.9 L 360.7 184.7 L 362.6 184.5 L 364.5 184.5 L 366.4 184.6 L 368.3 184.8 L 370.2 185.2 L 372.1 185.7 L 374.0 186.3 L 375.9 187.1 L 377.8 188.1 L 379.7 189.1 L 381.6 190.3 L 383.5 191.7 L 385.5 193.1 L 387.4 194.7 L 389.3 196.4 L 391.2 198.2 L 393.1 200.1 L 395.0 202.1 L 396.9 204.1 L 398.8 206.3 L 400.7 208.4 L 402.6 210.7 L 404.5 213.0 L 406.4 215.3 L 408.4 217.7 L 410.3 220.0 L 412.2 222.4 L 414.1 224.8 L 416.0 227.2 L 417.9 229.6 L 419.8 231.9 L 421.7 234.3 L 423.6 236.5 L 425.5 238.8 L 427.4 241.0 L 429.3 243.1 L 431.2 245.2 L 433.2 247.2 L 435.1 249.1 L 437.0 250.9 L 438.9 252.7 L 440.8 254.3 L 442.7 255.9 L 444.6 257.3 L 446.5 258.6 L 448.4 259.9 L 450.3 261.0 L 452.2 261.9 L 454.1 262.8 L 456.1 263.5 L 458.0 264.2 L 459.9 264.7 L 461.8 265.1 L 463.7 265.4 L 465.6 265.6 L 467.5 265.7 L 469.4 265.7 L 471.3 265.6 L 473.2 265.5 L 475.1 265.3 L 477.0 265.1 L 478.9 264.8 L 480.9 264.5 L 482.8 264.2 L 484.7 263.9 L 486.6 263.6 L 488.5 263.4 L 490.4 263.1 L 492.3 262.9 L 494.2 262.8 L 496.1 262.7 L 498.0 262.8 L 499.9 262.9 L 501.8 263.1 L 503.7 263.4 L 505.7 263.7 L 507.6 264.3 L 509.5 264.9 L 511.4 265.6 L 513.3 266.4 L 515.2 267.4 L 517.1 268.4 L 519.0 269.6 L 520.9 270.9 L 522.8 272.2 L 524.7 273.7 L 526.6 275.2 L 528.6 276.8 L 530.5 278.5 L 532.4 280.3 L 534.3 282.1 L 536.2 283.9 L 538.1 285.8 L 540.0 287.7 L 540.0 332.0 Z" fill="#185FA5" fill-opacity="0.16"/><path d="M 84.0 316.2 L 85.9 315.4 L 87.8 314.7 L 89.7 313.9 L 91.6 313.2 L 93.5 312.4 L 95.4 311.7 L 97.4 311.0 L 99.3 310.4 L 101.2 309.7 L 103.1 309.1 L 105.0 308.5 L 106.9 308.0 L 108.8 307.4 L 110.7 306.9 L 112.6 306.5 L 114.5 306.0 L 116.4 305.6 L 118.3 305.2 L 120.3 304.8 L 122.2 304.4 L 124.1 304.0 L 126.0 303.5 L 127.9 303.1 L 129.8 302.7 L 131.7 302.2 L 133.6 301.7 L 135.5 301.1 L 137.4 300.5 L 139.3 299.8 L 141.2 299.1 L 143.1 298.2 L 145.1 297.2 L 147.0 296.2 L 148.9 295.0 L 150.8 293.6 L 152.7 292.2 L 154.6 290.6 L 156.5 288.8 L 158.4 286.8 L 160.3 284.7 L 162.2 282.4 L 164.1 279.9 L 166.0 277.3 L 167.9 274.4 L 169.9 271.3 L 171.8 268.1 L 173.7 264.7 L 175.6 261.1 L 177.5 257.3 L 179.4 253.3 L 181.3 249.2 L 183.2 244.9 L 185.1 240.4 L 187.0 235.8 L 188.9 231.1 L 190.8 226.3 L 192.8 221.4 L 194.7 216.4 L 196.6 211.3 L 198.5 206.2 L 200.4 201.1 L 202.3 196.0 L 204.2 190.9 L 206.1 185.8 L 208.0 180.8 L 209.9 175.8 L 211.8 171.0 L 213.7 166.3 L 215.6 161.6 L 217.6 157.2 L 219.5 152.9 L 221.4 148.8 L 223.3 144.8 L 225.2 141.1 L 227.1 137.7 L 229.0 134.4 L 230.9 131.4 L 232.8 128.6 L 234.7 126.1 L 236.6 123.9 L 238.5 122.0 L 240.5 120.3 L 242.4 118.9 L 244.3 117.8 L 246.2 116.9 L 248.1 116.3 L 250.0 116.0 L 251.9 116.0 L 253.8 116.2 L 255.7 116.7 L 257.6 117.5 L 259.5 118.4 L 261.4 119.6 L 263.3 121.1 L 265.3 122.7 L 267.2 124.6 L 269.1 126.6 L 271.0 128.8 L 272.9 131.1 L 274.8 133.6 L 276.7 136.2 L 278.6 139.0 L 280.5 141.8 L 282.4 144.6 L 284.3 147.6 L 286.2 150.5 L 288.2 153.5 L 290.1 156.5 L 292.0 159.4 L 293.9 162.4 L 295.8 165.2 L 297.7 168.0 L 299.6 170.7 L 301.5 173.2 L 303.4 175.7 L 305.3 178.0 L 307.2 180.1 L 309.1 182.1 L 311.0 184.0 L 313.0 185.6 L 314.9 187.1 L 316.8 188.3 L 318.7 189.4 L 320.6 190.3 L 322.5 191.0 L 324.4 191.6 L 326.3 192.0 L 328.2 192.2 L 330.1 192.2 L 332.0 192.1 L 333.9 191.9 L 335.8 191.6 L 337.8 191.1 L 339.7 190.6 L 341.6 190.0 L 343.5 189.4 L 345.4 188.8 L 347.3 188.1 L 349.2 187.5 L 351.1 186.8 L 353.0 186.3 L 354.9 185.7 L 356.8 185.3 L 358.7 184.9 L 360.7 184.7 L 362.6 184.5 L 364.5 184.5 L 366.4 184.6 L 368.3 184.8 L 370.2 185.2 L 372.1 185.7 L 374.0 186.3 L 375.9 187.1 L 377.8 188.1 L 379.7 189.1 L 381.6 190.3 L 383.5 191.7 L 385.5 193.1 L 387.4 194.7 L 389.3 196.4 L 391.2 198.2 L 393.1 200.1 L 395.0 202.1 L 396.9 204.1 L 398.8 206.3 L 400.7 208.4 L 402.6 210.7 L 404.5 213.0 L 406.4 215.3 L 408.4 217.7 L 410.3 220.0 L 412.2 222.4 L 414.1 224.8 L 416.0 227.2 L 417.9 229.6 L 419.8 231.9 L 421.7 234.3 L 423.6 236.5 L 425.5 238.8 L 427.4 241.0 L 429.3 243.1 L 431.2 245.2 L 433.2 247.2 L 435.1 249.1 L 437.0 250.9 L 438.9 252.7 L 440.8 254.3 L 442.7 255.9 L 444.6 257.3 L 446.5 258.6 L 448.4 259.9 L 450.3 261.0 L 452.2 261.9 L 454.1 262.8 L 456.1 263.5 L 458.0 264.2 L 459.9 264.7 L 461.8 265.1 L 463.7 265.4 L 465.6 265.6 L 467.5 265.7 L 469.4 265.7 L 471.3 265.6 L 473.2 265.5 L 475.1 265.3 L 477.0 265.1 L 478.9 264.8 L 480.9 264.5 L 482.8 264.2 L 484.7 263.9 L 486.6 263.6 L 488.5 263.4 L 490.4 263.1 L 492.3 262.9 L 494.2 262.8 L 496.1 262.7 L 498.0 262.8 L 499.9 262.9 L 501.8 263.1 L 503.7 263.4 L 505.7 263.7 L 507.6 264.3 L 509.5 264.9 L 511.4 265.6 L 513.3 266.4 L 515.2 267.4 L 517.1 268.4 L 519.0 269.6 L 520.9 270.9 L 522.8 272.2 L 524.7 273.7 L 526.6 275.2 L 528.6 276.8 L 530.5 278.5 L 532.4 280.3 L 534.3 282.1 L 536.2 283.9 L 538.1 285.8 L 540.0 287.7" fill="none" stroke="#185FA5" stroke-width="2.6"/><path d="M 84.0 332.0 L 84.0 316.6 L 85.9 315.9 L 87.8 315.2 L 89.7 314.6 L 91.6 313.9 L 93.5 313.2 L 95.4 312.6 L 97.4 311.9 L 99.3 311.3 L 101.2 310.6 L 103.1 310.0 L 105.0 309.3 L 106.9 308.7 L 108.8 308.1 L 110.7 307.5 L 112.6 306.9 L 114.5 306.4 L 116.4 305.8 L 118.3 305.3 L 120.3 304.7 L 122.2 304.2 L 124.1 303.7 L 126.0 303.2 L 127.9 302.7 L 129.8 302.2 L 131.7 301.7 L 133.6 301.3 L 135.5 300.8 L 137.4 300.4 L 139.3 299.9 L 141.2 299.4 L 143.1 299.0 L 145.1 298.5 L 147.0 298.0 L 148.9 297.5 L 150.8 297.0 L 152.7 296.5 L 154.6 296.0 L 156.5 295.4 L 158.4 294.8 L 160.3 294.2 L 162.2 293.6 L 164.1 292.9 L 166.0 292.2 L 167.9 291.4 L 169.9 290.7 L 171.8 289.8 L 173.7 289.0 L 175.6 288.0 L 177.5 287.1 L 179.4 286.1 L 181.3 285.0 L 183.2 283.9 L 185.1 282.8 L 187.0 281.6 L 188.9 280.4 L 190.8 279.1 L 192.8 277.8 L 194.7 276.4 L 196.6 275.0 L 198.5 273.6 L 200.4 272.1 L 202.3 270.6 L 204.2 269.0 L 206.1 267.5 L 208.0 265.9 L 209.9 264.3 L 211.8 262.7 L 213.7 261.1 L 215.6 259.5 L 217.6 257.9 L 219.5 256.3 L 221.4 254.8 L 223.3 253.2 L 225.2 251.7 L 227.1 250.2 L 229.0 248.8 L 230.9 247.4 L 232.8 246.0 L 234.7 244.7 L 236.6 243.5 L 238.5 242.3 L 240.5 241.2 L 242.4 240.1 L 244.3 239.2 L 246.2 238.2 L 248.1 237.4 L 250.0 236.6 L 251.9 235.9 L 253.8 235.3 L 255.7 234.8 L 257.6 234.3 L 259.5 233.9 L 261.4 233.5 L 263.3 233.2 L 265.3 233.0 L 267.2 232.8 L 269.1 232.6 L 271.0 232.5 L 272.9 232.5 L 274.8 232.4 L 276.7 232.4 L 278.6 232.4 L 280.5 232.4 L 282.4 232.4 L 284.3 232.4 L 286.2 232.3 L 288.2 232.2 L 290.1 232.1 L 292.0 232.0 L 293.9 231.8 L 295.8 231.5 L 297.7 231.2 L 299.6 230.8 L 301.5 230.3 L 303.4 229.8 L 305.3 229.1 L 307.2 228.4 L 309.1 227.5 L 311.0 226.6 L 313.0 225.6 L 314.9 224.5 L 316.8 223.2 L 318.7 221.9 L 320.6 220.5 L 322.5 219.0 L 324.4 217.4 L 326.3 215.7 L 328.2 214.0 L 330.1 212.2 L 332.0 210.3 L 333.9 208.3 L 335.8 206.4 L 337.8 204.4 L 339.7 202.3 L 341.6 200.3 L 343.5 198.2 L 345.4 196.2 L 347.3 194.2 L 349.2 192.2 L 351.1 190.2 L 353.0 188.4 L 354.9 186.5 L 356.8 184.8 L 358.7 183.1 L 360.7 181.5 L 362.6 180.1 L 364.5 178.7 L 366.4 177.5 L 368.3 176.4 L 370.2 175.4 L 372.1 174.6 L 374.0 173.9 L 375.9 173.4 L 377.8 173.0 L 379.7 172.8 L 381.6 172.7 L 383.5 172.8 L 385.5 173.1 L 387.4 173.5 L 389.3 174.1 L 391.2 174.8 L 393.1 175.6 L 395.0 176.6 L 396.9 177.8 L 398.8 179.1 L 400.7 180.4 L 402.6 182.0 L 404.5 183.6 L 406.4 185.3 L 408.4 187.1 L 410.3 188.9 L 412.2 190.9 L 414.1 192.9 L 416.0 194.9 L 417.9 196.9 L 419.8 199.0 L 421.7 201.1 L 423.6 203.2 L 425.5 205.2 L 427.4 207.2 L 429.3 209.2 L 431.2 211.1 L 433.2 212.9 L 435.1 214.6 L 437.0 216.2 L 438.9 217.7 L 440.8 219.1 L 442.7 220.4 L 444.6 221.5 L 446.5 222.4 L 448.4 223.2 L 450.3 223.8 L 452.2 224.3 L 454.1 224.6 L 456.1 224.6 L 458.0 224.5 L 459.9 224.2 L 461.8 223.8 L 463.7 223.1 L 465.6 222.2 L 467.5 221.2 L 469.4 220.0 L 471.3 218.7 L 473.2 217.1 L 475.1 215.5 L 477.0 213.7 L 478.9 211.8 L 480.9 209.8 L 482.8 207.7 L 484.7 205.5 L 486.6 203.3 L 488.5 201.0 L 490.4 198.8 L 492.3 196.5 L 494.2 194.3 L 496.1 192.1 L 498.0 190.0 L 499.9 187.9 L 501.8 186.0 L 503.7 184.2 L 505.7 182.6 L 507.6 181.1 L 509.5 179.8 L 511.4 178.7 L 513.3 177.8 L 515.2 177.1 L 517.1 176.6 L 519.0 176.4 L 520.9 176.5 L 522.8 176.8 L 524.7 177.4 L 526.6 178.2 L 528.6 179.3 L 530.5 180.6 L 532.4 182.2 L 534.3 184.1 L 536.2 186.2 L 538.1 188.6 L 540.0 191.1 L 540.0 332.0 Z" fill="#a8431f" fill-opacity="0.16"/><path d="M 84.0 316.6 L 85.9 315.9 L 87.8 315.2 L 89.7 314.6 L 91.6 313.9 L 93.5 313.2 L 95.4 312.6 L 97.4 311.9 L 99.3 311.3 L 101.2 310.6 L 103.1 310.0 L 105.0 309.3 L 106.9 308.7 L 108.8 308.1 L 110.7 307.5 L 112.6 306.9 L 114.5 306.4 L 116.4 305.8 L 118.3 305.3 L 120.3 304.7 L 122.2 304.2 L 124.1 303.7 L 126.0 303.2 L 127.9 302.7 L 129.8 302.2 L 131.7 301.7 L 133.6 301.3 L 135.5 300.8 L 137.4 300.4 L 139.3 299.9 L 141.2 299.4 L 143.1 299.0 L 145.1 298.5 L 147.0 298.0 L 148.9 297.5 L 150.8 297.0 L 152.7 296.5 L 154.6 296.0 L 156.5 295.4 L 158.4 294.8 L 160.3 294.2 L 162.2 293.6 L 164.1 292.9 L 166.0 292.2 L 167.9 291.4 L 169.9 290.7 L 171.8 289.8 L 173.7 289.0 L 175.6 288.0 L 177.5 287.1 L 179.4 286.1 L 181.3 285.0 L 183.2 283.9 L 185.1 282.8 L 187.0 281.6 L 188.9 280.4 L 190.8 279.1 L 192.8 277.8 L 194.7 276.4 L 196.6 275.0 L 198.5 273.6 L 200.4 272.1 L 202.3 270.6 L 204.2 269.0 L 206.1 267.5 L 208.0 265.9 L 209.9 264.3 L 211.8 262.7 L 213.7 261.1 L 215.6 259.5 L 217.6 257.9 L 219.5 256.3 L 221.4 254.8 L 223.3 253.2 L 225.2 251.7 L 227.1 250.2 L 229.0 248.8 L 230.9 247.4 L 232.8 246.0 L 234.7 244.7 L 236.6 243.5 L 238.5 242.3 L 240.5 241.2 L 242.4 240.1 L 244.3 239.2 L 246.2 238.2 L 248.1 237.4 L 250.0 236.6 L 251.9 235.9 L 253.8 235.3 L 255.7 234.8 L 257.6 234.3 L 259.5 233.9 L 261.4 233.5 L 263.3 233.2 L 265.3 233.0 L 267.2 232.8 L 269.1 232.6 L 271.0 232.5 L 272.9 232.5 L 274.8 232.4 L 276.7 232.4 L 278.6 232.4 L 280.5 232.4 L 282.4 232.4 L 284.3 232.4 L 286.2 232.3 L 288.2 232.2 L 290.1 232.1 L 292.0 232.0 L 293.9 231.8 L 295.8 231.5 L 297.7 231.2 L 299.6 230.8 L 301.5 230.3 L 303.4 229.8 L 305.3 229.1 L 307.2 228.4 L 309.1 227.5 L 311.0 226.6 L 313.0 225.6 L 314.9 224.5 L 316.8 223.2 L 318.7 221.9 L 320.6 220.5 L 322.5 219.0 L 324.4 217.4 L 326.3 215.7 L 328.2 214.0 L 330.1 212.2 L 332.0 210.3 L 333.9 208.3 L 335.8 206.4 L 337.8 204.4 L 339.7 202.3 L 341.6 200.3 L 343.5 198.2 L 345.4 196.2 L 347.3 194.2 L 349.2 192.2 L 351.1 190.2 L 353.0 188.4 L 354.9 186.5 L 356.8 184.8 L 358.7 183.1 L 360.7 181.5 L 362.6 180.1 L 364.5 178.7 L 366.4 177.5 L 368.3 176.4 L 370.2 175.4 L 372.1 174.6 L 374.0 173.9 L 375.9 173.4 L 377.8 173.0 L 379.7 172.8 L 381.6 172.7 L 383.5 172.8 L 385.5 173.1 L 387.4 173.5 L 389.3 174.1 L 391.2 174.8 L 393.1 175.6 L 395.0 176.6 L 396.9 177.8 L 398.8 179.1 L 400.7 180.4 L 402.6 182.0 L 404.5 183.6 L 406.4 185.3 L 408.4 187.1 L 410.3 188.9 L 412.2 190.9 L 414.1 192.9 L 416.0 194.9 L 417.9 196.9 L 419.8 199.0 L 421.7 201.1 L 423.6 203.2 L 425.5 205.2 L 427.4 207.2 L 429.3 209.2 L 431.2 211.1 L 433.2 212.9 L 435.1 214.6 L 437.0 216.2 L 438.9 217.7 L 440.8 219.1 L 442.7 220.4 L 444.6 221.5 L 446.5 222.4 L 448.4 223.2 L 450.3 223.8 L 452.2 224.3 L 454.1 224.6 L 456.1 224.6 L 458.0 224.5 L 459.9 224.2 L 461.8 223.8 L 463.7 223.1 L 465.6 222.2 L 467.5 221.2 L 469.4 220.0 L 471.3 218.7 L 473.2 217.1 L 475.1 215.5 L 477.0 213.7 L 478.9 211.8 L 480.9 209.8 L 482.8 207.7 L 484.7 205.5 L 486.6 203.3 L 488.5 201.0 L 490.4 198.8 L 492.3 196.5 L 494.2 194.3 L 496.1 192.1 L 498.0 190.0 L 499.9 187.9 L 501.8 186.0 L 503.7 184.2 L 505.7 182.6 L 507.6 181.1 L 509.5 179.8 L 511.4 178.7 L 513.3 177.8 L 515.2 177.1 L 517.1 176.6 L 519.0 176.4 L 520.9 176.5 L 522.8 176.8 L 524.7 177.4 L 526.6 178.2 L 528.6 179.3 L 530.5 180.6 L 532.4 182.2 L 534.3 184.1 L 536.2 186.2 L 538.1 188.6 L 540.0 191.1" fill="none" stroke="#a8431f" stroke-width="2.6"/><line x1="290.6" y1="332.0" x2="290.6" y2="114.0" stroke="#185FA5" stroke-width="1.6" stroke-dasharray="4 3"/><line x1="383.2" y1="332.0" x2="383.2" y2="114.0" stroke="#a8431f" stroke-width="1.6" stroke-dasharray="4 3"/><line x1="293.6" y1="110.0" x2="380.2" y2="110.0" stroke="#64748b" stroke-width="1.8" marker-end="url(#sh)"/><text x="336.9375" y="103" fill="#64748b" font-size="13" font-weight="700" text-anchor="middle" font-family="-apple-system, BlinkMacSystemFont, 'Segoe UI', 'Inter', Helvetica, Arial, sans-serif">+3.25 ms</text><rect x="94" y="102" width="15" height="4.5" rx="2" fill="#185FA5"/><text x="116" y="110" fill="#185FA5" font-size="12.5" font-weight="600" text-anchor="start" font-family="-apple-system, BlinkMacSystemFont, 'Segoe UI', 'Inter', Helvetica, Arial, sans-serif">Control</text><rect x="94" y="120" width="15" height="4.5" rx="2" fill="#a8431f"/><text x="116" y="128" fill="#a8431f" font-size="12.5" font-weight="600" text-anchor="start" font-family="-apple-system, BlinkMacSystemFont, 'Segoe UI', 'Inter', Helvetica, Arial, sans-serif">PD</text><text x="24" y="392" fill="#334155" font-size="13" font-weight="500" text-anchor="start" font-family="-apple-system, BlinkMacSystemFont, 'Segoe UI', 'Inter', Helvetica, Arial, sans-serif">Control 18.25 vs PD 21.5 ms at the median.</text><text x="24" y="412" fill="#64748b" font-size="12.5" font-weight="400" text-anchor="start" font-family="-apple-system, BlinkMacSystemFont, 'Segoe UI', 'Inter', Helvetica, Arial, sans-serif">The distributions overlap: a random PD is higher ≈ 68% of the time.</text><text x="588" y="28" fill="#64748b" font-size="14.5" font-weight="600" text-anchor="start" font-family="-apple-system, BlinkMacSystemFont, 'Segoe UI', 'Inter', Helvetica, Arial, sans-serif">PARAMETER RECOVERY</text><text x="788" y="28" fill="#94a3b8" font-size="12.5" font-weight="400" text-anchor="start" font-family="-apple-system, BlinkMacSystemFont, 'Segoe UI', 'Inter', Helvetica, Arial, sans-serif">put a known τ in, fit it back</text><line x1="636.0" y1="368.0" x2="912.0" y2="88.0" stroke="#cbd5e1" stroke-width="1.8" stroke-dasharray="5 4"/><text x="654.4" y="193.77777777777777" fill="#94a3b8" font-size="11.5" font-weight="400" text-anchor="start" font-family="-apple-system, BlinkMacSystemFont, 'Segoe UI', 'Inter', Helvetica, Arial, sans-serif">on the line =</text><text x="654.4" y="215.55555555555554" fill="#94a3b8" font-size="11.5" font-weight="400" text-anchor="start" font-family="-apple-system, BlinkMacSystemFont, 'Segoe UI', 'Inter', Helvetica, Arial, sans-serif">recovered exactly</text><line x1="636.0" y1="368.0" x2="912.0" y2="368.0" stroke="#cbd5e1" stroke-width="1.4"/><line x1="636.0" y1="88.0" x2="636.0" y2="368.0" stroke="#cbd5e1" stroke-width="1.4"/><line x1="651.3" y1="368.0" x2="651.3" y2="373.0" stroke="#cbd5e1" stroke-width="1.2"/><text x="651.3333333333334" y="388" fill="#94a3b8" font-size="12" font-weight="400" text-anchor="middle" font-family="-apple-system, BlinkMacSystemFont, 'Segoe UI', 'Inter', Helvetica, Arial, sans-serif">12</text><line x1="631.0" y1="352.4" x2="636.0" y2="352.4" stroke="#cbd5e1" stroke-width="1.2"/><text x="627" y="356.44444444444446" fill="#94a3b8" font-size="12" font-weight="400" text-anchor="end" font-family="-apple-system, BlinkMacSystemFont, 'Segoe UI', 'Inter', Helvetica, Arial, sans-serif">12</text><line x1="712.7" y1="368.0" x2="712.7" y2="373.0" stroke="#cbd5e1" stroke-width="1.2"/><text x="712.6666666666666" y="388" fill="#94a3b8" font-size="12" font-weight="400" text-anchor="middle" font-family="-apple-system, BlinkMacSystemFont, 'Segoe UI', 'Inter', Helvetica, Arial, sans-serif">16</text><line x1="631.0" y1="290.2" x2="636.0" y2="290.2" stroke="#cbd5e1" stroke-width="1.2"/><text x="627" y="294.22222222222223" fill="#94a3b8" font-size="12" font-weight="400" text-anchor="end" font-family="-apple-system, BlinkMacSystemFont, 'Segoe UI', 'Inter', Helvetica, Arial, sans-serif">16</text><line x1="774.0" y1="368.0" x2="774.0" y2="373.0" stroke="#cbd5e1" stroke-width="1.2"/><text x="774.0" y="388" fill="#94a3b8" font-size="12" font-weight="400" text-anchor="middle" font-family="-apple-system, BlinkMacSystemFont, 'Segoe UI', 'Inter', Helvetica, Arial, sans-serif">20</text><line x1="631.0" y1="228.0" x2="636.0" y2="228.0" stroke="#cbd5e1" stroke-width="1.2"/><text x="627" y="232.0" fill="#94a3b8" font-size="12" font-weight="400" text-anchor="end" font-family="-apple-system, BlinkMacSystemFont, 'Segoe UI', 'Inter', Helvetica, Arial, sans-serif">20</text><line x1="835.3" y1="368.0" x2="835.3" y2="373.0" stroke="#cbd5e1" stroke-width="1.2"/><text x="835.3333333333334" y="388" fill="#94a3b8" font-size="12" font-weight="400" text-anchor="middle" font-family="-apple-system, BlinkMacSystemFont, 'Segoe UI', 'Inter', Helvetica, Arial, sans-serif">24</text><line x1="631.0" y1="165.8" x2="636.0" y2="165.8" stroke="#cbd5e1" stroke-width="1.2"/><text x="627" y="169.77777777777777" fill="#94a3b8" font-size="12" font-weight="400" text-anchor="end" font-family="-apple-system, BlinkMacSystemFont, 'Segoe UI', 'Inter', Helvetica, Arial, sans-serif">24</text><line x1="896.7" y1="368.0" x2="896.7" y2="373.0" stroke="#cbd5e1" stroke-width="1.2"/><text x="896.6666666666667" y="388" fill="#94a3b8" font-size="12" font-weight="400" text-anchor="middle" font-family="-apple-system, BlinkMacSystemFont, 'Segoe UI', 'Inter', Helvetica, Arial, sans-serif">28</text><line x1="631.0" y1="103.6" x2="636.0" y2="103.6" stroke="#cbd5e1" stroke-width="1.2"/><text x="627" y="107.55555555555554" fill="#94a3b8" font-size="12" font-weight="400" text-anchor="end" font-family="-apple-system, BlinkMacSystemFont, 'Segoe UI', 'Inter', Helvetica, Arial, sans-serif">28</text><text x="774.0" y="410" fill="#334155" font-size="13.5" font-weight="500" text-anchor="middle" font-family="-apple-system, BlinkMacSystemFont, 'Segoe UI', 'Inter', Helvetica, Arial, sans-serif">τ we put in (ms)</text><text x="594" y="228.0" fill="#334155" font-size="13.5" font-weight="500" text-anchor="middle" font-family="-apple-system, BlinkMacSystemFont, 'Segoe UI', 'Inter', Helvetica, Arial, sans-serif" transform="rotate(-90 594 228)">τ we got back (ms)</text><circle cx="651.3" cy="352.4" r="5.2" fill="#185FA5" fill-opacity="0.85"/><circle cx="662.8" cy="344.7" r="5.2" fill="#185FA5" fill-opacity="0.85"/><circle cx="674.3" cy="336.9" r="5.2" fill="#185FA5" fill-opacity="0.85"/><circle cx="685.8" cy="321.3" r="5.2" fill="#185FA5" fill-opacity="0.85"/><circle cx="697.3" cy="313.6" r="5.2" fill="#185FA5" fill-opacity="0.85"/><circle cx="708.8" cy="290.2" r="5.2" fill="#185FA5" fill-opacity="0.85"/><circle cx="720.3" cy="282.4" r="5.2" fill="#185FA5" fill-opacity="0.85"/><circle cx="731.8" cy="266.9" r="5.2" fill="#185FA5" fill-opacity="0.85"/><circle cx="743.3" cy="266.9" r="5.2" fill="#185FA5" fill-opacity="0.85"/><circle cx="754.8" cy="251.3" r="5.2" fill="#185FA5" fill-opacity="0.85"/><circle cx="766.3" cy="251.3" r="5.2" fill="#185FA5" fill-opacity="0.85"/><circle cx="777.8" cy="212.4" r="5.2" fill="#185FA5" fill-opacity="0.85"/><circle cx="789.3" cy="212.4" r="5.2" fill="#185FA5" fill-opacity="0.85"/><circle cx="800.8" cy="204.7" r="5.2" fill="#185FA5" fill-opacity="0.85"/><circle cx="812.3" cy="204.7" r="5.2" fill="#185FA5" fill-opacity="0.85"/><circle cx="823.8" cy="181.3" r="5.2" fill="#185FA5" fill-opacity="0.85"/><circle cx="835.3" cy="181.3" r="5.2" fill="#185FA5" fill-opacity="0.85"/><circle cx="846.8" cy="126.9" r="5.2" fill="#185FA5" fill-opacity="0.85"/><circle cx="858.3" cy="126.9" r="5.2" fill="#185FA5" fill-opacity="0.85"/><circle cx="869.8" cy="126.9" r="5.2" fill="#185FA5" fill-opacity="0.85"/><circle cx="881.3" cy="119.1" r="5.2" fill="#185FA5" fill-opacity="0.85"/><circle cx="892.8" cy="119.1" r="5.2" fill="#185FA5" fill-opacity="0.85"/><text x="940" y="200" fill="#0f172a" font-size="16" font-weight="600" text-anchor="start" font-family="-apple-system, BlinkMacSystemFont, 'Segoe UI', 'Inter', Helvetica, Arial, sans-serif">The fit is unbiased.</text><text x="940" y="232" fill="#334155" font-size="13.5" font-weight="400" text-anchor="start" font-family="-apple-system, BlinkMacSystemFont, 'Segoe UI', 'Inter', Helvetica, Arial, sans-serif">mean error  −0.1 ms</text><text x="940" y="256" fill="#334155" font-size="13.5" font-weight="400" text-anchor="start" font-family="-apple-system, BlinkMacSystemFont, 'Segoe UI', 'Inter', Helvetica, Arial, sans-serif">typical error  ±0.5 ms</text></svg>