<svg viewBox="0 0 540 420" xmlns="http://www.w3.org/2000/svg" font-family="-apple-system, BlinkMacSystemFont, 'Segoe UI', 'Inter', Helvetica, Arial, sans-serif"><rect x="0" y="0" width="540" height="420" rx="18" fill="#ffffff"/><text x="40" y="52" fill="#0f172a" font-size="21.6" font-weight="500" text-anchor="start">Validation: recovering a known parameter</text><text x="40" y="75" fill="#94a3b8" font-size="15.6" font-weight="400" text-anchor="start">simulate at a known tau, fit it back</text><line x1="120.0" y1="360.0" x2="500.0" y2="110.0" stroke="#e2e8f0" stroke-width="1.5" stroke-dasharray="4 4"/><text x="180" y="190" fill="#94a3b8" font-size="13.2" font-weight="400" text-anchor="start">perfect recovery</text><circle cx="158.0" cy="335.0" r="5" fill="#185FA5" fill-opacity="0.85"/><circle cx="172.2" cy="328.8" r="5" fill="#185FA5" fill-opacity="0.85"/><circle cx="186.5" cy="322.5" r="5" fill="#185FA5" fill-opacity="0.85"/><circle cx="200.8" cy="310.0" r="5" fill="#185FA5" fill-opacity="0.85"/><circle cx="215.0" cy="303.8" r="5" fill="#185FA5" fill-opacity="0.85"/><circle cx="229.2" cy="285.0" r="5" fill="#185FA5" fill-opacity="0.85"/><circle cx="243.5" cy="278.8" r="5" fill="#185FA5" fill-opacity="0.85"/><circle cx="257.8" cy="266.2" r="5" fill="#185FA5" fill-opacity="0.85"/><circle cx="272.0" cy="266.2" r="5" fill="#185FA5" fill-opacity="0.85"/><circle cx="286.2" cy="253.8" r="5" fill="#185FA5" fill-opacity="0.85"/><circle cx="300.5" cy="253.8" r="5" fill="#185FA5" fill-opacity="0.85"/><circle cx="314.8" cy="222.5" r="5" fill="#185FA5" fill-opacity="0.85"/><circle cx="329.0" cy="222.5" r="5" fill="#185FA5" fill-opacity="0.85"/><circle cx="343.2" cy="216.2" r="5" fill="#185FA5" fill-opacity="0.85"/><circle cx="357.5" cy="216.2" r="5" fill="#185FA5" fill-opacity="0.85"/><circle cx="371.8" cy="197.5" r="5" fill="#185FA5" fill-opacity="0.85"/><circle cx="386.0" cy="197.5" r="5" fill="#185FA5" fill-opacity="0.85"/><circle cx="400.2" cy="153.8" r="5" fill="#185FA5" fill-opacity="0.85"/><circle cx="414.5" cy="153.8" r="5" fill="#185FA5" fill-opacity="0.85"/><circle cx="428.8" cy="153.8" r="5" fill="#185FA5" fill-opacity="0.85"/><circle cx="443.0" cy="147.5" r="5" fill="#185FA5" fill-opacity="0.85"/><circle cx="457.2" cy="147.5" r="5" fill="#185FA5" fill-opacity="0.85"/><line x1="158.0" y1="360" x2="158.0" y2="365" stroke="#e2e8f0"/><text x="158.0" y="380" fill="#94a3b8" font-size="13.2" font-weight="400" text-anchor="middle">12</text><line x1="115" y1="335.0" x2="120" y2="335.0" stroke="#e2e8f0"/><text x="108" y="339.0" fill="#94a3b8" font-size="13.2" font-weight="400" text-anchor="end">12</text><line x1="234.0" y1="360" x2="234.0" y2="365" stroke="#e2e8f0"/><text x="234.0" y="380" fill="#94a3b8" font-size="13.2" font-weight="400" text-anchor="middle">16</text><line x1="115" y1="285.0" x2="120" y2="285.0" stroke="#e2e8f0"/><text x="108" y="289.0" fill="#94a3b8" font-size="13.2" font-weight="400" text-anchor="end">16</text><line x1="310.0" y1="360" x2="310.0" y2="365" stroke="#e2e8f0"/><text x="310.0" y="380" fill="#94a3b8" font-size="13.2" font-weight="400" text-anchor="middle">20</text><line x1="115" y1="235.0" x2="120" y2="235.0" stroke="#e2e8f0"/><text x="108" y="239.0" fill="#94a3b8" font-size="13.2" font-weight="400" text-anchor="end">20</text><line x1="386.0" y1="360" x2="386.0" y2="365" stroke="#e2e8f0"/><text x="386.0" y="380" fill="#94a3b8" font-size="13.2" font-weight="400" text-anchor="middle">24</text><line x1="115" y1="185.0" x2="120" y2="185.0" stroke="#e2e8f0"/><text x="108" y="189.0" fill="#94a3b8" font-size="13.2" font-weight="400" text-anchor="end">24</text><line x1="462.0" y1="360" x2="462.0" y2="365" stroke="#e2e8f0"/><text x="462.0" y="380" fill="#94a3b8" font-size="13.2" font-weight="400" text-anchor="middle">28</text><line x1="115" y1="135.0" x2="120" y2="135.0" stroke="#e2e8f0"/><text x="108" y="139.0" fill="#94a3b8" font-size="13.2" font-weight="400" text-anchor="end">28</text><text x="310" y="400" fill="#64748b" font-size="15.0" font-weight="400" text-anchor="middle">true tau_inh (ms)</text><text x="42" y="235" fill="#64748b" font-size="15.0" text-anchor="middle" transform="rotate(-90 42 235)">fitted tau_inh (ms)</text><rect x="268" y="298" width="264" height="60" rx="10" fill="#f1f5f9"/><text x="286" y="322" fill="#334155" font-size="15.0" font-weight="500" text-anchor="start">unbiased · mean error −0.1 ms</text><text x="286" y="343" fill="#64748b" font-size="13.8" font-weight="400" text-anchor="start">precision ≈ 0.5 ms, far below +3.25</text></svg>