<svg viewBox="0 0 1040 300" xmlns="http://www.w3.org/2000/svg" font-family="-apple-system, BlinkMacSystemFont, 'Segoe UI', 'Inter', Helvetica, Arial, sans-serif"><line x1="214" y1="92" x2="1004" y2="92" stroke="#3b4759" stroke-width="1"/><path d="M 214.0 92.0 L 215.0 86.9 L 216.1 81.9 L 217.1 77.0 L 218.2 72.3 L 219.2 67.9 L 220.2 63.8 L 221.3 60.1 L 222.3 56.8 L 223.4 54.0 L 224.4 51.7 L 225.4 49.9 L 226.5 48.7 L 227.5 48.1 L 228.6 48.1 L 229.6 48.6 L 230.7 49.8 L 231.7 51.5 L 232.7 53.7 L 233.8 56.5 L 234.8 59.7 L 235.9 63.4 L 236.9 67.5 L 237.9 71.8 L 239.0 76.5 L 240.0 81.4 L 241.1 86.4 L 242.1 91.5 L 243.1 96.5 L 244.2 101.6 L 245.2 106.5 L 246.3 111.2 L 247.3 115.6 L 248.3 119.8 L 249.4 123.5 L 250.4 126.9 L 251.5 129.7 L 252.5 132.1 L 253.6 133.9 L 254.6 135.2 L 255.6 135.9 L 256.7 136.0 L 257.7 135.5 L 258.8 134.4 L 259.8 132.7 L 260.8 130.6 L 261.9 127.8 L 262.9 124.6 L 264.0 121.0 L 265.0 117.0 L 266.0 112.6 L 267.1 108.0 L 268.1 103.2 L 269.2 98.2 L 270.2 93.1 L 271.2 88.0 L 272.3 83.0 L 273.3 78.0 L 274.4 73.3 L 275.4 68.8 L 276.5 64.7 L 277.5 60.9 L 278.5 57.5 L 279.6 54.5 L 280.6 52.1 L 281.7 50.2 L 282.7 48.9 L 283.7 48.2 L 284.8 48.0 L 285.8 48.4 L 286.9 49.5 L 287.9 51.1 L 288.9 53.2 L 290.0 55.8 L 291.0 59.0 L 292.1 62.6 L 293.1 66.6 L 294.1 70.9 L 295.2 75.5 L 296.2 80.3 L 297.3 85.3 L 298.3 90.4 L 299.3 95.5 L 300.4 100.5 L 301.4 105.4 L 302.5 110.2 L 303.5 114.7 L 304.6 118.9 L 305.6 122.8 L 306.6 126.2 L 307.7 129.2 L 308.7 131.6 L 309.8 133.6 L 310.8 135.0 L 311.8 135.8 L 312.9 136.0 L 313.9 135.6 L 315.0 134.7 L 316.0 133.1 L 317.0 131.1 L 318.1 128.5 L 319.1 125.4 L 320.2 121.8 L 321.2 117.9 L 322.2 113.6 L 323.3 109.0 L 324.3 104.2 L 325.4 99.3 L 326.4 94.2 L 327.5 89.1 L 328.5 84.0 L 329.5 79.1 L 330.6 74.3 L 331.6 69.8 L 332.7 65.5 L 333.7 61.6 L 334.7 58.2 L 335.8 55.1 L 336.8 52.6 L 337.9 50.6 L 338.9 49.2 L 339.9 48.3 L 341.0 48.0 L 342.0 48.3 L 343.1 49.2 L 344.1 50.7 L 345.1 52.7 L 346.2 55.2 L 347.2 58.3 L 348.3 61.8 L 349.3 65.7 L 350.4 69.9 L 351.4 74.5 L 352.4 79.3 L 353.5 84.2 L 354.5 89.3 L 355.6 94.4 L 356.6 99.4 L 357.6 104.4 L 358.7 109.2 L 359.7 113.8 L 360.8 118.0 L 361.8 122.0 L 362.8 125.5 L 363.9 128.6 L 364.9 131.2 L 366.0 133.2 L 367.0 134.7 L 368.0 135.6 L 369.1 136.0 L 370.1 135.8 L 371.2 134.9 L 372.2 133.5 L 373.2 131.6 L 374.3 129.1 L 375.3 126.1 L 376.4 122.6 L 377.4 118.8 L 378.5 114.5 L 379.5 110.0 L 380.5 105.3 L 381.6 100.3 L 382.6 95.3 L 383.7 90.2 L 384.7 85.1 L 385.7 80.1 L 386.8 75.3 L 387.8 70.7 L 388.9 66.4 L 389.9 62.4 L 390.9 58.9 L 392.0 55.7 L 393.0 53.1 L 394.1 51.0 L 395.1 49.4 L 396.1 48.4 L 397.2 48.0 L 398.2 48.2 L 399.3 49.0 L 400.3 50.3 L 401.4 52.2 L 402.4 54.6 L 403.4 57.6 L 404.5 61.0 L 405.5 64.8 L 406.6 69.0 L 407.6 73.5 L 408.6 78.2 L 409.7 83.1 L 410.7 88.2 L 411.8 93.3 L 412.8 98.4 L 413.8 103.3 L 414.9 108.2 L 415.9 112.8 L 417.0 117.2 L 418.0 121.2 L 419.0 124.8 L 420.1 127.9 L 421.1 130.6 L 422.2 132.8 L 423.2 134.4 L 424.3 135.5 L 425.3 136.0 L 426.3 135.9 L 427.4 135.2 L 428.4 133.9 L 429.5 132.0 L 430.5 129.6 L 431.5 126.8 L 432.6 123.4 L 433.6 119.6 L 434.7 115.5 L 435.7 111.0 L 436.7 106.3 L 437.8 101.4 L 438.8 96.4 L 439.9 91.3 L 440.9 86.2 L 441.9 81.2 L 443.0 76.3 L 444.0 71.7 L 445.1 67.3 L 446.1 63.3 L 447.1 59.6 L 448.2 56.4 L 449.2 53.6 L 450.3 51.4 L 451.3 49.7 L 452.4 48.6 L 453.4 48.0 L 454.4 48.1 L 455.5 48.7 L 456.5 50.0 L 457.6 51.8 L 458.6 54.1 L 459.6 56.9 L 460.7 60.2 L 461.7 64.0 L 462.8 68.1 L 463.8 72.5 L 464.8 77.2 L 465.9 82.1 L 466.9 87.1 L 468.0 92.2 L 469.0 97.3 L 470.0 102.3 L 471.1 107.2 L 472.1 111.8 L 473.2 116.2 L 474.2 120.3 L 475.3 124.0 L 476.3 127.3 L 477.3 130.1 L 478.4 132.4 L 479.4 134.1 L 480.5 135.3 L 481.5 135.9 L 482.5 135.9 L 483.6 135.4 L 484.6 134.2 L 485.7 132.5 L 486.7 130.2 L 487.7 127.4 L 488.8 124.2 L 489.8 120.5 L 490.9 116.4 L 491.9 112.0 L 492.9 107.3 L 494.0 102.5 L 495.0 97.4 L 496.1 92.4 L 497.1 87.3 L 498.2 82.2 L 499.2 77.4 L 500.2 72.7 L 501.3 68.2 L 502.3 64.1 L 503.4 60.3 L 504.4 57.0 L 505.4 54.2 L 506.5 51.8 L 507.5 50.0 L 508.6 48.8 L 509.6 48.1 L 510.6 48.0 L 511.7 48.6 L 512.7 49.7 L 513.8 51.3 L 514.8 53.5 L 515.8 56.3 L 516.9 59.5 L 517.9 63.1 L 519.0 67.1 L 520.0 71.5 L 521.0 76.2 L 522.1 81.0 L 523.1 86.0 L 524.2 91.1 L 525.2 96.2 L 526.3 101.2 L 527.3 106.1 L 528.3 110.9 L 529.4 115.3 L 530.4 119.5 L 531.5 123.3 L 532.5 126.6 L 533.5 129.5 L 534.6 131.9 L 535.6 133.8 L 536.7 135.1 L 537.7 135.8 L 538.7 136.0 L 539.8 135.5 L 540.8 134.5 L 541.9 132.9 L 542.9 130.7 L 543.9 128.1 L 545.0 124.9 L 546.0 121.3 L 547.1 117.3 L 548.1 113.0 L 549.2 108.4 L 550.2 103.5 L 551.2 98.5 L 552.3 93.5 L 553.3 88.4 L 554.4 83.3 L 555.4 78.4 L 556.4 73.6 L 557.5 69.1 L 558.5 64.9 L 559.6 61.1 L 560.6 57.7 L 561.6 54.7 L 562.7 52.3 L 563.7 50.4 L 564.8 49.0 L 565.8 48.2 L 566.8 48.0 L 567.9 48.4 L 568.9 49.4 L 570.0 50.9 L 571.0 53.0 L 572.1 55.6 L 573.1 58.7 L 574.1 62.3 L 575.2 66.3 L 576.2 70.6 L 577.3 75.1 L 578.3 80.0 L 579.3 84.9 L 580.4 90.0 L 581.4 95.1 L 582.5 100.1 L 583.5 105.1 L 584.5 109.9 L 585.6 114.4 L 586.6 118.6 L 587.7 122.5 L 588.7 126.0 L 589.7 129.0 L 590.8 131.5 L 591.8 133.5 L 592.9 134.9 L 593.9 135.7 L 594.9 136.0 L 596.0 135.7 L 597.0 134.8 L 598.1 133.3 L 599.1 131.2 L 600.2 128.7 L 601.2 125.6 L 602.2 122.1 L 603.3 118.2 L 604.3 113.9 L 605.4 109.4 L 606.4 104.6 L 607.4 99.6 L 608.5 94.5 L 609.5 89.5 L 610.6 84.4 L 611.6 79.4 L 612.6 74.6 L 613.7 70.1 L 614.7 65.8 L 615.8 61.9 L 616.8 58.4 L 617.8 55.3 L 618.9 52.8 L 619.9 50.7 L 621.0 49.2 L 622.0 48.3 L 623.1 48.0 L 624.1 48.3 L 625.1 49.1 L 626.2 50.5 L 627.2 52.5 L 628.3 55.0 L 629.3 58.0 L 630.3 61.5 L 631.4 65.4 L 632.4 69.6 L 633.5 74.1 L 634.5 78.9 L 635.5 83.9 L 636.6 88.9 L 637.6 94.0 L 638.7 99.1 L 639.7 104.0 L 640.7 108.9 L 641.8 113.4 L 642.8 117.7 L 643.9 121.7 L 644.9 125.3 L 645.9 128.4 L 647.0 131.0 L 648.0 133.1 L 649.1 134.6 L 650.1 135.6 L 651.2 136.0 L 652.2 135.8 L 653.2 135.0 L 654.3 133.6 L 655.3 131.7 L 656.4 129.3 L 657.4 126.3 L 658.4 122.9 L 659.5 119.1 L 660.5 114.9 L 661.6 110.4 L 662.6 105.6 L 663.6 100.7 L 664.7 95.6 L 665.7 90.5 L 666.8 85.5 L 667.8 80.5 L 668.8 75.6 L 669.9 71.0 L 670.9 66.7 L 672.0 62.7 L 673.0 59.1 L 674.1 55.9 L 675.1 53.3 L 676.1 51.1 L 677.2 49.5 L 678.2 48.5 L 679.3 48.0 L 680.3 48.2 L 681.3 48.9 L 682.4 50.2 L 683.4 52.1 L 684.5 54.5 L 685.5 57.4 L 686.5 60.7 L 687.6 64.5 L 688.6 68.7 L 689.7 73.1 L 690.7 77.9 L 691.7 82.8 L 692.8 87.8 L 693.8 92.9 L 694.9 98.0 L 695.9 103.0 L 697.0 107.8 L 698.0 112.5 L 699.0 116.9 L 700.1 120.9 L 701.1 124.5 L 702.2 127.7 L 703.2 130.5 L 704.2 132.7 L 705.3 134.3 L 706.3 135.4 L 707.4 136.0 L 708.4 135.9 L 709.4 135.2 L 710.5 134.0 L 711.5 132.2 L 712.6 129.8 L 713.6 127.0 L 714.6 123.7 L 715.7 119.9 L 716.7 115.8 L 717.8 111.3 L 718.8 106.6 L 719.8 101.8 L 720.9 96.7 L 721.9 91.6 L 723.0 86.6 L 724.0 81.5 L 725.1 76.7 L 726.1 72.0 L 727.1 67.6 L 728.2 63.5 L 729.2 59.8 L 730.3 56.6 L 731.3 53.8 L 732.3 51.5 L 733.4 49.8 L 734.4 48.6 L 735.5 48.1 L 736.5 48.1 L 737.5 48.7 L 738.6 49.9 L 739.6 51.6 L 740.7 53.9 L 741.7 56.7 L 742.7 60.0 L 743.8 63.7 L 744.8 67.8 L 745.9 72.2 L 746.9 76.8 L 748.0 81.7 L 749.0 86.7 L 750.0 91.8 L 751.1 96.9 L 752.1 101.9 L 753.2 106.8 L 754.2 111.5 L 755.2 115.9 L 756.3 120.0 L 757.3 123.8 L 758.4 127.1 L 759.4 129.9 L 760.4 132.2 L 761.5 134.0 L 762.5 135.3 L 763.6 135.9 L 764.6 136.0 L 765.6 135.4 L 766.7 134.3 L 767.7 132.6 L 768.8 130.4 L 769.8 127.6 L 770.9 124.4 L 771.9 120.7 L 772.9 116.7 L 774.0 112.3 L 775.0 107.7 L 776.1 102.8 L 777.1 97.8 L 778.1 92.7 L 779.2 87.6 L 780.2 82.6 L 781.3 77.7 L 782.3 73.0 L 783.3 68.5 L 784.4 64.4 L 785.4 60.6 L 786.5 57.2 L 787.5 54.4 L 788.5 52.0 L 789.6 50.1 L 790.6 48.8 L 791.7 48.1 L 792.7 48.0 L 793.7 48.5 L 794.8 49.6 L 795.8 51.2 L 796.9 53.4 L 797.9 56.1 L 799.0 59.2 L 800.0 62.8 L 801.0 66.8 L 802.1 71.2 L 803.1 75.8 L 804.2 80.7 L 805.2 85.6 L 806.2 90.7 L 807.3 95.8 L 808.3 100.9 L 809.4 105.8 L 810.4 110.5 L 811.4 115.0 L 812.5 119.2 L 813.5 123.0 L 814.6 126.4 L 815.6 129.4 L 816.6 131.8 L 817.7 133.7 L 818.7 135.0 L 819.8 135.8 L 820.8 136.0 L 821.9 135.6 L 822.9 134.6 L 823.9 133.0 L 825.0 130.9 L 826.0 128.3 L 827.1 125.1 L 828.1 121.6 L 829.1 117.6 L 830.2 113.3 L 831.2 108.7 L 832.3 103.9 L 833.3 98.9 L 834.3 93.8 L 835.4 88.7 L 836.4 83.7 L 837.5 78.7 L 838.5 74.0 L 839.5 69.5 L 840.6 65.2 L 841.6 61.4 L 842.7 57.9 L 843.7 54.9 L 844.8 52.4 L 845.8 50.5 L 846.8 49.1 L 847.9 48.2 L 848.9 48.0 L 850.0 48.4 L 851.0 49.3 L 852.0 50.8 L 853.1 52.8 L 854.1 55.4 L 855.2 58.5 L 856.2 62.0 L 857.2 66.0 L 858.3 70.2 L 859.3 74.8 L 860.4 79.6 L 861.4 84.6 L 862.4 89.6 L 863.5 94.7 L 864.5 99.8 L 865.6 104.7 L 866.6 109.5 L 867.6 114.1 L 868.7 118.3 L 869.7 122.2 L 870.8 125.7 L 871.8 128.8 L 872.9 131.3 L 873.9 133.3 L 874.9 134.8 L 876.0 135.7 L 877.0 136.0 L 878.1 135.7 L 879.1 134.8 L 880.1 133.4 L 881.2 131.4 L 882.2 128.9 L 883.3 125.8 L 884.3 122.4 L 885.3 118.5 L 886.4 114.2 L 887.4 109.7 L 888.5 104.9 L 889.5 100.0 L 890.5 94.9 L 891.6 89.8 L 892.6 84.7 L 893.7 79.8 L 894.7 75.0 L 895.8 70.4 L 896.8 66.1 L 897.8 62.2 L 898.9 58.6 L 899.9 55.5 L 901.0 52.9 L 902.0 50.9 L 903.0 49.3 L 904.1 48.4 L 905.1 48.0 L 906.2 48.2 L 907.2 49.0 L 908.2 50.4 L 909.3 52.4 L 910.3 54.8 L 911.4 57.8 L 912.4 61.2 L 913.4 65.1 L 914.5 69.3 L 915.5 73.8 L 916.6 78.6 L 917.6 83.5 L 918.7 88.5 L 919.7 93.6 L 920.7 98.7 L 921.8 103.7 L 922.8 108.5 L 923.9 113.1 L 924.9 117.4 L 925.9 121.4 L 927.0 125.0 L 928.0 128.2 L 929.1 130.8 L 930.1 132.9 L 931.1 134.5 L 932.2 135.6 L 933.2 136.0 L 934.3 135.8 L 935.3 135.1 L 936.3 133.8 L 937.4 131.9 L 938.4 129.5 L 939.5 126.5 L 940.5 123.1 L 941.5 119.3 L 942.6 115.2 L 943.6 110.7 L 944.7 106.0 L 945.7 101.0 L 946.8 96.0 L 947.8 90.9 L 948.8 85.8 L 949.9 80.8 L 950.9 76.0 L 952.0 71.4 L 953.0 67.0 L 954.0 63.0 L 955.1 59.4 L 956.1 56.2 L 957.2 53.4 L 958.2 51.3 L 959.2 49.6 L 960.3 48.5 L 961.3 48.0 L 962.4 48.1 L 963.4 48.8 L 964.4 50.1 L 965.5 51.9 L 966.5 54.3 L 967.6 57.1 L 968.6 60.5 L 969.7 64.2 L 970.7 68.4 L 971.7 72.8 L 972.8 77.5 L 973.8 82.4 L 974.9 87.5 L 975.9 92.5 L 976.9 97.6 L 978.0 102.6 L 979.0 107.5 L 980.1 112.2 L 981.1 116.5 L 982.1 120.6 L 983.2 124.3 L 984.2 127.5 L 985.3 130.3 L 986.3 132.5 L 987.3 134.2 L 988.4 135.4 L 989.4 135.9 L 990.5 135.9 L 991.5 135.3 L 992.6 134.1 L 993.6 132.3 L 994.6 130.0 L 995.7 127.2 L 996.7 123.9 L 997.8 120.2 L 998.8 116.1 L 999.8 111.7 L 1000.9 107.0 L 1001.9 102.1 L 1003.0 97.1 L 1004.0 92.0" fill="none" stroke="#4d9be6" stroke-width="13" stroke-opacity="0.16" stroke-linecap="round"/><path d="M 214.0 92.0 L 215.0 86.9 L 216.1 81.9 L 217.1 77.0 L 218.2 72.3 L 219.2 67.9 L 220.2 63.8 L 221.3 60.1 L 222.3 56.8 L 223.4 54.0 L 224.4 51.7 L 225.4 49.9 L 226.5 48.7 L 227.5 48.1 L 228.6 48.1 L 229.6 48.6 L 230.7 49.8 L 231.7 51.5 L 232.7 53.7 L 233.8 56.5 L 234.8 59.7 L 235.9 63.4 L 236.9 67.5 L 237.9 71.8 L 239.0 76.5 L 240.0 81.4 L 241.1 86.4 L 242.1 91.5 L 243.1 96.5 L 244.2 101.6 L 245.2 106.5 L 246.3 111.2 L 247.3 115.6 L 248.3 119.8 L 249.4 123.5 L 250.4 126.9 L 251.5 129.7 L 252.5 132.1 L 253.6 133.9 L 254.6 135.2 L 255.6 135.9 L 256.7 136.0 L 257.7 135.5 L 258.8 134.4 L 259.8 132.7 L 260.8 130.6 L 261.9 127.8 L 262.9 124.6 L 264.0 121.0 L 265.0 117.0 L 266.0 112.6 L 267.1 108.0 L 268.1 103.2 L 269.2 98.2 L 270.2 93.1 L 271.2 88.0 L 272.3 83.0 L 273.3 78.0 L 274.4 73.3 L 275.4 68.8 L 276.5 64.7 L 277.5 60.9 L 278.5 57.5 L 279.6 54.5 L 280.6 52.1 L 281.7 50.2 L 282.7 48.9 L 283.7 48.2 L 284.8 48.0 L 285.8 48.4 L 286.9 49.5 L 287.9 51.1 L 288.9 53.2 L 290.0 55.8 L 291.0 59.0 L 292.1 62.6 L 293.1 66.6 L 294.1 70.9 L 295.2 75.5 L 296.2 80.3 L 297.3 85.3 L 298.3 90.4 L 299.3 95.5 L 300.4 100.5 L 301.4 105.4 L 302.5 110.2 L 303.5 114.7 L 304.6 118.9 L 305.6 122.8 L 306.6 126.2 L 307.7 129.2 L 308.7 131.6 L 309.8 133.6 L 310.8 135.0 L 311.8 135.8 L 312.9 136.0 L 313.9 135.6 L 315.0 134.7 L 316.0 133.1 L 317.0 131.1 L 318.1 128.5 L 319.1 125.4 L 320.2 121.8 L 321.2 117.9 L 322.2 113.6 L 323.3 109.0 L 324.3 104.2 L 325.4 99.3 L 326.4 94.2 L 327.5 89.1 L 328.5 84.0 L 329.5 79.1 L 330.6 74.3 L 331.6 69.8 L 332.7 65.5 L 333.7 61.6 L 334.7 58.2 L 335.8 55.1 L 336.8 52.6 L 337.9 50.6 L 338.9 49.2 L 339.9 48.3 L 341.0 48.0 L 342.0 48.3 L 343.1 49.2 L 344.1 50.7 L 345.1 52.7 L 346.2 55.2 L 347.2 58.3 L 348.3 61.8 L 349.3 65.7 L 350.4 69.9 L 351.4 74.5 L 352.4 79.3 L 353.5 84.2 L 354.5 89.3 L 355.6 94.4 L 356.6 99.4 L 357.6 104.4 L 358.7 109.2 L 359.7 113.8 L 360.8 118.0 L 361.8 122.0 L 362.8 125.5 L 363.9 128.6 L 364.9 131.2 L 366.0 133.2 L 367.0 134.7 L 368.0 135.6 L 369.1 136.0 L 370.1 135.8 L 371.2 134.9 L 372.2 133.5 L 373.2 131.6 L 374.3 129.1 L 375.3 126.1 L 376.4 122.6 L 377.4 118.8 L 378.5 114.5 L 379.5 110.0 L 380.5 105.3 L 381.6 100.3 L 382.6 95.3 L 383.7 90.2 L 384.7 85.1 L 385.7 80.1 L 386.8 75.3 L 387.8 70.7 L 388.9 66.4 L 389.9 62.4 L 390.9 58.9 L 392.0 55.7 L 393.0 53.1 L 394.1 51.0 L 395.1 49.4 L 396.1 48.4 L 397.2 48.0 L 398.2 48.2 L 399.3 49.0 L 400.3 50.3 L 401.4 52.2 L 402.4 54.6 L 403.4 57.6 L 404.5 61.0 L 405.5 64.8 L 406.6 69.0 L 407.6 73.5 L 408.6 78.2 L 409.7 83.1 L 410.7 88.2 L 411.8 93.3 L 412.8 98.4 L 413.8 103.3 L 414.9 108.2 L 415.9 112.8 L 417.0 117.2 L 418.0 121.2 L 419.0 124.8 L 420.1 127.9 L 421.1 130.6 L 422.2 132.8 L 423.2 134.4 L 424.3 135.5 L 425.3 136.0 L 426.3 135.9 L 427.4 135.2 L 428.4 133.9 L 429.5 132.0 L 430.5 129.6 L 431.5 126.8 L 432.6 123.4 L 433.6 119.6 L 434.7 115.5 L 435.7 111.0 L 436.7 106.3 L 437.8 101.4 L 438.8 96.4 L 439.9 91.3 L 440.9 86.2 L 441.9 81.2 L 443.0 76.3 L 444.0 71.7 L 445.1 67.3 L 446.1 63.3 L 447.1 59.6 L 448.2 56.4 L 449.2 53.6 L 450.3 51.4 L 451.3 49.7 L 452.4 48.6 L 453.4 48.0 L 454.4 48.1 L 455.5 48.7 L 456.5 50.0 L 457.6 51.8 L 458.6 54.1 L 459.6 56.9 L 460.7 60.2 L 461.7 64.0 L 462.8 68.1 L 463.8 72.5 L 464.8 77.2 L 465.9 82.1 L 466.9 87.1 L 468.0 92.2 L 469.0 97.3 L 470.0 102.3 L 471.1 107.2 L 472.1 111.8 L 473.2 116.2 L 474.2 120.3 L 475.3 124.0 L 476.3 127.3 L 477.3 130.1 L 478.4 132.4 L 479.4 134.1 L 480.5 135.3 L 481.5 135.9 L 482.5 135.9 L 483.6 135.4 L 484.6 134.2 L 485.7 132.5 L 486.7 130.2 L 487.7 127.4 L 488.8 124.2 L 489.8 120.5 L 490.9 116.4 L 491.9 112.0 L 492.9 107.3 L 494.0 102.5 L 495.0 97.4 L 496.1 92.4 L 497.1 87.3 L 498.2 82.2 L 499.2 77.4 L 500.2 72.7 L 501.3 68.2 L 502.3 64.1 L 503.4 60.3 L 504.4 57.0 L 505.4 54.2 L 506.5 51.8 L 507.5 50.0 L 508.6 48.8 L 509.6 48.1 L 510.6 48.0 L 511.7 48.6 L 512.7 49.7 L 513.8 51.3 L 514.8 53.5 L 515.8 56.3 L 516.9 59.5 L 517.9 63.1 L 519.0 67.1 L 520.0 71.5 L 521.0 76.2 L 522.1 81.0 L 523.1 86.0 L 524.2 91.1 L 525.2 96.2 L 526.3 101.2 L 527.3 106.1 L 528.3 110.9 L 529.4 115.3 L 530.4 119.5 L 531.5 123.3 L 532.5 126.6 L 533.5 129.5 L 534.6 131.9 L 535.6 133.8 L 536.7 135.1 L 537.7 135.8 L 538.7 136.0 L 539.8 135.5 L 540.8 134.5 L 541.9 132.9 L 542.9 130.7 L 543.9 128.1 L 545.0 124.9 L 546.0 121.3 L 547.1 117.3 L 548.1 113.0 L 549.2 108.4 L 550.2 103.5 L 551.2 98.5 L 552.3 93.5 L 553.3 88.4 L 554.4 83.3 L 555.4 78.4 L 556.4 73.6 L 557.5 69.1 L 558.5 64.9 L 559.6 61.1 L 560.6 57.7 L 561.6 54.7 L 562.7 52.3 L 563.7 50.4 L 564.8 49.0 L 565.8 48.2 L 566.8 48.0 L 567.9 48.4 L 568.9 49.4 L 570.0 50.9 L 571.0 53.0 L 572.1 55.6 L 573.1 58.7 L 574.1 62.3 L 575.2 66.3 L 576.2 70.6 L 577.3 75.1 L 578.3 80.0 L 579.3 84.9 L 580.4 90.0 L 581.4 95.1 L 582.5 100.1 L 583.5 105.1 L 584.5 109.9 L 585.6 114.4 L 586.6 118.6 L 587.7 122.5 L 588.7 126.0 L 589.7 129.0 L 590.8 131.5 L 591.8 133.5 L 592.9 134.9 L 593.9 135.7 L 594.9 136.0 L 596.0 135.7 L 597.0 134.8 L 598.1 133.3 L 599.1 131.2 L 600.2 128.7 L 601.2 125.6 L 602.2 122.1 L 603.3 118.2 L 604.3 113.9 L 605.4 109.4 L 606.4 104.6 L 607.4 99.6 L 608.5 94.5 L 609.5 89.5 L 610.6 84.4 L 611.6 79.4 L 612.6 74.6 L 613.7 70.1 L 614.7 65.8 L 615.8 61.9 L 616.8 58.4 L 617.8 55.3 L 618.9 52.8 L 619.9 50.7 L 621.0 49.2 L 622.0 48.3 L 623.1 48.0 L 624.1 48.3 L 625.1 49.1 L 626.2 50.5 L 627.2 52.5 L 628.3 55.0 L 629.3 58.0 L 630.3 61.5 L 631.4 65.4 L 632.4 69.6 L 633.5 74.1 L 634.5 78.9 L 635.5 83.9 L 636.6 88.9 L 637.6 94.0 L 638.7 99.1 L 639.7 104.0 L 640.7 108.9 L 641.8 113.4 L 642.8 117.7 L 643.9 121.7 L 644.9 125.3 L 645.9 128.4 L 647.0 131.0 L 648.0 133.1 L 649.1 134.6 L 650.1 135.6 L 651.2 136.0 L 652.2 135.8 L 653.2 135.0 L 654.3 133.6 L 655.3 131.7 L 656.4 129.3 L 657.4 126.3 L 658.4 122.9 L 659.5 119.1 L 660.5 114.9 L 661.6 110.4 L 662.6 105.6 L 663.6 100.7 L 664.7 95.6 L 665.7 90.5 L 666.8 85.5 L 667.8 80.5 L 668.8 75.6 L 669.9 71.0 L 670.9 66.7 L 672.0 62.7 L 673.0 59.1 L 674.1 55.9 L 675.1 53.3 L 676.1 51.1 L 677.2 49.5 L 678.2 48.5 L 679.3 48.0 L 680.3 48.2 L 681.3 48.9 L 682.4 50.2 L 683.4 52.1 L 684.5 54.5 L 685.5 57.4 L 686.5 60.7 L 687.6 64.5 L 688.6 68.7 L 689.7 73.1 L 690.7 77.9 L 691.7 82.8 L 692.8 87.8 L 693.8 92.9 L 694.9 98.0 L 695.9 103.0 L 697.0 107.8 L 698.0 112.5 L 699.0 116.9 L 700.1 120.9 L 701.1 124.5 L 702.2 127.7 L 703.2 130.5 L 704.2 132.7 L 705.3 134.3 L 706.3 135.4 L 707.4 136.0 L 708.4 135.9 L 709.4 135.2 L 710.5 134.0 L 711.5 132.2 L 712.6 129.8 L 713.6 127.0 L 714.6 123.7 L 715.7 119.9 L 716.7 115.8 L 717.8 111.3 L 718.8 106.6 L 719.8 101.8 L 720.9 96.7 L 721.9 91.6 L 723.0 86.6 L 724.0 81.5 L 725.1 76.7 L 726.1 72.0 L 727.1 67.6 L 728.2 63.5 L 729.2 59.8 L 730.3 56.6 L 731.3 53.8 L 732.3 51.5 L 733.4 49.8 L 734.4 48.6 L 735.5 48.1 L 736.5 48.1 L 737.5 48.7 L 738.6 49.9 L 739.6 51.6 L 740.7 53.9 L 741.7 56.7 L 742.7 60.0 L 743.8 63.7 L 744.8 67.8 L 745.9 72.2 L 746.9 76.8 L 748.0 81.7 L 749.0 86.7 L 750.0 91.8 L 751.1 96.9 L 752.1 101.9 L 753.2 106.8 L 754.2 111.5 L 755.2 115.9 L 756.3 120.0 L 757.3 123.8 L 758.4 127.1 L 759.4 129.9 L 760.4 132.2 L 761.5 134.0 L 762.5 135.3 L 763.6 135.9 L 764.6 136.0 L 765.6 135.4 L 766.7 134.3 L 767.7 132.6 L 768.8 130.4 L 769.8 127.6 L 770.9 124.4 L 771.9 120.7 L 772.9 116.7 L 774.0 112.3 L 775.0 107.7 L 776.1 102.8 L 777.1 97.8 L 778.1 92.7 L 779.2 87.6 L 780.2 82.6 L 781.3 77.7 L 782.3 73.0 L 783.3 68.5 L 784.4 64.4 L 785.4 60.6 L 786.5 57.2 L 787.5 54.4 L 788.5 52.0 L 789.6 50.1 L 790.6 48.8 L 791.7 48.1 L 792.7 48.0 L 793.7 48.5 L 794.8 49.6 L 795.8 51.2 L 796.9 53.4 L 797.9 56.1 L 799.0 59.2 L 800.0 62.8 L 801.0 66.8 L 802.1 71.2 L 803.1 75.8 L 804.2 80.7 L 805.2 85.6 L 806.2 90.7 L 807.3 95.8 L 808.3 100.9 L 809.4 105.8 L 810.4 110.5 L 811.4 115.0 L 812.5 119.2 L 813.5 123.0 L 814.6 126.4 L 815.6 129.4 L 816.6 131.8 L 817.7 133.7 L 818.7 135.0 L 819.8 135.8 L 820.8 136.0 L 821.9 135.6 L 822.9 134.6 L 823.9 133.0 L 825.0 130.9 L 826.0 128.3 L 827.1 125.1 L 828.1 121.6 L 829.1 117.6 L 830.2 113.3 L 831.2 108.7 L 832.3 103.9 L 833.3 98.9 L 834.3 93.8 L 835.4 88.7 L 836.4 83.7 L 837.5 78.7 L 838.5 74.0 L 839.5 69.5 L 840.6 65.2 L 841.6 61.4 L 842.7 57.9 L 843.7 54.9 L 844.8 52.4 L 845.8 50.5 L 846.8 49.1 L 847.9 48.2 L 848.9 48.0 L 850.0 48.4 L 851.0 49.3 L 852.0 50.8 L 853.1 52.8 L 854.1 55.4 L 855.2 58.5 L 856.2 62.0 L 857.2 66.0 L 858.3 70.2 L 859.3 74.8 L 860.4 79.6 L 861.4 84.6 L 862.4 89.6 L 863.5 94.7 L 864.5 99.8 L 865.6 104.7 L 866.6 109.5 L 867.6 114.1 L 868.7 118.3 L 869.7 122.2 L 870.8 125.7 L 871.8 128.8 L 872.9 131.3 L 873.9 133.3 L 874.9 134.8 L 876.0 135.7 L 877.0 136.0 L 878.1 135.7 L 879.1 134.8 L 880.1 133.4 L 881.2 131.4 L 882.2 128.9 L 883.3 125.8 L 884.3 122.4 L 885.3 118.5 L 886.4 114.2 L 887.4 109.7 L 888.5 104.9 L 889.5 100.0 L 890.5 94.9 L 891.6 89.8 L 892.6 84.7 L 893.7 79.8 L 894.7 75.0 L 895.8 70.4 L 896.8 66.1 L 897.8 62.2 L 898.9 58.6 L 899.9 55.5 L 901.0 52.9 L 902.0 50.9 L 903.0 49.3 L 904.1 48.4 L 905.1 48.0 L 906.2 48.2 L 907.2 49.0 L 908.2 50.4 L 909.3 52.4 L 910.3 54.8 L 911.4 57.8 L 912.4 61.2 L 913.4 65.1 L 914.5 69.3 L 915.5 73.8 L 916.6 78.6 L 917.6 83.5 L 918.7 88.5 L 919.7 93.6 L 920.7 98.7 L 921.8 103.7 L 922.8 108.5 L 923.9 113.1 L 924.9 117.4 L 925.9 121.4 L 927.0 125.0 L 928.0 128.2 L 929.1 130.8 L 930.1 132.9 L 931.1 134.5 L 932.2 135.6 L 933.2 136.0 L 934.3 135.8 L 935.3 135.1 L 936.3 133.8 L 937.4 131.9 L 938.4 129.5 L 939.5 126.5 L 940.5 123.1 L 941.5 119.3 L 942.6 115.2 L 943.6 110.7 L 944.7 106.0 L 945.7 101.0 L 946.8 96.0 L 947.8 90.9 L 948.8 85.8 L 949.9 80.8 L 950.9 76.0 L 952.0 71.4 L 953.0 67.0 L 954.0 63.0 L 955.1 59.4 L 956.1 56.2 L 957.2 53.4 L 958.2 51.3 L 959.2 49.6 L 960.3 48.5 L 961.3 48.0 L 962.4 48.1 L 963.4 48.8 L 964.4 50.1 L 965.5 51.9 L 966.5 54.3 L 967.6 57.1 L 968.6 60.5 L 969.7 64.2 L 970.7 68.4 L 971.7 72.8 L 972.8 77.5 L 973.8 82.4 L 974.9 87.5 L 975.9 92.5 L 976.9 97.6 L 978.0 102.6 L 979.0 107.5 L 980.1 112.2 L 981.1 116.5 L 982.1 120.6 L 983.2 124.3 L 984.2 127.5 L 985.3 130.3 L 986.3 132.5 L 987.3 134.2 L 988.4 135.4 L 989.4 135.9 L 990.5 135.9 L 991.5 135.3 L 992.6 134.1 L 993.6 132.3 L 994.6 130.0 L 995.7 127.2 L 996.7 123.9 L 997.8 120.2 L 998.8 116.1 L 999.8 111.7 L 1000.9 107.0 L 1001.9 102.1 L 1003.0 97.1 L 1004.0 92.0" fill="none" stroke="#4d9be6" stroke-width="4" stroke-linecap="round" stroke-linejoin="round"/><circle cx="44" cy="92" r="6" fill="#4d9be6"/><text x="60" y="100" fill="#4d9be6" font-size="25" font-weight="800" text-anchor="start" font-family="-apple-system, BlinkMacSystemFont, 'Segoe UI', 'Inter', Helvetica, Arial, sans-serif">Control</text><line x1="214" y1="214" x2="1004" y2="214" stroke="#3b4759" stroke-width="1"/><path d="M 214.0 214.0 L 215.0 211.5 L 216.1 208.9 L 217.1 206.4 L 218.2 203.9 L 219.2 201.4 L 220.2 199.0 L 221.3 196.6 L 222.3 194.3 L 223.4 192.1 L 224.4 189.9 L 225.4 187.8 L 226.5 185.8 L 227.5 183.9 L 228.6 182.1 L 229.6 180.4 L 230.7 178.8 L 231.7 177.3 L 232.7 176.0 L 233.8 174.8 L 234.8 173.7 L 235.9 172.7 L 236.9 171.9 L 237.9 171.2 L 239.0 170.7 L 240.0 170.3 L 241.1 170.1 L 242.1 170.0 L 243.1 170.1 L 244.2 170.3 L 245.2 170.6 L 246.3 171.1 L 247.3 171.8 L 248.3 172.5 L 249.4 173.5 L 250.4 174.5 L 251.5 175.7 L 252.5 177.0 L 253.6 178.5 L 254.6 180.0 L 255.6 181.7 L 256.7 183.5 L 257.7 185.4 L 258.8 187.4 L 259.8 189.5 L 260.8 191.6 L 261.9 193.8 L 262.9 196.1 L 264.0 198.5 L 265.0 200.9 L 266.0 203.4 L 267.1 205.9 L 268.1 208.4 L 269.2 210.9 L 270.2 213.5 L 271.2 216.0 L 272.3 218.5 L 273.3 221.1 L 274.4 223.6 L 275.4 226.0 L 276.5 228.5 L 277.5 230.9 L 278.5 233.2 L 279.6 235.4 L 280.6 237.6 L 281.7 239.7 L 282.7 241.8 L 283.7 243.7 L 284.8 245.5 L 285.8 247.3 L 286.9 248.9 L 287.9 250.4 L 288.9 251.7 L 290.0 253.0 L 291.0 254.1 L 292.1 255.1 L 293.1 255.9 L 294.1 256.6 L 295.2 257.2 L 296.2 257.6 L 297.3 257.9 L 298.3 258.0 L 299.3 258.0 L 300.4 257.8 L 301.4 257.5 L 302.5 257.0 L 303.5 256.4 L 304.6 255.6 L 305.6 254.7 L 306.6 253.7 L 307.7 252.6 L 308.7 251.3 L 309.8 249.8 L 310.8 248.3 L 311.8 246.6 L 312.9 244.9 L 313.9 243.0 L 315.0 241.1 L 316.0 239.0 L 317.0 236.9 L 318.1 234.6 L 319.1 232.4 L 320.2 230.0 L 321.2 227.6 L 322.2 225.2 L 323.3 222.7 L 324.3 220.2 L 325.4 217.6 L 326.4 215.1 L 327.5 212.5 L 328.5 210.0 L 329.5 207.5 L 330.6 205.0 L 331.6 202.5 L 332.7 200.0 L 333.7 197.6 L 334.7 195.3 L 335.8 193.0 L 336.8 190.8 L 337.9 188.7 L 338.9 186.7 L 339.9 184.7 L 341.0 182.9 L 342.0 181.1 L 343.1 179.5 L 344.1 177.9 L 345.1 176.5 L 346.2 175.3 L 347.2 174.1 L 348.3 173.1 L 349.3 172.2 L 350.4 171.5 L 351.4 170.9 L 352.4 170.5 L 353.5 170.2 L 354.5 170.0 L 355.6 170.0 L 356.6 170.2 L 357.6 170.4 L 358.7 170.9 L 359.7 171.5 L 360.8 172.2 L 361.8 173.1 L 362.8 174.1 L 363.9 175.2 L 364.9 176.5 L 366.0 177.8 L 367.0 179.4 L 368.0 181.0 L 369.1 182.7 L 370.1 184.6 L 371.2 186.5 L 372.2 188.6 L 373.2 190.7 L 374.3 192.9 L 375.3 195.1 L 376.4 197.5 L 377.4 199.9 L 378.5 202.3 L 379.5 204.8 L 380.5 207.3 L 381.6 209.8 L 382.6 212.4 L 383.7 214.9 L 384.7 217.5 L 385.7 220.0 L 386.8 222.5 L 387.8 225.0 L 388.9 227.4 L 389.9 229.8 L 390.9 232.2 L 392.0 234.5 L 393.0 236.7 L 394.1 238.9 L 395.1 240.9 L 396.1 242.9 L 397.2 244.8 L 398.2 246.5 L 399.3 248.2 L 400.3 249.7 L 401.4 251.2 L 402.4 252.5 L 403.4 253.6 L 404.5 254.7 L 405.5 255.6 L 406.6 256.3 L 407.6 257.0 L 408.6 257.4 L 409.7 257.8 L 410.7 258.0 L 411.8 258.0 L 412.8 257.9 L 413.8 257.6 L 414.9 257.2 L 415.9 256.7 L 417.0 256.0 L 418.0 255.1 L 419.0 254.2 L 420.1 253.1 L 421.1 251.8 L 422.2 250.5 L 423.2 249.0 L 424.3 247.4 L 425.3 245.7 L 426.3 243.8 L 427.4 241.9 L 428.4 239.9 L 429.5 237.8 L 430.5 235.6 L 431.5 233.3 L 432.6 231.0 L 433.6 228.6 L 434.7 226.2 L 435.7 223.8 L 436.7 221.3 L 437.8 218.7 L 438.8 216.2 L 439.9 213.6 L 440.9 211.1 L 441.9 208.6 L 443.0 206.0 L 444.0 203.5 L 445.1 201.1 L 446.1 198.7 L 447.1 196.3 L 448.2 194.0 L 449.2 191.8 L 450.3 189.6 L 451.3 187.5 L 452.4 185.5 L 453.4 183.6 L 454.4 181.8 L 455.5 180.2 L 456.5 178.6 L 457.6 177.1 L 458.6 175.8 L 459.6 174.6 L 460.7 173.5 L 461.7 172.6 L 462.8 171.8 L 463.8 171.2 L 464.8 170.6 L 465.9 170.3 L 466.9 170.1 L 468.0 170.0 L 469.0 170.1 L 470.0 170.3 L 471.1 170.7 L 472.1 171.2 L 473.2 171.9 L 474.2 172.7 L 475.3 173.6 L 476.3 174.7 L 477.3 175.9 L 478.4 177.2 L 479.4 178.7 L 480.5 180.3 L 481.5 182.0 L 482.5 183.8 L 483.6 185.7 L 484.6 187.7 L 485.7 189.8 L 486.7 191.9 L 487.7 194.2 L 488.8 196.5 L 489.8 198.8 L 490.9 201.3 L 491.9 203.7 L 492.9 206.2 L 494.0 208.7 L 495.0 211.3 L 496.1 213.8 L 497.1 216.4 L 498.2 218.9 L 499.2 221.4 L 500.2 223.9 L 501.3 226.4 L 502.3 228.8 L 503.4 231.2 L 504.4 233.5 L 505.4 235.8 L 506.5 237.9 L 507.5 240.0 L 508.6 242.0 L 509.6 244.0 L 510.6 245.8 L 511.7 247.5 L 512.7 249.1 L 513.8 250.6 L 514.8 251.9 L 515.8 253.2 L 516.9 254.2 L 517.9 255.2 L 519.0 256.0 L 520.0 256.7 L 521.0 257.3 L 522.1 257.6 L 523.1 257.9 L 524.2 258.0 L 525.2 258.0 L 526.3 257.8 L 527.3 257.4 L 528.3 256.9 L 529.4 256.3 L 530.4 255.5 L 531.5 254.6 L 532.5 253.6 L 533.5 252.4 L 534.6 251.1 L 535.6 249.6 L 536.7 248.1 L 537.7 246.4 L 538.7 244.6 L 539.8 242.7 L 540.8 240.8 L 541.9 238.7 L 542.9 236.5 L 543.9 234.3 L 545.0 232.0 L 546.0 229.7 L 547.1 227.3 L 548.1 224.8 L 549.2 222.3 L 550.2 219.8 L 551.2 217.3 L 552.3 214.7 L 553.3 212.2 L 554.4 209.6 L 555.4 207.1 L 556.4 204.6 L 557.5 202.1 L 558.5 199.7 L 559.6 197.3 L 560.6 195.0 L 561.6 192.7 L 562.7 190.5 L 563.7 188.4 L 564.8 186.4 L 565.8 184.4 L 566.8 182.6 L 567.9 180.9 L 568.9 179.2 L 570.0 177.7 L 571.0 176.4 L 572.1 175.1 L 573.1 174.0 L 574.1 173.0 L 575.2 172.1 L 576.2 171.4 L 577.3 170.8 L 578.3 170.4 L 579.3 170.1 L 580.4 170.0 L 581.4 170.0 L 582.5 170.2 L 583.5 170.5 L 584.5 171.0 L 585.6 171.6 L 586.6 172.3 L 587.7 173.2 L 588.7 174.2 L 589.7 175.4 L 590.8 176.6 L 591.8 178.1 L 592.9 179.6 L 593.9 181.2 L 594.9 183.0 L 596.0 184.8 L 597.0 186.8 L 598.1 188.8 L 599.1 191.0 L 600.2 193.2 L 601.2 195.5 L 602.2 197.8 L 603.3 200.2 L 604.3 202.7 L 605.4 205.1 L 606.4 207.6 L 607.4 210.2 L 608.5 212.7 L 609.5 215.3 L 610.6 217.8 L 611.6 220.4 L 612.6 222.9 L 613.7 225.3 L 614.7 227.8 L 615.8 230.2 L 616.8 232.5 L 617.8 234.8 L 618.9 237.0 L 619.9 239.2 L 621.0 241.2 L 622.0 243.2 L 623.1 245.0 L 624.1 246.8 L 625.1 248.4 L 626.2 249.9 L 627.2 251.4 L 628.3 252.6 L 629.3 253.8 L 630.3 254.8 L 631.4 255.7 L 632.4 256.4 L 633.5 257.0 L 634.5 257.5 L 635.5 257.8 L 636.6 258.0 L 637.6 258.0 L 638.7 257.9 L 639.7 257.6 L 640.7 257.2 L 641.8 256.6 L 642.8 255.9 L 643.9 255.0 L 644.9 254.0 L 645.9 252.9 L 647.0 251.6 L 648.0 250.3 L 649.1 248.8 L 650.1 247.1 L 651.2 245.4 L 652.2 243.6 L 653.2 241.6 L 654.3 239.6 L 655.3 237.5 L 656.4 235.3 L 657.4 233.0 L 658.4 230.7 L 659.5 228.3 L 660.5 225.9 L 661.6 223.4 L 662.6 220.9 L 663.6 218.4 L 664.7 215.8 L 665.7 213.3 L 666.8 210.7 L 667.8 208.2 L 668.8 205.7 L 669.9 203.2 L 670.9 200.7 L 672.0 198.3 L 673.0 196.0 L 674.1 193.7 L 675.1 191.5 L 676.1 189.3 L 677.2 187.2 L 678.2 185.3 L 679.3 183.4 L 680.3 181.6 L 681.3 179.9 L 682.4 178.4 L 683.4 176.9 L 684.5 175.6 L 685.5 174.4 L 686.5 173.4 L 687.6 172.5 L 688.6 171.7 L 689.7 171.1 L 690.7 170.6 L 691.7 170.2 L 692.8 170.0 L 693.8 170.0 L 694.9 170.1 L 695.9 170.4 L 697.0 170.7 L 698.0 171.3 L 699.0 172.0 L 700.1 172.8 L 701.1 173.8 L 702.2 174.8 L 703.2 176.1 L 704.2 177.4 L 705.3 178.9 L 706.3 180.5 L 707.4 182.2 L 708.4 184.0 L 709.4 186.0 L 710.5 188.0 L 711.5 190.1 L 712.6 192.2 L 713.6 194.5 L 714.6 196.8 L 715.7 199.2 L 716.7 201.6 L 717.8 204.1 L 718.8 206.6 L 719.8 209.1 L 720.9 211.6 L 721.9 214.2 L 723.0 216.7 L 724.0 219.3 L 725.1 221.8 L 726.1 224.3 L 727.1 226.7 L 728.2 229.2 L 729.2 231.5 L 730.3 233.8 L 731.3 236.1 L 732.3 238.2 L 733.4 240.3 L 734.4 242.3 L 735.5 244.2 L 736.5 246.0 L 737.5 247.7 L 738.6 249.3 L 739.6 250.8 L 740.7 252.1 L 741.7 253.3 L 742.7 254.4 L 743.8 255.3 L 744.8 256.1 L 745.9 256.8 L 746.9 257.3 L 748.0 257.7 L 749.0 257.9 L 750.0 258.0 L 751.1 257.9 L 752.1 257.7 L 753.2 257.4 L 754.2 256.8 L 755.2 256.2 L 756.3 255.4 L 757.3 254.5 L 758.4 253.4 L 759.4 252.2 L 760.4 250.9 L 761.5 249.4 L 762.5 247.8 L 763.6 246.2 L 764.6 244.4 L 765.6 242.5 L 766.7 240.5 L 767.7 238.4 L 768.8 236.2 L 769.8 234.0 L 770.9 231.7 L 771.9 229.3 L 772.9 226.9 L 774.0 224.5 L 775.0 222.0 L 776.1 219.4 L 777.1 216.9 L 778.1 214.4 L 779.2 211.8 L 780.2 209.3 L 781.3 206.7 L 782.3 204.2 L 783.3 201.8 L 784.4 199.4 L 785.4 197.0 L 786.5 194.7 L 787.5 192.4 L 788.5 190.2 L 789.6 188.1 L 790.6 186.1 L 791.7 184.2 L 792.7 182.3 L 793.7 180.6 L 794.8 179.0 L 795.8 177.5 L 796.9 176.2 L 797.9 174.9 L 799.0 173.8 L 800.0 172.9 L 801.0 172.0 L 802.1 171.3 L 803.1 170.8 L 804.2 170.4 L 805.2 170.1 L 806.2 170.0 L 807.3 170.0 L 808.3 170.2 L 809.4 170.6 L 810.4 171.0 L 811.4 171.7 L 812.5 172.4 L 813.5 173.3 L 814.6 174.4 L 815.6 175.5 L 816.6 176.8 L 817.7 178.3 L 818.7 179.8 L 819.8 181.5 L 820.8 183.2 L 821.9 185.1 L 822.9 187.1 L 823.9 189.1 L 825.0 191.3 L 826.0 193.5 L 827.1 195.8 L 828.1 198.2 L 829.1 200.6 L 830.2 203.0 L 831.2 205.5 L 832.3 208.0 L 833.3 210.5 L 834.3 213.1 L 835.4 215.6 L 836.4 218.2 L 837.5 220.7 L 838.5 223.2 L 839.5 225.7 L 840.6 228.1 L 841.6 230.5 L 842.7 232.9 L 843.7 235.1 L 844.8 237.3 L 845.8 239.4 L 846.8 241.5 L 847.9 243.4 L 848.9 245.3 L 850.0 247.0 L 851.0 248.6 L 852.0 250.2 L 853.1 251.5 L 854.1 252.8 L 855.2 253.9 L 856.2 254.9 L 857.2 255.8 L 858.3 256.5 L 859.3 257.1 L 860.4 257.6 L 861.4 257.8 L 862.4 258.0 L 863.5 258.0 L 864.5 257.8 L 865.6 257.5 L 866.6 257.1 L 867.6 256.5 L 868.7 255.8 L 869.7 254.9 L 870.8 253.9 L 871.8 252.7 L 872.9 251.5 L 873.9 250.1 L 874.9 248.5 L 876.0 246.9 L 877.0 245.1 L 878.1 243.3 L 879.1 241.3 L 880.1 239.3 L 881.2 237.2 L 882.2 235.0 L 883.3 232.7 L 884.3 230.4 L 885.3 228.0 L 886.4 225.5 L 887.4 223.0 L 888.5 220.5 L 889.5 218.0 L 890.5 215.5 L 891.6 212.9 L 892.6 210.4 L 893.7 207.8 L 894.7 205.3 L 895.8 202.8 L 896.8 200.4 L 897.8 198.0 L 898.9 195.6 L 899.9 193.4 L 901.0 191.1 L 902.0 189.0 L 903.0 186.9 L 904.1 185.0 L 905.1 183.1 L 906.2 181.4 L 907.2 179.7 L 908.2 178.2 L 909.3 176.7 L 910.3 175.4 L 911.4 174.3 L 912.4 173.3 L 913.4 172.4 L 914.5 171.6 L 915.5 171.0 L 916.6 170.5 L 917.6 170.2 L 918.7 170.0 L 919.7 170.0 L 920.7 170.1 L 921.8 170.4 L 922.8 170.8 L 923.9 171.4 L 924.9 172.1 L 925.9 172.9 L 927.0 173.9 L 928.0 175.0 L 929.1 176.3 L 930.1 177.6 L 931.1 179.1 L 932.2 180.7 L 933.2 182.5 L 934.3 184.3 L 935.3 186.2 L 936.3 188.3 L 937.4 190.4 L 938.4 192.6 L 939.5 194.8 L 940.5 197.1 L 941.5 199.5 L 942.6 202.0 L 943.6 204.4 L 944.7 206.9 L 945.7 209.5 L 946.8 212.0 L 947.8 214.5 L 948.8 217.1 L 949.9 219.6 L 950.9 222.1 L 952.0 224.6 L 953.0 227.1 L 954.0 229.5 L 955.1 231.9 L 956.1 234.2 L 957.2 236.4 L 958.2 238.5 L 959.2 240.6 L 960.3 242.6 L 961.3 244.5 L 962.4 246.3 L 963.4 248.0 L 964.4 249.5 L 965.5 251.0 L 966.5 252.3 L 967.6 253.5 L 968.6 254.5 L 969.7 255.5 L 970.7 256.2 L 971.7 256.9 L 972.8 257.4 L 973.8 257.7 L 974.9 257.9 L 975.9 258.0 L 976.9 257.9 L 978.0 257.7 L 979.0 257.3 L 980.1 256.8 L 981.1 256.1 L 982.1 255.3 L 983.2 254.3 L 984.2 253.2 L 985.3 252.0 L 986.3 250.7 L 987.3 249.2 L 988.4 247.6 L 989.4 245.9 L 990.5 244.1 L 991.5 242.2 L 992.6 240.2 L 993.6 238.1 L 994.6 235.9 L 995.7 233.7 L 996.7 231.4 L 997.8 229.0 L 998.8 226.6 L 999.8 224.1 L 1000.9 221.6 L 1001.9 219.1 L 1003.0 216.5 L 1004.0 214.0" fill="none" stroke="#f1744e" stroke-width="13" stroke-opacity="0.16" stroke-linecap="round"/><path d="M 214.0 214.0 L 215.0 211.5 L 216.1 208.9 L 217.1 206.4 L 218.2 203.9 L 219.2 201.4 L 220.2 199.0 L 221.3 196.6 L 222.3 194.3 L 223.4 192.1 L 224.4 189.9 L 225.4 187.8 L 226.5 185.8 L 227.5 183.9 L 228.6 182.1 L 229.6 180.4 L 230.7 178.8 L 231.7 177.3 L 232.7 176.0 L 233.8 174.8 L 234.8 173.7 L 235.9 172.7 L 236.9 171.9 L 237.9 171.2 L 239.0 170.7 L 240.0 170.3 L 241.1 170.1 L 242.1 170.0 L 243.1 170.1 L 244.2 170.3 L 245.2 170.6 L 246.3 171.1 L 247.3 171.8 L 248.3 172.5 L 249.4 173.5 L 250.4 174.5 L 251.5 175.7 L 252.5 177.0 L 253.6 178.5 L 254.6 180.0 L 255.6 181.7 L 256.7 183.5 L 257.7 185.4 L 258.8 187.4 L 259.8 189.5 L 260.8 191.6 L 261.9 193.8 L 262.9 196.1 L 264.0 198.5 L 265.0 200.9 L 266.0 203.4 L 267.1 205.9 L 268.1 208.4 L 269.2 210.9 L 270.2 213.5 L 271.2 216.0 L 272.3 218.5 L 273.3 221.1 L 274.4 223.6 L 275.4 226.0 L 276.5 228.5 L 277.5 230.9 L 278.5 233.2 L 279.6 235.4 L 280.6 237.6 L 281.7 239.7 L 282.7 241.8 L 283.7 243.7 L 284.8 245.5 L 285.8 247.3 L 286.9 248.9 L 287.9 250.4 L 288.9 251.7 L 290.0 253.0 L 291.0 254.1 L 292.1 255.1 L 293.1 255.9 L 294.1 256.6 L 295.2 257.2 L 296.2 257.6 L 297.3 257.9 L 298.3 258.0 L 299.3 258.0 L 300.4 257.8 L 301.4 257.5 L 302.5 257.0 L 303.5 256.4 L 304.6 255.6 L 305.6 254.7 L 306.6 253.7 L 307.7 252.6 L 308.7 251.3 L 309.8 249.8 L 310.8 248.3 L 311.8 246.6 L 312.9 244.9 L 313.9 243.0 L 315.0 241.1 L 316.0 239.0 L 317.0 236.9 L 318.1 234.6 L 319.1 232.4 L 320.2 230.0 L 321.2 227.6 L 322.2 225.2 L 323.3 222.7 L 324.3 220.2 L 325.4 217.6 L 326.4 215.1 L 327.5 212.5 L 328.5 210.0 L 329.5 207.5 L 330.6 205.0 L 331.6 202.5 L 332.7 200.0 L 333.7 197.6 L 334.7 195.3 L 335.8 193.0 L 336.8 190.8 L 337.9 188.7 L 338.9 186.7 L 339.9 184.7 L 341.0 182.9 L 342.0 181.1 L 343.1 179.5 L 344.1 177.9 L 345.1 176.5 L 346.2 175.3 L 347.2 174.1 L 348.3 173.1 L 349.3 172.2 L 350.4 171.5 L 351.4 170.9 L 352.4 170.5 L 353.5 170.2 L 354.5 170.0 L 355.6 170.0 L 356.6 170.2 L 357.6 170.4 L 358.7 170.9 L 359.7 171.5 L 360.8 172.2 L 361.8 173.1 L 362.8 174.1 L 363.9 175.2 L 364.9 176.5 L 366.0 177.8 L 367.0 179.4 L 368.0 181.0 L 369.1 182.7 L 370.1 184.6 L 371.2 186.5 L 372.2 188.6 L 373.2 190.7 L 374.3 192.9 L 375.3 195.1 L 376.4 197.5 L 377.4 199.9 L 378.5 202.3 L 379.5 204.8 L 380.5 207.3 L 381.6 209.8 L 382.6 212.4 L 383.7 214.9 L 384.7 217.5 L 385.7 220.0 L 386.8 222.5 L 387.8 225.0 L 388.9 227.4 L 389.9 229.8 L 390.9 232.2 L 392.0 234.5 L 393.0 236.7 L 394.1 238.9 L 395.1 240.9 L 396.1 242.9 L 397.2 244.8 L 398.2 246.5 L 399.3 248.2 L 400.3 249.7 L 401.4 251.2 L 402.4 252.5 L 403.4 253.6 L 404.5 254.7 L 405.5 255.6 L 406.6 256.3 L 407.6 257.0 L 408.6 257.4 L 409.7 257.8 L 410.7 258.0 L 411.8 258.0 L 412.8 257.9 L 413.8 257.6 L 414.9 257.2 L 415.9 256.7 L 417.0 256.0 L 418.0 255.1 L 419.0 254.2 L 420.1 253.1 L 421.1 251.8 L 422.2 250.5 L 423.2 249.0 L 424.3 247.4 L 425.3 245.7 L 426.3 243.8 L 427.4 241.9 L 428.4 239.9 L 429.5 237.8 L 430.5 235.6 L 431.5 233.3 L 432.6 231.0 L 433.6 228.6 L 434.7 226.2 L 435.7 223.8 L 436.7 221.3 L 437.8 218.7 L 438.8 216.2 L 439.9 213.6 L 440.9 211.1 L 441.9 208.6 L 443.0 206.0 L 444.0 203.5 L 445.1 201.1 L 446.1 198.7 L 447.1 196.3 L 448.2 194.0 L 449.2 191.8 L 450.3 189.6 L 451.3 187.5 L 452.4 185.5 L 453.4 183.6 L 454.4 181.8 L 455.5 180.2 L 456.5 178.6 L 457.6 177.1 L 458.6 175.8 L 459.6 174.6 L 460.7 173.5 L 461.7 172.6 L 462.8 171.8 L 463.8 171.2 L 464.8 170.6 L 465.9 170.3 L 466.9 170.1 L 468.0 170.0 L 469.0 170.1 L 470.0 170.3 L 471.1 170.7 L 472.1 171.2 L 473.2 171.9 L 474.2 172.7 L 475.3 173.6 L 476.3 174.7 L 477.3 175.9 L 478.4 177.2 L 479.4 178.7 L 480.5 180.3 L 481.5 182.0 L 482.5 183.8 L 483.6 185.7 L 484.6 187.7 L 485.7 189.8 L 486.7 191.9 L 487.7 194.2 L 488.8 196.5 L 489.8 198.8 L 490.9 201.3 L 491.9 203.7 L 492.9 206.2 L 494.0 208.7 L 495.0 211.3 L 496.1 213.8 L 497.1 216.4 L 498.2 218.9 L 499.2 221.4 L 500.2 223.9 L 501.3 226.4 L 502.3 228.8 L 503.4 231.2 L 504.4 233.5 L 505.4 235.8 L 506.5 237.9 L 507.5 240.0 L 508.6 242.0 L 509.6 244.0 L 510.6 245.8 L 511.7 247.5 L 512.7 249.1 L 513.8 250.6 L 514.8 251.9 L 515.8 253.2 L 516.9 254.2 L 517.9 255.2 L 519.0 256.0 L 520.0 256.7 L 521.0 257.3 L 522.1 257.6 L 523.1 257.9 L 524.2 258.0 L 525.2 258.0 L 526.3 257.8 L 527.3 257.4 L 528.3 256.9 L 529.4 256.3 L 530.4 255.5 L 531.5 254.6 L 532.5 253.6 L 533.5 252.4 L 534.6 251.1 L 535.6 249.6 L 536.7 248.1 L 537.7 246.4 L 538.7 244.6 L 539.8 242.7 L 540.8 240.8 L 541.9 238.7 L 542.9 236.5 L 543.9 234.3 L 545.0 232.0 L 546.0 229.7 L 547.1 227.3 L 548.1 224.8 L 549.2 222.3 L 550.2 219.8 L 551.2 217.3 L 552.3 214.7 L 553.3 212.2 L 554.4 209.6 L 555.4 207.1 L 556.4 204.6 L 557.5 202.1 L 558.5 199.7 L 559.6 197.3 L 560.6 195.0 L 561.6 192.7 L 562.7 190.5 L 563.7 188.4 L 564.8 186.4 L 565.8 184.4 L 566.8 182.6 L 567.9 180.9 L 568.9 179.2 L 570.0 177.7 L 571.0 176.4 L 572.1 175.1 L 573.1 174.0 L 574.1 173.0 L 575.2 172.1 L 576.2 171.4 L 577.3 170.8 L 578.3 170.4 L 579.3 170.1 L 580.4 170.0 L 581.4 170.0 L 582.5 170.2 L 583.5 170.5 L 584.5 171.0 L 585.6 171.6 L 586.6 172.3 L 587.7 173.2 L 588.7 174.2 L 589.7 175.4 L 590.8 176.6 L 591.8 178.1 L 592.9 179.6 L 593.9 181.2 L 594.9 183.0 L 596.0 184.8 L 597.0 186.8 L 598.1 188.8 L 599.1 191.0 L 600.2 193.2 L 601.2 195.5 L 602.2 197.8 L 603.3 200.2 L 604.3 202.7 L 605.4 205.1 L 606.4 207.6 L 607.4 210.2 L 608.5 212.7 L 609.5 215.3 L 610.6 217.8 L 611.6 220.4 L 612.6 222.9 L 613.7 225.3 L 614.7 227.8 L 615.8 230.2 L 616.8 232.5 L 617.8 234.8 L 618.9 237.0 L 619.9 239.2 L 621.0 241.2 L 622.0 243.2 L 623.1 245.0 L 624.1 246.8 L 625.1 248.4 L 626.2 249.9 L 627.2 251.4 L 628.3 252.6 L 629.3 253.8 L 630.3 254.8 L 631.4 255.7 L 632.4 256.4 L 633.5 257.0 L 634.5 257.5 L 635.5 257.8 L 636.6 258.0 L 637.6 258.0 L 638.7 257.9 L 639.7 257.6 L 640.7 257.2 L 641.8 256.6 L 642.8 255.9 L 643.9 255.0 L 644.9 254.0 L 645.9 252.9 L 647.0 251.6 L 648.0 250.3 L 649.1 248.8 L 650.1 247.1 L 651.2 245.4 L 652.2 243.6 L 653.2 241.6 L 654.3 239.6 L 655.3 237.5 L 656.4 235.3 L 657.4 233.0 L 658.4 230.7 L 659.5 228.3 L 660.5 225.9 L 661.6 223.4 L 662.6 220.9 L 663.6 218.4 L 664.7 215.8 L 665.7 213.3 L 666.8 210.7 L 667.8 208.2 L 668.8 205.7 L 669.9 203.2 L 670.9 200.7 L 672.0 198.3 L 673.0 196.0 L 674.1 193.7 L 675.1 191.5 L 676.1 189.3 L 677.2 187.2 L 678.2 185.3 L 679.3 183.4 L 680.3 181.6 L 681.3 179.9 L 682.4 178.4 L 683.4 176.9 L 684.5 175.6 L 685.5 174.4 L 686.5 173.4 L 687.6 172.5 L 688.6 171.7 L 689.7 171.1 L 690.7 170.6 L 691.7 170.2 L 692.8 170.0 L 693.8 170.0 L 694.9 170.1 L 695.9 170.4 L 697.0 170.7 L 698.0 171.3 L 699.0 172.0 L 700.1 172.8 L 701.1 173.8 L 702.2 174.8 L 703.2 176.1 L 704.2 177.4 L 705.3 178.9 L 706.3 180.5 L 707.4 182.2 L 708.4 184.0 L 709.4 186.0 L 710.5 188.0 L 711.5 190.1 L 712.6 192.2 L 713.6 194.5 L 714.6 196.8 L 715.7 199.2 L 716.7 201.6 L 717.8 204.1 L 718.8 206.6 L 719.8 209.1 L 720.9 211.6 L 721.9 214.2 L 723.0 216.7 L 724.0 219.3 L 725.1 221.8 L 726.1 224.3 L 727.1 226.7 L 728.2 229.2 L 729.2 231.5 L 730.3 233.8 L 731.3 236.1 L 732.3 238.2 L 733.4 240.3 L 734.4 242.3 L 735.5 244.2 L 736.5 246.0 L 737.5 247.7 L 738.6 249.3 L 739.6 250.8 L 740.7 252.1 L 741.7 253.3 L 742.7 254.4 L 743.8 255.3 L 744.8 256.1 L 745.9 256.8 L 746.9 257.3 L 748.0 257.7 L 749.0 257.9 L 750.0 258.0 L 751.1 257.9 L 752.1 257.7 L 753.2 257.4 L 754.2 256.8 L 755.2 256.2 L 756.3 255.4 L 757.3 254.5 L 758.4 253.4 L 759.4 252.2 L 760.4 250.9 L 761.5 249.4 L 762.5 247.8 L 763.6 246.2 L 764.6 244.4 L 765.6 242.5 L 766.7 240.5 L 767.7 238.4 L 768.8 236.2 L 769.8 234.0 L 770.9 231.7 L 771.9 229.3 L 772.9 226.9 L 774.0 224.5 L 775.0 222.0 L 776.1 219.4 L 777.1 216.9 L 778.1 214.4 L 779.2 211.8 L 780.2 209.3 L 781.3 206.7 L 782.3 204.2 L 783.3 201.8 L 784.4 199.4 L 785.4 197.0 L 786.5 194.7 L 787.5 192.4 L 788.5 190.2 L 789.6 188.1 L 790.6 186.1 L 791.7 184.2 L 792.7 182.3 L 793.7 180.6 L 794.8 179.0 L 795.8 177.5 L 796.9 176.2 L 797.9 174.9 L 799.0 173.8 L 800.0 172.9 L 801.0 172.0 L 802.1 171.3 L 803.1 170.8 L 804.2 170.4 L 805.2 170.1 L 806.2 170.0 L 807.3 170.0 L 808.3 170.2 L 809.4 170.6 L 810.4 171.0 L 811.4 171.7 L 812.5 172.4 L 813.5 173.3 L 814.6 174.4 L 815.6 175.5 L 816.6 176.8 L 817.7 178.3 L 818.7 179.8 L 819.8 181.5 L 820.8 183.2 L 821.9 185.1 L 822.9 187.1 L 823.9 189.1 L 825.0 191.3 L 826.0 193.5 L 827.1 195.8 L 828.1 198.2 L 829.1 200.6 L 830.2 203.0 L 831.2 205.5 L 832.3 208.0 L 833.3 210.5 L 834.3 213.1 L 835.4 215.6 L 836.4 218.2 L 837.5 220.7 L 838.5 223.2 L 839.5 225.7 L 840.6 228.1 L 841.6 230.5 L 842.7 232.9 L 843.7 235.1 L 844.8 237.3 L 845.8 239.4 L 846.8 241.5 L 847.9 243.4 L 848.9 245.3 L 850.0 247.0 L 851.0 248.6 L 852.0 250.2 L 853.1 251.5 L 854.1 252.8 L 855.2 253.9 L 856.2 254.9 L 857.2 255.8 L 858.3 256.5 L 859.3 257.1 L 860.4 257.6 L 861.4 257.8 L 862.4 258.0 L 863.5 258.0 L 864.5 257.8 L 865.6 257.5 L 866.6 257.1 L 867.6 256.5 L 868.7 255.8 L 869.7 254.9 L 870.8 253.9 L 871.8 252.7 L 872.9 251.5 L 873.9 250.1 L 874.9 248.5 L 876.0 246.9 L 877.0 245.1 L 878.1 243.3 L 879.1 241.3 L 880.1 239.3 L 881.2 237.2 L 882.2 235.0 L 883.3 232.7 L 884.3 230.4 L 885.3 228.0 L 886.4 225.5 L 887.4 223.0 L 888.5 220.5 L 889.5 218.0 L 890.5 215.5 L 891.6 212.9 L 892.6 210.4 L 893.7 207.8 L 894.7 205.3 L 895.8 202.8 L 896.8 200.4 L 897.8 198.0 L 898.9 195.6 L 899.9 193.4 L 901.0 191.1 L 902.0 189.0 L 903.0 186.9 L 904.1 185.0 L 905.1 183.1 L 906.2 181.4 L 907.2 179.7 L 908.2 178.2 L 909.3 176.7 L 910.3 175.4 L 911.4 174.3 L 912.4 173.3 L 913.4 172.4 L 914.5 171.6 L 915.5 171.0 L 916.6 170.5 L 917.6 170.2 L 918.7 170.0 L 919.7 170.0 L 920.7 170.1 L 921.8 170.4 L 922.8 170.8 L 923.9 171.4 L 924.9 172.1 L 925.9 172.9 L 927.0 173.9 L 928.0 175.0 L 929.1 176.3 L 930.1 177.6 L 931.1 179.1 L 932.2 180.7 L 933.2 182.5 L 934.3 184.3 L 935.3 186.2 L 936.3 188.3 L 937.4 190.4 L 938.4 192.6 L 939.5 194.8 L 940.5 197.1 L 941.5 199.5 L 942.6 202.0 L 943.6 204.4 L 944.7 206.9 L 945.7 209.5 L 946.8 212.0 L 947.8 214.5 L 948.8 217.1 L 949.9 219.6 L 950.9 222.1 L 952.0 224.6 L 953.0 227.1 L 954.0 229.5 L 955.1 231.9 L 956.1 234.2 L 957.2 236.4 L 958.2 238.5 L 959.2 240.6 L 960.3 242.6 L 961.3 244.5 L 962.4 246.3 L 963.4 248.0 L 964.4 249.5 L 965.5 251.0 L 966.5 252.3 L 967.6 253.5 L 968.6 254.5 L 969.7 255.5 L 970.7 256.2 L 971.7 256.9 L 972.8 257.4 L 973.8 257.7 L 974.9 257.9 L 975.9 258.0 L 976.9 257.9 L 978.0 257.7 L 979.0 257.3 L 980.1 256.8 L 981.1 256.1 L 982.1 255.3 L 983.2 254.3 L 984.2 253.2 L 985.3 252.0 L 986.3 250.7 L 987.3 249.2 L 988.4 247.6 L 989.4 245.9 L 990.5 244.1 L 991.5 242.2 L 992.6 240.2 L 993.6 238.1 L 994.6 235.9 L 995.7 233.7 L 996.7 231.4 L 997.8 229.0 L 998.8 226.6 L 999.8 224.1 L 1000.9 221.6 L 1001.9 219.1 L 1003.0 216.5 L 1004.0 214.0" fill="none" stroke="#f1744e" stroke-width="4" stroke-linecap="round" stroke-linejoin="round"/><circle cx="44" cy="214" r="6" fill="#f1744e"/><text x="60" y="222" fill="#f1744e" font-size="25" font-weight="800" text-anchor="start" font-family="-apple-system, BlinkMacSystemFont, 'Segoe UI', 'Inter', Helvetica, Arial, sans-serif">Parkinson's</text><text x="520.0" y="286" fill="#8b97a8" font-size="16" font-weight="500" text-anchor="middle" font-family="-apple-system, BlinkMacSystemFont, 'Segoe UI', 'Inter', Helvetica, Arial, sans-serif" letter-spacing="0.3">same window  ·  the resting rhythm slows</text></svg>