<svg viewBox="0 0 1020 250" xmlns="http://www.w3.org/2000/svg" font-family="-apple-system, BlinkMacSystemFont, 'Segoe UI', 'Inter', Helvetica, Arial, sans-serif"><line x1="196" y1="74" x2="876" y2="74" stroke="#e6ebf2" stroke-width="1.2"/><path d="M 196.0 74.0 L 197.1 70.0 L 198.3 66.0 L 199.4 62.2 L 200.5 58.6 L 201.7 55.1 L 202.8 52.0 L 203.9 49.2 L 205.1 46.7 L 206.2 44.7 L 207.4 43.0 L 208.5 41.9 L 209.6 41.2 L 210.8 41.0 L 211.9 41.3 L 213.0 42.1 L 214.2 43.3 L 215.3 45.0 L 216.4 47.1 L 217.6 49.7 L 218.7 52.5 L 219.8 55.7 L 221.0 59.2 L 222.1 62.9 L 223.2 66.8 L 224.4 70.7 L 225.5 74.7 L 226.7 78.7 L 227.8 82.7 L 228.9 86.5 L 230.1 90.1 L 231.2 93.5 L 232.3 96.5 L 233.5 99.3 L 234.6 101.7 L 235.7 103.7 L 236.9 105.2 L 238.0 106.3 L 239.1 106.9 L 240.3 107.0 L 241.4 106.6 L 242.5 105.7 L 243.7 104.4 L 244.8 102.6 L 245.9 100.4 L 247.1 97.8 L 248.2 94.9 L 249.4 91.7 L 250.5 88.1 L 251.6 84.4 L 252.8 80.5 L 253.9 76.6 L 255.0 72.5 L 256.2 68.6 L 257.3 64.6 L 258.4 60.9 L 259.6 57.3 L 260.7 54.0 L 261.8 50.9 L 263.0 48.2 L 264.1 45.9 L 265.2 44.0 L 266.4 42.6 L 267.5 41.6 L 268.7 41.1 L 269.8 41.1 L 270.9 41.5 L 272.1 42.5 L 273.2 43.9 L 274.3 45.7 L 275.5 48.0 L 276.6 50.7 L 277.7 53.7 L 278.9 57.0 L 280.0 60.5 L 281.1 64.3 L 282.3 68.2 L 283.4 72.2 L 284.5 76.2 L 285.7 80.2 L 286.8 84.0 L 288.0 87.8 L 289.1 91.3 L 290.2 94.6 L 291.4 97.6 L 292.5 100.2 L 293.6 102.5 L 294.8 104.3 L 295.9 105.6 L 297.0 106.5 L 298.2 107.0 L 299.3 106.9 L 300.4 106.4 L 301.6 105.3 L 302.7 103.8 L 303.8 101.9 L 305.0 99.5 L 306.1 96.8 L 307.3 93.8 L 308.4 90.4 L 309.5 86.8 L 310.7 83.0 L 311.8 79.1 L 312.9 75.1 L 314.1 71.1 L 315.2 67.1 L 316.3 63.3 L 317.5 59.6 L 318.6 56.1 L 319.7 52.8 L 320.9 49.9 L 322.0 47.4 L 323.1 45.2 L 324.3 43.4 L 325.4 42.2 L 326.6 41.3 L 327.7 41.0 L 328.8 41.2 L 330.0 41.8 L 331.1 42.9 L 332.2 44.5 L 333.4 46.5 L 334.5 48.9 L 335.6 51.7 L 336.8 54.8 L 337.9 58.2 L 339.0 61.9 L 340.2 65.7 L 341.3 69.6 L 342.4 73.6 L 343.6 77.6 L 344.7 81.6 L 345.8 85.4 L 347.0 89.1 L 348.1 92.5 L 349.3 95.7 L 350.4 98.6 L 351.5 101.1 L 352.7 103.2 L 353.8 104.8 L 354.9 106.0 L 356.1 106.8 L 357.2 107.0 L 358.3 106.8 L 359.5 106.0 L 360.6 104.8 L 361.7 103.2 L 362.9 101.1 L 364.0 98.6 L 365.1 95.7 L 366.3 92.6 L 367.4 89.1 L 368.6 85.5 L 369.7 81.6 L 370.8 77.7 L 372.0 73.7 L 373.1 69.7 L 374.2 65.7 L 375.4 61.9 L 376.5 58.3 L 377.6 54.9 L 378.8 51.7 L 379.9 48.9 L 381.0 46.5 L 382.2 44.5 L 383.3 42.9 L 384.4 41.8 L 385.6 41.2 L 386.7 41.0 L 387.9 41.3 L 389.0 42.2 L 390.1 43.4 L 391.3 45.2 L 392.4 47.3 L 393.5 49.9 L 394.7 52.8 L 395.8 56.0 L 396.9 59.5 L 398.1 63.2 L 399.2 67.1 L 400.3 71.1 L 401.5 75.1 L 402.6 79.1 L 403.7 83.0 L 404.9 86.8 L 406.0 90.4 L 407.2 93.7 L 408.3 96.8 L 409.4 99.5 L 410.6 101.9 L 411.7 103.8 L 412.8 105.3 L 414.0 106.3 L 415.1 106.9 L 416.2 107.0 L 417.4 106.6 L 418.5 105.7 L 419.6 104.3 L 420.8 102.5 L 421.9 100.2 L 423.0 97.6 L 424.2 94.6 L 425.3 91.4 L 426.5 87.8 L 427.6 84.1 L 428.7 80.2 L 429.9 76.2 L 431.0 72.2 L 432.1 68.2 L 433.3 64.3 L 434.4 60.6 L 435.5 57.0 L 436.7 53.7 L 437.8 50.7 L 438.9 48.0 L 440.1 45.7 L 441.2 43.9 L 442.3 42.5 L 443.5 41.5 L 444.6 41.1 L 445.7 41.1 L 446.9 41.6 L 448.0 42.6 L 449.2 44.0 L 450.3 45.9 L 451.4 48.2 L 452.6 50.9 L 453.7 53.9 L 454.8 57.3 L 456.0 60.8 L 457.1 64.6 L 458.2 68.5 L 459.4 72.5 L 460.5 76.5 L 461.6 80.5 L 462.8 84.4 L 463.9 88.1 L 465.0 91.6 L 466.2 94.9 L 467.3 97.8 L 468.5 100.4 L 469.6 102.6 L 470.7 104.4 L 471.9 105.7 L 473.0 106.6 L 474.1 107.0 L 475.3 106.9 L 476.4 106.3 L 477.5 105.2 L 478.7 103.7 L 479.8 101.7 L 480.9 99.3 L 482.1 96.6 L 483.2 93.5 L 484.3 90.1 L 485.5 86.5 L 486.6 82.7 L 487.8 78.8 L 488.9 74.8 L 490.0 70.8 L 491.2 66.8 L 492.3 62.9 L 493.4 59.2 L 494.6 55.8 L 495.7 52.6 L 496.8 49.7 L 498.0 47.2 L 499.1 45.0 L 500.2 43.3 L 501.4 42.1 L 502.5 41.3 L 503.6 41.0 L 504.8 41.2 L 505.9 41.9 L 507.1 43.0 L 508.2 44.6 L 509.3 46.7 L 510.5 49.1 L 511.6 52.0 L 512.7 55.1 L 513.9 58.5 L 515.0 62.2 L 516.1 66.0 L 517.3 70.0 L 518.4 74.0 L 519.5 78.0 L 520.7 81.9 L 521.8 85.7 L 522.9 89.4 L 524.1 92.8 L 525.2 96.0 L 526.4 98.8 L 527.5 101.3 L 528.6 103.3 L 529.8 104.9 L 530.9 106.1 L 532.0 106.8 L 533.2 107.0 L 534.3 106.7 L 535.4 105.9 L 536.6 104.7 L 537.7 103.0 L 538.8 100.9 L 540.0 98.4 L 541.1 95.5 L 542.2 92.3 L 543.4 88.8 L 544.5 85.1 L 545.6 81.3 L 546.8 77.3 L 547.9 73.3 L 549.1 69.3 L 550.2 65.4 L 551.3 61.6 L 552.5 58.0 L 553.6 54.6 L 554.7 51.5 L 555.9 48.7 L 557.0 46.3 L 558.1 44.4 L 559.3 42.8 L 560.4 41.7 L 561.5 41.1 L 562.7 41.0 L 563.8 41.4 L 564.9 42.2 L 566.1 43.6 L 567.2 45.3 L 568.4 47.5 L 569.5 50.1 L 570.6 53.1 L 571.8 56.3 L 572.9 59.8 L 574.0 63.6 L 575.2 67.4 L 576.3 71.4 L 577.4 75.4 L 578.6 79.4 L 579.7 83.3 L 580.8 87.1 L 582.0 90.7 L 583.1 94.0 L 584.2 97.0 L 585.4 99.7 L 586.5 102.1 L 587.7 104.0 L 588.8 105.4 L 589.9 106.4 L 591.1 106.9 L 592.2 107.0 L 593.3 106.5 L 594.5 105.6 L 595.6 104.1 L 596.7 102.3 L 597.9 100.0 L 599.0 97.4 L 600.1 94.4 L 601.3 91.1 L 602.4 87.5 L 603.5 83.8 L 604.7 79.9 L 605.8 75.9 L 607.0 71.9 L 608.1 67.9 L 609.2 64.0 L 610.4 60.2 L 611.5 56.7 L 612.6 53.4 L 613.8 50.4 L 614.9 47.8 L 616.0 45.6 L 617.2 43.7 L 618.3 42.4 L 619.4 41.5 L 620.6 41.0 L 621.7 41.1 L 622.8 41.6 L 624.0 42.7 L 625.1 44.2 L 626.3 46.1 L 627.4 48.4 L 628.5 51.2 L 629.7 54.2 L 630.8 57.6 L 631.9 61.2 L 633.1 64.9 L 634.2 68.9 L 635.3 72.9 L 636.5 76.9 L 637.6 80.8 L 638.7 84.7 L 639.9 88.4 L 641.0 91.9 L 642.1 95.1 L 643.3 98.1 L 644.4 100.6 L 645.5 102.8 L 646.7 104.5 L 647.8 105.8 L 649.0 106.7 L 650.1 107.0 L 651.2 106.8 L 652.4 106.2 L 653.5 105.1 L 654.6 103.5 L 655.8 101.5 L 656.9 99.1 L 658.0 96.3 L 659.2 93.2 L 660.3 89.8 L 661.4 86.2 L 662.6 82.4 L 663.7 78.4 L 664.8 74.4 L 666.0 70.4 L 667.1 66.5 L 668.3 62.6 L 669.4 58.9 L 670.5 55.5 L 671.7 52.3 L 672.8 49.4 L 673.9 47.0 L 675.1 44.9 L 676.2 43.2 L 677.3 42.0 L 678.5 41.3 L 679.6 41.0 L 680.7 41.2 L 681.9 42.0 L 683.0 43.2 L 684.1 44.8 L 685.3 46.9 L 686.4 49.4 L 687.6 52.2 L 688.7 55.4 L 689.8 58.8 L 691.0 62.5 L 692.1 66.4 L 693.2 70.3 L 694.4 74.3 L 695.5 78.3 L 696.6 82.3 L 697.8 86.1 L 698.9 89.7 L 700.0 93.1 L 701.2 96.2 L 702.3 99.0 L 703.4 101.5 L 704.6 103.5 L 705.7 105.1 L 706.9 106.2 L 708.0 106.8 L 709.1 107.0 L 710.3 106.7 L 711.4 105.9 L 712.5 104.6 L 713.7 102.8 L 714.8 100.7 L 715.9 98.1 L 717.1 95.2 L 718.2 92.0 L 719.3 88.5 L 720.5 84.8 L 721.6 80.9 L 722.7 77.0 L 723.9 73.0 L 725.0 69.0 L 726.2 65.0 L 727.3 61.3 L 728.4 57.7 L 729.6 54.3 L 730.7 51.2 L 731.8 48.5 L 733.0 46.1 L 734.1 44.2 L 735.2 42.7 L 736.4 41.7 L 737.5 41.1 L 738.6 41.0 L 739.8 41.4 L 740.9 42.3 L 742.0 43.7 L 743.2 45.5 L 744.3 47.7 L 745.4 50.4 L 746.6 53.3 L 747.7 56.6 L 748.9 60.1 L 750.0 63.9 L 751.1 67.8 L 752.3 71.8 L 753.4 75.8 L 754.5 79.8 L 755.7 83.7 L 756.8 87.4 L 757.9 91.0 L 759.1 94.3 L 760.2 97.3 L 761.3 100.0 L 762.5 102.2 L 763.6 104.1 L 764.7 105.5 L 765.9 106.5 L 767.0 106.9 L 768.2 106.9 L 769.3 106.4 L 770.4 105.4 L 771.6 104.0 L 772.7 102.1 L 773.8 99.8 L 775.0 97.1 L 776.1 94.1 L 777.2 90.8 L 778.4 87.2 L 779.5 83.4 L 780.6 79.5 L 781.8 75.5 L 782.9 71.5 L 784.0 67.5 L 785.2 63.7 L 786.3 59.9 L 787.5 56.4 L 788.6 53.1 L 789.7 50.2 L 790.9 47.6 L 792.0 45.4 L 793.1 43.6 L 794.3 42.3 L 795.4 41.4 L 796.5 41.0 L 797.7 41.1 L 798.8 41.7 L 799.9 42.8 L 801.1 44.3 L 802.2 46.3 L 803.3 48.7 L 804.5 51.4 L 805.6 54.5 L 806.8 57.9 L 807.9 61.5 L 809.0 65.3 L 810.2 69.2 L 811.3 73.2 L 812.4 77.2 L 813.6 81.2 L 814.7 85.0 L 815.8 88.7 L 817.0 92.2 L 818.1 95.4 L 819.2 98.3 L 820.4 100.8 L 821.5 103.0 L 822.6 104.7 L 823.8 105.9 L 824.9 106.7 L 826.1 107.0 L 827.2 106.8 L 828.3 106.1 L 829.5 105.0 L 830.6 103.4 L 831.7 101.3 L 832.9 98.9 L 834.0 96.1 L 835.1 92.9 L 836.3 89.5 L 837.4 85.8 L 838.5 82.0 L 839.7 78.1 L 840.8 74.1 L 841.9 70.1 L 843.1 66.1 L 844.2 62.3 L 845.3 58.6 L 846.5 55.2 L 847.6 52.0 L 848.8 49.2 L 849.9 46.8 L 851.0 44.7 L 852.2 43.1 L 853.3 41.9 L 854.4 41.2 L 855.6 41.0 L 856.7 41.3 L 857.8 42.0 L 859.0 43.3 L 860.1 45.0 L 861.2 47.1 L 862.4 49.6 L 863.5 52.5 L 864.6 55.7 L 865.8 59.1 L 866.9 62.8 L 868.1 66.7 L 869.2 70.6 L 870.3 74.7 L 871.5 78.7 L 872.6 82.6 L 873.7 86.4 L 874.9 90.0 L 876.0 93.4" fill="none" stroke="#185FA5" stroke-width="8" stroke-opacity="0.12" stroke-linecap="round"/><path d="M 196.0 74.0 L 197.1 70.0 L 198.3 66.0 L 199.4 62.2 L 200.5 58.6 L 201.7 55.1 L 202.8 52.0 L 203.9 49.2 L 205.1 46.7 L 206.2 44.7 L 207.4 43.0 L 208.5 41.9 L 209.6 41.2 L 210.8 41.0 L 211.9 41.3 L 213.0 42.1 L 214.2 43.3 L 215.3 45.0 L 216.4 47.1 L 217.6 49.7 L 218.7 52.5 L 219.8 55.7 L 221.0 59.2 L 222.1 62.9 L 223.2 66.8 L 224.4 70.7 L 225.5 74.7 L 226.7 78.7 L 227.8 82.7 L 228.9 86.5 L 230.1 90.1 L 231.2 93.5 L 232.3 96.5 L 233.5 99.3 L 234.6 101.7 L 235.7 103.7 L 236.9 105.2 L 238.0 106.3 L 239.1 106.9 L 240.3 107.0 L 241.4 106.6 L 242.5 105.7 L 243.7 104.4 L 244.8 102.6 L 245.9 100.4 L 247.1 97.8 L 248.2 94.9 L 249.4 91.7 L 250.5 88.1 L 251.6 84.4 L 252.8 80.5 L 253.9 76.6 L 255.0 72.5 L 256.2 68.6 L 257.3 64.6 L 258.4 60.9 L 259.6 57.3 L 260.7 54.0 L 261.8 50.9 L 263.0 48.2 L 264.1 45.9 L 265.2 44.0 L 266.4 42.6 L 267.5 41.6 L 268.7 41.1 L 269.8 41.1 L 270.9 41.5 L 272.1 42.5 L 273.2 43.9 L 274.3 45.7 L 275.5 48.0 L 276.6 50.7 L 277.7 53.7 L 278.9 57.0 L 280.0 60.5 L 281.1 64.3 L 282.3 68.2 L 283.4 72.2 L 284.5 76.2 L 285.7 80.2 L 286.8 84.0 L 288.0 87.8 L 289.1 91.3 L 290.2 94.6 L 291.4 97.6 L 292.5 100.2 L 293.6 102.5 L 294.8 104.3 L 295.9 105.6 L 297.0 106.5 L 298.2 107.0 L 299.3 106.9 L 300.4 106.4 L 301.6 105.3 L 302.7 103.8 L 303.8 101.9 L 305.0 99.5 L 306.1 96.8 L 307.3 93.8 L 308.4 90.4 L 309.5 86.8 L 310.7 83.0 L 311.8 79.1 L 312.9 75.1 L 314.1 71.1 L 315.2 67.1 L 316.3 63.3 L 317.5 59.6 L 318.6 56.1 L 319.7 52.8 L 320.9 49.9 L 322.0 47.4 L 323.1 45.2 L 324.3 43.4 L 325.4 42.2 L 326.6 41.3 L 327.7 41.0 L 328.8 41.2 L 330.0 41.8 L 331.1 42.9 L 332.2 44.5 L 333.4 46.5 L 334.5 48.9 L 335.6 51.7 L 336.8 54.8 L 337.9 58.2 L 339.0 61.9 L 340.2 65.7 L 341.3 69.6 L 342.4 73.6 L 343.6 77.6 L 344.7 81.6 L 345.8 85.4 L 347.0 89.1 L 348.1 92.5 L 349.3 95.7 L 350.4 98.6 L 351.5 101.1 L 352.7 103.2 L 353.8 104.8 L 354.9 106.0 L 356.1 106.8 L 357.2 107.0 L 358.3 106.8 L 359.5 106.0 L 360.6 104.8 L 361.7 103.2 L 362.9 101.1 L 364.0 98.6 L 365.1 95.7 L 366.3 92.6 L 367.4 89.1 L 368.6 85.5 L 369.7 81.6 L 370.8 77.7 L 372.0 73.7 L 373.1 69.7 L 374.2 65.7 L 375.4 61.9 L 376.5 58.3 L 377.6 54.9 L 378.8 51.7 L 379.9 48.9 L 381.0 46.5 L 382.2 44.5 L 383.3 42.9 L 384.4 41.8 L 385.6 41.2 L 386.7 41.0 L 387.9 41.3 L 389.0 42.2 L 390.1 43.4 L 391.3 45.2 L 392.4 47.3 L 393.5 49.9 L 394.7 52.8 L 395.8 56.0 L 396.9 59.5 L 398.1 63.2 L 399.2 67.1 L 400.3 71.1 L 401.5 75.1 L 402.6 79.1 L 403.7 83.0 L 404.9 86.8 L 406.0 90.4 L 407.2 93.7 L 408.3 96.8 L 409.4 99.5 L 410.6 101.9 L 411.7 103.8 L 412.8 105.3 L 414.0 106.3 L 415.1 106.9 L 416.2 107.0 L 417.4 106.6 L 418.5 105.7 L 419.6 104.3 L 420.8 102.5 L 421.9 100.2 L 423.0 97.6 L 424.2 94.6 L 425.3 91.4 L 426.5 87.8 L 427.6 84.1 L 428.7 80.2 L 429.9 76.2 L 431.0 72.2 L 432.1 68.2 L 433.3 64.3 L 434.4 60.6 L 435.5 57.0 L 436.7 53.7 L 437.8 50.7 L 438.9 48.0 L 440.1 45.7 L 441.2 43.9 L 442.3 42.5 L 443.5 41.5 L 444.6 41.1 L 445.7 41.1 L 446.9 41.6 L 448.0 42.6 L 449.2 44.0 L 450.3 45.9 L 451.4 48.2 L 452.6 50.9 L 453.7 53.9 L 454.8 57.3 L 456.0 60.8 L 457.1 64.6 L 458.2 68.5 L 459.4 72.5 L 460.5 76.5 L 461.6 80.5 L 462.8 84.4 L 463.9 88.1 L 465.0 91.6 L 466.2 94.9 L 467.3 97.8 L 468.5 100.4 L 469.6 102.6 L 470.7 104.4 L 471.9 105.7 L 473.0 106.6 L 474.1 107.0 L 475.3 106.9 L 476.4 106.3 L 477.5 105.2 L 478.7 103.7 L 479.8 101.7 L 480.9 99.3 L 482.1 96.6 L 483.2 93.5 L 484.3 90.1 L 485.5 86.5 L 486.6 82.7 L 487.8 78.8 L 488.9 74.8 L 490.0 70.8 L 491.2 66.8 L 492.3 62.9 L 493.4 59.2 L 494.6 55.8 L 495.7 52.6 L 496.8 49.7 L 498.0 47.2 L 499.1 45.0 L 500.2 43.3 L 501.4 42.1 L 502.5 41.3 L 503.6 41.0 L 504.8 41.2 L 505.9 41.9 L 507.1 43.0 L 508.2 44.6 L 509.3 46.7 L 510.5 49.1 L 511.6 52.0 L 512.7 55.1 L 513.9 58.5 L 515.0 62.2 L 516.1 66.0 L 517.3 70.0 L 518.4 74.0 L 519.5 78.0 L 520.7 81.9 L 521.8 85.7 L 522.9 89.4 L 524.1 92.8 L 525.2 96.0 L 526.4 98.8 L 527.5 101.3 L 528.6 103.3 L 529.8 104.9 L 530.9 106.1 L 532.0 106.8 L 533.2 107.0 L 534.3 106.7 L 535.4 105.9 L 536.6 104.7 L 537.7 103.0 L 538.8 100.9 L 540.0 98.4 L 541.1 95.5 L 542.2 92.3 L 543.4 88.8 L 544.5 85.1 L 545.6 81.3 L 546.8 77.3 L 547.9 73.3 L 549.1 69.3 L 550.2 65.4 L 551.3 61.6 L 552.5 58.0 L 553.6 54.6 L 554.7 51.5 L 555.9 48.7 L 557.0 46.3 L 558.1 44.4 L 559.3 42.8 L 560.4 41.7 L 561.5 41.1 L 562.7 41.0 L 563.8 41.4 L 564.9 42.2 L 566.1 43.6 L 567.2 45.3 L 568.4 47.5 L 569.5 50.1 L 570.6 53.1 L 571.8 56.3 L 572.9 59.8 L 574.0 63.6 L 575.2 67.4 L 576.3 71.4 L 577.4 75.4 L 578.6 79.4 L 579.7 83.3 L 580.8 87.1 L 582.0 90.7 L 583.1 94.0 L 584.2 97.0 L 585.4 99.7 L 586.5 102.1 L 587.7 104.0 L 588.8 105.4 L 589.9 106.4 L 591.1 106.9 L 592.2 107.0 L 593.3 106.5 L 594.5 105.6 L 595.6 104.1 L 596.7 102.3 L 597.9 100.0 L 599.0 97.4 L 600.1 94.4 L 601.3 91.1 L 602.4 87.5 L 603.5 83.8 L 604.7 79.9 L 605.8 75.9 L 607.0 71.9 L 608.1 67.9 L 609.2 64.0 L 610.4 60.2 L 611.5 56.7 L 612.6 53.4 L 613.8 50.4 L 614.9 47.8 L 616.0 45.6 L 617.2 43.7 L 618.3 42.4 L 619.4 41.5 L 620.6 41.0 L 621.7 41.1 L 622.8 41.6 L 624.0 42.7 L 625.1 44.2 L 626.3 46.1 L 627.4 48.4 L 628.5 51.2 L 629.7 54.2 L 630.8 57.6 L 631.9 61.2 L 633.1 64.9 L 634.2 68.9 L 635.3 72.9 L 636.5 76.9 L 637.6 80.8 L 638.7 84.7 L 639.9 88.4 L 641.0 91.9 L 642.1 95.1 L 643.3 98.1 L 644.4 100.6 L 645.5 102.8 L 646.7 104.5 L 647.8 105.8 L 649.0 106.7 L 650.1 107.0 L 651.2 106.8 L 652.4 106.2 L 653.5 105.1 L 654.6 103.5 L 655.8 101.5 L 656.9 99.1 L 658.0 96.3 L 659.2 93.2 L 660.3 89.8 L 661.4 86.2 L 662.6 82.4 L 663.7 78.4 L 664.8 74.4 L 666.0 70.4 L 667.1 66.5 L 668.3 62.6 L 669.4 58.9 L 670.5 55.5 L 671.7 52.3 L 672.8 49.4 L 673.9 47.0 L 675.1 44.9 L 676.2 43.2 L 677.3 42.0 L 678.5 41.3 L 679.6 41.0 L 680.7 41.2 L 681.9 42.0 L 683.0 43.2 L 684.1 44.8 L 685.3 46.9 L 686.4 49.4 L 687.6 52.2 L 688.7 55.4 L 689.8 58.8 L 691.0 62.5 L 692.1 66.4 L 693.2 70.3 L 694.4 74.3 L 695.5 78.3 L 696.6 82.3 L 697.8 86.1 L 698.9 89.7 L 700.0 93.1 L 701.2 96.2 L 702.3 99.0 L 703.4 101.5 L 704.6 103.5 L 705.7 105.1 L 706.9 106.2 L 708.0 106.8 L 709.1 107.0 L 710.3 106.7 L 711.4 105.9 L 712.5 104.6 L 713.7 102.8 L 714.8 100.7 L 715.9 98.1 L 717.1 95.2 L 718.2 92.0 L 719.3 88.5 L 720.5 84.8 L 721.6 80.9 L 722.7 77.0 L 723.9 73.0 L 725.0 69.0 L 726.2 65.0 L 727.3 61.3 L 728.4 57.7 L 729.6 54.3 L 730.7 51.2 L 731.8 48.5 L 733.0 46.1 L 734.1 44.2 L 735.2 42.7 L 736.4 41.7 L 737.5 41.1 L 738.6 41.0 L 739.8 41.4 L 740.9 42.3 L 742.0 43.7 L 743.2 45.5 L 744.3 47.7 L 745.4 50.4 L 746.6 53.3 L 747.7 56.6 L 748.9 60.1 L 750.0 63.9 L 751.1 67.8 L 752.3 71.8 L 753.4 75.8 L 754.5 79.8 L 755.7 83.7 L 756.8 87.4 L 757.9 91.0 L 759.1 94.3 L 760.2 97.3 L 761.3 100.0 L 762.5 102.2 L 763.6 104.1 L 764.7 105.5 L 765.9 106.5 L 767.0 106.9 L 768.2 106.9 L 769.3 106.4 L 770.4 105.4 L 771.6 104.0 L 772.7 102.1 L 773.8 99.8 L 775.0 97.1 L 776.1 94.1 L 777.2 90.8 L 778.4 87.2 L 779.5 83.4 L 780.6 79.5 L 781.8 75.5 L 782.9 71.5 L 784.0 67.5 L 785.2 63.7 L 786.3 59.9 L 787.5 56.4 L 788.6 53.1 L 789.7 50.2 L 790.9 47.6 L 792.0 45.4 L 793.1 43.6 L 794.3 42.3 L 795.4 41.4 L 796.5 41.0 L 797.7 41.1 L 798.8 41.7 L 799.9 42.8 L 801.1 44.3 L 802.2 46.3 L 803.3 48.7 L 804.5 51.4 L 805.6 54.5 L 806.8 57.9 L 807.9 61.5 L 809.0 65.3 L 810.2 69.2 L 811.3 73.2 L 812.4 77.2 L 813.6 81.2 L 814.7 85.0 L 815.8 88.7 L 817.0 92.2 L 818.1 95.4 L 819.2 98.3 L 820.4 100.8 L 821.5 103.0 L 822.6 104.7 L 823.8 105.9 L 824.9 106.7 L 826.1 107.0 L 827.2 106.8 L 828.3 106.1 L 829.5 105.0 L 830.6 103.4 L 831.7 101.3 L 832.9 98.9 L 834.0 96.1 L 835.1 92.9 L 836.3 89.5 L 837.4 85.8 L 838.5 82.0 L 839.7 78.1 L 840.8 74.1 L 841.9 70.1 L 843.1 66.1 L 844.2 62.3 L 845.3 58.6 L 846.5 55.2 L 847.6 52.0 L 848.8 49.2 L 849.9 46.8 L 851.0 44.7 L 852.2 43.1 L 853.3 41.9 L 854.4 41.2 L 855.6 41.0 L 856.7 41.3 L 857.8 42.0 L 859.0 43.3 L 860.1 45.0 L 861.2 47.1 L 862.4 49.6 L 863.5 52.5 L 864.6 55.7 L 865.8 59.1 L 866.9 62.8 L 868.1 66.7 L 869.2 70.6 L 870.3 74.7 L 871.5 78.7 L 872.6 82.6 L 873.7 86.4 L 874.9 90.0 L 876.0 93.4" fill="none" stroke="#185FA5" stroke-width="3" stroke-linecap="round" stroke-linejoin="round"/><circle cx="48" cy="74" r="5.5" fill="#185FA5"/><text x="64" y="79" fill="#185FA5" font-size="18" font-weight="700" text-anchor="start" font-family="-apple-system, BlinkMacSystemFont, 'Segoe UI', 'Inter', Helvetica, Arial, sans-serif">Control</text><text x="892" y="79" fill="#185FA5" font-size="15" font-weight="600" text-anchor="start" font-family="-apple-system, BlinkMacSystemFont, 'Segoe UI', 'Inter', Helvetica, Arial, sans-serif">9.25 Hz</text><line x1="196" y1="176" x2="876" y2="176" stroke="#e6ebf2" stroke-width="1.2"/><path d="M 196.0 176.0 L 197.1 172.5 L 198.3 169.1 L 199.4 165.8 L 200.5 162.6 L 201.7 159.5 L 202.8 156.6 L 203.9 153.9 L 205.1 151.4 L 206.2 149.3 L 207.4 147.4 L 208.5 145.8 L 209.6 144.6 L 210.8 143.7 L 211.9 143.2 L 213.0 143.0 L 214.2 143.2 L 215.3 143.7 L 216.4 144.6 L 217.6 145.9 L 218.7 147.5 L 219.8 149.4 L 221.0 151.6 L 222.1 154.0 L 223.2 156.7 L 224.4 159.6 L 225.5 162.7 L 226.7 166.0 L 227.8 169.3 L 228.9 172.7 L 230.1 176.2 L 231.2 179.6 L 232.3 183.0 L 233.5 186.4 L 234.6 189.6 L 235.7 192.7 L 236.9 195.6 L 238.0 198.2 L 239.1 200.7 L 240.3 202.8 L 241.4 204.7 L 242.5 206.2 L 243.7 207.5 L 244.8 208.3 L 245.9 208.8 L 247.1 209.0 L 248.2 208.8 L 249.4 208.2 L 250.5 207.3 L 251.6 206.0 L 252.8 204.4 L 253.9 202.5 L 255.0 200.3 L 256.2 197.9 L 257.3 195.1 L 258.4 192.2 L 259.6 189.1 L 260.7 185.9 L 261.8 182.5 L 263.0 179.1 L 264.1 175.7 L 265.2 172.2 L 266.4 168.8 L 267.5 165.5 L 268.7 162.2 L 269.8 159.2 L 270.9 156.3 L 272.1 153.6 L 273.2 151.2 L 274.3 149.1 L 275.5 147.2 L 276.6 145.7 L 277.7 144.5 L 278.9 143.6 L 280.0 143.1 L 281.1 143.0 L 282.3 143.2 L 283.4 143.8 L 284.5 144.8 L 285.7 146.0 L 286.8 147.7 L 288.0 149.6 L 289.1 151.8 L 290.2 154.3 L 291.4 157.0 L 292.5 159.9 L 293.6 163.0 L 294.8 166.3 L 295.9 169.6 L 297.0 173.1 L 298.2 176.5 L 299.3 180.0 L 300.4 183.4 L 301.6 186.7 L 302.7 189.9 L 303.8 193.0 L 305.0 195.8 L 306.1 198.5 L 307.3 200.9 L 308.4 203.0 L 309.5 204.9 L 310.7 206.4 L 311.8 207.6 L 312.9 208.4 L 314.1 208.9 L 315.2 209.0 L 316.3 208.7 L 317.5 208.1 L 318.6 207.2 L 319.7 205.9 L 320.9 204.3 L 322.0 202.3 L 323.1 200.1 L 324.3 197.6 L 325.4 194.9 L 326.6 191.9 L 327.7 188.8 L 328.8 185.6 L 330.0 182.2 L 331.1 178.8 L 332.2 175.3 L 333.4 171.9 L 334.5 168.5 L 335.6 165.1 L 336.8 161.9 L 337.9 158.9 L 339.0 156.0 L 340.2 153.4 L 341.3 151.0 L 342.4 148.9 L 343.6 147.1 L 344.7 145.6 L 345.8 144.4 L 347.0 143.6 L 348.1 143.1 L 349.3 143.0 L 350.4 143.3 L 351.5 143.9 L 352.7 144.9 L 353.8 146.2 L 354.9 147.8 L 356.1 149.8 L 357.2 152.0 L 358.3 154.5 L 359.5 157.3 L 360.6 160.2 L 361.7 163.4 L 362.9 166.6 L 364.0 170.0 L 365.1 173.4 L 366.3 176.9 L 367.4 180.3 L 368.6 183.7 L 369.7 187.0 L 370.8 190.2 L 372.0 193.3 L 373.1 196.1 L 374.2 198.7 L 375.4 201.1 L 376.5 203.2 L 377.6 205.0 L 378.8 206.5 L 379.9 207.7 L 381.0 208.5 L 382.2 208.9 L 383.3 209.0 L 384.4 208.7 L 385.6 208.1 L 386.7 207.1 L 387.9 205.7 L 389.0 204.1 L 390.1 202.1 L 391.3 199.8 L 392.4 197.3 L 393.5 194.6 L 394.7 191.6 L 395.8 188.5 L 396.9 185.2 L 398.1 181.9 L 399.2 178.4 L 400.3 175.0 L 401.5 171.5 L 402.6 168.1 L 403.7 164.8 L 404.9 161.6 L 406.0 158.6 L 407.2 155.7 L 408.3 153.1 L 409.4 150.8 L 410.6 148.7 L 411.7 146.9 L 412.8 145.4 L 414.0 144.3 L 415.1 143.5 L 416.2 143.1 L 417.4 143.0 L 418.5 143.3 L 419.6 144.0 L 420.8 145.0 L 421.9 146.3 L 423.0 148.0 L 424.2 150.0 L 425.3 152.3 L 426.5 154.8 L 427.6 157.6 L 428.7 160.5 L 429.9 163.7 L 431.0 166.9 L 432.1 170.3 L 433.3 173.8 L 434.4 177.2 L 435.5 180.7 L 436.7 184.1 L 437.8 187.4 L 438.9 190.5 L 440.1 193.6 L 441.2 196.4 L 442.3 199.0 L 443.5 201.3 L 444.6 203.4 L 445.7 205.2 L 446.9 206.6 L 448.0 207.8 L 449.2 208.5 L 450.3 208.9 L 451.4 209.0 L 452.6 208.7 L 453.7 208.0 L 454.8 207.0 L 456.0 205.6 L 457.1 203.9 L 458.2 201.9 L 459.4 199.6 L 460.5 197.1 L 461.6 194.3 L 462.8 191.3 L 463.9 188.2 L 465.0 184.9 L 466.2 181.5 L 467.3 178.1 L 468.5 174.6 L 469.6 171.2 L 470.7 167.8 L 471.9 164.5 L 473.0 161.3 L 474.1 158.3 L 475.3 155.5 L 476.4 152.9 L 477.5 150.5 L 478.7 148.5 L 479.8 146.7 L 480.9 145.3 L 482.1 144.2 L 483.2 143.4 L 484.3 143.1 L 485.5 143.0 L 486.6 143.4 L 487.8 144.1 L 488.9 145.1 L 490.0 146.5 L 491.2 148.2 L 492.3 150.2 L 493.4 152.5 L 494.6 155.1 L 495.7 157.9 L 496.8 160.8 L 498.0 164.0 L 499.1 167.3 L 500.2 170.7 L 501.4 174.1 L 502.5 177.6 L 503.6 181.0 L 504.8 184.4 L 505.9 187.7 L 507.1 190.9 L 508.2 193.9 L 509.3 196.7 L 510.5 199.2 L 511.6 201.6 L 512.7 203.6 L 513.9 205.4 L 515.0 206.8 L 516.1 207.8 L 517.3 208.6 L 518.4 208.9 L 519.5 209.0 L 520.7 208.6 L 521.8 207.9 L 522.9 206.8 L 524.1 205.4 L 525.2 203.7 L 526.4 201.7 L 527.5 199.4 L 528.6 196.8 L 529.8 194.0 L 530.9 191.0 L 532.0 187.8 L 533.2 184.6 L 534.3 181.2 L 535.4 177.7 L 536.6 174.3 L 537.7 170.8 L 538.8 167.4 L 540.0 164.2 L 541.1 161.0 L 542.2 158.0 L 543.4 155.2 L 544.5 152.6 L 545.6 150.3 L 546.8 148.3 L 547.9 146.6 L 549.1 145.2 L 550.2 144.1 L 551.3 143.4 L 552.5 143.0 L 553.6 143.1 L 554.7 143.4 L 555.9 144.2 L 557.0 145.2 L 558.1 146.6 L 559.3 148.4 L 560.4 150.4 L 561.5 152.8 L 562.7 155.3 L 563.8 158.1 L 564.9 161.1 L 566.1 164.3 L 567.2 167.6 L 568.4 171.0 L 569.5 174.4 L 570.6 177.9 L 571.8 181.3 L 572.9 184.7 L 574.0 188.0 L 575.2 191.2 L 576.3 194.1 L 577.4 196.9 L 578.6 199.5 L 579.7 201.8 L 580.8 203.8 L 582.0 205.5 L 583.1 206.9 L 584.2 207.9 L 585.4 208.6 L 586.5 209.0 L 587.7 208.9 L 588.8 208.6 L 589.9 207.8 L 591.1 206.7 L 592.2 205.3 L 593.3 203.5 L 594.5 201.5 L 595.6 199.1 L 596.7 196.5 L 597.9 193.7 L 599.0 190.7 L 600.1 187.5 L 601.3 184.2 L 602.4 180.8 L 603.5 177.4 L 604.7 173.9 L 605.8 170.5 L 607.0 167.1 L 608.1 163.8 L 609.2 160.7 L 610.4 157.7 L 611.5 154.9 L 612.6 152.4 L 613.8 150.1 L 614.9 148.1 L 616.0 146.4 L 617.2 145.0 L 618.3 144.0 L 619.4 143.3 L 620.6 143.0 L 621.7 143.1 L 622.8 143.5 L 624.0 144.2 L 625.1 145.4 L 626.3 146.8 L 627.4 148.6 L 628.5 150.7 L 629.7 153.0 L 630.8 155.6 L 631.9 158.4 L 633.1 161.5 L 634.2 164.6 L 635.3 167.9 L 636.5 171.3 L 637.6 174.8 L 638.7 178.2 L 639.9 181.7 L 641.0 185.1 L 642.1 188.3 L 643.3 191.5 L 644.4 194.4 L 645.5 197.2 L 646.7 199.7 L 647.8 202.0 L 649.0 204.0 L 650.1 205.7 L 651.2 207.0 L 652.4 208.0 L 653.5 208.7 L 654.6 209.0 L 655.8 208.9 L 656.9 208.5 L 658.0 207.7 L 659.2 206.6 L 660.3 205.1 L 661.4 203.3 L 662.6 201.2 L 663.7 198.9 L 664.8 196.3 L 666.0 193.4 L 667.1 190.4 L 668.3 187.2 L 669.4 183.9 L 670.5 180.5 L 671.7 177.0 L 672.8 173.6 L 673.9 170.1 L 675.1 166.8 L 676.2 163.5 L 677.3 160.4 L 678.5 157.4 L 679.6 154.7 L 680.7 152.2 L 681.9 149.9 L 683.0 147.9 L 684.1 146.3 L 685.3 144.9 L 686.4 143.9 L 687.6 143.3 L 688.7 143.0 L 689.8 143.1 L 691.0 143.5 L 692.1 144.3 L 693.2 145.5 L 694.4 147.0 L 695.5 148.8 L 696.6 150.9 L 697.8 153.3 L 698.9 155.9 L 700.0 158.7 L 701.2 161.8 L 702.3 165.0 L 703.4 168.3 L 704.6 171.7 L 705.7 175.1 L 706.9 178.6 L 708.0 182.0 L 709.1 185.4 L 710.3 188.6 L 711.4 191.8 L 712.5 194.7 L 713.7 197.5 L 714.8 200.0 L 715.9 202.2 L 717.1 204.2 L 718.2 205.8 L 719.3 207.1 L 720.5 208.1 L 721.6 208.7 L 722.7 209.0 L 723.9 208.9 L 725.0 208.4 L 726.2 207.6 L 727.3 206.4 L 728.4 204.9 L 729.6 203.1 L 730.7 201.0 L 731.8 198.6 L 733.0 196.0 L 734.1 193.1 L 735.2 190.1 L 736.4 186.9 L 737.5 183.5 L 738.6 180.1 L 739.8 176.7 L 740.9 173.2 L 742.0 169.8 L 743.2 166.4 L 744.3 163.2 L 745.4 160.1 L 746.6 157.1 L 747.7 154.4 L 748.9 151.9 L 750.0 149.7 L 751.1 147.7 L 752.3 146.1 L 753.4 144.8 L 754.5 143.9 L 755.7 143.3 L 756.8 143.0 L 757.9 143.1 L 759.1 143.6 L 760.2 144.4 L 761.3 145.6 L 762.5 147.1 L 763.6 149.0 L 764.7 151.1 L 765.9 153.5 L 767.0 156.2 L 768.2 159.0 L 769.3 162.1 L 770.4 165.3 L 771.6 168.6 L 772.7 172.0 L 773.8 175.5 L 775.0 178.9 L 776.1 182.4 L 777.2 185.7 L 778.4 189.0 L 779.5 192.1 L 780.6 195.0 L 781.8 197.7 L 782.9 200.2 L 784.0 202.4 L 785.2 204.3 L 786.3 206.0 L 787.5 207.2 L 788.6 208.2 L 789.7 208.8 L 790.9 209.0 L 792.0 208.9 L 793.1 208.4 L 794.3 207.5 L 795.4 206.3 L 796.5 204.8 L 797.7 202.9 L 798.8 200.8 L 799.9 198.4 L 801.1 195.7 L 802.2 192.8 L 803.3 189.8 L 804.5 186.5 L 805.6 183.2 L 806.8 179.8 L 807.9 176.3 L 809.0 172.9 L 810.2 169.5 L 811.3 166.1 L 812.4 162.9 L 813.6 159.8 L 814.7 156.9 L 815.8 154.1 L 817.0 151.7 L 818.1 149.5 L 819.2 147.6 L 820.4 146.0 L 821.5 144.7 L 822.6 143.8 L 823.8 143.2 L 824.9 143.0 L 826.1 143.2 L 827.2 143.7 L 828.3 144.5 L 829.5 145.8 L 830.6 147.3 L 831.7 149.2 L 832.9 151.3 L 834.0 153.8 L 835.1 156.4 L 836.3 159.3 L 837.4 162.4 L 838.5 165.6 L 839.7 169.0 L 840.8 172.4 L 841.9 175.8 L 843.1 179.3 L 844.2 182.7 L 845.3 186.0 L 846.5 189.3 L 847.6 192.4 L 848.8 195.3 L 849.9 198.0 L 851.0 200.4 L 852.2 202.6 L 853.3 204.5 L 854.4 206.1 L 855.6 207.4 L 856.7 208.3 L 857.8 208.8 L 859.0 209.0 L 860.1 208.8 L 861.2 208.3 L 862.4 207.4 L 863.5 206.2 L 864.6 204.6 L 865.8 202.7 L 866.9 200.6 L 868.1 198.1 L 869.2 195.4 L 870.3 192.5 L 871.5 189.4 L 872.6 186.2 L 873.7 182.9 L 874.9 179.5 L 876.0 176.0" fill="none" stroke="#a8431f" stroke-width="8" stroke-opacity="0.12" stroke-linecap="round"/><path d="M 196.0 176.0 L 197.1 172.5 L 198.3 169.1 L 199.4 165.8 L 200.5 162.6 L 201.7 159.5 L 202.8 156.6 L 203.9 153.9 L 205.1 151.4 L 206.2 149.3 L 207.4 147.4 L 208.5 145.8 L 209.6 144.6 L 210.8 143.7 L 211.9 143.2 L 213.0 143.0 L 214.2 143.2 L 215.3 143.7 L 216.4 144.6 L 217.6 145.9 L 218.7 147.5 L 219.8 149.4 L 221.0 151.6 L 222.1 154.0 L 223.2 156.7 L 224.4 159.6 L 225.5 162.7 L 226.7 166.0 L 227.8 169.3 L 228.9 172.7 L 230.1 176.2 L 231.2 179.6 L 232.3 183.0 L 233.5 186.4 L 234.6 189.6 L 235.7 192.7 L 236.9 195.6 L 238.0 198.2 L 239.1 200.7 L 240.3 202.8 L 241.4 204.7 L 242.5 206.2 L 243.7 207.5 L 244.8 208.3 L 245.9 208.8 L 247.1 209.0 L 248.2 208.8 L 249.4 208.2 L 250.5 207.3 L 251.6 206.0 L 252.8 204.4 L 253.9 202.5 L 255.0 200.3 L 256.2 197.9 L 257.3 195.1 L 258.4 192.2 L 259.6 189.1 L 260.7 185.9 L 261.8 182.5 L 263.0 179.1 L 264.1 175.7 L 265.2 172.2 L 266.4 168.8 L 267.5 165.5 L 268.7 162.2 L 269.8 159.2 L 270.9 156.3 L 272.1 153.6 L 273.2 151.2 L 274.3 149.1 L 275.5 147.2 L 276.6 145.7 L 277.7 144.5 L 278.9 143.6 L 280.0 143.1 L 281.1 143.0 L 282.3 143.2 L 283.4 143.8 L 284.5 144.8 L 285.7 146.0 L 286.8 147.7 L 288.0 149.6 L 289.1 151.8 L 290.2 154.3 L 291.4 157.0 L 292.5 159.9 L 293.6 163.0 L 294.8 166.3 L 295.9 169.6 L 297.0 173.1 L 298.2 176.5 L 299.3 180.0 L 300.4 183.4 L 301.6 186.7 L 302.7 189.9 L 303.8 193.0 L 305.0 195.8 L 306.1 198.5 L 307.3 200.9 L 308.4 203.0 L 309.5 204.9 L 310.7 206.4 L 311.8 207.6 L 312.9 208.4 L 314.1 208.9 L 315.2 209.0 L 316.3 208.7 L 317.5 208.1 L 318.6 207.2 L 319.7 205.9 L 320.9 204.3 L 322.0 202.3 L 323.1 200.1 L 324.3 197.6 L 325.4 194.9 L 326.6 191.9 L 327.7 188.8 L 328.8 185.6 L 330.0 182.2 L 331.1 178.8 L 332.2 175.3 L 333.4 171.9 L 334.5 168.5 L 335.6 165.1 L 336.8 161.9 L 337.9 158.9 L 339.0 156.0 L 340.2 153.4 L 341.3 151.0 L 342.4 148.9 L 343.6 147.1 L 344.7 145.6 L 345.8 144.4 L 347.0 143.6 L 348.1 143.1 L 349.3 143.0 L 350.4 143.3 L 351.5 143.9 L 352.7 144.9 L 353.8 146.2 L 354.9 147.8 L 356.1 149.8 L 357.2 152.0 L 358.3 154.5 L 359.5 157.3 L 360.6 160.2 L 361.7 163.4 L 362.9 166.6 L 364.0 170.0 L 365.1 173.4 L 366.3 176.9 L 367.4 180.3 L 368.6 183.7 L 369.7 187.0 L 370.8 190.2 L 372.0 193.3 L 373.1 196.1 L 374.2 198.7 L 375.4 201.1 L 376.5 203.2 L 377.6 205.0 L 378.8 206.5 L 379.9 207.7 L 381.0 208.5 L 382.2 208.9 L 383.3 209.0 L 384.4 208.7 L 385.6 208.1 L 386.7 207.1 L 387.9 205.7 L 389.0 204.1 L 390.1 202.1 L 391.3 199.8 L 392.4 197.3 L 393.5 194.6 L 394.7 191.6 L 395.8 188.5 L 396.9 185.2 L 398.1 181.9 L 399.2 178.4 L 400.3 175.0 L 401.5 171.5 L 402.6 168.1 L 403.7 164.8 L 404.9 161.6 L 406.0 158.6 L 407.2 155.7 L 408.3 153.1 L 409.4 150.8 L 410.6 148.7 L 411.7 146.9 L 412.8 145.4 L 414.0 144.3 L 415.1 143.5 L 416.2 143.1 L 417.4 143.0 L 418.5 143.3 L 419.6 144.0 L 420.8 145.0 L 421.9 146.3 L 423.0 148.0 L 424.2 150.0 L 425.3 152.3 L 426.5 154.8 L 427.6 157.6 L 428.7 160.5 L 429.9 163.7 L 431.0 166.9 L 432.1 170.3 L 433.3 173.8 L 434.4 177.2 L 435.5 180.7 L 436.7 184.1 L 437.8 187.4 L 438.9 190.5 L 440.1 193.6 L 441.2 196.4 L 442.3 199.0 L 443.5 201.3 L 444.6 203.4 L 445.7 205.2 L 446.9 206.6 L 448.0 207.8 L 449.2 208.5 L 450.3 208.9 L 451.4 209.0 L 452.6 208.7 L 453.7 208.0 L 454.8 207.0 L 456.0 205.6 L 457.1 203.9 L 458.2 201.9 L 459.4 199.6 L 460.5 197.1 L 461.6 194.3 L 462.8 191.3 L 463.9 188.2 L 465.0 184.9 L 466.2 181.5 L 467.3 178.1 L 468.5 174.6 L 469.6 171.2 L 470.7 167.8 L 471.9 164.5 L 473.0 161.3 L 474.1 158.3 L 475.3 155.5 L 476.4 152.9 L 477.5 150.5 L 478.7 148.5 L 479.8 146.7 L 480.9 145.3 L 482.1 144.2 L 483.2 143.4 L 484.3 143.1 L 485.5 143.0 L 486.6 143.4 L 487.8 144.1 L 488.9 145.1 L 490.0 146.5 L 491.2 148.2 L 492.3 150.2 L 493.4 152.5 L 494.6 155.1 L 495.7 157.9 L 496.8 160.8 L 498.0 164.0 L 499.1 167.3 L 500.2 170.7 L 501.4 174.1 L 502.5 177.6 L 503.6 181.0 L 504.8 184.4 L 505.9 187.7 L 507.1 190.9 L 508.2 193.9 L 509.3 196.7 L 510.5 199.2 L 511.6 201.6 L 512.7 203.6 L 513.9 205.4 L 515.0 206.8 L 516.1 207.8 L 517.3 208.6 L 518.4 208.9 L 519.5 209.0 L 520.7 208.6 L 521.8 207.9 L 522.9 206.8 L 524.1 205.4 L 525.2 203.7 L 526.4 201.7 L 527.5 199.4 L 528.6 196.8 L 529.8 194.0 L 530.9 191.0 L 532.0 187.8 L 533.2 184.6 L 534.3 181.2 L 535.4 177.7 L 536.6 174.3 L 537.7 170.8 L 538.8 167.4 L 540.0 164.2 L 541.1 161.0 L 542.2 158.0 L 543.4 155.2 L 544.5 152.6 L 545.6 150.3 L 546.8 148.3 L 547.9 146.6 L 549.1 145.2 L 550.2 144.1 L 551.3 143.4 L 552.5 143.0 L 553.6 143.1 L 554.7 143.4 L 555.9 144.2 L 557.0 145.2 L 558.1 146.6 L 559.3 148.4 L 560.4 150.4 L 561.5 152.8 L 562.7 155.3 L 563.8 158.1 L 564.9 161.1 L 566.1 164.3 L 567.2 167.6 L 568.4 171.0 L 569.5 174.4 L 570.6 177.9 L 571.8 181.3 L 572.9 184.7 L 574.0 188.0 L 575.2 191.2 L 576.3 194.1 L 577.4 196.9 L 578.6 199.5 L 579.7 201.8 L 580.8 203.8 L 582.0 205.5 L 583.1 206.9 L 584.2 207.9 L 585.4 208.6 L 586.5 209.0 L 587.7 208.9 L 588.8 208.6 L 589.9 207.8 L 591.1 206.7 L 592.2 205.3 L 593.3 203.5 L 594.5 201.5 L 595.6 199.1 L 596.7 196.5 L 597.9 193.7 L 599.0 190.7 L 600.1 187.5 L 601.3 184.2 L 602.4 180.8 L 603.5 177.4 L 604.7 173.9 L 605.8 170.5 L 607.0 167.1 L 608.1 163.8 L 609.2 160.7 L 610.4 157.7 L 611.5 154.9 L 612.6 152.4 L 613.8 150.1 L 614.9 148.1 L 616.0 146.4 L 617.2 145.0 L 618.3 144.0 L 619.4 143.3 L 620.6 143.0 L 621.7 143.1 L 622.8 143.5 L 624.0 144.2 L 625.1 145.4 L 626.3 146.8 L 627.4 148.6 L 628.5 150.7 L 629.7 153.0 L 630.8 155.6 L 631.9 158.4 L 633.1 161.5 L 634.2 164.6 L 635.3 167.9 L 636.5 171.3 L 637.6 174.8 L 638.7 178.2 L 639.9 181.7 L 641.0 185.1 L 642.1 188.3 L 643.3 191.5 L 644.4 194.4 L 645.5 197.2 L 646.7 199.7 L 647.8 202.0 L 649.0 204.0 L 650.1 205.7 L 651.2 207.0 L 652.4 208.0 L 653.5 208.7 L 654.6 209.0 L 655.8 208.9 L 656.9 208.5 L 658.0 207.7 L 659.2 206.6 L 660.3 205.1 L 661.4 203.3 L 662.6 201.2 L 663.7 198.9 L 664.8 196.3 L 666.0 193.4 L 667.1 190.4 L 668.3 187.2 L 669.4 183.9 L 670.5 180.5 L 671.7 177.0 L 672.8 173.6 L 673.9 170.1 L 675.1 166.8 L 676.2 163.5 L 677.3 160.4 L 678.5 157.4 L 679.6 154.7 L 680.7 152.2 L 681.9 149.9 L 683.0 147.9 L 684.1 146.3 L 685.3 144.9 L 686.4 143.9 L 687.6 143.3 L 688.7 143.0 L 689.8 143.1 L 691.0 143.5 L 692.1 144.3 L 693.2 145.5 L 694.4 147.0 L 695.5 148.8 L 696.6 150.9 L 697.8 153.3 L 698.9 155.9 L 700.0 158.7 L 701.2 161.8 L 702.3 165.0 L 703.4 168.3 L 704.6 171.7 L 705.7 175.1 L 706.9 178.6 L 708.0 182.0 L 709.1 185.4 L 710.3 188.6 L 711.4 191.8 L 712.5 194.7 L 713.7 197.5 L 714.8 200.0 L 715.9 202.2 L 717.1 204.2 L 718.2 205.8 L 719.3 207.1 L 720.5 208.1 L 721.6 208.7 L 722.7 209.0 L 723.9 208.9 L 725.0 208.4 L 726.2 207.6 L 727.3 206.4 L 728.4 204.9 L 729.6 203.1 L 730.7 201.0 L 731.8 198.6 L 733.0 196.0 L 734.1 193.1 L 735.2 190.1 L 736.4 186.9 L 737.5 183.5 L 738.6 180.1 L 739.8 176.7 L 740.9 173.2 L 742.0 169.8 L 743.2 166.4 L 744.3 163.2 L 745.4 160.1 L 746.6 157.1 L 747.7 154.4 L 748.9 151.9 L 750.0 149.7 L 751.1 147.7 L 752.3 146.1 L 753.4 144.8 L 754.5 143.9 L 755.7 143.3 L 756.8 143.0 L 757.9 143.1 L 759.1 143.6 L 760.2 144.4 L 761.3 145.6 L 762.5 147.1 L 763.6 149.0 L 764.7 151.1 L 765.9 153.5 L 767.0 156.2 L 768.2 159.0 L 769.3 162.1 L 770.4 165.3 L 771.6 168.6 L 772.7 172.0 L 773.8 175.5 L 775.0 178.9 L 776.1 182.4 L 777.2 185.7 L 778.4 189.0 L 779.5 192.1 L 780.6 195.0 L 781.8 197.7 L 782.9 200.2 L 784.0 202.4 L 785.2 204.3 L 786.3 206.0 L 787.5 207.2 L 788.6 208.2 L 789.7 208.8 L 790.9 209.0 L 792.0 208.9 L 793.1 208.4 L 794.3 207.5 L 795.4 206.3 L 796.5 204.8 L 797.7 202.9 L 798.8 200.8 L 799.9 198.4 L 801.1 195.7 L 802.2 192.8 L 803.3 189.8 L 804.5 186.5 L 805.6 183.2 L 806.8 179.8 L 807.9 176.3 L 809.0 172.9 L 810.2 169.5 L 811.3 166.1 L 812.4 162.9 L 813.6 159.8 L 814.7 156.9 L 815.8 154.1 L 817.0 151.7 L 818.1 149.5 L 819.2 147.6 L 820.4 146.0 L 821.5 144.7 L 822.6 143.8 L 823.8 143.2 L 824.9 143.0 L 826.1 143.2 L 827.2 143.7 L 828.3 144.5 L 829.5 145.8 L 830.6 147.3 L 831.7 149.2 L 832.9 151.3 L 834.0 153.8 L 835.1 156.4 L 836.3 159.3 L 837.4 162.4 L 838.5 165.6 L 839.7 169.0 L 840.8 172.4 L 841.9 175.8 L 843.1 179.3 L 844.2 182.7 L 845.3 186.0 L 846.5 189.3 L 847.6 192.4 L 848.8 195.3 L 849.9 198.0 L 851.0 200.4 L 852.2 202.6 L 853.3 204.5 L 854.4 206.1 L 855.6 207.4 L 856.7 208.3 L 857.8 208.8 L 859.0 209.0 L 860.1 208.8 L 861.2 208.3 L 862.4 207.4 L 863.5 206.2 L 864.6 204.6 L 865.8 202.7 L 866.9 200.6 L 868.1 198.1 L 869.2 195.4 L 870.3 192.5 L 871.5 189.4 L 872.6 186.2 L 873.7 182.9 L 874.9 179.5 L 876.0 176.0" fill="none" stroke="#a8431f" stroke-width="3" stroke-linecap="round" stroke-linejoin="round"/><circle cx="48" cy="176" r="5.5" fill="#a8431f"/><text x="64" y="181" fill="#a8431f" font-size="18" font-weight="700" text-anchor="start" font-family="-apple-system, BlinkMacSystemFont, 'Segoe UI', 'Inter', Helvetica, Arial, sans-serif">PD</text><text x="892" y="181" fill="#a8431f" font-size="15" font-weight="600" text-anchor="start" font-family="-apple-system, BlinkMacSystemFont, 'Segoe UI', 'Inter', Helvetica, Arial, sans-serif">8.00 Hz</text><text x="510.0" y="232" fill="#64748b" font-size="13.5" font-weight="400" text-anchor="middle" font-family="-apple-system, BlinkMacSystemFont, 'Segoe UI', 'Inter', Helvetica, Arial, sans-serif">same window, fewer cycles: the resting alpha rhythm slows</text></svg>