<svg viewBox="0 0 1040 294" xmlns="http://www.w3.org/2000/svg" font-family="-apple-system, BlinkMacSystemFont, 'Segoe UI', 'Inter', Helvetica, Arial, sans-serif"><line x1="214" y1="86" x2="1004" y2="86" stroke="#3b4759" stroke-width="1"/><path d="M 214.0 86.0 L 215.0 80.9 L 216.1 75.9 L 217.1 71.0 L 218.2 66.3 L 219.2 61.9 L 220.2 57.8 L 221.3 54.1 L 222.3 50.8 L 223.4 48.0 L 224.4 45.7 L 225.4 43.9 L 226.5 42.7 L 227.5 42.1 L 228.6 42.1 L 229.6 42.6 L 230.7 43.8 L 231.7 45.5 L 232.7 47.7 L 233.8 50.5 L 234.8 53.7 L 235.9 57.4 L 236.9 61.5 L 237.9 65.8 L 239.0 70.5 L 240.0 75.4 L 241.1 80.4 L 242.1 85.5 L 243.1 90.5 L 244.2 95.6 L 245.2 100.5 L 246.3 105.2 L 247.3 109.6 L 248.3 113.8 L 249.4 117.5 L 250.4 120.9 L 251.5 123.7 L 252.5 126.1 L 253.6 127.9 L 254.6 129.2 L 255.6 129.9 L 256.7 130.0 L 257.7 129.5 L 258.8 128.4 L 259.8 126.7 L 260.8 124.6 L 261.9 121.8 L 262.9 118.6 L 264.0 115.0 L 265.0 111.0 L 266.0 106.6 L 267.1 102.0 L 268.1 97.2 L 269.2 92.2 L 270.2 87.1 L 271.2 82.0 L 272.3 77.0 L 273.3 72.0 L 274.4 67.3 L 275.4 62.8 L 276.5 58.7 L 277.5 54.9 L 278.5 51.5 L 279.6 48.5 L 280.6 46.1 L 281.7 44.2 L 282.7 42.9 L 283.7 42.2 L 284.8 42.0 L 285.8 42.4 L 286.9 43.5 L 287.9 45.1 L 288.9 47.2 L 290.0 49.8 L 291.0 53.0 L 292.1 56.6 L 293.1 60.6 L 294.1 64.9 L 295.2 69.5 L 296.2 74.3 L 297.3 79.3 L 298.3 84.4 L 299.3 89.5 L 300.4 94.5 L 301.4 99.4 L 302.5 104.2 L 303.5 108.7 L 304.6 112.9 L 305.6 116.8 L 306.6 120.2 L 307.7 123.2 L 308.7 125.6 L 309.8 127.6 L 310.8 129.0 L 311.8 129.8 L 312.9 130.0 L 313.9 129.6 L 315.0 128.7 L 316.0 127.1 L 317.0 125.1 L 318.1 122.5 L 319.1 119.4 L 320.2 115.8 L 321.2 111.9 L 322.2 107.6 L 323.3 103.0 L 324.3 98.2 L 325.4 93.3 L 326.4 88.2 L 327.5 83.1 L 328.5 78.0 L 329.5 73.1 L 330.6 68.3 L 331.6 63.8 L 332.7 59.5 L 333.7 55.6 L 334.7 52.2 L 335.8 49.1 L 336.8 46.6 L 337.9 44.6 L 338.9 43.2 L 339.9 42.3 L 341.0 42.0 L 342.0 42.3 L 343.1 43.2 L 344.1 44.7 L 345.1 46.7 L 346.2 49.2 L 347.2 52.3 L 348.3 55.8 L 349.3 59.7 L 350.4 63.9 L 351.4 68.5 L 352.4 73.3 L 353.5 78.2 L 354.5 83.3 L 355.6 88.4 L 356.6 93.4 L 357.6 98.4 L 358.7 103.2 L 359.7 107.8 L 360.8 112.0 L 361.8 116.0 L 362.8 119.5 L 363.9 122.6 L 364.9 125.2 L 366.0 127.2 L 367.0 128.7 L 368.0 129.6 L 369.1 130.0 L 370.1 129.8 L 371.2 128.9 L 372.2 127.5 L 373.2 125.6 L 374.3 123.1 L 375.3 120.1 L 376.4 116.6 L 377.4 112.8 L 378.5 108.5 L 379.5 104.0 L 380.5 99.3 L 381.6 94.3 L 382.6 89.3 L 383.7 84.2 L 384.7 79.1 L 385.7 74.1 L 386.8 69.3 L 387.8 64.7 L 388.9 60.4 L 389.9 56.4 L 390.9 52.9 L 392.0 49.7 L 393.0 47.1 L 394.1 45.0 L 395.1 43.4 L 396.1 42.4 L 397.2 42.0 L 398.2 42.2 L 399.3 43.0 L 400.3 44.3 L 401.4 46.2 L 402.4 48.6 L 403.4 51.6 L 404.5 55.0 L 405.5 58.8 L 406.6 63.0 L 407.6 67.5 L 408.6 72.2 L 409.7 77.1 L 410.7 82.2 L 411.8 87.3 L 412.8 92.4 L 413.8 97.3 L 414.9 102.2 L 415.9 106.8 L 417.0 111.2 L 418.0 115.2 L 419.0 118.8 L 420.1 121.9 L 421.1 124.6 L 422.2 126.8 L 423.2 128.4 L 424.3 129.5 L 425.3 130.0 L 426.3 129.9 L 427.4 129.2 L 428.4 127.9 L 429.5 126.0 L 430.5 123.6 L 431.5 120.8 L 432.6 117.4 L 433.6 113.6 L 434.7 109.5 L 435.7 105.0 L 436.7 100.3 L 437.8 95.4 L 438.8 90.4 L 439.9 85.3 L 440.9 80.2 L 441.9 75.2 L 443.0 70.3 L 444.0 65.7 L 445.1 61.3 L 446.1 57.3 L 447.1 53.6 L 448.2 50.4 L 449.2 47.6 L 450.3 45.4 L 451.3 43.7 L 452.4 42.6 L 453.4 42.0 L 454.4 42.1 L 455.5 42.7 L 456.5 44.0 L 457.6 45.8 L 458.6 48.1 L 459.6 50.9 L 460.7 54.2 L 461.7 58.0 L 462.8 62.1 L 463.8 66.5 L 464.8 71.2 L 465.9 76.1 L 466.9 81.1 L 468.0 86.2 L 469.0 91.3 L 470.0 96.3 L 471.1 101.2 L 472.1 105.8 L 473.2 110.2 L 474.2 114.3 L 475.3 118.0 L 476.3 121.3 L 477.3 124.1 L 478.4 126.4 L 479.4 128.1 L 480.5 129.3 L 481.5 129.9 L 482.5 129.9 L 483.6 129.4 L 484.6 128.2 L 485.7 126.5 L 486.7 124.2 L 487.7 121.4 L 488.8 118.2 L 489.8 114.5 L 490.9 110.4 L 491.9 106.0 L 492.9 101.3 L 494.0 96.5 L 495.0 91.4 L 496.1 86.4 L 497.1 81.3 L 498.2 76.2 L 499.2 71.4 L 500.2 66.7 L 501.3 62.2 L 502.3 58.1 L 503.4 54.3 L 504.4 51.0 L 505.4 48.2 L 506.5 45.8 L 507.5 44.0 L 508.6 42.8 L 509.6 42.1 L 510.6 42.0 L 511.7 42.6 L 512.7 43.7 L 513.8 45.3 L 514.8 47.5 L 515.8 50.3 L 516.9 53.5 L 517.9 57.1 L 519.0 61.1 L 520.0 65.5 L 521.0 70.2 L 522.1 75.0 L 523.1 80.0 L 524.2 85.1 L 525.2 90.2 L 526.3 95.2 L 527.3 100.1 L 528.3 104.9 L 529.4 109.3 L 530.4 113.5 L 531.5 117.3 L 532.5 120.6 L 533.5 123.5 L 534.6 125.9 L 535.6 127.8 L 536.7 129.1 L 537.7 129.8 L 538.7 130.0 L 539.8 129.5 L 540.8 128.5 L 541.9 126.9 L 542.9 124.7 L 543.9 122.1 L 545.0 118.9 L 546.0 115.3 L 547.1 111.3 L 548.1 107.0 L 549.2 102.4 L 550.2 97.5 L 551.2 92.5 L 552.3 87.5 L 553.3 82.4 L 554.4 77.3 L 555.4 72.4 L 556.4 67.6 L 557.5 63.1 L 558.5 58.9 L 559.6 55.1 L 560.6 51.7 L 561.6 48.7 L 562.7 46.3 L 563.7 44.4 L 564.8 43.0 L 565.8 42.2 L 566.8 42.0 L 567.9 42.4 L 568.9 43.4 L 570.0 44.9 L 571.0 47.0 L 572.1 49.6 L 573.1 52.7 L 574.1 56.3 L 575.2 60.3 L 576.2 64.6 L 577.3 69.1 L 578.3 74.0 L 579.3 78.9 L 580.4 84.0 L 581.4 89.1 L 582.5 94.1 L 583.5 99.1 L 584.5 103.9 L 585.6 108.4 L 586.6 112.6 L 587.7 116.5 L 588.7 120.0 L 589.7 123.0 L 590.8 125.5 L 591.8 127.5 L 592.9 128.9 L 593.9 129.7 L 594.9 130.0 L 596.0 129.7 L 597.0 128.8 L 598.1 127.3 L 599.1 125.2 L 600.2 122.7 L 601.2 119.6 L 602.2 116.1 L 603.3 112.2 L 604.3 107.9 L 605.4 103.4 L 606.4 98.6 L 607.4 93.6 L 608.5 88.5 L 609.5 83.5 L 610.6 78.4 L 611.6 73.4 L 612.6 68.6 L 613.7 64.1 L 614.7 59.8 L 615.8 55.9 L 616.8 52.4 L 617.8 49.3 L 618.9 46.8 L 619.9 44.7 L 621.0 43.2 L 622.0 42.3 L 623.1 42.0 L 624.1 42.3 L 625.1 43.1 L 626.2 44.5 L 627.2 46.5 L 628.3 49.0 L 629.3 52.0 L 630.3 55.5 L 631.4 59.4 L 632.4 63.6 L 633.5 68.1 L 634.5 72.9 L 635.5 77.9 L 636.6 82.9 L 637.6 88.0 L 638.7 93.1 L 639.7 98.0 L 640.7 102.9 L 641.8 107.4 L 642.8 111.7 L 643.9 115.7 L 644.9 119.3 L 645.9 122.4 L 647.0 125.0 L 648.0 127.1 L 649.1 128.6 L 650.1 129.6 L 651.2 130.0 L 652.2 129.8 L 653.2 129.0 L 654.3 127.6 L 655.3 125.7 L 656.4 123.3 L 657.4 120.3 L 658.4 116.9 L 659.5 113.1 L 660.5 108.9 L 661.6 104.4 L 662.6 99.6 L 663.6 94.7 L 664.7 89.6 L 665.7 84.5 L 666.8 79.5 L 667.8 74.5 L 668.8 69.6 L 669.9 65.0 L 670.9 60.7 L 672.0 56.7 L 673.0 53.1 L 674.1 49.9 L 675.1 47.3 L 676.1 45.1 L 677.2 43.5 L 678.2 42.5 L 679.3 42.0 L 680.3 42.2 L 681.3 42.9 L 682.4 44.2 L 683.4 46.1 L 684.5 48.5 L 685.5 51.4 L 686.5 54.7 L 687.6 58.5 L 688.6 62.7 L 689.7 67.1 L 690.7 71.9 L 691.7 76.8 L 692.8 81.8 L 693.8 86.9 L 694.9 92.0 L 695.9 97.0 L 697.0 101.8 L 698.0 106.5 L 699.0 110.9 L 700.1 114.9 L 701.1 118.5 L 702.2 121.7 L 703.2 124.5 L 704.2 126.7 L 705.3 128.3 L 706.3 129.4 L 707.4 130.0 L 708.4 129.9 L 709.4 129.2 L 710.5 128.0 L 711.5 126.2 L 712.6 123.8 L 713.6 121.0 L 714.6 117.7 L 715.7 113.9 L 716.7 109.8 L 717.8 105.3 L 718.8 100.6 L 719.8 95.8 L 720.9 90.7 L 721.9 85.6 L 723.0 80.6 L 724.0 75.5 L 725.1 70.7 L 726.1 66.0 L 727.1 61.6 L 728.2 57.5 L 729.2 53.8 L 730.3 50.6 L 731.3 47.8 L 732.3 45.5 L 733.4 43.8 L 734.4 42.6 L 735.5 42.1 L 736.5 42.1 L 737.5 42.7 L 738.6 43.9 L 739.6 45.6 L 740.7 47.9 L 741.7 50.7 L 742.7 54.0 L 743.8 57.7 L 744.8 61.8 L 745.9 66.2 L 746.9 70.8 L 748.0 75.7 L 749.0 80.7 L 750.0 85.8 L 751.1 90.9 L 752.1 95.9 L 753.2 100.8 L 754.2 105.5 L 755.2 109.9 L 756.3 114.0 L 757.3 117.8 L 758.4 121.1 L 759.4 123.9 L 760.4 126.2 L 761.5 128.0 L 762.5 129.3 L 763.6 129.9 L 764.6 130.0 L 765.6 129.4 L 766.7 128.3 L 767.7 126.6 L 768.8 124.4 L 769.8 121.6 L 770.9 118.4 L 771.9 114.7 L 772.9 110.7 L 774.0 106.3 L 775.0 101.7 L 776.1 96.8 L 777.1 91.8 L 778.1 86.7 L 779.2 81.6 L 780.2 76.6 L 781.3 71.7 L 782.3 67.0 L 783.3 62.5 L 784.4 58.4 L 785.4 54.6 L 786.5 51.2 L 787.5 48.4 L 788.5 46.0 L 789.6 44.1 L 790.6 42.8 L 791.7 42.1 L 792.7 42.0 L 793.7 42.5 L 794.8 43.6 L 795.8 45.2 L 796.9 47.4 L 797.9 50.1 L 799.0 53.2 L 800.0 56.8 L 801.0 60.8 L 802.1 65.2 L 803.1 69.8 L 804.2 74.7 L 805.2 79.6 L 806.2 84.7 L 807.3 89.8 L 808.3 94.9 L 809.4 99.8 L 810.4 104.5 L 811.4 109.0 L 812.5 113.2 L 813.5 117.0 L 814.6 120.4 L 815.6 123.4 L 816.6 125.8 L 817.7 127.7 L 818.7 129.0 L 819.8 129.8 L 820.8 130.0 L 821.9 129.6 L 822.9 128.6 L 823.9 127.0 L 825.0 124.9 L 826.0 122.3 L 827.1 119.1 L 828.1 115.6 L 829.1 111.6 L 830.2 107.3 L 831.2 102.7 L 832.3 97.9 L 833.3 92.9 L 834.3 87.8 L 835.4 82.7 L 836.4 77.7 L 837.5 72.7 L 838.5 68.0 L 839.5 63.5 L 840.6 59.2 L 841.6 55.4 L 842.7 51.9 L 843.7 48.9 L 844.8 46.4 L 845.8 44.5 L 846.8 43.1 L 847.9 42.2 L 848.9 42.0 L 850.0 42.4 L 851.0 43.3 L 852.0 44.8 L 853.1 46.8 L 854.1 49.4 L 855.2 52.5 L 856.2 56.0 L 857.2 60.0 L 858.3 64.2 L 859.3 68.8 L 860.4 73.6 L 861.4 78.6 L 862.4 83.6 L 863.5 88.7 L 864.5 93.8 L 865.6 98.7 L 866.6 103.5 L 867.6 108.1 L 868.7 112.3 L 869.7 116.2 L 870.8 119.7 L 871.8 122.8 L 872.9 125.3 L 873.9 127.3 L 874.9 128.8 L 876.0 129.7 L 877.0 130.0 L 878.1 129.7 L 879.1 128.8 L 880.1 127.4 L 881.2 125.4 L 882.2 122.9 L 883.3 119.8 L 884.3 116.4 L 885.3 112.5 L 886.4 108.2 L 887.4 103.7 L 888.5 98.9 L 889.5 94.0 L 890.5 88.9 L 891.6 83.8 L 892.6 78.7 L 893.7 73.8 L 894.7 69.0 L 895.8 64.4 L 896.8 60.1 L 897.8 56.2 L 898.9 52.6 L 899.9 49.5 L 901.0 46.9 L 902.0 44.9 L 903.0 43.3 L 904.1 42.4 L 905.1 42.0 L 906.2 42.2 L 907.2 43.0 L 908.2 44.4 L 909.3 46.4 L 910.3 48.8 L 911.4 51.8 L 912.4 55.2 L 913.4 59.1 L 914.5 63.3 L 915.5 67.8 L 916.6 72.6 L 917.6 77.5 L 918.7 82.5 L 919.7 87.6 L 920.7 92.7 L 921.8 97.7 L 922.8 102.5 L 923.9 107.1 L 924.9 111.4 L 925.9 115.4 L 927.0 119.0 L 928.0 122.2 L 929.1 124.8 L 930.1 126.9 L 931.1 128.5 L 932.2 129.6 L 933.2 130.0 L 934.3 129.8 L 935.3 129.1 L 936.3 127.8 L 937.4 125.9 L 938.4 123.5 L 939.5 120.5 L 940.5 117.1 L 941.5 113.3 L 942.6 109.2 L 943.6 104.7 L 944.7 100.0 L 945.7 95.0 L 946.8 90.0 L 947.8 84.9 L 948.8 79.8 L 949.9 74.8 L 950.9 70.0 L 952.0 65.4 L 953.0 61.0 L 954.0 57.0 L 955.1 53.4 L 956.1 50.2 L 957.2 47.4 L 958.2 45.3 L 959.2 43.6 L 960.3 42.5 L 961.3 42.0 L 962.4 42.1 L 963.4 42.8 L 964.4 44.1 L 965.5 45.9 L 966.5 48.3 L 967.6 51.1 L 968.6 54.5 L 969.7 58.2 L 970.7 62.4 L 971.7 66.8 L 972.8 71.5 L 973.8 76.4 L 974.9 81.5 L 975.9 86.5 L 976.9 91.6 L 978.0 96.6 L 979.0 101.5 L 980.1 106.2 L 981.1 110.5 L 982.1 114.6 L 983.2 118.3 L 984.2 121.5 L 985.3 124.3 L 986.3 126.5 L 987.3 128.2 L 988.4 129.4 L 989.4 129.9 L 990.5 129.9 L 991.5 129.3 L 992.6 128.1 L 993.6 126.3 L 994.6 124.0 L 995.7 121.2 L 996.7 117.9 L 997.8 114.2 L 998.8 110.1 L 999.8 105.7 L 1000.9 101.0 L 1001.9 96.1 L 1003.0 91.1 L 1004.0 86.0" fill="none" stroke="#4d9be6" stroke-width="13" stroke-opacity="0.16" stroke-linecap="round"/><path d="M 214.0 86.0 L 215.0 80.9 L 216.1 75.9 L 217.1 71.0 L 218.2 66.3 L 219.2 61.9 L 220.2 57.8 L 221.3 54.1 L 222.3 50.8 L 223.4 48.0 L 224.4 45.7 L 225.4 43.9 L 226.5 42.7 L 227.5 42.1 L 228.6 42.1 L 229.6 42.6 L 230.7 43.8 L 231.7 45.5 L 232.7 47.7 L 233.8 50.5 L 234.8 53.7 L 235.9 57.4 L 236.9 61.5 L 237.9 65.8 L 239.0 70.5 L 240.0 75.4 L 241.1 80.4 L 242.1 85.5 L 243.1 90.5 L 244.2 95.6 L 245.2 100.5 L 246.3 105.2 L 247.3 109.6 L 248.3 113.8 L 249.4 117.5 L 250.4 120.9 L 251.5 123.7 L 252.5 126.1 L 253.6 127.9 L 254.6 129.2 L 255.6 129.9 L 256.7 130.0 L 257.7 129.5 L 258.8 128.4 L 259.8 126.7 L 260.8 124.6 L 261.9 121.8 L 262.9 118.6 L 264.0 115.0 L 265.0 111.0 L 266.0 106.6 L 267.1 102.0 L 268.1 97.2 L 269.2 92.2 L 270.2 87.1 L 271.2 82.0 L 272.3 77.0 L 273.3 72.0 L 274.4 67.3 L 275.4 62.8 L 276.5 58.7 L 277.5 54.9 L 278.5 51.5 L 279.6 48.5 L 280.6 46.1 L 281.7 44.2 L 282.7 42.9 L 283.7 42.2 L 284.8 42.0 L 285.8 42.4 L 286.9 43.5 L 287.9 45.1 L 288.9 47.2 L 290.0 49.8 L 291.0 53.0 L 292.1 56.6 L 293.1 60.6 L 294.1 64.9 L 295.2 69.5 L 296.2 74.3 L 297.3 79.3 L 298.3 84.4 L 299.3 89.5 L 300.4 94.5 L 301.4 99.4 L 302.5 104.2 L 303.5 108.7 L 304.6 112.9 L 305.6 116.8 L 306.6 120.2 L 307.7 123.2 L 308.7 125.6 L 309.8 127.6 L 310.8 129.0 L 311.8 129.8 L 312.9 130.0 L 313.9 129.6 L 315.0 128.7 L 316.0 127.1 L 317.0 125.1 L 318.1 122.5 L 319.1 119.4 L 320.2 115.8 L 321.2 111.9 L 322.2 107.6 L 323.3 103.0 L 324.3 98.2 L 325.4 93.3 L 326.4 88.2 L 327.5 83.1 L 328.5 78.0 L 329.5 73.1 L 330.6 68.3 L 331.6 63.8 L 332.7 59.5 L 333.7 55.6 L 334.7 52.2 L 335.8 49.1 L 336.8 46.6 L 337.9 44.6 L 338.9 43.2 L 339.9 42.3 L 341.0 42.0 L 342.0 42.3 L 343.1 43.2 L 344.1 44.7 L 345.1 46.7 L 346.2 49.2 L 347.2 52.3 L 348.3 55.8 L 349.3 59.7 L 350.4 63.9 L 351.4 68.5 L 352.4 73.3 L 353.5 78.2 L 354.5 83.3 L 355.6 88.4 L 356.6 93.4 L 357.6 98.4 L 358.7 103.2 L 359.7 107.8 L 360.8 112.0 L 361.8 116.0 L 362.8 119.5 L 363.9 122.6 L 364.9 125.2 L 366.0 127.2 L 367.0 128.7 L 368.0 129.6 L 369.1 130.0 L 370.1 129.8 L 371.2 128.9 L 372.2 127.5 L 373.2 125.6 L 374.3 123.1 L 375.3 120.1 L 376.4 116.6 L 377.4 112.8 L 378.5 108.5 L 379.5 104.0 L 380.5 99.3 L 381.6 94.3 L 382.6 89.3 L 383.7 84.2 L 384.7 79.1 L 385.7 74.1 L 386.8 69.3 L 387.8 64.7 L 388.9 60.4 L 389.9 56.4 L 390.9 52.9 L 392.0 49.7 L 393.0 47.1 L 394.1 45.0 L 395.1 43.4 L 396.1 42.4 L 397.2 42.0 L 398.2 42.2 L 399.3 43.0 L 400.3 44.3 L 401.4 46.2 L 402.4 48.6 L 403.4 51.6 L 404.5 55.0 L 405.5 58.8 L 406.6 63.0 L 407.6 67.5 L 408.6 72.2 L 409.7 77.1 L 410.7 82.2 L 411.8 87.3 L 412.8 92.4 L 413.8 97.3 L 414.9 102.2 L 415.9 106.8 L 417.0 111.2 L 418.0 115.2 L 419.0 118.8 L 420.1 121.9 L 421.1 124.6 L 422.2 126.8 L 423.2 128.4 L 424.3 129.5 L 425.3 130.0 L 426.3 129.9 L 427.4 129.2 L 428.4 127.9 L 429.5 126.0 L 430.5 123.6 L 431.5 120.8 L 432.6 117.4 L 433.6 113.6 L 434.7 109.5 L 435.7 105.0 L 436.7 100.3 L 437.8 95.4 L 438.8 90.4 L 439.9 85.3 L 440.9 80.2 L 441.9 75.2 L 443.0 70.3 L 444.0 65.7 L 445.1 61.3 L 446.1 57.3 L 447.1 53.6 L 448.2 50.4 L 449.2 47.6 L 450.3 45.4 L 451.3 43.7 L 452.4 42.6 L 453.4 42.0 L 454.4 42.1 L 455.5 42.7 L 456.5 44.0 L 457.6 45.8 L 458.6 48.1 L 459.6 50.9 L 460.7 54.2 L 461.7 58.0 L 462.8 62.1 L 463.8 66.5 L 464.8 71.2 L 465.9 76.1 L 466.9 81.1 L 468.0 86.2 L 469.0 91.3 L 470.0 96.3 L 471.1 101.2 L 472.1 105.8 L 473.2 110.2 L 474.2 114.3 L 475.3 118.0 L 476.3 121.3 L 477.3 124.1 L 478.4 126.4 L 479.4 128.1 L 480.5 129.3 L 481.5 129.9 L 482.5 129.9 L 483.6 129.4 L 484.6 128.2 L 485.7 126.5 L 486.7 124.2 L 487.7 121.4 L 488.8 118.2 L 489.8 114.5 L 490.9 110.4 L 491.9 106.0 L 492.9 101.3 L 494.0 96.5 L 495.0 91.4 L 496.1 86.4 L 497.1 81.3 L 498.2 76.2 L 499.2 71.4 L 500.2 66.7 L 501.3 62.2 L 502.3 58.1 L 503.4 54.3 L 504.4 51.0 L 505.4 48.2 L 506.5 45.8 L 507.5 44.0 L 508.6 42.8 L 509.6 42.1 L 510.6 42.0 L 511.7 42.6 L 512.7 43.7 L 513.8 45.3 L 514.8 47.5 L 515.8 50.3 L 516.9 53.5 L 517.9 57.1 L 519.0 61.1 L 520.0 65.5 L 521.0 70.2 L 522.1 75.0 L 523.1 80.0 L 524.2 85.1 L 525.2 90.2 L 526.3 95.2 L 527.3 100.1 L 528.3 104.9 L 529.4 109.3 L 530.4 113.5 L 531.5 117.3 L 532.5 120.6 L 533.5 123.5 L 534.6 125.9 L 535.6 127.8 L 536.7 129.1 L 537.7 129.8 L 538.7 130.0 L 539.8 129.5 L 540.8 128.5 L 541.9 126.9 L 542.9 124.7 L 543.9 122.1 L 545.0 118.9 L 546.0 115.3 L 547.1 111.3 L 548.1 107.0 L 549.2 102.4 L 550.2 97.5 L 551.2 92.5 L 552.3 87.5 L 553.3 82.4 L 554.4 77.3 L 555.4 72.4 L 556.4 67.6 L 557.5 63.1 L 558.5 58.9 L 559.6 55.1 L 560.6 51.7 L 561.6 48.7 L 562.7 46.3 L 563.7 44.4 L 564.8 43.0 L 565.8 42.2 L 566.8 42.0 L 567.9 42.4 L 568.9 43.4 L 570.0 44.9 L 571.0 47.0 L 572.1 49.6 L 573.1 52.7 L 574.1 56.3 L 575.2 60.3 L 576.2 64.6 L 577.3 69.1 L 578.3 74.0 L 579.3 78.9 L 580.4 84.0 L 581.4 89.1 L 582.5 94.1 L 583.5 99.1 L 584.5 103.9 L 585.6 108.4 L 586.6 112.6 L 587.7 116.5 L 588.7 120.0 L 589.7 123.0 L 590.8 125.5 L 591.8 127.5 L 592.9 128.9 L 593.9 129.7 L 594.9 130.0 L 596.0 129.7 L 597.0 128.8 L 598.1 127.3 L 599.1 125.2 L 600.2 122.7 L 601.2 119.6 L 602.2 116.1 L 603.3 112.2 L 604.3 107.9 L 605.4 103.4 L 606.4 98.6 L 607.4 93.6 L 608.5 88.5 L 609.5 83.5 L 610.6 78.4 L 611.6 73.4 L 612.6 68.6 L 613.7 64.1 L 614.7 59.8 L 615.8 55.9 L 616.8 52.4 L 617.8 49.3 L 618.9 46.8 L 619.9 44.7 L 621.0 43.2 L 622.0 42.3 L 623.1 42.0 L 624.1 42.3 L 625.1 43.1 L 626.2 44.5 L 627.2 46.5 L 628.3 49.0 L 629.3 52.0 L 630.3 55.5 L 631.4 59.4 L 632.4 63.6 L 633.5 68.1 L 634.5 72.9 L 635.5 77.9 L 636.6 82.9 L 637.6 88.0 L 638.7 93.1 L 639.7 98.0 L 640.7 102.9 L 641.8 107.4 L 642.8 111.7 L 643.9 115.7 L 644.9 119.3 L 645.9 122.4 L 647.0 125.0 L 648.0 127.1 L 649.1 128.6 L 650.1 129.6 L 651.2 130.0 L 652.2 129.8 L 653.2 129.0 L 654.3 127.6 L 655.3 125.7 L 656.4 123.3 L 657.4 120.3 L 658.4 116.9 L 659.5 113.1 L 660.5 108.9 L 661.6 104.4 L 662.6 99.6 L 663.6 94.7 L 664.7 89.6 L 665.7 84.5 L 666.8 79.5 L 667.8 74.5 L 668.8 69.6 L 669.9 65.0 L 670.9 60.7 L 672.0 56.7 L 673.0 53.1 L 674.1 49.9 L 675.1 47.3 L 676.1 45.1 L 677.2 43.5 L 678.2 42.5 L 679.3 42.0 L 680.3 42.2 L 681.3 42.9 L 682.4 44.2 L 683.4 46.1 L 684.5 48.5 L 685.5 51.4 L 686.5 54.7 L 687.6 58.5 L 688.6 62.7 L 689.7 67.1 L 690.7 71.9 L 691.7 76.8 L 692.8 81.8 L 693.8 86.9 L 694.9 92.0 L 695.9 97.0 L 697.0 101.8 L 698.0 106.5 L 699.0 110.9 L 700.1 114.9 L 701.1 118.5 L 702.2 121.7 L 703.2 124.5 L 704.2 126.7 L 705.3 128.3 L 706.3 129.4 L 707.4 130.0 L 708.4 129.9 L 709.4 129.2 L 710.5 128.0 L 711.5 126.2 L 712.6 123.8 L 713.6 121.0 L 714.6 117.7 L 715.7 113.9 L 716.7 109.8 L 717.8 105.3 L 718.8 100.6 L 719.8 95.8 L 720.9 90.7 L 721.9 85.6 L 723.0 80.6 L 724.0 75.5 L 725.1 70.7 L 726.1 66.0 L 727.1 61.6 L 728.2 57.5 L 729.2 53.8 L 730.3 50.6 L 731.3 47.8 L 732.3 45.5 L 733.4 43.8 L 734.4 42.6 L 735.5 42.1 L 736.5 42.1 L 737.5 42.7 L 738.6 43.9 L 739.6 45.6 L 740.7 47.9 L 741.7 50.7 L 742.7 54.0 L 743.8 57.7 L 744.8 61.8 L 745.9 66.2 L 746.9 70.8 L 748.0 75.7 L 749.0 80.7 L 750.0 85.8 L 751.1 90.9 L 752.1 95.9 L 753.2 100.8 L 754.2 105.5 L 755.2 109.9 L 756.3 114.0 L 757.3 117.8 L 758.4 121.1 L 759.4 123.9 L 760.4 126.2 L 761.5 128.0 L 762.5 129.3 L 763.6 129.9 L 764.6 130.0 L 765.6 129.4 L 766.7 128.3 L 767.7 126.6 L 768.8 124.4 L 769.8 121.6 L 770.9 118.4 L 771.9 114.7 L 772.9 110.7 L 774.0 106.3 L 775.0 101.7 L 776.1 96.8 L 777.1 91.8 L 778.1 86.7 L 779.2 81.6 L 780.2 76.6 L 781.3 71.7 L 782.3 67.0 L 783.3 62.5 L 784.4 58.4 L 785.4 54.6 L 786.5 51.2 L 787.5 48.4 L 788.5 46.0 L 789.6 44.1 L 790.6 42.8 L 791.7 42.1 L 792.7 42.0 L 793.7 42.5 L 794.8 43.6 L 795.8 45.2 L 796.9 47.4 L 797.9 50.1 L 799.0 53.2 L 800.0 56.8 L 801.0 60.8 L 802.1 65.2 L 803.1 69.8 L 804.2 74.7 L 805.2 79.6 L 806.2 84.7 L 807.3 89.8 L 808.3 94.9 L 809.4 99.8 L 810.4 104.5 L 811.4 109.0 L 812.5 113.2 L 813.5 117.0 L 814.6 120.4 L 815.6 123.4 L 816.6 125.8 L 817.7 127.7 L 818.7 129.0 L 819.8 129.8 L 820.8 130.0 L 821.9 129.6 L 822.9 128.6 L 823.9 127.0 L 825.0 124.9 L 826.0 122.3 L 827.1 119.1 L 828.1 115.6 L 829.1 111.6 L 830.2 107.3 L 831.2 102.7 L 832.3 97.9 L 833.3 92.9 L 834.3 87.8 L 835.4 82.7 L 836.4 77.7 L 837.5 72.7 L 838.5 68.0 L 839.5 63.5 L 840.6 59.2 L 841.6 55.4 L 842.7 51.9 L 843.7 48.9 L 844.8 46.4 L 845.8 44.5 L 846.8 43.1 L 847.9 42.2 L 848.9 42.0 L 850.0 42.4 L 851.0 43.3 L 852.0 44.8 L 853.1 46.8 L 854.1 49.4 L 855.2 52.5 L 856.2 56.0 L 857.2 60.0 L 858.3 64.2 L 859.3 68.8 L 860.4 73.6 L 861.4 78.6 L 862.4 83.6 L 863.5 88.7 L 864.5 93.8 L 865.6 98.7 L 866.6 103.5 L 867.6 108.1 L 868.7 112.3 L 869.7 116.2 L 870.8 119.7 L 871.8 122.8 L 872.9 125.3 L 873.9 127.3 L 874.9 128.8 L 876.0 129.7 L 877.0 130.0 L 878.1 129.7 L 879.1 128.8 L 880.1 127.4 L 881.2 125.4 L 882.2 122.9 L 883.3 119.8 L 884.3 116.4 L 885.3 112.5 L 886.4 108.2 L 887.4 103.7 L 888.5 98.9 L 889.5 94.0 L 890.5 88.9 L 891.6 83.8 L 892.6 78.7 L 893.7 73.8 L 894.7 69.0 L 895.8 64.4 L 896.8 60.1 L 897.8 56.2 L 898.9 52.6 L 899.9 49.5 L 901.0 46.9 L 902.0 44.9 L 903.0 43.3 L 904.1 42.4 L 905.1 42.0 L 906.2 42.2 L 907.2 43.0 L 908.2 44.4 L 909.3 46.4 L 910.3 48.8 L 911.4 51.8 L 912.4 55.2 L 913.4 59.1 L 914.5 63.3 L 915.5 67.8 L 916.6 72.6 L 917.6 77.5 L 918.7 82.5 L 919.7 87.6 L 920.7 92.7 L 921.8 97.7 L 922.8 102.5 L 923.9 107.1 L 924.9 111.4 L 925.9 115.4 L 927.0 119.0 L 928.0 122.2 L 929.1 124.8 L 930.1 126.9 L 931.1 128.5 L 932.2 129.6 L 933.2 130.0 L 934.3 129.8 L 935.3 129.1 L 936.3 127.8 L 937.4 125.9 L 938.4 123.5 L 939.5 120.5 L 940.5 117.1 L 941.5 113.3 L 942.6 109.2 L 943.6 104.7 L 944.7 100.0 L 945.7 95.0 L 946.8 90.0 L 947.8 84.9 L 948.8 79.8 L 949.9 74.8 L 950.9 70.0 L 952.0 65.4 L 953.0 61.0 L 954.0 57.0 L 955.1 53.4 L 956.1 50.2 L 957.2 47.4 L 958.2 45.3 L 959.2 43.6 L 960.3 42.5 L 961.3 42.0 L 962.4 42.1 L 963.4 42.8 L 964.4 44.1 L 965.5 45.9 L 966.5 48.3 L 967.6 51.1 L 968.6 54.5 L 969.7 58.2 L 970.7 62.4 L 971.7 66.8 L 972.8 71.5 L 973.8 76.4 L 974.9 81.5 L 975.9 86.5 L 976.9 91.6 L 978.0 96.6 L 979.0 101.5 L 980.1 106.2 L 981.1 110.5 L 982.1 114.6 L 983.2 118.3 L 984.2 121.5 L 985.3 124.3 L 986.3 126.5 L 987.3 128.2 L 988.4 129.4 L 989.4 129.9 L 990.5 129.9 L 991.5 129.3 L 992.6 128.1 L 993.6 126.3 L 994.6 124.0 L 995.7 121.2 L 996.7 117.9 L 997.8 114.2 L 998.8 110.1 L 999.8 105.7 L 1000.9 101.0 L 1001.9 96.1 L 1003.0 91.1 L 1004.0 86.0" fill="none" stroke="#4d9be6" stroke-width="4" stroke-linecap="round" stroke-linejoin="round"/><circle cx="44" cy="86" r="6" fill="#4d9be6"/><text x="60" y="94" fill="#4d9be6" font-size="25" font-weight="800" text-anchor="start" font-family="-apple-system, BlinkMacSystemFont, 'Segoe UI', 'Inter', Helvetica, Arial, sans-serif">Control</text><line x1="214" y1="208" x2="1004" y2="208" stroke="#3b4759" stroke-width="1"/><path d="M 214.0 208.0 L 215.0 205.5 L 216.1 202.9 L 217.1 200.4 L 218.2 197.9 L 219.2 195.4 L 220.2 193.0 L 221.3 190.6 L 222.3 188.3 L 223.4 186.1 L 224.4 183.9 L 225.4 181.8 L 226.5 179.8 L 227.5 177.9 L 228.6 176.1 L 229.6 174.4 L 230.7 172.8 L 231.7 171.3 L 232.7 170.0 L 233.8 168.8 L 234.8 167.7 L 235.9 166.7 L 236.9 165.9 L 237.9 165.2 L 239.0 164.7 L 240.0 164.3 L 241.1 164.1 L 242.1 164.0 L 243.1 164.1 L 244.2 164.3 L 245.2 164.6 L 246.3 165.1 L 247.3 165.8 L 248.3 166.5 L 249.4 167.5 L 250.4 168.5 L 251.5 169.7 L 252.5 171.0 L 253.6 172.5 L 254.6 174.0 L 255.6 175.7 L 256.7 177.5 L 257.7 179.4 L 258.8 181.4 L 259.8 183.5 L 260.8 185.6 L 261.9 187.8 L 262.9 190.1 L 264.0 192.5 L 265.0 194.9 L 266.0 197.4 L 267.1 199.9 L 268.1 202.4 L 269.2 204.9 L 270.2 207.5 L 271.2 210.0 L 272.3 212.5 L 273.3 215.1 L 274.4 217.6 L 275.4 220.0 L 276.5 222.5 L 277.5 224.9 L 278.5 227.2 L 279.6 229.4 L 280.6 231.6 L 281.7 233.7 L 282.7 235.8 L 283.7 237.7 L 284.8 239.5 L 285.8 241.3 L 286.9 242.9 L 287.9 244.4 L 288.9 245.7 L 290.0 247.0 L 291.0 248.1 L 292.1 249.1 L 293.1 249.9 L 294.1 250.6 L 295.2 251.2 L 296.2 251.6 L 297.3 251.9 L 298.3 252.0 L 299.3 252.0 L 300.4 251.8 L 301.4 251.5 L 302.5 251.0 L 303.5 250.4 L 304.6 249.6 L 305.6 248.7 L 306.6 247.7 L 307.7 246.6 L 308.7 245.3 L 309.8 243.8 L 310.8 242.3 L 311.8 240.6 L 312.9 238.9 L 313.9 237.0 L 315.0 235.1 L 316.0 233.0 L 317.0 230.9 L 318.1 228.6 L 319.1 226.4 L 320.2 224.0 L 321.2 221.6 L 322.2 219.2 L 323.3 216.7 L 324.3 214.2 L 325.4 211.6 L 326.4 209.1 L 327.5 206.5 L 328.5 204.0 L 329.5 201.5 L 330.6 199.0 L 331.6 196.5 L 332.7 194.0 L 333.7 191.6 L 334.7 189.3 L 335.8 187.0 L 336.8 184.8 L 337.9 182.7 L 338.9 180.7 L 339.9 178.7 L 341.0 176.9 L 342.0 175.1 L 343.1 173.5 L 344.1 171.9 L 345.1 170.5 L 346.2 169.3 L 347.2 168.1 L 348.3 167.1 L 349.3 166.2 L 350.4 165.5 L 351.4 164.9 L 352.4 164.5 L 353.5 164.2 L 354.5 164.0 L 355.6 164.0 L 356.6 164.2 L 357.6 164.4 L 358.7 164.9 L 359.7 165.5 L 360.8 166.2 L 361.8 167.1 L 362.8 168.1 L 363.9 169.2 L 364.9 170.5 L 366.0 171.8 L 367.0 173.4 L 368.0 175.0 L 369.1 176.7 L 370.1 178.6 L 371.2 180.5 L 372.2 182.6 L 373.2 184.7 L 374.3 186.9 L 375.3 189.1 L 376.4 191.5 L 377.4 193.9 L 378.5 196.3 L 379.5 198.8 L 380.5 201.3 L 381.6 203.8 L 382.6 206.4 L 383.7 208.9 L 384.7 211.5 L 385.7 214.0 L 386.8 216.5 L 387.8 219.0 L 388.9 221.4 L 389.9 223.8 L 390.9 226.2 L 392.0 228.5 L 393.0 230.7 L 394.1 232.9 L 395.1 234.9 L 396.1 236.9 L 397.2 238.8 L 398.2 240.5 L 399.3 242.2 L 400.3 243.7 L 401.4 245.2 L 402.4 246.5 L 403.4 247.6 L 404.5 248.7 L 405.5 249.6 L 406.6 250.3 L 407.6 251.0 L 408.6 251.4 L 409.7 251.8 L 410.7 252.0 L 411.8 252.0 L 412.8 251.9 L 413.8 251.6 L 414.9 251.2 L 415.9 250.7 L 417.0 250.0 L 418.0 249.1 L 419.0 248.2 L 420.1 247.1 L 421.1 245.8 L 422.2 244.5 L 423.2 243.0 L 424.3 241.4 L 425.3 239.7 L 426.3 237.8 L 427.4 235.9 L 428.4 233.9 L 429.5 231.8 L 430.5 229.6 L 431.5 227.3 L 432.6 225.0 L 433.6 222.6 L 434.7 220.2 L 435.7 217.8 L 436.7 215.3 L 437.8 212.7 L 438.8 210.2 L 439.9 207.6 L 440.9 205.1 L 441.9 202.6 L 443.0 200.0 L 444.0 197.5 L 445.1 195.1 L 446.1 192.7 L 447.1 190.3 L 448.2 188.0 L 449.2 185.8 L 450.3 183.6 L 451.3 181.5 L 452.4 179.5 L 453.4 177.6 L 454.4 175.8 L 455.5 174.2 L 456.5 172.6 L 457.6 171.1 L 458.6 169.8 L 459.6 168.6 L 460.7 167.5 L 461.7 166.6 L 462.8 165.8 L 463.8 165.2 L 464.8 164.6 L 465.9 164.3 L 466.9 164.1 L 468.0 164.0 L 469.0 164.1 L 470.0 164.3 L 471.1 164.7 L 472.1 165.2 L 473.2 165.9 L 474.2 166.7 L 475.3 167.6 L 476.3 168.7 L 477.3 169.9 L 478.4 171.2 L 479.4 172.7 L 480.5 174.3 L 481.5 176.0 L 482.5 177.8 L 483.6 179.7 L 484.6 181.7 L 485.7 183.8 L 486.7 185.9 L 487.7 188.2 L 488.8 190.5 L 489.8 192.8 L 490.9 195.3 L 491.9 197.7 L 492.9 200.2 L 494.0 202.7 L 495.0 205.3 L 496.1 207.8 L 497.1 210.4 L 498.2 212.9 L 499.2 215.4 L 500.2 217.9 L 501.3 220.4 L 502.3 222.8 L 503.4 225.2 L 504.4 227.5 L 505.4 229.8 L 506.5 231.9 L 507.5 234.0 L 508.6 236.0 L 509.6 238.0 L 510.6 239.8 L 511.7 241.5 L 512.7 243.1 L 513.8 244.6 L 514.8 245.9 L 515.8 247.2 L 516.9 248.2 L 517.9 249.2 L 519.0 250.0 L 520.0 250.7 L 521.0 251.3 L 522.1 251.6 L 523.1 251.9 L 524.2 252.0 L 525.2 252.0 L 526.3 251.8 L 527.3 251.4 L 528.3 250.9 L 529.4 250.3 L 530.4 249.5 L 531.5 248.6 L 532.5 247.6 L 533.5 246.4 L 534.6 245.1 L 535.6 243.6 L 536.7 242.1 L 537.7 240.4 L 538.7 238.6 L 539.8 236.7 L 540.8 234.8 L 541.9 232.7 L 542.9 230.5 L 543.9 228.3 L 545.0 226.0 L 546.0 223.7 L 547.1 221.3 L 548.1 218.8 L 549.2 216.3 L 550.2 213.8 L 551.2 211.3 L 552.3 208.7 L 553.3 206.2 L 554.4 203.6 L 555.4 201.1 L 556.4 198.6 L 557.5 196.1 L 558.5 193.7 L 559.6 191.3 L 560.6 189.0 L 561.6 186.7 L 562.7 184.5 L 563.7 182.4 L 564.8 180.4 L 565.8 178.4 L 566.8 176.6 L 567.9 174.9 L 568.9 173.2 L 570.0 171.7 L 571.0 170.4 L 572.1 169.1 L 573.1 168.0 L 574.1 167.0 L 575.2 166.1 L 576.2 165.4 L 577.3 164.8 L 578.3 164.4 L 579.3 164.1 L 580.4 164.0 L 581.4 164.0 L 582.5 164.2 L 583.5 164.5 L 584.5 165.0 L 585.6 165.6 L 586.6 166.3 L 587.7 167.2 L 588.7 168.2 L 589.7 169.4 L 590.8 170.6 L 591.8 172.1 L 592.9 173.6 L 593.9 175.2 L 594.9 177.0 L 596.0 178.8 L 597.0 180.8 L 598.1 182.8 L 599.1 185.0 L 600.2 187.2 L 601.2 189.5 L 602.2 191.8 L 603.3 194.2 L 604.3 196.7 L 605.4 199.1 L 606.4 201.6 L 607.4 204.2 L 608.5 206.7 L 609.5 209.3 L 610.6 211.8 L 611.6 214.4 L 612.6 216.9 L 613.7 219.3 L 614.7 221.8 L 615.8 224.2 L 616.8 226.5 L 617.8 228.8 L 618.9 231.0 L 619.9 233.2 L 621.0 235.2 L 622.0 237.2 L 623.1 239.0 L 624.1 240.8 L 625.1 242.4 L 626.2 243.9 L 627.2 245.4 L 628.3 246.6 L 629.3 247.8 L 630.3 248.8 L 631.4 249.7 L 632.4 250.4 L 633.5 251.0 L 634.5 251.5 L 635.5 251.8 L 636.6 252.0 L 637.6 252.0 L 638.7 251.9 L 639.7 251.6 L 640.7 251.2 L 641.8 250.6 L 642.8 249.9 L 643.9 249.0 L 644.9 248.0 L 645.9 246.9 L 647.0 245.6 L 648.0 244.3 L 649.1 242.8 L 650.1 241.1 L 651.2 239.4 L 652.2 237.6 L 653.2 235.6 L 654.3 233.6 L 655.3 231.5 L 656.4 229.3 L 657.4 227.0 L 658.4 224.7 L 659.5 222.3 L 660.5 219.9 L 661.6 217.4 L 662.6 214.9 L 663.6 212.4 L 664.7 209.8 L 665.7 207.3 L 666.8 204.7 L 667.8 202.2 L 668.8 199.7 L 669.9 197.2 L 670.9 194.7 L 672.0 192.3 L 673.0 190.0 L 674.1 187.7 L 675.1 185.5 L 676.1 183.3 L 677.2 181.2 L 678.2 179.3 L 679.3 177.4 L 680.3 175.6 L 681.3 173.9 L 682.4 172.4 L 683.4 170.9 L 684.5 169.6 L 685.5 168.4 L 686.5 167.4 L 687.6 166.5 L 688.6 165.7 L 689.7 165.1 L 690.7 164.6 L 691.7 164.2 L 692.8 164.0 L 693.8 164.0 L 694.9 164.1 L 695.9 164.4 L 697.0 164.7 L 698.0 165.3 L 699.0 166.0 L 700.1 166.8 L 701.1 167.8 L 702.2 168.8 L 703.2 170.1 L 704.2 171.4 L 705.3 172.9 L 706.3 174.5 L 707.4 176.2 L 708.4 178.0 L 709.4 180.0 L 710.5 182.0 L 711.5 184.1 L 712.6 186.2 L 713.6 188.5 L 714.6 190.8 L 715.7 193.2 L 716.7 195.6 L 717.8 198.1 L 718.8 200.6 L 719.8 203.1 L 720.9 205.6 L 721.9 208.2 L 723.0 210.7 L 724.0 213.3 L 725.1 215.8 L 726.1 218.3 L 727.1 220.7 L 728.2 223.2 L 729.2 225.5 L 730.3 227.8 L 731.3 230.1 L 732.3 232.2 L 733.4 234.3 L 734.4 236.3 L 735.5 238.2 L 736.5 240.0 L 737.5 241.7 L 738.6 243.3 L 739.6 244.8 L 740.7 246.1 L 741.7 247.3 L 742.7 248.4 L 743.8 249.3 L 744.8 250.1 L 745.9 250.8 L 746.9 251.3 L 748.0 251.7 L 749.0 251.9 L 750.0 252.0 L 751.1 251.9 L 752.1 251.7 L 753.2 251.4 L 754.2 250.8 L 755.2 250.2 L 756.3 249.4 L 757.3 248.5 L 758.4 247.4 L 759.4 246.2 L 760.4 244.9 L 761.5 243.4 L 762.5 241.8 L 763.6 240.2 L 764.6 238.4 L 765.6 236.5 L 766.7 234.5 L 767.7 232.4 L 768.8 230.2 L 769.8 228.0 L 770.9 225.7 L 771.9 223.3 L 772.9 220.9 L 774.0 218.5 L 775.0 216.0 L 776.1 213.4 L 777.1 210.9 L 778.1 208.4 L 779.2 205.8 L 780.2 203.3 L 781.3 200.7 L 782.3 198.2 L 783.3 195.8 L 784.4 193.4 L 785.4 191.0 L 786.5 188.7 L 787.5 186.4 L 788.5 184.2 L 789.6 182.1 L 790.6 180.1 L 791.7 178.2 L 792.7 176.3 L 793.7 174.6 L 794.8 173.0 L 795.8 171.5 L 796.9 170.2 L 797.9 168.9 L 799.0 167.8 L 800.0 166.9 L 801.0 166.0 L 802.1 165.3 L 803.1 164.8 L 804.2 164.4 L 805.2 164.1 L 806.2 164.0 L 807.3 164.0 L 808.3 164.2 L 809.4 164.6 L 810.4 165.0 L 811.4 165.7 L 812.5 166.4 L 813.5 167.3 L 814.6 168.4 L 815.6 169.5 L 816.6 170.8 L 817.7 172.3 L 818.7 173.8 L 819.8 175.5 L 820.8 177.2 L 821.9 179.1 L 822.9 181.1 L 823.9 183.1 L 825.0 185.3 L 826.0 187.5 L 827.1 189.8 L 828.1 192.2 L 829.1 194.6 L 830.2 197.0 L 831.2 199.5 L 832.3 202.0 L 833.3 204.5 L 834.3 207.1 L 835.4 209.6 L 836.4 212.2 L 837.5 214.7 L 838.5 217.2 L 839.5 219.7 L 840.6 222.1 L 841.6 224.5 L 842.7 226.9 L 843.7 229.1 L 844.8 231.3 L 845.8 233.4 L 846.8 235.5 L 847.9 237.4 L 848.9 239.3 L 850.0 241.0 L 851.0 242.6 L 852.0 244.2 L 853.1 245.5 L 854.1 246.8 L 855.2 247.9 L 856.2 248.9 L 857.2 249.8 L 858.3 250.5 L 859.3 251.1 L 860.4 251.6 L 861.4 251.8 L 862.4 252.0 L 863.5 252.0 L 864.5 251.8 L 865.6 251.5 L 866.6 251.1 L 867.6 250.5 L 868.7 249.8 L 869.7 248.9 L 870.8 247.9 L 871.8 246.7 L 872.9 245.5 L 873.9 244.1 L 874.9 242.5 L 876.0 240.9 L 877.0 239.1 L 878.1 237.3 L 879.1 235.3 L 880.1 233.3 L 881.2 231.2 L 882.2 229.0 L 883.3 226.7 L 884.3 224.4 L 885.3 222.0 L 886.4 219.5 L 887.4 217.0 L 888.5 214.5 L 889.5 212.0 L 890.5 209.5 L 891.6 206.9 L 892.6 204.4 L 893.7 201.8 L 894.7 199.3 L 895.8 196.8 L 896.8 194.4 L 897.8 192.0 L 898.9 189.6 L 899.9 187.4 L 901.0 185.1 L 902.0 183.0 L 903.0 180.9 L 904.1 179.0 L 905.1 177.1 L 906.2 175.4 L 907.2 173.7 L 908.2 172.2 L 909.3 170.7 L 910.3 169.4 L 911.4 168.3 L 912.4 167.3 L 913.4 166.4 L 914.5 165.6 L 915.5 165.0 L 916.6 164.5 L 917.6 164.2 L 918.7 164.0 L 919.7 164.0 L 920.7 164.1 L 921.8 164.4 L 922.8 164.8 L 923.9 165.4 L 924.9 166.1 L 925.9 166.9 L 927.0 167.9 L 928.0 169.0 L 929.1 170.3 L 930.1 171.6 L 931.1 173.1 L 932.2 174.7 L 933.2 176.5 L 934.3 178.3 L 935.3 180.2 L 936.3 182.3 L 937.4 184.4 L 938.4 186.6 L 939.5 188.8 L 940.5 191.1 L 941.5 193.5 L 942.6 196.0 L 943.6 198.4 L 944.7 200.9 L 945.7 203.5 L 946.8 206.0 L 947.8 208.5 L 948.8 211.1 L 949.9 213.6 L 950.9 216.1 L 952.0 218.6 L 953.0 221.1 L 954.0 223.5 L 955.1 225.9 L 956.1 228.2 L 957.2 230.4 L 958.2 232.5 L 959.2 234.6 L 960.3 236.6 L 961.3 238.5 L 962.4 240.3 L 963.4 242.0 L 964.4 243.5 L 965.5 245.0 L 966.5 246.3 L 967.6 247.5 L 968.6 248.5 L 969.7 249.5 L 970.7 250.2 L 971.7 250.9 L 972.8 251.4 L 973.8 251.7 L 974.9 251.9 L 975.9 252.0 L 976.9 251.9 L 978.0 251.7 L 979.0 251.3 L 980.1 250.8 L 981.1 250.1 L 982.1 249.3 L 983.2 248.3 L 984.2 247.2 L 985.3 246.0 L 986.3 244.7 L 987.3 243.2 L 988.4 241.6 L 989.4 239.9 L 990.5 238.1 L 991.5 236.2 L 992.6 234.2 L 993.6 232.1 L 994.6 229.9 L 995.7 227.7 L 996.7 225.4 L 997.8 223.0 L 998.8 220.6 L 999.8 218.1 L 1000.9 215.6 L 1001.9 213.1 L 1003.0 210.5 L 1004.0 208.0" fill="none" stroke="#f1744e" stroke-width="13" stroke-opacity="0.16" stroke-linecap="round"/><path d="M 214.0 208.0 L 215.0 205.5 L 216.1 202.9 L 217.1 200.4 L 218.2 197.9 L 219.2 195.4 L 220.2 193.0 L 221.3 190.6 L 222.3 188.3 L 223.4 186.1 L 224.4 183.9 L 225.4 181.8 L 226.5 179.8 L 227.5 177.9 L 228.6 176.1 L 229.6 174.4 L 230.7 172.8 L 231.7 171.3 L 232.7 170.0 L 233.8 168.8 L 234.8 167.7 L 235.9 166.7 L 236.9 165.9 L 237.9 165.2 L 239.0 164.7 L 240.0 164.3 L 241.1 164.1 L 242.1 164.0 L 243.1 164.1 L 244.2 164.3 L 245.2 164.6 L 246.3 165.1 L 247.3 165.8 L 248.3 166.5 L 249.4 167.5 L 250.4 168.5 L 251.5 169.7 L 252.5 171.0 L 253.6 172.5 L 254.6 174.0 L 255.6 175.7 L 256.7 177.5 L 257.7 179.4 L 258.8 181.4 L 259.8 183.5 L 260.8 185.6 L 261.9 187.8 L 262.9 190.1 L 264.0 192.5 L 265.0 194.9 L 266.0 197.4 L 267.1 199.9 L 268.1 202.4 L 269.2 204.9 L 270.2 207.5 L 271.2 210.0 L 272.3 212.5 L 273.3 215.1 L 274.4 217.6 L 275.4 220.0 L 276.5 222.5 L 277.5 224.9 L 278.5 227.2 L 279.6 229.4 L 280.6 231.6 L 281.7 233.7 L 282.7 235.8 L 283.7 237.7 L 284.8 239.5 L 285.8 241.3 L 286.9 242.9 L 287.9 244.4 L 288.9 245.7 L 290.0 247.0 L 291.0 248.1 L 292.1 249.1 L 293.1 249.9 L 294.1 250.6 L 295.2 251.2 L 296.2 251.6 L 297.3 251.9 L 298.3 252.0 L 299.3 252.0 L 300.4 251.8 L 301.4 251.5 L 302.5 251.0 L 303.5 250.4 L 304.6 249.6 L 305.6 248.7 L 306.6 247.7 L 307.7 246.6 L 308.7 245.3 L 309.8 243.8 L 310.8 242.3 L 311.8 240.6 L 312.9 238.9 L 313.9 237.0 L 315.0 235.1 L 316.0 233.0 L 317.0 230.9 L 318.1 228.6 L 319.1 226.4 L 320.2 224.0 L 321.2 221.6 L 322.2 219.2 L 323.3 216.7 L 324.3 214.2 L 325.4 211.6 L 326.4 209.1 L 327.5 206.5 L 328.5 204.0 L 329.5 201.5 L 330.6 199.0 L 331.6 196.5 L 332.7 194.0 L 333.7 191.6 L 334.7 189.3 L 335.8 187.0 L 336.8 184.8 L 337.9 182.7 L 338.9 180.7 L 339.9 178.7 L 341.0 176.9 L 342.0 175.1 L 343.1 173.5 L 344.1 171.9 L 345.1 170.5 L 346.2 169.3 L 347.2 168.1 L 348.3 167.1 L 349.3 166.2 L 350.4 165.5 L 351.4 164.9 L 352.4 164.5 L 353.5 164.2 L 354.5 164.0 L 355.6 164.0 L 356.6 164.2 L 357.6 164.4 L 358.7 164.9 L 359.7 165.5 L 360.8 166.2 L 361.8 167.1 L 362.8 168.1 L 363.9 169.2 L 364.9 170.5 L 366.0 171.8 L 367.0 173.4 L 368.0 175.0 L 369.1 176.7 L 370.1 178.6 L 371.2 180.5 L 372.2 182.6 L 373.2 184.7 L 374.3 186.9 L 375.3 189.1 L 376.4 191.5 L 377.4 193.9 L 378.5 196.3 L 379.5 198.8 L 380.5 201.3 L 381.6 203.8 L 382.6 206.4 L 383.7 208.9 L 384.7 211.5 L 385.7 214.0 L 386.8 216.5 L 387.8 219.0 L 388.9 221.4 L 389.9 223.8 L 390.9 226.2 L 392.0 228.5 L 393.0 230.7 L 394.1 232.9 L 395.1 234.9 L 396.1 236.9 L 397.2 238.8 L 398.2 240.5 L 399.3 242.2 L 400.3 243.7 L 401.4 245.2 L 402.4 246.5 L 403.4 247.6 L 404.5 248.7 L 405.5 249.6 L 406.6 250.3 L 407.6 251.0 L 408.6 251.4 L 409.7 251.8 L 410.7 252.0 L 411.8 252.0 L 412.8 251.9 L 413.8 251.6 L 414.9 251.2 L 415.9 250.7 L 417.0 250.0 L 418.0 249.1 L 419.0 248.2 L 420.1 247.1 L 421.1 245.8 L 422.2 244.5 L 423.2 243.0 L 424.3 241.4 L 425.3 239.7 L 426.3 237.8 L 427.4 235.9 L 428.4 233.9 L 429.5 231.8 L 430.5 229.6 L 431.5 227.3 L 432.6 225.0 L 433.6 222.6 L 434.7 220.2 L 435.7 217.8 L 436.7 215.3 L 437.8 212.7 L 438.8 210.2 L 439.9 207.6 L 440.9 205.1 L 441.9 202.6 L 443.0 200.0 L 444.0 197.5 L 445.1 195.1 L 446.1 192.7 L 447.1 190.3 L 448.2 188.0 L 449.2 185.8 L 450.3 183.6 L 451.3 181.5 L 452.4 179.5 L 453.4 177.6 L 454.4 175.8 L 455.5 174.2 L 456.5 172.6 L 457.6 171.1 L 458.6 169.8 L 459.6 168.6 L 460.7 167.5 L 461.7 166.6 L 462.8 165.8 L 463.8 165.2 L 464.8 164.6 L 465.9 164.3 L 466.9 164.1 L 468.0 164.0 L 469.0 164.1 L 470.0 164.3 L 471.1 164.7 L 472.1 165.2 L 473.2 165.9 L 474.2 166.7 L 475.3 167.6 L 476.3 168.7 L 477.3 169.9 L 478.4 171.2 L 479.4 172.7 L 480.5 174.3 L 481.5 176.0 L 482.5 177.8 L 483.6 179.7 L 484.6 181.7 L 485.7 183.8 L 486.7 185.9 L 487.7 188.2 L 488.8 190.5 L 489.8 192.8 L 490.9 195.3 L 491.9 197.7 L 492.9 200.2 L 494.0 202.7 L 495.0 205.3 L 496.1 207.8 L 497.1 210.4 L 498.2 212.9 L 499.2 215.4 L 500.2 217.9 L 501.3 220.4 L 502.3 222.8 L 503.4 225.2 L 504.4 227.5 L 505.4 229.8 L 506.5 231.9 L 507.5 234.0 L 508.6 236.0 L 509.6 238.0 L 510.6 239.8 L 511.7 241.5 L 512.7 243.1 L 513.8 244.6 L 514.8 245.9 L 515.8 247.2 L 516.9 248.2 L 517.9 249.2 L 519.0 250.0 L 520.0 250.7 L 521.0 251.3 L 522.1 251.6 L 523.1 251.9 L 524.2 252.0 L 525.2 252.0 L 526.3 251.8 L 527.3 251.4 L 528.3 250.9 L 529.4 250.3 L 530.4 249.5 L 531.5 248.6 L 532.5 247.6 L 533.5 246.4 L 534.6 245.1 L 535.6 243.6 L 536.7 242.1 L 537.7 240.4 L 538.7 238.6 L 539.8 236.7 L 540.8 234.8 L 541.9 232.7 L 542.9 230.5 L 543.9 228.3 L 545.0 226.0 L 546.0 223.7 L 547.1 221.3 L 548.1 218.8 L 549.2 216.3 L 550.2 213.8 L 551.2 211.3 L 552.3 208.7 L 553.3 206.2 L 554.4 203.6 L 555.4 201.1 L 556.4 198.6 L 557.5 196.1 L 558.5 193.7 L 559.6 191.3 L 560.6 189.0 L 561.6 186.7 L 562.7 184.5 L 563.7 182.4 L 564.8 180.4 L 565.8 178.4 L 566.8 176.6 L 567.9 174.9 L 568.9 173.2 L 570.0 171.7 L 571.0 170.4 L 572.1 169.1 L 573.1 168.0 L 574.1 167.0 L 575.2 166.1 L 576.2 165.4 L 577.3 164.8 L 578.3 164.4 L 579.3 164.1 L 580.4 164.0 L 581.4 164.0 L 582.5 164.2 L 583.5 164.5 L 584.5 165.0 L 585.6 165.6 L 586.6 166.3 L 587.7 167.2 L 588.7 168.2 L 589.7 169.4 L 590.8 170.6 L 591.8 172.1 L 592.9 173.6 L 593.9 175.2 L 594.9 177.0 L 596.0 178.8 L 597.0 180.8 L 598.1 182.8 L 599.1 185.0 L 600.2 187.2 L 601.2 189.5 L 602.2 191.8 L 603.3 194.2 L 604.3 196.7 L 605.4 199.1 L 606.4 201.6 L 607.4 204.2 L 608.5 206.7 L 609.5 209.3 L 610.6 211.8 L 611.6 214.4 L 612.6 216.9 L 613.7 219.3 L 614.7 221.8 L 615.8 224.2 L 616.8 226.5 L 617.8 228.8 L 618.9 231.0 L 619.9 233.2 L 621.0 235.2 L 622.0 237.2 L 623.1 239.0 L 624.1 240.8 L 625.1 242.4 L 626.2 243.9 L 627.2 245.4 L 628.3 246.6 L 629.3 247.8 L 630.3 248.8 L 631.4 249.7 L 632.4 250.4 L 633.5 251.0 L 634.5 251.5 L 635.5 251.8 L 636.6 252.0 L 637.6 252.0 L 638.7 251.9 L 639.7 251.6 L 640.7 251.2 L 641.8 250.6 L 642.8 249.9 L 643.9 249.0 L 644.9 248.0 L 645.9 246.9 L 647.0 245.6 L 648.0 244.3 L 649.1 242.8 L 650.1 241.1 L 651.2 239.4 L 652.2 237.6 L 653.2 235.6 L 654.3 233.6 L 655.3 231.5 L 656.4 229.3 L 657.4 227.0 L 658.4 224.7 L 659.5 222.3 L 660.5 219.9 L 661.6 217.4 L 662.6 214.9 L 663.6 212.4 L 664.7 209.8 L 665.7 207.3 L 666.8 204.7 L 667.8 202.2 L 668.8 199.7 L 669.9 197.2 L 670.9 194.7 L 672.0 192.3 L 673.0 190.0 L 674.1 187.7 L 675.1 185.5 L 676.1 183.3 L 677.2 181.2 L 678.2 179.3 L 679.3 177.4 L 680.3 175.6 L 681.3 173.9 L 682.4 172.4 L 683.4 170.9 L 684.5 169.6 L 685.5 168.4 L 686.5 167.4 L 687.6 166.5 L 688.6 165.7 L 689.7 165.1 L 690.7 164.6 L 691.7 164.2 L 692.8 164.0 L 693.8 164.0 L 694.9 164.1 L 695.9 164.4 L 697.0 164.7 L 698.0 165.3 L 699.0 166.0 L 700.1 166.8 L 701.1 167.8 L 702.2 168.8 L 703.2 170.1 L 704.2 171.4 L 705.3 172.9 L 706.3 174.5 L 707.4 176.2 L 708.4 178.0 L 709.4 180.0 L 710.5 182.0 L 711.5 184.1 L 712.6 186.2 L 713.6 188.5 L 714.6 190.8 L 715.7 193.2 L 716.7 195.6 L 717.8 198.1 L 718.8 200.6 L 719.8 203.1 L 720.9 205.6 L 721.9 208.2 L 723.0 210.7 L 724.0 213.3 L 725.1 215.8 L 726.1 218.3 L 727.1 220.7 L 728.2 223.2 L 729.2 225.5 L 730.3 227.8 L 731.3 230.1 L 732.3 232.2 L 733.4 234.3 L 734.4 236.3 L 735.5 238.2 L 736.5 240.0 L 737.5 241.7 L 738.6 243.3 L 739.6 244.8 L 740.7 246.1 L 741.7 247.3 L 742.7 248.4 L 743.8 249.3 L 744.8 250.1 L 745.9 250.8 L 746.9 251.3 L 748.0 251.7 L 749.0 251.9 L 750.0 252.0 L 751.1 251.9 L 752.1 251.7 L 753.2 251.4 L 754.2 250.8 L 755.2 250.2 L 756.3 249.4 L 757.3 248.5 L 758.4 247.4 L 759.4 246.2 L 760.4 244.9 L 761.5 243.4 L 762.5 241.8 L 763.6 240.2 L 764.6 238.4 L 765.6 236.5 L 766.7 234.5 L 767.7 232.4 L 768.8 230.2 L 769.8 228.0 L 770.9 225.7 L 771.9 223.3 L 772.9 220.9 L 774.0 218.5 L 775.0 216.0 L 776.1 213.4 L 777.1 210.9 L 778.1 208.4 L 779.2 205.8 L 780.2 203.3 L 781.3 200.7 L 782.3 198.2 L 783.3 195.8 L 784.4 193.4 L 785.4 191.0 L 786.5 188.7 L 787.5 186.4 L 788.5 184.2 L 789.6 182.1 L 790.6 180.1 L 791.7 178.2 L 792.7 176.3 L 793.7 174.6 L 794.8 173.0 L 795.8 171.5 L 796.9 170.2 L 797.9 168.9 L 799.0 167.8 L 800.0 166.9 L 801.0 166.0 L 802.1 165.3 L 803.1 164.8 L 804.2 164.4 L 805.2 164.1 L 806.2 164.0 L 807.3 164.0 L 808.3 164.2 L 809.4 164.6 L 810.4 165.0 L 811.4 165.7 L 812.5 166.4 L 813.5 167.3 L 814.6 168.4 L 815.6 169.5 L 816.6 170.8 L 817.7 172.3 L 818.7 173.8 L 819.8 175.5 L 820.8 177.2 L 821.9 179.1 L 822.9 181.1 L 823.9 183.1 L 825.0 185.3 L 826.0 187.5 L 827.1 189.8 L 828.1 192.2 L 829.1 194.6 L 830.2 197.0 L 831.2 199.5 L 832.3 202.0 L 833.3 204.5 L 834.3 207.1 L 835.4 209.6 L 836.4 212.2 L 837.5 214.7 L 838.5 217.2 L 839.5 219.7 L 840.6 222.1 L 841.6 224.5 L 842.7 226.9 L 843.7 229.1 L 844.8 231.3 L 845.8 233.4 L 846.8 235.5 L 847.9 237.4 L 848.9 239.3 L 850.0 241.0 L 851.0 242.6 L 852.0 244.2 L 853.1 245.5 L 854.1 246.8 L 855.2 247.9 L 856.2 248.9 L 857.2 249.8 L 858.3 250.5 L 859.3 251.1 L 860.4 251.6 L 861.4 251.8 L 862.4 252.0 L 863.5 252.0 L 864.5 251.8 L 865.6 251.5 L 866.6 251.1 L 867.6 250.5 L 868.7 249.8 L 869.7 248.9 L 870.8 247.9 L 871.8 246.7 L 872.9 245.5 L 873.9 244.1 L 874.9 242.5 L 876.0 240.9 L 877.0 239.1 L 878.1 237.3 L 879.1 235.3 L 880.1 233.3 L 881.2 231.2 L 882.2 229.0 L 883.3 226.7 L 884.3 224.4 L 885.3 222.0 L 886.4 219.5 L 887.4 217.0 L 888.5 214.5 L 889.5 212.0 L 890.5 209.5 L 891.6 206.9 L 892.6 204.4 L 893.7 201.8 L 894.7 199.3 L 895.8 196.8 L 896.8 194.4 L 897.8 192.0 L 898.9 189.6 L 899.9 187.4 L 901.0 185.1 L 902.0 183.0 L 903.0 180.9 L 904.1 179.0 L 905.1 177.1 L 906.2 175.4 L 907.2 173.7 L 908.2 172.2 L 909.3 170.7 L 910.3 169.4 L 911.4 168.3 L 912.4 167.3 L 913.4 166.4 L 914.5 165.6 L 915.5 165.0 L 916.6 164.5 L 917.6 164.2 L 918.7 164.0 L 919.7 164.0 L 920.7 164.1 L 921.8 164.4 L 922.8 164.8 L 923.9 165.4 L 924.9 166.1 L 925.9 166.9 L 927.0 167.9 L 928.0 169.0 L 929.1 170.3 L 930.1 171.6 L 931.1 173.1 L 932.2 174.7 L 933.2 176.5 L 934.3 178.3 L 935.3 180.2 L 936.3 182.3 L 937.4 184.4 L 938.4 186.6 L 939.5 188.8 L 940.5 191.1 L 941.5 193.5 L 942.6 196.0 L 943.6 198.4 L 944.7 200.9 L 945.7 203.5 L 946.8 206.0 L 947.8 208.5 L 948.8 211.1 L 949.9 213.6 L 950.9 216.1 L 952.0 218.6 L 953.0 221.1 L 954.0 223.5 L 955.1 225.9 L 956.1 228.2 L 957.2 230.4 L 958.2 232.5 L 959.2 234.6 L 960.3 236.6 L 961.3 238.5 L 962.4 240.3 L 963.4 242.0 L 964.4 243.5 L 965.5 245.0 L 966.5 246.3 L 967.6 247.5 L 968.6 248.5 L 969.7 249.5 L 970.7 250.2 L 971.7 250.9 L 972.8 251.4 L 973.8 251.7 L 974.9 251.9 L 975.9 252.0 L 976.9 251.9 L 978.0 251.7 L 979.0 251.3 L 980.1 250.8 L 981.1 250.1 L 982.1 249.3 L 983.2 248.3 L 984.2 247.2 L 985.3 246.0 L 986.3 244.7 L 987.3 243.2 L 988.4 241.6 L 989.4 239.9 L 990.5 238.1 L 991.5 236.2 L 992.6 234.2 L 993.6 232.1 L 994.6 229.9 L 995.7 227.7 L 996.7 225.4 L 997.8 223.0 L 998.8 220.6 L 999.8 218.1 L 1000.9 215.6 L 1001.9 213.1 L 1003.0 210.5 L 1004.0 208.0" fill="none" stroke="#f1744e" stroke-width="4" stroke-linecap="round" stroke-linejoin="round"/><circle cx="44" cy="208" r="6" fill="#f1744e"/><text x="60" y="216" fill="#f1744e" font-size="25" font-weight="800" text-anchor="start" font-family="-apple-system, BlinkMacSystemFont, 'Segoe UI', 'Inter', Helvetica, Arial, sans-serif">Parkinson's</text></svg>